<?xml version="1.0" encoding="utf-8"?>
<!-- Generator: Adobe Illustrator 22.1.0, SVG Export Plug-In . SVG Version: 6.00 Build 0)  -->
<svg version="1.1" id="Слой_1" xmlns="http://www.w3.org/2000/svg" xmlns:xlink="http://www.w3.org/1999/xlink" x="0px" y="0px"
	 viewBox="0 0 58 58" style="enable-background:new 0 0 58 58;" xml:space="preserve">
<style type="text/css">
	.st0{fill:url(#SVGID_1_);}
</style>
<linearGradient id="SVGID_1_" gradientUnits="userSpaceOnUse" x1="-331.1139" y1="670.1843" x2="-332.2543" y2="668.9711" gradientTransform="matrix(28 0 0 -24.769 9315 16617.082)">
	<stop  offset="0" style="stop-color:#5DC7FF"/>
	<stop  offset="1" style="stop-color:#4893FF"/>
</linearGradient>
<path class="st0" d="M26.7,16.6c6.4,0,11.7,4.2,11.7,9.4c0,5.2-5.2,9.4-11.7,9.4c-0.6,0-1.2,0-1.8-0.1c-2.5,2.5-5.4,2.9-8.3,3v-0.6
	c1.6-0.8,2.8-2.1,2.8-3.7c0-0.2,0-0.4,0-0.6C16.7,31.6,15,29,15,26C15,20.8,20.2,16.6,26.7,16.6z M39.2,37.7c0,1.4,0.9,2.5,2.2,3.2
	v0.5c-2.5-0.1-4.8-0.4-7-2.6c-0.5,0.1-1,0.1-1.6,0.1c-2.3,0-4.5-0.6-6.2-1.7c3.5,0,6.8-1.1,9.4-3.2c1.3-1,2.3-2.2,3-3.6
	c0.9-1.6,1.2-3.4,1.1-5.3c1.8,1.5,2.8,3.4,2.8,5.6c0,2.5-1.5,4.8-3.7,6.3C39.2,37.3,39.2,37.5,39.2,37.7L39.2,37.7z"/>
</svg>
