<svg xmlns="http://www.w3.org/2000/svg" width="80" height="80" viewBox="0 0 80 80">
    <defs>
        <linearGradient id="a" x1="107.586%" x2="-26.035%" y1="-23.845%" y2="155.724%">
            <stop offset="0%" stop-color="#DCE35B"/>
            <stop offset="100%" stop-color="#45B649"/>
        </linearGradient>
    </defs>
    <g fill="none" fill-rule="evenodd">
        <path fill="#FFF" fill-opacity=".01" fill-rule="nonzero" d="M0 0h80v80H0z"/>
        <path fill="url(#a)" d="M38.613 20.648l-2.597-1.31a3.724 3.724 0 0 1-2.688.946l-1.666 3.642a3.768 3.768 0 0 1 1.078 2.641c0 2.08-1.682 3.77-3.75 3.77a3.76 3.76 0 0 1-3.607-2.735l-2.408-.27a3.751 3.751 0 0 1-3.322 2.022c-.64 0-1.241-.162-1.769-.446L13.03 32.48a1.375 1.375 0 0 1-1.926-.3 1.39 1.39 0 0 1 .3-1.935l4.695-3.455a3.773 3.773 0 0 1-.196-1.206c0-2.079 1.682-3.77 3.75-3.77a3.76 3.76 0 0 1 3.615 2.766l2.386.267a3.753 3.753 0 0 1 3.491-2.046l1.678-3.672a3.767 3.767 0 0 1-1.046-2.61c0-2.079 1.682-3.77 3.75-3.77 2.069 0 3.751 1.691 3.751 3.77 0 .118-.005.235-.016.35l2.602 1.312a3.724 3.724 0 0 1 4.015-.617l6.313-5.694a1.372 1.372 0 0 1 1.947.104 1.39 1.39 0 0 1-.106 1.956l-6.227 5.618c.187.449.29.94.29 1.457 0 2.079-1.681 3.77-3.75 3.77-2.068 0-3.75-1.691-3.75-3.77 0-.12.006-.24.017-.357zm2.798.012a1 1 0 0 0 .935 1.344.997.997 0 0 0 .995-1 .999.999 0 0 0-.995-1 .995.995 0 0 0-.826.442 1.409 1.409 0 0 1-.11.214zm-7.06-3.578a1.405 1.405 0 0 1 .116-.228.999.999 0 0 0-.94-1.334.997.997 0 0 0-.994 1 .995.995 0 1 0 1.818.562zM2.756 34.364h56.05V4.16c0-.766-.62-1.39-1.382-1.39H4.139c-.764 0-1.383.624-1.383 1.39v30.204zm0 2.77v1.085c0 .766.62 1.39 1.383 1.39h53.285c.761 0 1.382-.624 1.382-1.39v-1.085H2.756zm15.756 12.537c.138-.692.45-1.344.912-1.886l1.497-1.762c.216-.25.335-.574.333-.906l-.008-2.74H4.139C1.858 42.377 0 40.512 0 38.22V4.16C0 1.868 1.858 0 4.139 0h53.285c2.28 0 4.136 1.867 4.136 4.16v34.06c0 2.292-1.855 4.157-4.136 4.157H40.302l.003 3.254 1.832 2.154c.463.542.775 1.194.914 1.886h4.138c1.115 0 2.11.755 2.418 1.832l.749 2.612c.22.771.072 1.581-.409 2.22a2.485 2.485 0 0 1-2.009 1.008H5.85c-.796 0-1.53-.368-2.009-1.01a2.507 2.507 0 0 1-.407-2.218l.75-2.614a2.528 2.528 0 0 1 2.415-1.83h11.913zm2.94 0H40.11a2.836 2.836 0 0 0-.067-.086l-2.163-2.542a1.399 1.399 0 0 1-.329-.899l-.005-3.767H24.002l.008 2.734a4.192 4.192 0 0 1-.993 2.714l-1.497 1.76c-.024.03-.048.057-.068.086zM6.17 54.574h41.448l-.61-2.13H6.782l-.612 2.13zm52.684-4.463c-1.708 0-3.096 1.397-3.096 3.114 0 .743.601 1.349 1.342 1.349h6.318c.74 0 1.342-.606 1.342-1.35a3.11 3.11 0 0 0-3.098-3.113h-2.808zm4.564 7.233H57.1c-2.26 0-4.098-1.849-4.098-4.12 0-3.243 2.625-5.881 5.852-5.881h2.808c3.227 0 5.854 2.638 5.854 5.882 0 2.27-1.84 4.119-4.098 4.119zm-43.765-32.76a.997.997 0 0 0-.994 1c0 .552.445 1 .994 1a.997.997 0 0 0 .994-1c0-.552-.445-1-.994-1zm9.337.984a.997.997 0 0 0-.995 1 .999.999 0 0 0 .995 1 1 1 0 0 0 0-2zm-6.213-14.804H9.458a1.38 1.38 0 0 1-1.377-1.386 1.38 1.38 0 0 1 1.377-1.384h13.32c.761 0 1.376.62 1.376 1.384a1.38 1.38 0 0 1-1.377 1.386zm0 5.886H9.458a1.38 1.38 0 0 1-1.377-1.386 1.38 1.38 0 0 1 1.377-1.384h13.32c.761 0 1.376.62 1.376 1.384a1.38 1.38 0 0 1-1.377 1.386z" transform="translate(7 11)"/>
    </g>
</svg>
