<svg xmlns="http://www.w3.org/2000/svg" width="80" height="80" viewBox="0 0 80 80">
    <defs>
        <linearGradient id="a" x1="0%" y1="-11.321%" y2="164.219%">
            <stop offset="0%" stop-color="#FAD961"/>
            <stop offset="100%" stop-color="#F76B1C"/>
        </linearGradient>
    </defs>
    <g fill="none" fill-rule="evenodd">
        <path fill="#FFF" fill-opacity=".01" fill-rule="nonzero" d="M0 0h80v80H0z"/>
        <path fill="url(#a)" d="M51.846 43.833a16.826 16.826 0 0 0-9.65-3.998v.628a1.337 1.337 0 1 1-2.673 0v-.628a16.832 16.832 0 0 0-9.65 3.996l.447.446a1.335 1.335 0 0 1-.946 2.282c-.34 0-.685-.131-.945-.393l-.444-.442a16.852 16.852 0 0 0-3.973 9.645h.604a1.338 1.338 0 1 1 0 2.675h-.6a16.818 16.818 0 0 0 3.927 9.535h7.107a1.338 1.338 0 0 1 0 2.675H20.295a1.338 1.338 0 0 1 0-2.675h4.302c-5.137-7.647-4.267-18.06 2.42-24.745a19.487 19.487 0 0 1 12.347-5.669 48.48 48.48 0 0 1-.521-5.67c-1.023-.917-2.154-1.858-3.424-2.714-.047.06-.1.118-.16.17-.111.1-2.494 2.187-6.116 2.187-.394 0-.802-.025-1.223-.078-3.834-.496-7.435-3.25-10.698-8.182a1.339 1.339 0 0 1 .357-1.84c6.13-4.229 10.456-3.849 13.005-2.787 2.996 1.25 5.17 4.159 5.816 7.779.013.069.02.138.021.206.857.55 1.655 1.135 2.402 1.731a54.16 54.16 0 0 1 .24-3.972 1.332 1.332 0 0 1-.156-.141c-2.653-2.799-3.706-6.557-2.816-10.057 1.011-3.978 4.368-7.078 9.452-8.732a1.342 1.342 0 0 1 1.661.787c2.03 5.224 2.196 9.65.494 13.153-1.894 3.9-5.453 5.216-6 5.398a52.46 52.46 0 0 0-.226 5.56 30.684 30.684 0 0 1 3.045-1.776c.006-.073.019-.146.038-.219.04-.16 1.049-3.934 4.947-5.957 3.388-1.756 7.786-1.63 13.079.373a1.34 1.34 0 0 1 .79 1.69c-1.775 5.116-4.967 8.472-8.989 9.448-.777.188-1.568.28-2.359.28-2.598 0-5.172-.994-7.087-2.812-1.243.682-2.354 1.407-3.144 2.046-.06.049-.124.092-.19.128.1 1.381.254 2.725.466 3.982A19.49 19.49 0 0 1 54.7 42.834c6.687 6.684 7.558 17.098 2.42 24.745h4.986a1.338 1.338 0 1 1 0 2.675H45.967a1.337 1.337 0 0 1 0-2.675h7.807a16.82 16.82 0 0 0 3.928-9.535h-.599a1.338 1.338 0 0 1 0-2.675h.603a16.847 16.847 0 0 0-3.973-9.644l-.442.441a1.328 1.328 0 0 1-1.89 0 1.335 1.335 0 0 1 .001-1.889l.444-.444zm-12.328 3.246v-1.454a1.336 1.336 0 1 1 2.673 0v1.468c2.997.53 5.252 2.75 5.252 5.401 0 .74-.6 1.339-1.336 1.339-.738 0-1.337-.6-1.337-1.339 0-1.527-1.775-2.82-3.888-2.848a1.358 1.358 0 0 1-.072 0c-2.139 0-3.948 1.304-3.948 2.848 0 .935.98 2.865 4.006 2.865 4.855 0 6.665 3.374 6.665 5.5 0 2.675-2.301 4.91-5.342 5.411v1.458a1.336 1.336 0 1 1-2.673 0v-1.473c-2.991-.531-5.241-2.748-5.241-5.396a1.338 1.338 0 0 1 2.675 0c0 1.541 1.808 2.842 3.948 2.842 2.146 0 3.958-1.3 3.958-2.842 0-.732-.734-2.825-3.99-2.825-4.609 0-6.68-3.24-6.68-5.54 0-2.675 2.295-4.912 5.33-5.415zm8.663-20.468c.524-.18 1.043-.336 1.548-.462a1.337 1.337 0 1 1 .65 2.594c-.89.223-1.849.56-2.805.965 1.77 1.266 4.054 1.731 6.177 1.215 2.793-.677 5.11-2.962 6.614-6.483-3.966-1.295-7.201-1.313-9.632-.054a7.265 7.265 0 0 0-2.552 2.225zm-6.052-5.363c.99-.595 2.33-1.67 3.183-3.45 1.218-2.542 1.162-5.818-.156-9.748-3.493 1.412-5.775 3.656-6.473 6.406-.5 1.967-.161 4.058.902 5.88.192-.991.419-1.906.68-2.718a1.335 1.335 0 0 1 1.68-.863c.706.225 1.093.978.867 1.681-.267.83-.495 1.779-.683 2.812zm-9.184 6.088a18.2 18.2 0 0 0-2.6-1.047 1.337 1.337 0 1 1 .802-2.551c.705.222 1.38.476 2.025.755-.754-1.758-2.028-3.11-3.618-3.773-2.513-1.048-5.72-.429-9.334 1.788 2.585 3.56 5.287 5.543 8.043 5.9 2.156.282 3.862-.553 4.682-1.072zM49.35 75.22H32.371a1.338 1.338 0 1 1 0-2.674H49.35a1.338 1.338 0 0 1 0 2.674z"/>
    </g>
</svg>
