<svg xmlns="http://www.w3.org/2000/svg" width="80" height="80" viewBox="0 0 80 80">
    <defs>
        <linearGradient id="a" x1="88.545%" x2="9.898%" y1="-2.94%" y2="104.784%">
            <stop offset="0%" stop-color="#FF8F99"/>
            <stop offset="100%" stop-color="#E33751"/>
        </linearGradient>
    </defs>
    <g fill="none" fill-rule="evenodd">
        <path fill="#FFF" fill-opacity=".01" fill-rule="nonzero" d="M0 0h80v80H0z"/>
        <path fill="url(#a)" d="M43.709 38.285c.074-.17.18-.316.307-.436.953-1.438 1.603-3.262 1.603-5.18 0-3.75-2.445-6.37-5.943-6.37-3.5 0-5.944 2.62-5.944 6.37 0 4.057 3 8.19 5.944 8.19 1.34 0 2.864-1.009 4.033-2.574zm-9.82 2.208a13.937 13.937 0 0 0-2.712 1.667 6.203 6.203 0 0 0-2.198 6.332l.084.348a6.182 6.182 0 0 0 1.85 3.125 6.155 6.155 0 0 0 3.292 1.552 40.64 40.64 0 0 0 10.994.083l.402-.058a6.186 6.186 0 0 0 5.373-5.407 6.227 6.227 0 0 0-2.329-5.61l-.463-.367a13.623 13.623 0 0 0-2.807-1.708c-1.582 1.865-3.631 3.082-5.7 3.082-2.155 0-4.22-1.183-5.787-3.039zm-1.487-2.253a12.381 12.381 0 0 1-1.345-5.57c0-5.24 3.626-9.045 8.619-9.045s8.617 3.805 8.617 9.045c0 1.934-.532 3.856-1.411 5.533 1.047.51 2.037 1.13 2.956 1.855l.46.366a8.908 8.908 0 0 1 3.33 8.033 8.852 8.852 0 0 1-7.669 7.736l-.401.056c-1.86.24-3.723.359-5.578.359-2.065 0-4.12-.15-6.154-.443a8.82 8.82 0 0 1-4.714-2.221 8.861 8.861 0 0 1-2.65-4.474l-.084-.352a8.885 8.885 0 0 1 3.15-9.064 16.639 16.639 0 0 1 2.874-1.814zm8.848 25.01c.823-.046 1.65-.135 2.47-.265a23.332 23.332 0 0 0 19.268-19.272 1.337 1.337 0 0 1 2.639.43 26.006 26.006 0 0 1-21.48 21.482 27.31 27.31 0 0 1-2.897.303v9.554a1.338 1.338 0 0 1-2.677 0V60.48a1.338 1.338 0 0 1 2.677 0v2.77zm-2.677-49.359V4.34a1.339 1.339 0 1 1 2.677 0v15c0 .74-.6 1.337-1.338 1.337-.74 0-1.339-.598-1.339-1.337v-2.77c-.821.047-1.648.136-2.469.267a23.344 23.344 0 0 0-19.27 19.271 1.337 1.337 0 0 1-2.638-.434 26.02 26.02 0 0 1 21.48-21.478 27.097 27.097 0 0 1 2.897-.305zM13.89 41.246H4.337a1.336 1.336 0 1 1 0-2.672H15.15a1.363 1.363 0 0 1 .088 0h4.102a1.336 1.336 0 1 1 0 2.672h-2.77c.046.824.135 1.65.265 2.472A23.334 23.334 0 0 0 36.11 62.985a1.336 1.336 0 1 1-.433 2.64 26.008 26.008 0 0 1-21.481-21.48 27.414 27.414 0 0 1-.305-2.899zm49.364-2.672a24.94 24.94 0 0 0-.266-2.472 23.344 23.344 0 0 0-19.273-19.265A1.34 1.34 0 0 1 42.61 15.3c.119-.728.8-1.223 1.536-1.103a26.022 26.022 0 0 1 21.48 21.478c.154.966.256 1.936.306 2.899h9.553a1.337 1.337 0 0 1 0 2.673H60.483a1.336 1.336 0 1 1 0-2.673h2.771zm6.766-5.635a1.341 1.341 0 0 1-1.29-.985c-2.772-10.094-10.766-18.087-20.862-20.86a1.336 1.336 0 0 1-.935-1.643 1.332 1.332 0 0 1 1.643-.935c11.001 3.02 19.713 11.732 22.734 22.732a1.336 1.336 0 0 1-1.29 1.691zM31.6 71.356c-.117 0-.236-.016-.356-.046-11-3.023-19.713-11.734-22.734-22.734a1.337 1.337 0 0 1 2.58-.708c2.774 10.094 10.768 18.089 20.863 20.862a1.337 1.337 0 0 1-.354 2.626zM9.8 32.94a1.336 1.336 0 0 1-1.29-1.692c3.02-10.99 11.73-19.696 22.734-22.719a1.338 1.338 0 0 1 .709 2.58C21.855 13.881 13.86 21.869 11.09 31.954a1.343 1.343 0 0 1-1.29.985zm38.421 38.417a1.338 1.338 0 0 1-.353-2.626c10.086-2.771 18.076-10.765 20.848-20.862a1.336 1.336 0 1 1 2.58.709C68.276 59.58 59.569 68.288 48.577 71.31c-.118.03-.238.046-.355.046z"/>
    </g>
</svg>
