<svg xmlns="http://www.w3.org/2000/svg" width="80" height="80" viewBox="0 0 80 80">
    <defs>
        <linearGradient id="a" x1="115.89%" x2="-18.054%" y1="-27.064%" y2="114.547%">
            <stop offset="0%" stop-color="#8FFFD8"/>
            <stop offset="100%" stop-color="#37AAE3"/>
        </linearGradient>
    </defs>
    <g fill="none" fill-rule="evenodd">
        <path fill="#FFF" fill-opacity=".01" fill-rule="nonzero" d="M0 0h80v80H0z"/>
        <path fill="url(#a)" d="M19.675 18.515V63.78a4.057 4.057 0 0 0 4.045 4.058h32.912c2.23 0 4.043-1.82 4.043-4.058V21.92a1.338 1.338 0 0 1 2.675 0V63.78c0 3.712-3.015 6.733-6.718 6.733H23.72c-3.704 0-6.72-3.021-6.72-6.733V14.204c0-.143.023-.281.064-.41A5.08 5.08 0 0 1 22.13 9h36.078a5.08 5.08 0 0 1 5.075 5.075 5.08 5.08 0 0 1-5.075 5.075H22.13c-.89 0-1.727-.23-2.455-.635zm2.455-6.84a2.405 2.405 0 0 0-2.4 2.4c0 1.324 1.078 2.4 2.4 2.4h36.078a2.401 2.401 0 0 0 0-4.8H22.13zm18.04 3.868a1.468 1.468 0 0 1 0-2.935 1.467 1.467 0 0 1 0 2.935zm-10.937 0a1.468 1.468 0 0 1 0-2.935 1.467 1.467 0 0 1 0 2.935zm21.875 0a1.468 1.468 0 0 1 0-2.935 1.467 1.467 0 0 1 0 2.935zm4.86 10.538H24.373a1.338 1.338 0 1 1 0-2.674h31.595a1.338 1.338 0 1 1 0 2.674zm-2.998 6.49H27.368a1.336 1.336 0 1 1 0-2.672H52.97a1.337 1.337 0 1 1 0 2.673zm0 6.491H27.368a1.338 1.338 0 0 1 0-2.672H52.97a1.337 1.337 0 1 1 0 2.672zm0 6.49H27.368a1.338 1.338 0 0 1 0-2.674H52.97a1.338 1.338 0 1 1 0 2.675zm0 6.491H27.368a1.338 1.338 0 0 1 0-2.674H52.97a1.338 1.338 0 1 1 0 2.674zm-12.463 6.49H27.369a1.338 1.338 0 0 1 0-2.674h13.138a1.338 1.338 0 1 1 0 2.675zm0 6.491H27.369a1.338 1.338 0 0 1 0-2.674h13.138a1.338 1.338 0 1 1 0 2.674zm5.655-.228a1.337 1.337 0 0 1-1.317-1.56l1.241-7.344a1.331 1.331 0 0 1 1.54-1.094c.73.122 1.22.812 1.098 1.54l-.427 2.52 1.638-1.94a1.338 1.338 0 0 1 2.357.915l-.054 1.406 3.672-3.423a1.336 1.336 0 1 1 1.823 1.958l-6.047 5.636c-.397.37-.976.46-1.468.235a1.333 1.333 0 0 1-.78-1.267l.03-.76-2.284 2.703c-.26.309-.636.475-1.022.475z"/>
    </g>
</svg>
