<svg xmlns="http://www.w3.org/2000/svg" width="80" height="80" viewBox="0 0 80 80">
    <defs>
        <linearGradient id="a" x1="100%" x2="0%" y1="0%" y2="100%">
            <stop offset="0%" stop-color="#AE99EC"/>
            <stop offset="100%" stop-color="#7354E3"/>
        </linearGradient>
    </defs>
    <g fill="none" fill-rule="evenodd">
        <path fill="#FFF" fill-opacity=".01" fill-rule="nonzero" d="M0 0h80v80H0z"/>
        <path fill="url(#a)" d="M38.156 9.368H24.132v16.06h34.806l6.457-7.838-6.474-8.222H38.156zm-9.563-2.5V.75h9.563v6.118h21.129a1.75 1.75 0 0 1 1.375.668l7.073 8.982a1.75 1.75 0 0 1-.024 2.195l-7.067 8.577a1.75 1.75 0 0 1-1.35.638h-35.91a1.75 1.75 0 0 1-1.75-1.75V8.618c0-.966.783-1.75 1.75-1.75h5.21zm2.5 0h4.563V3.25h-4.563v3.618zm-2.5 51.395V38.635H9.76a2.25 2.25 0 0 1-1.728-.81l-6.877-8.247a1.75 1.75 0 0 1-.025-2.211l6.884-8.638a2.25 2.25 0 0 1 1.76-.847h6.987a1.25 1.25 0 1 1 0 2.5H9.895l-6.427 8.065 6.41 7.688h34.64v-4.05a1.25 1.25 0 1 1 2.5 0v4.3a2.25 2.25 0 0 1-2.25 2.25h-6.612v19.628h6.383a1.25 1.25 0 0 1 0 2.5H22.516a1.25 1.25 0 0 1 0-2.5h6.077zm2.5 0h4.563V38.635h-4.563v19.628zM15.33 66.148a1.25 1.25 0 1 1 0-2.5H51.63a1.25 1.25 0 0 1 0 2.5H15.33zm14.13-45.053a1.25 1.25 0 1 1 0-2.5h25.102a1.25 1.25 0 1 1 0 2.5H29.461zm0-4.996a1.25 1.25 0 0 1 0-2.5h12.795a1.25 1.25 0 0 1 0 2.5H29.46z" transform="translate(6 6)"/>
    </g>
</svg>
