<?xml version="1.0" encoding="utf-8"?>
<!-- Generator: Adobe Illustrator 22.1.0, SVG Export Plug-In . SVG Version: 6.00 Build 0)  -->
<svg version="1.1" id="Слой_1" xmlns="http://www.w3.org/2000/svg" xmlns:xlink="http://www.w3.org/1999/xlink" x="0px" y="0px"
	 viewBox="0 0 58 58" style="enable-background:new 0 0 58 58;" xml:space="preserve">
<style type="text/css">
	.st0{fill:url(#SVGID_1_);}
</style>
<linearGradient id="SVGID_1_" gradientUnits="userSpaceOnUse" x1="-328.3349" y1="673.7292" x2="-329.4753" y2="672.5161" gradientTransform="matrix(23.333 0 0 -28 7701.3335 18879)">
	<stop  offset="0" style="stop-color:#5DC7FF"/>
	<stop  offset="1" style="stop-color:#4893FF"/>
</linearGradient>
<path class="st0" d="M38.3,15H19.7v2.3h18.7V15z M19.7,43h18.7v-2.3H19.7V43z M38.3,19.7H19.7c-1.3,0-2.3,1-2.3,2.3v14
	c0,1.3,1,2.3,2.3,2.3h18.7c1.3,0,2.3-1,2.3-2.3V22C40.7,20.7,39.6,19.7,38.3,19.7z M29,22.9c1.4,0,2.6,1.2,2.6,2.6
	c0,1.4-1.2,2.6-2.6,2.6c-1.4,0-2.6-1.2-2.6-2.6C26.4,24.1,27.6,22.9,29,22.9z M34.8,34.8H23.2v-1.8c0-1.9,3.9-2.9,5.8-2.9
	c1.9,0,5.8,1,5.8,2.9V34.8z"/>
</svg>
