<?xml version="1.0" encoding="utf-8"?>
<!-- Generator: Adobe Illustrator 22.1.0, SVG Export Plug-In . SVG Version: 6.00 Build 0)  -->
<svg version="1.1" id="Слой_1" xmlns="http://www.w3.org/2000/svg" xmlns:xlink="http://www.w3.org/1999/xlink" x="0px" y="0px"
	 viewBox="0 0 58 58" style="enable-background:new 0 0 58 58;" xml:space="preserve">
<style type="text/css">
	.st0{fill:url(#SVGID_1_);}
</style>
<linearGradient id="SVGID_1_" gradientUnits="userSpaceOnUse" x1="-330.1313" y1="664.1566" x2="-331.2717" y2="662.9434" gradientTransform="matrix(26 0 0 -19.949 8625 13267.9883)">
	<stop  offset="0" style="stop-color:#5DC7FF"/>
	<stop  offset="1" style="stop-color:#4893FF"/>
</linearGradient>
<path class="st0" d="M40.5,19h-23c-0.8,0-1.5,0.8-1.5,1.8v16.4c0,1,0.7,1.8,1.5,1.8h23c0.8,0,1.5-0.8,1.5-1.8V20.8
	C42,19.8,41.3,19,40.5,19z M35.7,22.8c0-0.2,0.2-0.4,0.4-0.4h1.8c0.2,0,0.4,0.2,0.4,0.4v1.8c0,0.2-0.2,0.4-0.4,0.4h-1.8
	c-0.2,0-0.4-0.2-0.4-0.4V22.8z M30.4,22.8c0-0.2,0.2-0.4,0.4-0.4h1.8c0.2,0,0.4,0.2,0.4,0.4v1.8c0,0.2-0.2,0.4-0.4,0.4h-1.8
	c-0.2,0-0.4-0.2-0.4-0.4V22.8z M25.1,22.8c0-0.2,0.2-0.4,0.4-0.4h1.8c0.2,0,0.4,0.2,0.4,0.4v1.8c0,0.2-0.2,0.4-0.4,0.4h-1.8
	c-0.2,0-0.4-0.2-0.4-0.4V22.8z M19.8,22.8c0-0.2,0.2-0.4,0.4-0.4H22c0.2,0,0.4,0.2,0.4,0.4v1.8c0,0.2-0.2,0.4-0.4,0.4h-1.8
	c-0.2,0-0.4-0.2-0.4-0.4V22.8z M35.7,28.3c0-0.2,0.2-0.4,0.4-0.4h1.8c0.2,0,0.4,0.2,0.4,0.4V30c0,0.2-0.2,0.4-0.4,0.4h-1.8
	c-0.2,0-0.4-0.2-0.4-0.4V28.3z M30.4,28.3c0-0.2,0.2-0.4,0.4-0.4h1.8c0.2,0,0.4,0.2,0.4,0.4V30c0,0.2-0.2,0.4-0.4,0.4h-1.8
	c-0.2,0-0.4-0.2-0.4-0.4V28.3z M25.1,28.3c0-0.2,0.2-0.4,0.4-0.4h1.8c0.2,0,0.4,0.2,0.4,0.4V30c0,0.2-0.2,0.4-0.4,0.4h-1.8
	c-0.2,0-0.4-0.2-0.4-0.4V28.3z M19.8,28.3c0-0.2,0.2-0.4,0.4-0.4H22c0.2,0,0.4,0.2,0.4,0.4V30c0,0.2-0.2,0.4-0.4,0.4h-1.8
	c-0.2,0-0.4-0.2-0.4-0.4V28.3z M35.7,35.2c0,0.2-0.2,0.4-0.4,0.4H22.8c-0.2,0-0.4-0.2-0.4-0.4v-1.8c0-0.2,0.2-0.4,0.4-0.4h12.4
	c0.2,0,0.4,0.2,0.4,0.4V35.2z"/>
</svg>
