<svg xmlns="http://www.w3.org/2000/svg" width="80" height="80" viewBox="0 0 80 80">
    <defs>
        <linearGradient id="a" x1="0%" x2="113.956%" y1="-22.804%" y2="144.367%">
            <stop offset="0%" stop-color="#12ADFF"/>
            <stop offset="100%" stop-color="#1876FF"/>
        </linearGradient>
    </defs>
    <g fill="none" fill-rule="evenodd">
        <path fill="#FFF" fill-opacity=".01" fill-rule="nonzero" d="M0 0h80v80H0z"/>
        <path fill="url(#a)" d="M6 25.769v-7.532c0-1.155.937-2.092 2.092-2.092H23.04c.783 0 1.417.636 1.417 1.42 0 .784-.634 1.42-1.417 1.42H9.88c-.578 0-1.047.469-1.047 1.046v5.738H23.04c.783 0 1.417.636 1.417 1.42 0 .784-.634 1.42-1.417 1.42H8.833v36.505c0 .577.469 1.046 1.046 1.046h54.575c.578 0 1.046-.469 1.046-1.046V47.982c0-.784.634-1.42 1.417-1.42.782 0 1.416.636 1.416 1.42v18.926A2.092 2.092 0 0 1 66.241 69H8.092A2.092 2.092 0 0 1 6 66.908v-41.14zm48.994 14.669h13.34c1.562 0 2.833-1.281 2.833-2.867V14.707c0-1.585-1.27-2.867-2.834-2.867H32.917c-1.563 0-2.834 1.282-2.834 2.867v15.077c0 .785-.634 1.42-1.416 1.42a1.418 1.418 0 0 1-1.417-1.42V14.707c0-3.15 2.535-5.707 5.667-5.707h35.416C71.465 9 74 11.557 74 14.707v22.864c0 3.15-2.535 5.707-5.667 5.707h-12.16l-9.917 10.003c-1.786 1.801-4.84.526-4.84-2.012v-9.411c0-.784.635-1.42 1.417-1.42.783 0 1.417.636 1.417 1.42v9.411l10.744-10.831zM41.417 61.193c0 .784-.635 1.42-1.417 1.42a1.418 1.418 0 0 1-1.417-1.42v-1.627c0-1.074-1.294-2.303-3.634-3.331-2.087-.917-4.743-1.525-6.282-1.525-1.54 0-4.196.608-6.283 1.525-2.34 1.028-3.634 2.257-3.634 3.331v1.627c0 .784-.634 1.42-1.417 1.42a1.418 1.418 0 0 1-1.416-1.42v-1.627c0-1.38.642-2.622 1.769-3.692.905-.86 2.12-1.608 3.561-2.24 2.431-1.068 5.47-1.764 7.42-1.764 1.949 0 4.988.696 7.419 1.763 1.441.633 2.657 1.381 3.562 2.241 1.126 1.07 1.769 2.312 1.769 3.692v1.627zm-12.75-26.471c3.902 0 7.083 3.188 7.083 7.11v1.488c0 3.923-3.18 7.112-7.083 7.112s-7.084-3.19-7.084-7.112v-1.488c0-3.922 3.181-7.11 7.084-7.11zm0 2.84c-2.338 0-4.25 1.917-4.25 4.27v1.488c0 2.354 1.912 4.271 4.25 4.271s4.25-1.917 4.25-4.271v-1.488c0-2.353-1.913-4.27-4.25-4.27zm9.916-10.003a1.418 1.418 0 0 1-1.416-1.42c0-.784.634-1.42 1.416-1.42h24.084c.782 0 1.416.636 1.416 1.42 0 .784-.634 1.42-1.416 1.42H38.583zm0-5.716a1.418 1.418 0 0 1-1.416-1.42c0-.784.634-1.42 1.416-1.42h24.084c.782 0 1.416.636 1.416 1.42 0 .784-.634 1.42-1.416 1.42H38.583zm0 11.432a1.418 1.418 0 0 1-1.416-1.42c0-.784.634-1.42 1.416-1.42h12.75c.783 0 1.417.636 1.417 1.42 0 .784-.634 1.42-1.417 1.42h-12.75zm-25.52-9.536a1.418 1.418 0 0 1-1.417-1.42c0-.785.635-1.42 1.417-1.42h.116c.783 0 1.417.635 1.417 1.42 0 .784-.634 1.42-1.417 1.42h-.116zm5.55 0a1.418 1.418 0 0 1-1.416-1.42c0-.785.634-1.42 1.416-1.42h.117c.782 0 1.416.635 1.416 1.42 0 .784-.634 1.42-1.416 1.42h-.117z"/>
    </g>
</svg>
