<?xml version="1.0" encoding="UTF-8"?>
<svg width="16px" height="16px" viewBox="0 0 16 16" version="1.1" xmlns="http://www.w3.org/2000/svg" xmlns:xlink="http://www.w3.org/1999/xlink">
    <!-- Generator: Sketch 50.2 (55047) - http://www.bohemiancoding.com/sketch -->
    <title>favicon-safari</title>
    <desc>Created with Sketch.</desc>
    <defs></defs>
    <g id="favicon-safari" stroke="none" stroke-width="1" fill="none" fill-rule="evenodd">
        <g id="Logo-Invert" fill="#000000" fill-rule="nonzero">
            <path d="M0,0 L0,16 L16,16 L16,0 L0,0 Z M7.9,4.5 C8,4.5 8.1,4.5 8.1,4.5 L10.7,6 L8,7.7 L5.3,6 L7.9,4.5 Z M8.1,11.5 C8,11.5 7.9,11.5 7.9,11.5 L2.4,8.2 C2.3,8.1 2.2,8 2.3,7.9 C2.3,7.9 2.3,7.8 2.4,7.8 L4.8,6.4 L10.7,10 L8.1,11.5 Z M13.7,8.1 C13.7,8.2 13.7,8.2 13.7,8.1 L11.2,9.6 L8.5,8 L11.2,6.4 L13.6,7.8 C13.7,7.9 13.8,8 13.7,8.1 Z" id="Shape"></path>
        </g>
    </g>
</svg>