<?xml version="1.0" encoding="utf-8"?>
<!-- Generator: Adobe Illustrator 22.1.0, SVG Export Plug-In . SVG Version: 6.00 Build 0)  -->
<svg version="1.1" id="Слой_1" xmlns="http://www.w3.org/2000/svg" xmlns:xlink="http://www.w3.org/1999/xlink" x="0px" y="0px"
	 viewBox="0 0 23.3 28" style="enable-background:new 0 0 23.3 28;" xml:space="preserve">
<g>
	<rect x="2.3" width="18.7" height="2.3"/>
	<rect x="2.3" y="25.7" width="18.7" height="2.3"/>
	<path d="M21,4.7H2.3C1,4.7,0,5.7,0,7v14c0,1.3,1,2.3,2.3,2.3H21c1.3,0,2.3-1,2.3-2.3V7C23.3,5.7,22.3,4.7,21,4.7z M11.7,7.9
		c1.4,0,2.6,1.2,2.6,2.6c0,1.4-1.2,2.6-2.6,2.6c-1.4,0-2.6-1.2-2.6-2.6C9,9.1,10.2,7.9,11.7,7.9z M17.5,19.8H5.8v-1.8
		c0-1.9,3.9-2.9,5.8-2.9c1.9,0,5.8,1,5.8,2.9V19.8z"/>
</g>
</svg>
