<?xml version="1.0" encoding="utf-8"?>
<!-- Generator: Adobe Illustrator 21.0.0, SVG Export Plug-In . SVG Version: 6.00 Build 0)  -->
<svg version="1.1" id="Слой_1" xmlns="http://www.w3.org/2000/svg" xmlns:xlink="http://www.w3.org/1999/xlink" x="0px" y="0px"
	 viewBox="0 0 11.2 16" style="enable-background:new 0 0 11.2 16;" xml:space="preserve">
<path d="M8.4,3.4l-1,2.9l1,0.2c1-2.7,1.5-4.2,1.5-4.6c0-0.3-0.1-0.5-0.3-0.5C9.2,1.4,8.8,2,8.4,3.4z M5.7,9.5L6,10.3
	C6.3,10,6.5,9.8,6.7,9.7l-0.3,0L6,9.6L5.7,9.5z M3.1,1.5c0,0.6,0.5,2.1,1.4,4.7C4.7,6.1,4.8,6.1,5,6.1c0.1,0,0.3,0,0.7,0L4.6,3
	C4.1,1.7,3.8,1,3.5,1C3.4,1,3.3,1.1,3.2,1.2C3.2,1.3,3.1,1.4,3.1,1.5z M2.4,8.3c0,0.2,0.2,0.6,0.5,1.1c0.3,0.5,0.7,0.9,1,1.4
	s0.7,0.6,0.9,0.6c0.1,0,0.2,0,0.2-0.1c0.1-0.1,0.1-0.2,0.1-0.2c0-0.1-0.1-0.4-0.3-0.9C4.8,9.9,4.7,9.7,4.6,9.4
	C4.5,9.2,4.3,8.9,4.2,8.6C4,8.3,3.8,8.1,3.6,7.9C3.4,7.7,3.2,7.6,3.1,7.6c-0.1,0-0.3,0.1-0.4,0.2C2.5,8,2.4,8.2,2.4,8.3z M1,11.3
	c0,0.2,0.1,0.6,0.2,0.9c0.4,0.9,0.9,1.5,1.6,2C3.6,14.7,4.5,15,5.4,15c1.4,0,2.5-0.5,3.4-1.5c0.9-1,1.4-2.3,1.4-3.8
	c0-0.3,0-0.5,0-0.6c0-0.1,0-0.3-0.1-0.6C10,8.3,9.9,8.1,9.8,8c-0.3-0.3-1-0.5-1.9-0.7S6.2,7.1,5.5,7.1c-0.2,0-0.4,0-0.4,0.1
	C5,7.2,4.9,7.3,4.9,7.5C4.9,7.7,5,7.9,5.1,8c0.1,0.2,0.3,0.3,0.5,0.4S6,8.5,6.3,8.6c0.3,0.1,0.5,0.1,0.8,0.1s0.5,0,0.8,0
	c0.2,0,0.5,0,0.6,0h0.2c0.1,0,0.3,0.1,0.4,0.2C9.1,9,9.2,9.2,9.2,9.4C9,9.6,8.8,9.7,8.3,9.9C8,10,7.7,10.1,7.5,10.3
	c-0.4,0.3-0.7,0.6-1,1c-0.3,0.4-0.4,0.8-0.4,1.2c0,0.2,0.1,0.4,0.2,0.8s0.2,0.6,0.2,0.8l0,0.1c0,0.1,0,0.1,0,0.1
	c-0.8-0.1-1.2-0.7-1.3-1.9c0,0-0.2,0-0.4,0c0,0,0,0.1,0,0.2c0,0.3-0.1,0.6-0.4,0.8s-0.5,0.3-0.8,0.3c-0.5,0-1-0.2-1.5-0.7
	s-0.8-0.9-0.8-1.4c0-0.2,0.1-0.4,0.3-0.6c0.3,0.4,0.5,0.6,0.5,0.7c0.5,0.6,0.9,0.9,1.2,0.9c0.1,0,0.2,0,0.2-0.1
	c0.1-0.1,0.1-0.1,0.1-0.2c0-0.2-0.3-0.6-0.8-1.3s-0.9-1-1-1c-0.3,0-0.5,0.1-0.6,0.4S1,11,1,11.3z M0,11.4c0-0.6,0.1-1.1,0.4-1.5
	S1,9.3,1.6,9.1C1.4,8.7,1.3,8.4,1.3,8.2c0-0.4,0.2-0.7,0.5-1.1C2.3,6.7,2.6,6.5,3,6.5c0.2,0,0.4,0,0.6,0.1c-1-2.7-1.5-4.4-1.5-5.1
	c0-0.5,0.1-0.9,0.4-1.2S3.1,0,3.6,0c0.8,0,1.7,1.7,2.9,5.2c0,0.1,0.1,0.2,0.1,0.2c0-0.1,0.1-0.3,0.3-0.7C6.9,4.3,7.1,4,7.2,3.6
	s0.3-0.7,0.5-1.1c0.2-0.4,0.4-0.8,0.6-1.1s0.4-0.6,0.6-0.8c0.2-0.2,0.5-0.3,0.7-0.3c0.4,0,0.8,0.1,1,0.4s0.4,0.7,0.4,1.1
	c0,0.6-0.5,2.3-1.4,4.9c0.4,0.1,0.7,0.2,0.9,0.4c0.2,0.2,0.4,0.4,0.5,0.7c0.1,0.3,0.2,0.6,0.2,0.8c0,0.3,0.1,0.6,0.1,1
	c0,0.9-0.1,1.7-0.4,2.5s-0.7,1.4-1.2,2c-0.5,0.6-1.1,1-1.9,1.3C7,15.8,6.2,16,5.3,16c-0.7,0-1.3-0.1-2-0.4c-0.9-0.3-1.7-0.9-2.3-1.7
	C0.3,13.1,0,12.3,0,11.4z"/>
</svg>
