<?xml version="1.0" encoding="utf-8"?>
<!-- Generator: Adobe Illustrator 21.0.0, SVG Export Plug-In . SVG Version: 6.00 Build 0)  -->
<svg version="1.1" id="Слой_1" xmlns="http://www.w3.org/2000/svg" xmlns:xlink="http://www.w3.org/1999/xlink" x="0px" y="0px"
	 viewBox="0 0 35.6 13" style="enable-background:new 0 0 35.6 13;" xml:space="preserve">
<style type="text/css">
	.st0{fill:#6B50FF;}
</style>
<title>Group 13</title>
<desc>Created with Sketch.</desc>
<g>
	<path class="st0" d="M18.4,7.1c0.2-0.2,0.2-0.5,0.2-0.7c0-0.3-0.2-0.5-0.4-0.7l-6.8-5.5C11.3,0.1,11.1,0,10.8,0H1
		C0.7,0,0.4,0.1,0.2,0.4c-0.3,0.4-0.3,1.1,0.1,1.4l5.8,4.7l-5.8,4.7C0.1,11.4,0,11.7,0,12c0,0.6,0.4,1,1,1h9.8
		c0.2,0,0.5-0.1,0.6-0.2l6.8-5.5L18.4,7.1z M10.6,11.4H2.7l6-4.9l-6-4.9h7.9l6,4.9L10.6,11.4z"/>
	<path class="st0" d="M35.2,5.7l-6.8-5.5C28.3,0.1,28.1,0,27.8,0H18c-0.3,0-0.6,0.1-0.8,0.4c-0.3,0.4-0.3,1.1,0.1,1.4l5.8,4.7
		l-5.8,4.7C17.1,11.4,17,11.7,17,12c0,0.6,0.4,1,1,1h9.8c0.2,0,0.5-0.1,0.6-0.2l6.8-5.5l0.1-0.1C35.7,6.7,35.7,6.1,35.2,5.7z
		 M27.6,11.4h-7.9l6-4.9l-6-4.9h7.9l6,4.9L27.6,11.4z"/>
</g>
</svg>
