<?xml version="1.0" encoding="utf-8"?>
<!-- Generator: Adobe Illustrator 21.0.0, SVG Export Plug-In . SVG Version: 6.00 Build 0)  -->
<svg version="1.1" id="Слой_1" xmlns="http://www.w3.org/2000/svg" xmlns:xlink="http://www.w3.org/1999/xlink" x="0px" y="0px"
	 viewBox="0 0 22.5 22.5" style="enable-background:new 0 0 22.5 22.5;" xml:space="preserve">
<style type="text/css">
	.st0{fill:#6B47FF;}
</style>
<title>Shape</title>
<desc>Created with Sketch.</desc>
<g>
	<path class="st0" d="M8.5,14.7c0-0.2-0.1-0.4-0.2-0.5c-0.3-0.3-0.7-0.3-1,0L6,15.6l-1.4-1.4c-0.3-0.3-0.7-0.3-1,0
		c-0.3,0.3-0.3,0.7,0,1L5,16.5l-1.4,1.4c-0.3,0.3-0.3,0.7,0,1c0.3,0.3,0.7,0.3,1,0L6,17.5l1.4,1.4c0.1,0.1,0.3,0.2,0.5,0.2
		c0.2,0,0.4-0.1,0.5-0.2c0.1-0.1,0.2-0.3,0.2-0.5c0-0.2-0.1-0.4-0.2-0.5l-1.4-1.4l1.4-1.4C8.5,15,8.5,14.8,8.5,14.7z"/>
	<circle class="st0" cx="16.5" cy="18.3" r="0.7"/>
	<path class="st0" d="M8.6,5.3H6.7V3.3c0-0.4-0.3-0.7-0.7-0.7c-0.4,0-0.7,0.3-0.7,0.7v1.9H3.3C2.9,5.3,2.6,5.6,2.6,6
		c0,0.4,0.3,0.7,0.7,0.7h1.9v1.9C5.3,9,5.6,9.3,6,9.3c0.4,0,0.7-0.3,0.7-0.7V6.7h1.9C9,6.7,9.3,6.4,9.3,6C9.3,5.6,9,5.3,8.6,5.3z"/>
	<circle class="st0" cx="16.5" cy="14.8" r="0.7"/>
	<path class="st0" d="M19.2,15.8h-5.3c-0.4,0-0.7,0.3-0.7,0.7c0,0.4,0.3,0.7,0.7,0.7h5.3c0.4,0,0.7-0.3,0.7-0.7
		C19.9,16.1,19.6,15.8,19.2,15.8z"/>
	<path class="st0" d="M0,0v22.5h22.5V0H0z M1.4,10.6V1.4h9.2v9.2H1.4z M1.4,21.1v-9.2h9.2v9.2H1.4z M11.9,10.6V1.4h9.2v9.2H11.9z
		 M11.9,21.1v-9.2h9.2v9.2H11.9z"/>
	<path class="st0" d="M19.2,5.3h-5.3c-0.4,0-0.7,0.3-0.7,0.7c0,0.4,0.3,0.7,0.7,0.7h5.3c0.4,0,0.7-0.3,0.7-0.7
		C19.9,5.6,19.6,5.3,19.2,5.3z"/>
</g>
</svg>
