<?xml version="1.0" encoding="utf-8"?>
<!-- Generator: Adobe Illustrator 21.0.0, SVG Export Plug-In . SVG Version: 6.00 Build 0)  -->
<svg version="1.1" id="Слой_1" xmlns="http://www.w3.org/2000/svg" xmlns:xlink="http://www.w3.org/1999/xlink" x="0px" y="0px"
	 viewBox="0 0 15.7 19.7" style="enable-background:new 0 0 15.7 19.7;" xml:space="preserve">
<style type="text/css">
	.st0{fill:#6B50FF;}
</style>
<title>file</title>
<desc>Created with Sketch.</desc>
<path class="st0" d="M15.6,6.8c0-0.1-0.1-0.1-0.1-0.1c0,0,0-0.1-0.1-0.1l0,0c0,0,0,0,0,0L9.3,0.3c0,0,0,0,0,0C9.2,0.1,9,0,8.7,0H2.6
	C1.2,0,0,1.2,0,2.6v14.4c0,1.5,1.2,2.6,2.6,2.6h10.5c1.4,0,2.6-1.2,2.6-2.6V7.1C15.7,7,15.7,6.9,15.6,6.8z M9.6,2.9l3.3,3.4H9.6V2.9
	z M13.1,18H2.6c-0.5,0-0.9-0.4-0.9-1V2.6c0-0.5,0.4-0.9,0.9-0.9h5.3v5.4C7.9,7.6,8.3,8,8.7,8H14v9.1C14,17.6,13.6,18,13.1,18z"/>
</svg>
