<?xml version="1.0" encoding="utf-8"?>
<!-- Generator: Adobe Illustrator 21.0.0, SVG Export Plug-In . SVG Version: 6.00 Build 0)  -->
<svg version="1.1" id="Слой_1" xmlns="http://www.w3.org/2000/svg" xmlns:xlink="http://www.w3.org/1999/xlink" x="0px" y="0px"
	 viewBox="0 0 14.5 14" style="enable-background:new 0 0 14.5 14;" xml:space="preserve">
<title>Shape</title>
<desc>Created with Sketch.</desc>
<path d="M13.7,0H0.8C0.4,0,0,0.3,0,0.8v12.5C0,13.7,0.4,14,0.8,14h6.9V8.6H5.8V6.5h1.9V4.9c0-1.8,1.1-2.8,2.8-2.8
	c0.8,0,1.5,0.1,1.7,0.1v1.9h-1.2c-0.9,0-1.1,0.4-1.1,1v1.3h2.2l-0.3,2.1H10V14h3.7c0.4,0,0.8-0.3,0.8-0.8V0.8
	C14.5,0.3,14.1,0,13.7,0z"/>
</svg>
