<?xml version="1.0" encoding="utf-8"?>
<!-- Generator: Adobe Illustrator 21.0.0, SVG Export Plug-In . SVG Version: 6.00 Build 0)  -->
<svg version="1.1" id="Слой_1" xmlns="http://www.w3.org/2000/svg" xmlns:xlink="http://www.w3.org/1999/xlink" x="0px" y="0px"
	 viewBox="0 0 21 21" style="enable-background:new 0 0 21 21;" xml:space="preserve">
<style type="text/css">
	.st0{fill:#6B50FF;}
</style>
<title>Parcels</title>
<desc>Created with Sketch.</desc>
<g>
	<path class="st0" d="M0.3,5.9l10,5c0.1,0,0.1,0.1,0.2,0.1c0.1,0,0.2,0,0.2-0.1l10-5C20.9,5.9,21,5.7,21,5.5s-0.1-0.4-0.3-0.4l-10-5
		c-0.1-0.1-0.3-0.1-0.4,0l-10,5C0.1,5.1,0,5.3,0,5.5S0.1,5.9,0.3,5.9z M10.5,1.1l8.9,4.4l-8.9,4.4L1.6,5.5L10.5,1.1z"/>
	<path class="st0" d="M20.3,15.1l-9.8,4.9l-9.8-4.9c-0.2-0.1-0.5,0-0.7,0.2c-0.1,0.2,0,0.5,0.2,0.7l10,5c0.1,0,0.1,0.1,0.2,0.1
		c0.1,0,0.2,0,0.2-0.1l10-5c0.2-0.1,0.3-0.4,0.2-0.7C20.8,15,20.5,14.9,20.3,15.1z"/>
	<path class="st0" d="M20.3,10.1l-9.8,4.9l-9.8-4.9c-0.2-0.1-0.5,0-0.7,0.2c-0.1,0.2,0,0.5,0.2,0.7l10,5c0.1,0,0.1,0.1,0.2,0.1
		c0.1,0,0.2,0,0.2-0.1l10-5c0.2-0.1,0.3-0.4,0.2-0.7C20.8,10,20.5,9.9,20.3,10.1z"/>
</g>
</svg>
