<?xml version="1.0" encoding="utf-8"?>
<!-- Generator: Adobe Illustrator 21.0.0, SVG Export Plug-In . SVG Version: 6.00 Build 0)  -->
<svg version="1.1" id="Слой_1" xmlns="http://www.w3.org/2000/svg" xmlns:xlink="http://www.w3.org/1999/xlink" x="0px" y="0px"
	 viewBox="0 0 23 19" style="enable-background:new 0 0 23 19;" xml:space="preserve">
<style type="text/css">
	.st0{fill:#6B50FF;}
</style>
<title>Auto</title>
<desc>Created with Sketch.</desc>
<g>
	<path class="st0" d="M22.5,1C22.2,1,22,1.2,22,1.5v4.8l-3.8-3.6c-2.3-2.3-5.6-3.3-8.8-2.6C6.2,1,3.6,3.2,2.5,6.3
		C2.4,6.6,2.6,6.9,2.8,7c0.3,0.1,0.5,0,0.6-0.3c1-2.8,3.3-4.8,6.1-5.5c2.9-0.6,5.8,0.2,7.9,2.3L21.2,7h-4.7C16.2,7,16,7.2,16,7.5
		S16.2,8,16.5,8h6c0.1,0,0.3-0.1,0.4-0.2c0,0,0,0,0,0c0,0,0,0,0-0.1c0,0,0-0.1,0.1-0.1c0,0,0-0.1,0-0.1c0,0,0,0,0-0.1v-6
		C23,1.2,22.8,1,22.5,1z"/>
	<path class="st0" d="M20.2,12c-0.3-0.1-0.5,0-0.6,0.3c-1,2.8-3.3,4.8-6.1,5.5s-5.8-0.2-7.9-2.3L1.8,12h4.7C6.8,12,7,11.8,7,11.5
		S6.8,11,6.5,11h-6c0,0,0,0,0,0c0,0-0.1,0-0.1,0c0,0,0,0-0.1,0c0,0,0,0-0.1,0c0,0-0.1,0-0.1,0.1c0,0,0,0,0,0c0,0,0,0,0,0.1
		c0,0,0,0.1-0.1,0.1c0,0,0,0.1,0,0.1c0,0,0,0,0,0.1v6C0,17.8,0.2,18,0.5,18S1,17.8,1,17.5v-4.8l3.8,3.6C6.6,18,9,19,11.5,19
		c0.7,0,1.4-0.1,2.1-0.2c3.2-0.7,5.8-3,6.9-6.1C20.6,12.4,20.4,12.1,20.2,12z"/>
</g>
</svg>
