<?xml version="1.0" encoding="utf-8"?>
<!-- Generator: Adobe Illustrator 21.0.0, SVG Export Plug-In . SVG Version: 6.00 Build 0)  -->
<svg version="1.1" id="Слой_1" xmlns="http://www.w3.org/2000/svg" xmlns:xlink="http://www.w3.org/1999/xlink" x="0px" y="0px"
	 viewBox="0 0 23 21" style="enable-background:new 0 0 23 21;" xml:space="preserve">
<style type="text/css">
	.st0{fill:#6B50FF;}
</style>
<title>Filters2</title>
<desc>Created with Sketch.</desc>
<g>
	<path class="st0" d="M3.5,8.8C3.8,8.8,4,8.6,4,8.3V0.5C4,0.2,3.8,0,3.5,0S3,0.2,3,0.5v7.8C3,8.6,3.2,8.8,3.5,8.8z"/>
	<path class="st0" d="M11.5,10c-0.3,0-0.5,0.2-0.5,0.5v10c0,0.3,0.2,0.5,0.5,0.5s0.5-0.2,0.5-0.5v-10C12,10.2,11.8,10,11.5,10z"/>
	<path class="st0" d="M19.5,11c0.3,0,0.5-0.2,0.5-0.5v-10C20,0.2,19.8,0,19.5,0S19,0.2,19,0.5v10C19,10.8,19.2,11,19.5,11z"/>
	<path class="st0" d="M6.5,12.2h-6c-0.3,0-0.5,0.2-0.5,0.5s0.2,0.5,0.5,0.5H3v7.3C3,20.8,3.2,21,3.5,21S4,20.8,4,20.5v-7.3h2.5
		C6.8,13.2,7,13,7,12.7S6.8,12.2,6.5,12.2z"/>
	<path class="st0" d="M14.5,5.6H12V0.5C12,0.2,11.8,0,11.5,0S11,0.2,11,0.5v5.1H8.5C8.2,5.6,8,5.8,8,6.1s0.2,0.5,0.5,0.5h6
		c0.3,0,0.5-0.2,0.5-0.5S14.8,5.6,14.5,5.6z"/>
	<path class="st0" d="M22.5,14.4h-6c-0.3,0-0.5,0.2-0.5,0.5s0.2,0.5,0.5,0.5H19v5.1c0,0.3,0.2,0.5,0.5,0.5s0.5-0.2,0.5-0.5v-5.1h2.5
		c0.3,0,0.5-0.2,0.5-0.5S22.8,14.4,22.5,14.4z"/>
</g>
</svg>
