<?xml version="1.0" encoding="utf-8"?>
<!-- Generator: Adobe Illustrator 21.0.0, SVG Export Plug-In . SVG Version: 6.00 Build 0)  -->
<svg version="1.1" id="Слой_1" xmlns="http://www.w3.org/2000/svg" xmlns:xlink="http://www.w3.org/1999/xlink" x="0px" y="0px"
	 viewBox="0 0 21 19" style="enable-background:new 0 0 21 19;" xml:space="preserve">
<style type="text/css">
	.st0{fill:#6B50FF;}
</style>
<title>Filters1</title>
<desc>Created with Sketch.</desc>
<path class="st0" d="M21,0.3C20.9,0.1,20.7,0,20.5,0h-20C0.3,0,0.1,0.1,0,0.3S0,0.7,0.1,0.8L8,10.1v6.4c0,0.2,0.1,0.4,0.3,0.4l4,2
	c0.1,0,0.1,0.1,0.2,0.1c0.1,0,0.2,0,0.3-0.1c0.1-0.1,0.2-0.3,0.2-0.4v-8.4l7.9-9.3C21,0.7,21,0.5,21,0.3z M12.1,9.6
	C12,9.7,12,9.8,12,10v7.7l-3-1.5V10c0-0.1,0-0.2-0.1-0.3L1.6,1h17.8L12.1,9.6z"/>
</svg>
