<?xml version="1.0" encoding="utf-8"?>
<!-- Generator: Adobe Illustrator 21.0.0, SVG Export Plug-In . SVG Version: 6.00 Build 0)  -->
<svg version="1.1" id="Слой_1" xmlns="http://www.w3.org/2000/svg" xmlns:xlink="http://www.w3.org/1999/xlink" x="0px" y="0px"
	 viewBox="0 0 23 23" style="enable-background:new 0 0 23 23;" xml:space="preserve">
<style type="text/css">
	.st0{fill:#6B50FF;}
</style>
<title>Insights</title>
<desc>Created with Sketch.</desc>
<g>
	<path class="st0" d="M11.5,6C8.5,6,6,8.5,6,11.5c0,3,2.5,5.5,5.5,5.5c3,0,5.5-2.5,5.5-5.5C17,8.5,14.5,6,11.5,6z M11.5,16
		C9,16,7,14,7,11.5S9,7,11.5,7S16,9,16,11.5S14,16,11.5,16z"/>
	<path class="st0" d="M11.5,3C11.8,3,12,2.8,12,2.5v-2C12,0.2,11.8,0,11.5,0S11,0.2,11,0.5v2C11,2.8,11.2,3,11.5,3z"/>
	<path class="st0" d="M11.5,20c-0.3,0-0.5,0.2-0.5,0.5v2c0,0.3,0.2,0.5,0.5,0.5s0.5-0.2,0.5-0.5v-2C12,20.2,11.8,20,11.5,20z"/>
	<path class="st0" d="M4.1,3.4c-0.2-0.2-0.5-0.2-0.7,0s-0.2,0.5,0,0.7l1.4,1.4C4.9,5.6,5,5.6,5.1,5.6s0.3,0,0.4-0.1
		c0.2-0.2,0.2-0.5,0-0.7L4.1,3.4z"/>
	<path class="st0" d="M18.2,17.5c-0.2-0.2-0.5-0.2-0.7,0s-0.2,0.5,0,0.7l1.4,1.4c0.1,0.1,0.2,0.1,0.4,0.1s0.3,0,0.4-0.1
		c0.2-0.2,0.2-0.5,0-0.7L18.2,17.5z"/>
	<path class="st0" d="M2.5,11h-2C0.2,11,0,11.2,0,11.5S0.2,12,0.5,12h2C2.8,12,3,11.8,3,11.5S2.8,11,2.5,11z"/>
	<path class="st0" d="M22.5,11h-2c-0.3,0-0.5,0.2-0.5,0.5s0.2,0.5,0.5,0.5h2c0.3,0,0.5-0.2,0.5-0.5S22.8,11,22.5,11z"/>
	<path class="st0" d="M4.8,17.5l-1.4,1.4c-0.2,0.2-0.2,0.5,0,0.7c0.1,0.1,0.2,0.1,0.4,0.1s0.3,0,0.4-0.1l1.4-1.4
		c0.2-0.2,0.2-0.5,0-0.7S5,17.3,4.8,17.5z"/>
	<path class="st0" d="M18.9,3.4l-1.4,1.4c-0.2,0.2-0.2,0.5,0,0.7c0.1,0.1,0.2,0.1,0.4,0.1s0.3,0,0.4-0.1l1.4-1.4
		c0.2-0.2,0.2-0.5,0-0.7S19.1,3.2,18.9,3.4z"/>
</g>
</svg>
