<?xml version="1.0" encoding="utf-8"?>
<!-- Generator: Adobe Illustrator 22.1.0, SVG Export Plug-In . SVG Version: 6.00 Build 0)  -->
<svg version="1.1" id="Слой_1" xmlns="http://www.w3.org/2000/svg" xmlns:xlink="http://www.w3.org/1999/xlink" x="0px" y="0px"
	 viewBox="0 0 17 18" style="enable-background:new 0 0 17 18;" xml:space="preserve">
<path d="M16.8,7.4H8.7v3.3h4.8c-0.1,0.8-0.6,2.1-1.8,2.9c-0.7,0.5-1.7,0.9-3,0.9c-2.3,0-4.2-1.6-4.9-3.7C3.5,10.2,3.4,9.6,3.4,9
	c0-0.6,0.1-1.2,0.3-1.8c0.7-2.2,2.6-3.7,4.9-3.7l0,0c1.6,0,2.7,0.7,3.4,1.3l2.4-2.5C13,0.9,11,0,8.7,0C5.3,0,2.3,2,0.9,5
	C0.3,6.2,0,7.6,0,9c0,1.4,0.3,2.8,0.9,4c1.4,2.9,4.4,5,7.7,5l0,0c2.3,0,4.3-0.8,5.7-2.2C16,14.3,17,11.9,17,9.2
	C17,8.5,16.9,7.9,16.8,7.4z"/>
</svg>
