<?xml version="1.0" encoding="utf-8"?>
<!-- Generator: Adobe Illustrator 21.0.0, SVG Export Plug-In . SVG Version: 6.00 Build 0)  -->
<svg version="1.1" xmlns="http://www.w3.org/2000/svg" xmlns:xlink="http://www.w3.org/1999/xlink" x="0px" y="0px"
	 viewBox="0 0 32 34" style="enable-background:new 0 0 32 34;" xml:space="preserve">
<style type="text/css">
	.st0{fill:#FFFFFF;}
	.st1{fill:#1B1038;}
</style>
<g id="Слой_2">
	<polygon class="st0" points="31.4,0.5 0.6,0.5 0.6,4.3 2.6,4.3 2.6,33.4 29.4,33.4 29.4,4.3 31.4,4.3 	"/>
</g>
<g id="Слой_1">
	<title>SMF Icon</title>
	<desc>Created with Sketch.</desc>
	<g>
		<path class="st1" d="M30,0H2H0v5h2v29h4h8h16V5h2V0H30z M7,33V22h6v11H7z M29,33H14V21H6v12H3V5h26V33z M31,4h-1h-1H3H2H1V1h1h1
			h26h1h1V4z"/>
		<path class="st1" d="M14,9H6v8h8V9z M13,16H7v-6h6V16z"/>
		<path class="st1" d="M26,9h-8v8h8V9z M25,16h-6v-6h6V16z"/>
		<path class="st1" d="M26,21h-8v8h8V21z M25,28h-6v-6h6V28z"/>
	</g>
</g>
</svg>
