<?xml version="1.0" encoding="utf-8"?>
<!-- Generator: Adobe Illustrator 21.0.0, SVG Export Plug-In . SVG Version: 6.00 Build 0)  -->
<svg version="1.1" xmlns="http://www.w3.org/2000/svg" xmlns:xlink="http://www.w3.org/1999/xlink" x="0px" y="0px"
	 viewBox="0 0 31 67" style="enable-background:new 0 0 31 67;" xml:space="preserve">
<style type="text/css">
	.st0{fill:#FFFFFF;}
	.st1{fill:#6B50FF;}
</style>
<g id="Слой_2">
	<g>
		<rect x="6.3" y="0.7" class="st0" width="18.5" height="2.8"/>
		<rect x="3.1" y="4.1" class="st0" width="25" height="2.8"/>
		<rect x="0.9" y="7.5" class="st0" width="29.4" height="58.8"/>
	</g>
</g>
<g id="Слой_1">
	<g>
		<polygon class="st1" points="28.8,6.6 28.8,7.7 2.2,7.7 2.2,6.6 0,6.6 0,67 4.4,67 4.4,65.9 1.1,65.9 1.1,7.7 29.9,7.7 29.9,65.9 
			13.3,65.9 13.3,67 31,67 31,6.6 		"/>
		<path class="st1" d="M28.8,6.6L28.8,6.6V3.3h-3.3v1.1H5.5V3.3H2.2v3.3v0v1.1h26.6V6.6z M3.3,4.4h24.4v2.2H3.3V4.4z"/>
		<path class="st1" d="M25.5,3.3L25.5,3.3V0H5.5v3.3v0v1.1h19.9V3.3z M6.6,1.1h17.7v2.2H6.6V1.1z"/>
		<path class="st1" d="M4.4,46.1h8.9v-8.8H4.4V46.1z M5.5,38.4h6.7V45H5.5V38.4z"/>
		<path class="st1" d="M4.4,33h8.9v-8.8H4.4V33z M5.5,25.3h6.7v6.6H5.5V25.3z"/>
		<path class="st1" d="M4.4,50.5v15.4V67h8.9v-1.1V50.5v0L4.4,50.5L4.4,50.5z M5.5,65.9V51.6h6.7v14.3H5.5z"/>
		<path class="st1" d="M17.7,46.1h8.9v-8.8h-8.9V46.1z M18.8,38.4h6.7V45h-6.7V38.4z"/>
		<path class="st1" d="M17.7,33h8.9v-8.8h-8.9V33z M18.8,25.3h6.7v6.6h-6.7V25.3z"/>
		<path class="st1" d="M4.4,19.8h8.9V11H4.4V19.8z M5.5,12.1h6.7v6.6H5.5V12.1z"/>
		<path class="st1" d="M26.6,11h-8.9v8.8h8.9V11z M25.5,18.7h-6.7v-6.6h6.7V18.7z"/>
	</g>
</g>
</svg>
