<?xml version="1.0" encoding="utf-8"?>
<!-- Generator: Adobe Illustrator 21.0.0, SVG Export Plug-In . SVG Version: 6.00 Build 0)  -->
<svg version="1.1" xmlns="http://www.w3.org/2000/svg" xmlns:xlink="http://www.w3.org/1999/xlink" x="0px" y="0px"
	 viewBox="0 0 32 25" style="enable-background:new 0 0 32 25;" xml:space="preserve">
<style type="text/css">
	.st0{fill:#FFFFFF;}
	.st1{fill:#1B1038;}
</style>
<g id="Слой_2">
	<polygon class="st0" points="31.2,5.4 29.4,5.4 29.4,5 26,5 26,4.5 22.7,4.5 22.7,3.7 19.1,3.7 19.1,3.8 18,3.8 18,3.2 16,3.2 
		16,2.8 12.5,2.8 12.5,2.4 9.2,2.4 9.2,1.7 6,1.7 6,1.1 0.7,1.1 0.7,4.5 2.7,4.5 2.7,5 2.7,6.2 2.7,24.3 29.4,24.3 29.4,9.1 
		31.2,9.1 	"/>
</g>
<g id="Слой_1">
	<title>Dwell Icon</title>
	<desc>Created with Sketch.</desc>
	<g>
		<path class="st1" d="M0,0v5l2,0.3V25h4h8h16V9.7l2,0.3V5L0,0z M7,24V13h6v11H7z M29,24H14V12H6v12H3V5.5l26,4.1V24z M31,8.8
			l-1-0.2L2,4.3L1,4.1v-3l30,4.7V8.8z"/>
		<path class="st1" d="M25,12h-7v8h7V12z M24,19h-5v-6h5V19z"/>
	</g>
</g>
</svg>
