<?xml version="1.0" encoding="utf-8"?>
<!-- Generator: Adobe Illustrator 21.0.0, SVG Export Plug-In . SVG Version: 6.00 Build 0)  -->
<svg version="1.1" xmlns="http://www.w3.org/2000/svg" xmlns:xlink="http://www.w3.org/1999/xlink" x="0px" y="0px"
	 viewBox="0 0 32 46" style="enable-background:new 0 0 32 46;" xml:space="preserve">
<style type="text/css">
	.st0{fill:#FFFFFF;}
	.st1{fill:#1B1038;}
</style>
<g id="Слой_2">
	<polygon class="st0" points="31.4,0.5 0.6,0.5 0.6,4.5 2.6,4.5 2.6,45.3 29.4,45.3 29.4,4.5 31.4,4.5 	"/>
</g>
<g id="Слой_1">
	<title>LMF Icon</title>
	<desc>Created with Sketch.</desc>
	<g>
		<path class="st1" d="M0,0v5h2v41h4h8h16V5h2V0H0z M7,45V34h6v11H7z M29,45H14V33H6v12H3V5h26V45z M31,4h-1h-1H3H2H1V1h30V4z"/>
		<path class="st1" d="M14,21H6v8h8V21z M13,28H7v-6h6V28z"/>
		<path class="st1" d="M14,9H6v8h8V9z M13,16H7v-6h6V16z"/>
		<path class="st1" d="M26,21h-8v8h8V21z M25,28h-6v-6h6V28z"/>
		<path class="st1" d="M26,9h-8v8h8V9z M25,16h-6v-6h6V16z"/>
		<path class="st1" d="M26,33h-8v8h8V33z M25,40h-6v-6h6V40z"/>
	</g>
</g>
</svg>
