<?xml version="1.0" encoding="utf-8"?>
<!-- Generator: Adobe Illustrator 21.0.0, SVG Export Plug-In . SVG Version: 6.00 Build 0)  -->
<svg version="1.1" id="Слой_1" xmlns="http://www.w3.org/2000/svg" xmlns:xlink="http://www.w3.org/1999/xlink" x="0px" y="0px"
	 viewBox="0 0 23.7 21.7" style="enable-background:new 0 0 23.7 21.7;" xml:space="preserve">
<style type="text/css">
	.st0{fill:#6B50FF;}
</style>
<title>map</title>
<desc>Created with Sketch.</desc>
<path class="st0" d="M23.3,0.1C23,0,22.7,0,22.4,0.1l-6.6,3.8L8.2,0.1c0,0,0,0,0,0C8.1,0,8,0,7.9,0c0,0,0,0,0,0c0,0,0,0-0.1,0
	c-0.1,0-0.2,0-0.3,0.1c0,0,0,0,0,0l-7,4C0.2,4.3,0,4.5,0,4.9v16c0,0.3,0.2,0.6,0.4,0.7c0.1,0.1,0.3,0.1,0.4,0.1c0.1,0,0.3,0,0.4-0.1
	l6.6-3.8l7.6,3.8c0,0,0,0,0,0c0.1,0.1,0.2,0.1,0.4,0.1c0,0,0,0,0,0c0,0,0.1,0,0.1,0c0.1,0,0.2,0,0.3-0.1c0,0,0,0,0,0l7-4
	c0.3-0.2,0.4-0.4,0.4-0.7v-16C23.7,0.5,23.5,0.3,23.3,0.1z M8.7,2.2L15,5.4v14.1l-6.3-3.2V2.2z M1.7,5.3l5.3-3v14l-5.3,3V5.3z
	 M22,16.4l-5.3,3v-14l5.3-3V16.4z"/>
</svg>
