<?xml version="1.0" encoding="utf-8"?>
<!-- Generator: Adobe Illustrator 21.0.0, SVG Export Plug-In . SVG Version: 6.00 Build 0)  -->
<svg version="1.1" id="Слой_1" xmlns="http://www.w3.org/2000/svg" xmlns:xlink="http://www.w3.org/1999/xlink" x="0px" y="0px"
	 viewBox="0 0 14.5 14" style="enable-background:new 0 0 14.5 14;" xml:space="preserve">
<title>Shape</title>
<desc>Created with Sketch.</desc>
<path d="M13.4,0H1.1C0.5,0,0,0.5,0,1v12c0,0.6,0.5,1,1.1,1h12.3c0.6,0,1.1-0.5,1.1-1V1C14.5,0.5,14,0,13.4,0z M4.3,11.9H2.1V5.2h2.1
	V11.9z M3.2,4.3C2.5,4.3,2,3.8,2,3.1c0-0.7,0.6-1.2,1.2-1.2c0.7,0,1.2,0.5,1.2,1.2C4.5,3.8,3.9,4.3,3.2,4.3z M12.3,11.9L12.3,11.9
	h-2.1V8.7c0-0.8,0-1.8-1.1-1.8C8,6.9,7.8,7.8,7.8,8.6v3.3H5.6V5.2h2.1v0.9h0c0.3-0.5,1-1.1,2-1.1c2.2,0,2.6,1.4,2.6,3.2V11.9z"/>
</svg>
