<?xml version="1.0" encoding="utf-8"?>
<!-- Generator: Adobe Illustrator 22.1.0, SVG Export Plug-In . SVG Version: 6.00 Build 0)  -->
<svg version="1.1" id="Слой_1" xmlns="http://www.w3.org/2000/svg" xmlns:xlink="http://www.w3.org/1999/xlink" x="0px" y="0px"
	 viewBox="0 0 16.3 16.3" style="enable-background:new 0 0 16.3 16.3;" xml:space="preserve">
<path d="M8.4,0C3.4,0,0,3.3,0,8.1c0,4.9,3.5,8.1,8.5,8.1c0.9,0,1.8-0.1,2.5-0.3v-1.7c-0.5,0.2-1.4,0.3-2.3,0.3
	C4.7,14.5,2,12.1,2,8.2c0-3.8,2.6-6.5,6.3-6.5c3.6,0,5.9,2.3,5.9,5.8c0,1.8-0.6,3-1.4,3c-0.5,0-0.8-0.4-0.8-1.1v-5H9.8v1.2H9.6
	C9.2,4.7,8.4,4.2,7.3,4.2c-1.9,0-3.2,1.6-3.2,4c0,2.5,1.3,4.1,3.4,4.1c1.1,0,1.9-0.5,2.3-1.5h0.2c0.3,0.9,1.2,1.5,2.4,1.5
	c2.4,0,3.9-1.9,3.9-5C16.3,2.9,13,0,8.4,0z M8.1,10.3c-0.9,0-1.4-0.8-1.4-2c0-1.3,0.5-2,1.4-2s1.4,0.8,1.4,2
	C9.5,9.5,9,10.3,8.1,10.3z"/>
</svg>
