<?xml version="1.0" encoding="utf-8"?>
<!-- Generator: Adobe Illustrator 22.1.0, SVG Export Plug-In . SVG Version: 6.00 Build 0)  -->
<svg version="1.1" id="Слой_1" xmlns="http://www.w3.org/2000/svg" xmlns:xlink="http://www.w3.org/1999/xlink" x="0px" y="0px"
	 viewBox="0 0 15 17" style="enable-background:new 0 0 15 17;" xml:space="preserve">
<style type="text/css">
	.st0{filter:url(#Adobe_OpacityMaskFilter);}
	.st1{fill:#FFFFFF;}
	.st2{mask:url(#b_1_);}
</style>
<g transform="translate(-2 -1)">
	<defs>
		<filter id="Adobe_OpacityMaskFilter" filterUnits="userSpaceOnUse" x="2" y="1" width="15" height="17">
			<feColorMatrix  type="matrix" values="1 0 0 0 0  0 1 0 0 0  0 0 1 0 0  0 0 0 1 0"/>
		</filter>
	</defs>
	<mask maskUnits="userSpaceOnUse" x="2" y="1" width="15" height="17" id="b_1_">
		<g class="st0">
			<path id="a_1_" class="st1" d="M-1-0.2h21.2v20.5H-1V-0.2z"/>
		</g>
	</mask>
	<path class="st2" d="M15.4,13.3c-0.9-0.9-1.9-1.5-3-0.8L11.8,13c-0.5,0.3-1.4,2-4.3-1.8C4.6,7.4,6.5,7,7,6.6l0.7-0.5
		c1.1-0.8,0.8-1.9,0.2-3L7.5,2.5C6.8,1.3,6.1,0.5,5,1.3L4.5,1.7C4,2,2.6,2.9,2.2,4.8c-0.6,2.3,0.3,5,2.7,8.2c2.4,3.1,4.8,4.8,7.2,5
		c2,0.2,3.3-0.8,3.7-1.1l0.6-0.4c1.1-0.8,0.5-1.7-0.4-2.6L15.4,13.3z"/>
</g>
</svg>
