<?xml version="1.0" encoding="utf-8"?>
<!-- Generator: Adobe Illustrator 22.1.0, SVG Export Plug-In . SVG Version: 6.00 Build 0)  -->
<svg version="1.1" id="Слой_1" xmlns="http://www.w3.org/2000/svg" xmlns:xlink="http://www.w3.org/1999/xlink" x="0px" y="0px"
	 viewBox="0 0 26 20" style="enable-background:new 0 0 26 20;" xml:space="preserve">
<path d="M24.5,0h-23C0.7,0,0,0.8,0,1.8v16.4c0,1,0.7,1.8,1.5,1.8h23c0.8,0,1.5-0.8,1.5-1.8V1.8C26,0.8,25.3,0,24.5,0z M14.4,3.8
	c0-0.2,0.2-0.4,0.4-0.4h1.8c0.2,0,0.4,0.2,0.4,0.4v1.8c0,0.2-0.2,0.4-0.4,0.4h-1.8c-0.2,0-0.4-0.2-0.4-0.4V3.8z M14.4,9.2
	c0-0.2,0.2-0.4,0.4-0.4h1.8c0.2,0,0.4,0.2,0.4,0.4V11c0,0.2-0.2,0.4-0.4,0.4h-1.8c-0.2,0-0.4-0.2-0.4-0.4V9.2z M9.1,3.8
	c0-0.2,0.2-0.4,0.4-0.4h1.8c0.2,0,0.4,0.2,0.4,0.4v1.8c0,0.2-0.2,0.4-0.4,0.4H9.5C9.3,6,9.1,5.8,9.1,5.5V3.8z M9.1,9.2
	c0-0.2,0.2-0.4,0.4-0.4h1.8c0.2,0,0.4,0.2,0.4,0.4V11c0,0.2-0.2,0.4-0.4,0.4H9.5c-0.2,0-0.4-0.2-0.4-0.4V9.2z M3.8,3.8
	c0-0.2,0.2-0.4,0.4-0.4H6c0.2,0,0.4,0.2,0.4,0.4v1.8C6.5,5.8,6.3,6,6,6H4.2C4,6,3.8,5.8,3.8,5.5V3.8z M6,11.5H4.2
	c-0.2,0-0.4-0.2-0.4-0.4V9.2C3.8,9,4,8.8,4.2,8.8H6c0.2,0,0.4,0.2,0.4,0.4V11C6.5,11.3,6.3,11.5,6,11.5z M19.7,16.2
	c0,0.2-0.2,0.4-0.4,0.4H6.8c-0.2,0-0.4-0.2-0.4-0.4v-1.8c0-0.2,0.2-0.4,0.4-0.4h12.4c0.2,0,0.4,0.2,0.4,0.4V16.2z M22.4,11
	c0,0.2-0.2,0.4-0.4,0.4h-1.8c-0.2,0-0.4-0.2-0.4-0.4V9.2c0-0.2,0.2-0.4,0.4-0.4h1.8c0.2,0,0.4,0.2,0.4,0.4V11z M22.4,5.5
	c0,0.2-0.2,0.4-0.4,0.4h-1.8c-0.2,0-0.4-0.2-0.4-0.4V3.8c0-0.2,0.2-0.4,0.4-0.4h1.8c0.2,0,0.4,0.2,0.4,0.4V5.5z"/>
</svg>
