<?xml version="1.0" encoding="utf-8"?>
<!-- Generator: Adobe Illustrator 21.0.0, SVG Export Plug-In . SVG Version: 6.00 Build 0)  -->
<svg version="1.1" id="Слой_1" xmlns="http://www.w3.org/2000/svg" xmlns:xlink="http://www.w3.org/1999/xlink" x="0px" y="0px"
	 viewBox="0 0 17.4 13.7" style="enable-background:new 0 0 17.4 13.7;" xml:space="preserve">
<title>Shape</title>
<desc>Created with Sketch.</desc>
<path d="M17.4,1.6L17.4,1.6c-0.7,0.3-1.4,0.4-2.1,0.5c0.7-0.4,1.3-1.1,1.6-1.9c-0.7,0.4-1.5,0.7-2.3,0.8C13.9,0.4,13,0,12,0
	c-2,0-3.6,1.5-3.6,3.4c0,0.3,0,0.5,0.1,0.8c-3-0.1-5.6-1.5-7.3-3.6C0.9,1.1,0.7,1.7,0.7,2.4c0,1.2,0.6,2.2,1.6,2.9
	c-0.6,0-1.1-0.2-1.6-0.4v0c0,1.7,1.2,3.1,2.9,3.4C3.2,8.3,2.9,8.4,2.6,8.4c-0.2,0-0.4,0-0.7-0.1c0.5,1.4,1.8,2.4,3.3,2.4
	c-1.2,0.9-2.8,1.5-4.4,1.5c-0.3,0-0.6,0-0.8,0c1.6,1,3.5,1.5,5.5,1.5c6.6,0,10.1-5.2,10.1-9.8c0-0.1,0-0.3,0-0.4
	C16.3,2.9,16.9,2.3,17.4,1.6z"/>
</svg>
