<?xml version="1.0" encoding="utf-8"?>
<!-- Generator: Adobe Illustrator 22.1.0, SVG Export Plug-In . SVG Version: 6.00 Build 0)  -->
<svg version="1.1" id="Слой_1" xmlns="http://www.w3.org/2000/svg" xmlns:xlink="http://www.w3.org/1999/xlink" x="0px" y="0px"
	 viewBox="0 0 180 180" style="enable-background:new 0 0 180 180;" xml:space="preserve">
<style type="text/css">
	.st0{fill:#FFFFFF;}
	.st1{fill:#DAD3FF;}
	.st2{fill:#566386;}
	.st3{fill:#654BFA;}
</style>
<g id="Group">
	<polygon class="st0" points="138.8,77.4 136.2,76.5 41.2,76.5 39.3,77.4 38.5,81.1 38.5,140.6 39.3,144.7 41.9,146.2 112,146.2 
		136.6,146.2 139.3,144.2 140,139.9 140,79.9 	"/>
	<g>
		<path class="st1" d="M174.2,37.7l-3.5,0c-0.5,0-1-0.4-1.1-0.9c-0.3-1-0.6-2.1-1.1-3.1c-0.2-0.4-0.1-1,0.2-1.3l2.4-2.4
			c0.4-0.4,0.4-1.2,0-1.6l-3.5-3.5c-0.4-0.4-1.2-0.4-1.6,0l-2.1,2.1c-0.4,0.4-1,0.4-1.4,0.2c-1-0.6-2.2-1.1-3.3-1.5
			c-0.5-0.2-0.8-0.6-0.8-1.1l0-2.8c0-0.6-0.5-1.1-1.1-1.1l-5,0c-0.6,0-1.1,0.5-1.1,1.1l0,2.5c0,0.5-0.4,1-0.9,1.1
			c-1.3,0.3-2.5,0.8-3.6,1.4c-0.4,0.2-1,0.2-1.4-0.2l-1.7-1.7c-0.4-0.4-1.2-0.4-1.6,0l-3.6,3.6c-0.4,0.4-0.4,1.2,0,1.6l1.7,1.7
			c0.4,0.4,0.4,0.9,0.2,1.4c-0.6,1.1-1.1,2.4-1.4,3.6c-0.1,0.5-0.6,0.9-1.1,0.9l-2.5,0c-0.6,0-1.1,0.5-1.1,1.1l0,5
			c0,0.6,0.5,1.1,1.1,1.1l2.8,0c0.5,0,0.9,0.3,1.1,0.8c0.4,1.1,0.9,2.3,1.5,3.3c0.3,0.5,0.2,1-0.2,1.4l-2.1,2.1
			c-0.4,0.4-0.4,1.2,0,1.6l3.5,3.5c0.4,0.4,1.2,0.4,1.6,0l2.4-2.4c0.3-0.3,0.9-0.4,1.3-0.2c1,0.5,2,0.9,3.1,1.1
			c0.5,0.1,0.9,0.6,0.9,1.1l0,3.5c0,0.6,0.5,1.1,1.1,1.1l5,0c0.6,0,1.1-0.5,1.1-1.1l0-3.8c0-0.5,0.3-0.9,0.8-1.1
			c0.9-0.3,1.8-0.7,2.7-1.1c0.4-0.2,1-0.2,1.4,0.2l2.7,2.7c0.4,0.4,1.2,0.4,1.6,0l3.6-3.6c0.4-0.4,0.4-1.2,0-1.6l-2.7-2.7
			c-0.4-0.4-0.4-0.9-0.2-1.4c0.5-0.9,0.9-1.8,1.2-2.7c0.2-0.5,0.6-0.8,1.1-0.8l3.8,0c0.6,0,1.1-0.5,1.1-1.1v-5
			C175.3,38.2,174.8,37.7,174.2,37.7z M160.9,47.6c-3.8,3.8-9.9,3.8-13.6,0s-3.8-9.9,0-13.6s9.9-3.8,13.6,0S164.7,43.9,160.9,47.6z"
			/>
		<rect x="51.4" y="86.8" class="st1" width="6.9" height="8"/>
		<rect x="51.4" y="100.8" class="st1" width="6.9" height="8"/>
		<rect x="51.4" y="114.8" class="st1" width="6.9" height="8"/>
		<rect x="94.4" y="86.8" class="st1" width="6.9" height="8"/>
		<rect x="94.4" y="100.8" class="st1" width="6.9" height="8"/>
		<rect x="94.4" y="114.8" class="st1" width="6.9" height="8"/>
	</g>
	<g>
		<path class="st2" d="M154.1,30.4c-2.8,0-5.4,1.1-7.4,3c-2,2-3,4.6-3,7.4s1.1,5.4,3,7.4c2,2,4.6,3,7.4,3c2.8,0,5.4-1.1,7.4-3
			c2-2,3-4.6,3-7.4s-1.1-5.4-3-7.4C159.5,31.5,156.9,30.4,154.1,30.4z M160.4,47.1c-1.7,1.7-3.9,2.6-6.3,2.6c-2.4,0-4.6-0.9-6.3-2.6
			c-1.7-1.7-2.6-3.9-2.6-6.3c0-2.4,0.9-4.6,2.6-6.3c1.7-1.7,3.9-2.6,6.3-2.6c2.4,0,4.6,0.9,6.3,2.6c1.7,1.7,2.6,3.9,2.6,6.3
			C163,43.2,162,45.4,160.4,47.1z"/>
		<path class="st2" d="M175.5,37.5c-0.4-0.4-0.8-0.6-1.4-0.6c0,0,0,0,0,0l-3.5,0c-0.2,0-0.3-0.1-0.4-0.3c-0.3-1.1-0.7-2.2-1.2-3.2
			c-0.1-0.1,0-0.3,0.1-0.4l2.4-2.4c0.7-0.7,0.7-2,0-2.7l-3.5-3.5c-0.7-0.7-2-0.7-2.7,0l-2.1,2.1c-0.1,0.1-0.3,0.1-0.5,0.1
			c-1.1-0.7-2.3-1.2-3.5-1.6c-0.2-0.1-0.3-0.2-0.3-0.4l0-2.8c0-0.5-0.2-1-0.6-1.4c-0.4-0.4-0.8-0.6-1.4-0.6l-5,0
			c-0.5,0-1,0.2-1.4,0.6c-0.4,0.4-0.6,0.8-0.6,1.4l0,2.5c0,0.2-0.1,0.3-0.3,0.4c-1.3,0.3-2.6,0.9-3.8,1.5c-0.1,0.1-0.3,0.1-0.4-0.1
			l-1.7-1.7c-0.7-0.7-2-0.7-2.7,0l-3.6,3.6c-0.7,0.7-0.7,2,0,2.7l1.7,1.7c0.1,0.1,0.1,0.3,0.1,0.4c-0.6,1.2-1.2,2.5-1.5,3.8
			c0,0.2-0.2,0.3-0.4,0.3c0,0,0,0,0,0l-2.5,0c0,0,0,0,0,0c-0.5,0-1,0.2-1.4,0.6c-0.4,0.4-0.6,0.8-0.6,1.4l0,5c0,0.5,0.2,1,0.6,1.4
			c0.4,0.4,0.8,0.6,1.3,0.6c0,0,0,0,0,0l2.8,0c0.2,0,0.3,0.1,0.4,0.3c0.4,1.2,0.9,2.4,1.6,3.5c0.1,0.2,0.1,0.3-0.1,0.5l-2.1,2.1
			c-0.7,0.7-0.7,2,0,2.7l3.5,3.5c0.7,0.7,2,0.7,2.7,0l2.4-2.4c0.1-0.1,0.3-0.1,0.4-0.1c1,0.5,2.1,0.9,3.2,1.2c0.2,0,0.3,0.2,0.3,0.4
			l0,3.5c0,1.1,0.9,1.9,1.9,1.9l5,0h0c0.5,0,1-0.2,1.4-0.6c0.4-0.4,0.6-0.8,0.6-1.4l0-3.8c0-0.2,0.1-0.3,0.3-0.4
			c1-0.3,1.9-0.7,2.8-1.2c0.1-0.1,0.3-0.1,0.4,0.1l2.7,2.7c0.7,0.7,2,0.7,2.7,0l3.6-3.6c0.7-0.7,0.7-2,0-2.7l-2.7-2.7
			c-0.1-0.1-0.1-0.3-0.1-0.4c0.5-0.9,0.9-1.8,1.2-2.8c0.1-0.2,0.2-0.3,0.4-0.3l3.8,0c0,0,0,0,0,0c0.5,0,1-0.2,1.4-0.6
			c0.4-0.4,0.6-0.8,0.6-1.4v-5C176.1,38.4,175.9,37.9,175.5,37.5z M174.5,43.8c0,0.1-0.1,0.2-0.1,0.3c0,0-0.1,0.1-0.3,0.1l-3.8,0
			c0,0,0,0,0,0c-0.8,0-1.6,0.5-1.8,1.3c-0.3,0.9-0.7,1.8-1.1,2.6c-0.4,0.7-0.3,1.7,0.3,2.3l2.7,2.7c0.1,0.1,0.1,0.4,0,0.5l-3.6,3.6
			c-0.1,0.1-0.4,0.1-0.5,0l-2.7-2.7c-0.6-0.6-1.5-0.7-2.3-0.3c-0.8,0.4-1.6,0.8-2.5,1.1c-0.8,0.3-1.3,1-1.3,1.8l0,3.8
			c0,0.1-0.1,0.2-0.1,0.3c0,0-0.1,0.1-0.3,0.1l-5,0c-0.2,0-0.4-0.2-0.4-0.4l0-3.5c0-0.9-0.6-1.6-1.4-1.8c-1-0.3-2-0.6-2.9-1.1
			c-0.3-0.1-0.6-0.2-0.9-0.2c-0.5,0-1,0.2-1.4,0.6l-2.4,2.4c-0.1,0.1-0.4,0.1-0.5,0l-3.5-3.5c-0.1-0.1-0.1-0.4,0-0.5l2.1-2.1
			c0.6-0.6,0.7-1.6,0.3-2.3c-0.6-1-1.1-2.1-1.4-3.1c-0.3-0.8-1-1.3-1.8-1.3c0,0,0,0,0,0l-2.8,0c0,0,0,0,0,0c-0.1,0-0.2-0.1-0.3-0.1
			c0,0-0.1-0.1-0.1-0.3l0-5c0-0.1,0.1-0.2,0.1-0.3c0,0,0.1-0.1,0.3-0.1c0,0,0,0,0,0l2.5,0c0,0,0,0,0,0c0.9,0,1.6-0.6,1.9-1.4
			c0.3-1.2,0.8-2.4,1.4-3.4c0.4-0.8,0.3-1.7-0.3-2.3l-1.7-1.7c-0.1-0.1-0.1-0.4,0-0.5l3.6-3.6c0.1-0.1,0.4-0.1,0.5,0l1.7,1.7
			c0.6,0.6,1.5,0.7,2.3,0.3c1.1-0.6,2.3-1.1,3.5-1.4c0.8-0.2,1.4-1,1.4-1.9l0-2.5c0-0.1,0.1-0.2,0.1-0.3c0,0,0.1-0.1,0.3-0.1l5,0
			c0.1,0,0.2,0.1,0.3,0.1c0,0,0.1,0.1,0.1,0.3l0,2.8c0,0.8,0.5,1.6,1.3,1.8c1.1,0.4,2.1,0.8,3.1,1.4c0.8,0.5,1.7,0.3,2.3-0.3
			l2.1-2.1c0.1-0.1,0.4-0.1,0.5,0l3.5,3.5c0.1,0.1,0.1,0.4,0,0.5l-2.4,2.4c-0.6,0.6-0.7,1.5-0.4,2.2c0.5,0.9,0.8,1.9,1.1,2.9
			c0.2,0.8,1,1.4,1.9,1.4c0,0,0,0,0,0l3.5,0c0,0,0,0,0,0c0.1,0,0.2,0.1,0.3,0.1c0,0,0.1,0.1,0.1,0.3V43.8z"/>
		<path class="st2" d="M6.5,25.3c-0.3-0.3-0.8-0.3-1.1,0s-0.3,0.8,0,1.1l1.7,1.7c0.1,0.2,0.3,0.2,0.5,0.2c0.2,0,0.4-0.1,0.5-0.2
			l4.1-4.1c0.3-0.3,0.3-0.8,0-1.1c-0.3-0.3-0.8-0.3-1.1,0l-3.6,3.6L6.5,25.3z"/>
		<path class="st2" d="M12.2,25.8c-0.4,0-0.8,0.3-0.8,0.8c0,1.9-1.6,3.5-3.5,3.5c-1.9,0-3.5-1.6-3.5-3.5C4.4,24.6,6,23,7.9,23
			c0.4,0,0.8-0.3,0.8-0.8c0-0.4-0.3-0.8-0.8-0.8c-2.8,0-5.1,2.3-5.1,5.1c0,2.8,2.3,5.1,5.1,5.1c2.8,0,5.1-2.3,5.1-5.1
			C13,26.1,12.6,25.8,12.2,25.8z"/>
		<path class="st2" d="M16.3,25.4h22.2c0.4,0,0.8-0.3,0.8-0.8s-0.3-0.8-0.8-0.8H16.3c-0.4,0-0.8,0.3-0.8,0.8S15.9,25.4,16.3,25.4z"
			/>
		<path class="st2" d="M16.3,29.6h36.2c0.4,0,0.8-0.3,0.8-0.8c0-0.4-0.3-0.8-0.8-0.8H16.3c-0.4,0-0.8,0.3-0.8,0.8
			C15.6,29.2,15.9,29.6,16.3,29.6z"/>
		<path class="st2" d="M6.5,43c-0.3-0.3-0.8-0.3-1.1,0c-0.3,0.3-0.3,0.8,0,1.1l1.7,1.7C7.4,45.9,7.5,46,7.7,46
			c0.2,0,0.4-0.1,0.5-0.2l4.1-4.1c0.3-0.3,0.3-0.8,0-1.1c-0.3-0.3-0.8-0.3-1.1,0l-3.6,3.6L6.5,43z"/>
		<path class="st2" d="M12.2,43.5c-0.4,0-0.8,0.3-0.8,0.8c0,1.9-1.6,3.5-3.5,3.5c-1.9,0-3.5-1.6-3.5-3.5c0-1.9,1.6-3.5,3.5-3.5
			c0.4,0,0.8-0.3,0.8-0.8s-0.3-0.8-0.8-0.8c-2.8,0-5.1,2.3-5.1,5.1c0,2.8,2.3,5.1,5.1,5.1c2.8,0,5.1-2.3,5.1-5.1
			C13,43.8,12.6,43.5,12.2,43.5z"/>
		<path class="st2" d="M16.3,43h22.2c0.4,0,0.8-0.3,0.8-0.8s-0.3-0.8-0.8-0.8H16.3c-0.4,0-0.8,0.3-0.8,0.8S15.9,43,16.3,43z"/>
		<path class="st2" d="M16.3,47.1h36.2c0.4,0,0.8-0.3,0.8-0.8c0-0.4-0.3-0.8-0.8-0.8H16.3c-0.4,0-0.8,0.3-0.8,0.8
			C15.6,46.8,15.9,47.1,16.3,47.1z"/>
		<path class="st2" d="M6.5,60.6c-0.3-0.3-0.8-0.3-1.1,0c-0.3,0.3-0.3,0.8,0,1.1l1.7,1.7c0.1,0.2,0.3,0.2,0.5,0.2
			c0.2,0,0.4-0.1,0.5-0.2l4.1-4.1c0.3-0.3,0.3-0.8,0-1.1c-0.3-0.3-0.8-0.3-1.1,0l-3.6,3.6L6.5,60.6z"/>
		<path class="st2" d="M12.2,61.1c-0.4,0-0.8,0.3-0.8,0.8c0,1.9-1.6,3.5-3.5,3.5c-1.9,0-3.5-1.6-3.5-3.5c0-1.9,1.6-3.5,3.5-3.5
			c0.4,0,0.8-0.3,0.8-0.8c0-0.4-0.3-0.8-0.8-0.8c-2.8,0-5.1,2.3-5.1,5.1c0,2.8,2.3,5.1,5.1,5.1c2.8,0,5.1-2.3,5.1-5.1
			C13,61.5,12.6,61.1,12.2,61.1z"/>
		<path class="st2" d="M16.3,60.7h22.2c0.4,0,0.8-0.3,0.8-0.8s-0.3-0.8-0.8-0.8H16.3c-0.4,0-0.8,0.3-0.8,0.8S15.9,60.7,16.3,60.7z"
			/>
		<path class="st2" d="M53.3,64.1c0-0.4-0.3-0.8-0.8-0.8H16.3c-0.4,0-0.8,0.3-0.8,0.8s0.3,0.8,0.8,0.8h36.2
			C53,64.9,53.3,64.6,53.3,64.1z"/>
		<path class="st2" d="M89.1,138.1c-1.5,0-2.7,1.2-2.7,2.7s1.2,2.7,2.7,2.7c1.5,0,2.7-1.2,2.7-2.7S90.6,138.1,89.1,138.1z M89.1,142
			c-0.6,0-1.2-0.5-1.2-1.2s0.5-1.2,1.2-1.2c0.6,0,1.2,0.5,1.2,1.2S89.8,142,89.1,142z"/>
		<path class="st2" d="M135.8,75.4H42.4c-2.6,0-4.8,2.1-4.8,4.8V142c0,2.6,2.1,4.8,4.8,4.8h34.2v15h-9.4c-0.4,0-0.8,0.3-0.8,0.8
			s0.3,0.8,0.8,0.8h44c0.4,0,0.8-0.3,0.8-0.8s-0.3-0.8-0.8-0.8h-9.5v-15h34.2c2.6,0,4.8-2.1,4.8-4.8V80.2
			C140.6,77.5,138.5,75.4,135.8,75.4z M42.4,76.9h93.4c1.8,0,3.2,1.4,3.2,3.2v54.7H39.2V80.2C39.2,78.4,40.6,76.9,42.4,76.9z
			 M100.1,161.8H78.1v-15h21.9V161.8z M135.8,145.3H42.4c-1.8,0-3.2-1.4-3.2-3.2v-5.7h99.9v5.7C139.1,143.8,137.6,145.3,135.8,145.3
			z"/>
		<path class="st2" d="M44.9,130.7h88.3c0.4,0,0.8-0.3,0.8-0.8V85.9c0-0.4-0.3-0.8-0.8-0.8c-0.4,0-0.8,0.3-0.8,0.8v43.3H45.6V85.9
			c0-0.4-0.3-0.8-0.8-0.8c-0.4,0-0.8,0.3-0.8,0.8V130C44.1,130.4,44.5,130.7,44.9,130.7z"/>
		<path class="st2" d="M51.4,94.7h6.9c0.4,0,0.8-0.3,0.8-0.8v-7.2c0-0.4-0.3-0.8-0.8-0.8h-6.9c-0.4,0-0.8,0.3-0.8,0.8V94
			C50.6,94.4,50.9,94.7,51.4,94.7z M52.1,87.6h5.4v5.6h-5.4V87.6z"/>
		<path class="st2" d="M64.3,88.3h11.9c0.4,0,0.8-0.3,0.8-0.8s-0.3-0.8-0.8-0.8H64.3c-0.4,0-0.8,0.3-0.8,0.8S63.9,88.3,64.3,88.3z"
			/>
		<path class="st2" d="M64.3,94.3h19.6c0.4,0,0.8-0.3,0.8-0.8s-0.3-0.8-0.8-0.8H64.3c-0.4,0-0.8,0.3-0.8,0.8S63.9,94.3,64.3,94.3z"
			/>
		<path class="st2" d="M51.4,108.7h6.9c0.4,0,0.8-0.3,0.8-0.8v-7.2c0-0.4-0.3-0.8-0.8-0.8h-6.9c-0.4,0-0.8,0.3-0.8,0.8v7.2
			C50.6,108.4,50.9,108.7,51.4,108.7z M52.1,101.6h5.4v5.6h-5.4V101.6z"/>
		<path class="st2" d="M64.3,102.3h11.9c0.4,0,0.8-0.3,0.8-0.8s-0.3-0.8-0.8-0.8H64.3c-0.4,0-0.8,0.3-0.8,0.8S63.9,102.3,64.3,102.3
			z"/>
		<path class="st2" d="M64.3,108.3h19.6c0.4,0,0.8-0.3,0.8-0.8s-0.3-0.8-0.8-0.8H64.3c-0.4,0-0.8,0.3-0.8,0.8S63.9,108.3,64.3,108.3
			z"/>
		<path class="st2" d="M51.4,122.7h6.9c0.4,0,0.8-0.3,0.8-0.8v-7.2c0-0.4-0.3-0.8-0.8-0.8h-6.9c-0.4,0-0.8,0.3-0.8,0.8v7.2
			C50.6,122.4,50.9,122.7,51.4,122.7z M52.1,115.6h5.4v5.6h-5.4V115.6z"/>
		<path class="st2" d="M64.3,116.3h11.9c0.4,0,0.8-0.3,0.8-0.8s-0.3-0.8-0.8-0.8H64.3c-0.4,0-0.8,0.3-0.8,0.8S63.9,116.3,64.3,116.3
			z"/>
		<path class="st2" d="M64.3,122.3h19.6c0.4,0,0.8-0.3,0.8-0.8s-0.3-0.8-0.8-0.8H64.3c-0.4,0-0.8,0.3-0.8,0.8S63.9,122.3,64.3,122.3
			z"/>
		<path class="st2" d="M94.4,94.7h6.9c0.4,0,0.8-0.3,0.8-0.8v-7.2c0-0.4-0.3-0.8-0.8-0.8h-6.9c-0.4,0-0.8,0.3-0.8,0.8V94
			C93.6,94.4,93.9,94.7,94.4,94.7z M95.1,87.6h5.4v5.6h-5.4V87.6z"/>
		<path class="st2" d="M107.3,88.3h10.9c0.4,0,0.8-0.3,0.8-0.8s-0.3-0.8-0.8-0.8h-10.9c-0.4,0-0.8,0.3-0.8,0.8
			S106.9,88.3,107.3,88.3z"/>
		<path class="st2" d="M107.3,94.3h18.6c0.4,0,0.8-0.3,0.8-0.8s-0.3-0.8-0.8-0.8h-18.6c-0.4,0-0.8,0.3-0.8,0.8
			S106.9,94.3,107.3,94.3z"/>
		<path class="st2" d="M94.4,108.7h6.9c0.4,0,0.8-0.3,0.8-0.8v-7.2c0-0.4-0.3-0.8-0.8-0.8h-6.9c-0.4,0-0.8,0.3-0.8,0.8v7.2
			C93.6,108.4,93.9,108.7,94.4,108.7z M95.1,101.6h5.4v5.6h-5.4V101.6z"/>
		<path class="st2" d="M107.3,102.3h10.9c0.4,0,0.8-0.3,0.8-0.8s-0.3-0.8-0.8-0.8h-10.9c-0.4,0-0.8,0.3-0.8,0.8
			S106.9,102.3,107.3,102.3z"/>
		<path class="st2" d="M107.3,108.3h18.6c0.4,0,0.8-0.3,0.8-0.8s-0.3-0.8-0.8-0.8h-18.6c-0.4,0-0.8,0.3-0.8,0.8
			S106.9,108.3,107.3,108.3z"/>
		<path class="st2" d="M94.4,122.7h6.9c0.4,0,0.8-0.3,0.8-0.8v-7.2c0-0.4-0.3-0.8-0.8-0.8h-6.9c-0.4,0-0.8,0.3-0.8,0.8v7.2
			C93.6,122.4,93.9,122.7,94.4,122.7z M95.1,115.6h5.4v5.6h-5.4V115.6z"/>
		<path class="st2" d="M107.3,116.3h10.9c0.4,0,0.8-0.3,0.8-0.8s-0.3-0.8-0.8-0.8h-10.9c-0.4,0-0.8,0.3-0.8,0.8
			S106.9,116.3,107.3,116.3z"/>
		<path class="st2" d="M107.3,122.3h18.6c0.4,0,0.8-0.3,0.8-0.8s-0.3-0.8-0.8-0.8h-18.6c-0.4,0-0.8,0.3-0.8,0.8
			S106.9,122.3,107.3,122.3z"/>
	</g>
	<g>
		<path class="st3" d="M155.3,67.9c-0.5,0-0.8,0.4-0.8,0.8v1.4c0,0.5,0.4,0.8,0.8,0.8c0.5,0,0.8-0.4,0.8-0.8v-1.4
			C156.2,68.3,155.8,67.9,155.3,67.9z"/>
		<path class="st3" d="M155.3,94.9c-0.5,0-0.8,0.4-0.8,0.8v2.5c0,0.5,0.4,0.8,0.8,0.8c0.5,0,0.8-0.4,0.8-0.8v-2.5
			C156.2,95.3,155.8,94.9,155.3,94.9z"/>
		<path class="st3" d="M155.3,87.9c-0.5,0-0.8,0.4-0.8,0.8v2.5c0,0.5,0.4,0.8,0.8,0.8c0.5,0,0.8-0.4,0.8-0.8v-2.5
			C156.2,88.3,155.8,87.9,155.3,87.9z"/>
		<path class="st3" d="M155.3,101.9c-0.5,0-0.8,0.4-0.8,0.8v2.5c0,0.5,0.4,0.8,0.8,0.8c0.5,0,0.8-0.4,0.8-0.8v-2.5
			C156.2,102.3,155.8,101.9,155.3,101.9z"/>
		<path class="st3" d="M155.3,80.9c-0.5,0-0.8,0.4-0.8,0.8v2.5c0,0.5,0.4,0.8,0.8,0.8c0.5,0,0.8-0.4,0.8-0.8v-2.5
			C156.2,81.2,155.8,80.9,155.3,80.9z"/>
		<path class="st3" d="M155.3,73.8c-0.5,0-0.8,0.4-0.8,0.8v2.5c0,0.5,0.4,0.8,0.8,0.8c0.5,0,0.8-0.4,0.8-0.8v-2.5
			C156.2,74.2,155.8,73.8,155.3,73.8z"/>
		<path class="st3" d="M155.3,109c-0.5,0-0.8,0.4-0.8,0.8v0.5H154c-0.5,0-0.8,0.4-0.8,0.8c0,0.5,0.4,0.8,0.8,0.8h1.4
			c0.5,0,0.8-0.4,0.8-0.8v-1.4C156.2,109.3,155.8,109,155.3,109z"/>
		<path class="st3" d="M150,110.3h-2.2c-0.5,0-0.8,0.4-0.8,0.8c0,0.5,0.4,0.8,0.8,0.8h2.2c0.5,0,0.8-0.4,0.8-0.8
			C150.8,110.7,150.5,110.3,150,110.3z"/>
		<path class="st3" d="M142.6,112h1.3c0.5,0,0.8-0.4,0.8-0.8c0-0.5-0.4-0.8-0.8-0.8h-1.3c-0.5,0-0.8,0.4-0.8,0.8
			C141.7,111.6,142.1,112,142.6,112z"/>
		<path class="st3" d="M7.8,74.3c0.5,0,0.8-0.4,0.8-0.8V72c0-0.5-0.4-0.8-0.8-0.8S7,71.6,7,72v1.4C7,73.9,7.4,74.3,7.8,74.3z"/>
		<path class="st3" d="M7.8,90c0.5,0,0.8-0.4,0.8-0.8v-2.9c0-0.5-0.4-0.8-0.8-0.8S7,85.8,7,86.3v2.9C7,89.6,7.4,90,7.8,90z"/>
		<path class="st3" d="M7.8,105.8c0.5,0,0.8-0.4,0.8-0.8v-2.9c0-0.5-0.4-0.8-0.8-0.8S7,101.7,7,102.1v2.9
			C7,105.4,7.4,105.8,7.8,105.8z"/>
		<path class="st3" d="M7.8,82.1c0.5,0,0.8-0.4,0.8-0.8v-2.9c0-0.5-0.4-0.8-0.8-0.8S7,77.9,7,78.4v2.9C7,81.7,7.4,82.1,7.8,82.1z"/>
		<path class="st3" d="M7.8,97.9c0.5,0,0.8-0.4,0.8-0.8v-2.9c0-0.5-0.4-0.8-0.8-0.8S7,93.7,7,94.2v2.9C7,97.5,7.4,97.9,7.8,97.9z"/>
		<path class="st3" d="M9.2,110.3H8.7v-0.5c0-0.5-0.4-0.8-0.8-0.8S7,109.3,7,109.8v1.4c0,0.5,0.4,0.8,0.8,0.8h1.4
			c0.5,0,0.8-0.4,0.8-0.8C10,110.7,9.7,110.3,9.2,110.3z"/>
		<path class="st3" d="M17.4,110.3h-3c-0.5,0-0.8,0.4-0.8,0.8c0,0.5,0.4,0.8,0.8,0.8h3c0.5,0,0.8-0.4,0.8-0.8
			C18.3,110.7,17.9,110.3,17.4,110.3z"/>
		<path class="st3" d="M25.7,110.3h-3c-0.5,0-0.8,0.4-0.8,0.8c0,0.5,0.4,0.8,0.8,0.8h3c0.5,0,0.8-0.4,0.8-0.8
			C26.5,110.7,26.1,110.3,25.7,110.3z"/>
		<path class="st3" d="M32.3,110.3h-1.4c-0.5,0-0.8,0.4-0.8,0.8c0,0.5,0.4,0.8,0.8,0.8h1.4c0.5,0,0.8-0.4,0.8-0.8
			C33.1,110.7,32.7,110.3,32.3,110.3z"/>
		<path class="st3" d="M168.8,114.3H167v-1.8c0-0.5-0.4-0.8-0.8-0.8c-0.5,0-0.8,0.4-0.8,0.8v1.8h-1.5c-0.5,0-0.8,0.4-0.8,0.8
			c0,0.5,0.4,0.8,0.8,0.8h1.5v1.5c0,0.5,0.4,0.8,0.8,0.8c0.5,0,0.8-0.4,0.8-0.8v-1.5h1.8c0.5,0,0.8-0.4,0.8-0.8
			C169.6,114.7,169.2,114.3,168.8,114.3z"/>
		<path class="st3" d="M145,153.6h-1.8v-1.8c0-0.5-0.4-0.8-0.8-0.8c-0.5,0-0.8,0.4-0.8,0.8v1.8H140c-0.5,0-0.8,0.4-0.8,0.8
			c0,0.5,0.4,0.8,0.8,0.8h1.5v1.5c0,0.5,0.4,0.8,0.8,0.8c0.5,0,0.8-0.4,0.8-0.8v-1.5h1.8c0.5,0,0.8-0.4,0.8-0.8
			C145.8,153.9,145.4,153.6,145,153.6z"/>
		<path class="st3" d="M25,125.6h-1.8v-1.8c0-0.5-0.4-0.8-0.8-0.8s-0.8,0.4-0.8,0.8v1.8h-1.5c-0.5,0-0.8,0.4-0.8,0.8
			c0,0.5,0.4,0.8,0.8,0.8h1.5v1.5c0,0.5,0.4,0.8,0.8,0.8s0.8-0.4,0.8-0.8v-1.5H25c0.5,0,0.8-0.4,0.8-0.8
			C25.8,126,25.5,125.6,25,125.6z"/>
		<path class="st3" d="M122.3,59.2h-1.8v-1.8c0-0.5-0.4-0.8-0.8-0.8s-0.8,0.4-0.8,0.8v1.8h-1.5c-0.5,0-0.8,0.4-0.8,0.8
			s0.4,0.8,0.8,0.8h1.5v1.5c0,0.5,0.4,0.8,0.8,0.8s0.8-0.4,0.8-0.8v-1.5h1.8c0.5,0,0.8-0.4,0.8-0.8S122.7,59.2,122.3,59.2z"/>
		<path class="st3" d="M75.7,35.5H74v-1.8c0-0.5-0.4-0.8-0.8-0.8s-0.8,0.4-0.8,0.8v1.8h-1.5c-0.5,0-0.8,0.4-0.8,0.8
			c0,0.5,0.4,0.8,0.8,0.8h1.5v1.5c0,0.5,0.4,0.8,0.8,0.8s0.8-0.4,0.8-0.8v-1.5h1.8c0.5,0,0.8-0.4,0.8-0.8
			C76.5,35.9,76.2,35.5,75.7,35.5z"/>
		<path class="st3" d="M43.5,157.9h-1.8v-1.8c0-0.5-0.4-0.8-0.8-0.8s-0.8,0.4-0.8,0.8v1.8h-1.5c-0.5,0-0.8,0.4-0.8,0.8
			c0,0.5,0.4,0.8,0.8,0.8h1.5v1.5c0,0.5,0.4,0.8,0.8,0.8s0.8-0.4,0.8-0.8v-1.5h1.8c0.5,0,0.8-0.4,0.8-0.8
			C44.3,158.2,43.9,157.9,43.5,157.9z"/>
	</g>
	<g>
		<path class="st2" d="M164.6,158.9c-0.4,0.4-0.4,1.1,0,1.6c0.2,0.2,0.5,0.3,0.8,0.3c0.3,0,0.6-0.1,0.8-0.3c0.4-0.4,0.4-1.1,0-1.6
			C165.7,158.5,165,158.5,164.6,158.9z"/>
		<path class="st2" d="M169,160c-0.6,0-1.1,0.5-1.1,1.1c0,0.6,0.5,1,1.1,1c0,0,0,0,0,0c0.6,0,1.1-0.5,1.1-1.1
			C170.1,160.4,169.6,160,169,160z"/>
		<path class="st2" d="M165.3,153.7c0.3,0,0.6-0.1,0.8-0.3c0.4-0.4,0.4-1.1,0-1.6c-0.4-0.4-1.1-0.4-1.6,0c-0.4,0.4-0.4,1.1,0,1.6
			C164.8,153.6,165,153.7,165.3,153.7z"/>
		<path class="st2" d="M165,156.2c0-0.6-0.5-1.1-1.1-1.1c-0.6,0-1.1,0.5-1.1,1.1c0,0.6,0.5,1.1,1.1,1.1c0,0,0,0,0,0
			C164.5,157.3,165,156.8,165,156.2z"/>
		<path class="st2" d="M168.9,152.2c0.6,0,1.1-0.5,1.1-1.1c0-0.6-0.5-1.1-1.1-1.1c-0.6,0-1.1,0.5-1.1,1.1
			C167.8,151.7,168.3,152.2,168.9,152.2z"/>
		<polygon class="st2" points="174.9,155.9 174.9,155.9 174.9,155.9 		"/>
		<path class="st2" d="M173.8,154.8c-0.6,0-1.1,0.5-1,1.1c0,0.6,0.5,1,1.1,1c0,0,0,0,0,0c0.6,0,1-0.5,1-1.1
			C174.9,155.3,174.4,154.8,173.8,154.8z"/>
		<path class="st2" d="M172.2,153.5c0.3,0,0.6-0.1,0.8-0.4c0.4-0.4,0.4-1.1-0.1-1.6c-0.4-0.4-1.1-0.4-1.6,0.1
			c-0.4,0.4-0.4,1.1,0.1,1.6C171.7,153.4,172,153.5,172.2,153.5z"/>
		<path class="st2" d="M171.7,158.8c-0.4,0.4-0.4,1.1,0,1.6c0.2,0.2,0.5,0.3,0.8,0.3c0.3,0,0.6-0.1,0.8-0.3c0.4-0.4,0.4-1.1,0-1.6
			C172.8,158.3,172.1,158.3,171.7,158.8z"/>
		<path class="st2" d="M9,152.2c0.6,0,1.1-0.5,1.1-1.1c0-0.6-0.5-1.1-1.1-1.1c-0.6,0-1.1,0.5-1.1,1.1C7.9,151.7,8.4,152.2,9,152.2z"
			/>
		<path class="st2" d="M12.3,153.5c0.3,0,0.6-0.1,0.8-0.4c0.4-0.4,0.4-1.1-0.1-1.6c-0.4-0.4-1.1-0.4-1.6,0.1
			c-0.4,0.4-0.4,1.1,0.1,1.6C11.8,153.4,12.1,153.5,12.3,153.5z"/>
		<path class="st2" d="M9.1,160c-0.6,0-1.1,0.5-1.1,1.1c0,0.6,0.5,1,1.1,1c0,0,0,0,0,0c0.6,0,1.1-0.5,1.1-1.1
			C10.2,160.4,9.7,160,9.1,160z"/>
		<path class="st2" d="M11.8,158.8c-0.4,0.4-0.4,1.1,0,1.6c0.2,0.2,0.5,0.3,0.8,0.3c0.3,0,0.6-0.1,0.8-0.3c0.4-0.4,0.4-1.1,0-1.6
			C12.9,158.3,12.2,158.3,11.8,158.8z"/>
		<path class="st2" d="M5.4,153.7c0.3,0,0.6-0.1,0.8-0.3c0.4-0.4,0.4-1.1,0-1.6c-0.4-0.4-1.1-0.4-1.6,0c-0.4,0.4-0.4,1.1,0,1.6
			C4.9,153.6,5.1,153.7,5.4,153.7z"/>
		<path class="st2" d="M4.7,158.9c-0.4,0.4-0.4,1.1,0,1.6c0.2,0.2,0.5,0.3,0.8,0.3c0.3,0,0.6-0.1,0.8-0.3c0.4-0.4,0.4-1.1,0-1.6
			C5.8,158.5,5.1,158.5,4.7,158.9z"/>
		<path class="st2" d="M13.9,154.8c-0.6,0-1.1,0.5-1.1,1.1c0,0.6,0.5,1.1,1.1,1.1c0,0,0,0,0,0c0.6,0,1.1-0.5,1.1-1.1
			C15,155.3,14.5,154.8,13.9,154.8z"/>
		<path class="st2" d="M5.1,156.2c0-0.6-0.5-1.1-1.1-1.1c-0.6,0-1.1,0.5-1.1,1.1c0,0.6,0.5,1.1,1.1,1.1c0,0,0,0,0,0
			C4.6,157.3,5.1,156.8,5.1,156.2z"/>
		<path class="st2" d="M102.9,26.4c0.3,0,0.6-0.1,0.8-0.3c0.4-0.4,0.4-1.1,0-1.6c-0.4-0.4-1.1-0.4-1.6,0c-0.4,0.4-0.4,1.1,0,1.6
			C102.3,26.3,102.6,26.4,102.9,26.4z"/>
		<path class="st2" d="M102.5,28.9c0-0.6-0.5-1.1-1.1-1.1c-0.6,0-1.1,0.5-1.1,1.1c0,0.6,0.5,1.1,1.1,1.1c0,0,0,0,0,0
			C102.1,30,102.5,29.5,102.5,28.9z"/>
		<path class="st2" d="M106.5,32.7c-0.6,0-1.1,0.5-1.1,1.1c0,0.6,0.5,1,1.1,1c0,0,0,0,0,0c0.6,0,1.1-0.5,1.1-1.1
			C107.6,33.1,107.1,32.7,106.5,32.7z"/>
		<path class="st2" d="M111.4,27.5c-0.6,0-1.1,0.5-1.1,1.1c0,0.6,0.5,1,1.1,1c0,0,0,0,0,0c0.6,0,1.1-0.5,1.1-1.1
			C112.5,27.9,112,27.5,111.4,27.5z"/>
		<path class="st2" d="M106.4,24.9c0.6,0,1.1-0.5,1.1-1.1c0-0.6-0.5-1.1-1.1-1.1c-0.6,0-1.1,0.5-1.1,1.1
			C105.3,24.4,105.8,24.9,106.4,24.9z"/>
		<path class="st2" d="M102.2,31.6c-0.4,0.4-0.4,1.1,0,1.6c0.2,0.2,0.5,0.3,0.8,0.3c0.3,0,0.6-0.1,0.8-0.3c0.4-0.4,0.4-1.1,0-1.6
			C103.3,31.2,102.6,31.2,102.2,31.6z"/>
		<path class="st2" d="M109.8,26.2c0.3,0,0.6-0.1,0.8-0.4c0.4-0.4,0.4-1.1-0.1-1.5c-0.4-0.4-1.1-0.4-1.6,0.1
			c-0.4,0.4-0.4,1.1,0.1,1.6C109.3,26.1,109.5,26.2,109.8,26.2z"/>
		<path class="st2" d="M109.3,31.5c-0.4,0.4-0.4,1.1,0,1.6c0.2,0.2,0.5,0.3,0.8,0.3c0.3,0,0.6-0.1,0.8-0.3c0.4-0.4,0.4-1.1,0-1.6
			C110.4,31,109.7,31,109.3,31.5z"/>
		<path class="st2" d="M87.5,58.4c0.3,0,0.6-0.1,0.8-0.3c0.4-0.4,0.4-1.1,0-1.6c-0.4-0.4-1.1-0.4-1.6,0c-0.4,0.4-0.4,1.1,0,1.6
			C87,58.3,87.2,58.4,87.5,58.4z"/>
		<path class="st2" d="M94.4,58.3c0.3,0,0.6-0.1,0.8-0.4c0.4-0.4,0.4-1.1-0.1-1.5c-0.4-0.4-1.1-0.4-1.6,0.1
			c-0.4,0.4-0.4,1.1,0.1,1.6C93.9,58.2,94.2,58.3,94.4,58.3z"/>
		<path class="st2" d="M91.2,64.7c-0.6,0-1.1,0.5-1.1,1.1c0,0.6,0.5,1,1.1,1c0,0,0,0,0,0c0.6,0,1.1-0.5,1.1-1.1
			C92.3,65.2,91.8,64.7,91.2,64.7z"/>
		<path class="st2" d="M96,59.6c-0.6,0-1.1,0.5-1.1,1.1c0,0.6,0.5,1,1.1,1c0,0,0,0,0,0c0.6,0,1.1-0.5,1.1-1.1
			C97.1,60,96.6,59.5,96,59.6z"/>
		<path class="st2" d="M86.8,63.7c-0.4,0.4-0.4,1.1,0,1.6h0c0.2,0.2,0.5,0.3,0.8,0.3c0.3,0,0.6-0.1,0.8-0.3c0.4-0.4,0.4-1.1,0-1.6
			C87.9,63.2,87.2,63.2,86.8,63.7z"/>
		<path class="st2" d="M87.2,60.9c0-0.6-0.5-1.1-1.1-1.1c-0.6,0-1.1,0.5-1.1,1.1c0,0.6,0.5,1.1,1.1,1.1c0,0,0,0,0,0
			C86.7,62.1,87.2,61.5,87.2,60.9z"/>
		<path class="st2" d="M93.9,63.5c-0.4,0.4-0.4,1.1,0,1.6c0.2,0.2,0.5,0.3,0.8,0.3c0.3,0,0.6-0.1,0.8-0.3c0.4-0.4,0.4-1.1,0-1.6
			C95,63,94.3,63.1,93.9,63.5z"/>
		<path class="st2" d="M91.1,57c0.6,0,1.1-0.5,1.1-1.1c0-0.6-0.5-1.1-1.1-1.1c-0.6,0-1.1,0.5-1.1,1.1C90,56.5,90.5,57,91.1,57z"/>
	</g>
</g>
</svg>
