<?xml version="1.0" encoding="utf-8"?>
<!-- Generator: Adobe Illustrator 22.1.0, SVG Export Plug-In . SVG Version: 6.00 Build 0)  -->
<svg version="1.1" id="Слой_1" xmlns="http://www.w3.org/2000/svg" xmlns:xlink="http://www.w3.org/1999/xlink" x="0px" y="0px"
	 viewBox="0 0 180 180" style="enable-background:new 0 0 180 180;" xml:space="preserve">
<style type="text/css">
	.st0{filter:url(#Adobe_OpacityMaskFilter);}
	.st1{fill:#FFFFFF;}
	.st2{mask:url(#b_1_);}
	.st3{fill:#F6F4FE;}
	.st4{fill:#DAD3FF;}
	.st5{fill:#566386;}
	.st6{fill:#654BFA;}
</style>
<g transform="translate(-3 -18)">
	<defs>
		<filter id="Adobe_OpacityMaskFilter" filterUnits="userSpaceOnUse" x="6.3" y="36.4" width="173.2" height="143.4">
			<feColorMatrix  type="matrix" values="1 0 0 0 0  0 1 0 0 0  0 0 1 0 0  0 0 0 1 0"/>
		</filter>
	</defs>
	<mask maskUnits="userSpaceOnUse" x="6.3" y="36.4" width="173.2" height="143.4" id="b_1_">
		<g class="st0">
			<path id="a_1_" class="st1" d="M3,18h180v180H3V18z"/>
		</g>
	</mask>
	<g class="st2">
		<g transform="translate(3 18)">
			<circle class="st3" cx="90.5" cy="88.5" r="68.5"/>
			<path class="st1" d="M41.7,75h95l2.6,0.9l1.1,2.5v60.1l-0.7,4.2l-2.6,2H42.4l-2.6-1.5l-0.8-4.1V79.6l0.8-3.8L41.7,75z"/>
			<path class="st4" d="M161.4,46.1c-3.8,3.8-9.9,3.8-13.6,0c-3.8-3.8-3.8-9.9,0-13.6c3.8-3.8,9.9-3.8,13.6,0
				C165.2,36.3,165.2,42.4,161.4,46.1z M174.7,36.2l-3.5,0c-0.5,0-1-0.4-1.1-0.9c-0.3-1.1-0.6-2.1-1.1-3.1c-0.2-0.4-0.1-1,0.2-1.3
				l2.4-2.4c0.4-0.4,0.4-1.2,0-1.6l-3.5-3.5c-0.4-0.4-1.2-0.4-1.6,0c0,0,0,0,0,0l-2.1,2.1c-0.4,0.4-1,0.4-1.4,0.2
				c-1-0.6-2.1-1.1-3.3-1.5c-0.5-0.2-0.8-0.6-0.8-1.1l0-2.8c0-0.6-0.5-1.1-1.1-1.1h-5c-0.6,0-1.1,0.5-1.1,1.1l0,2.5
				c0,0.5-0.4,1-0.9,1.1c-1.3,0.3-2.5,0.8-3.6,1.4c-0.4,0.2-1,0.2-1.4-0.2l-1.7-1.7c-0.4-0.4-1.2-0.4-1.6,0c0,0,0,0,0,0l-3.6,3.6
				c-0.4,0.4-0.4,1.2,0,1.6c0,0,0,0,0,0l1.7,1.7c0.4,0.4,0.4,0.9,0.2,1.4c-0.6,1.1-1.1,2.4-1.4,3.6c-0.1,0.5-0.6,0.9-1.1,0.9l-2.5,0
				c-0.6,0-1.1,0.5-1.1,1.1c0,0,0,0,0,0l0,5c0,0.6,0.5,1.1,1.1,1.1l2.8,0c0.5,0,0.9,0.3,1.1,0.8c0.4,1.2,0.9,2.3,1.5,3.3
				c0.3,0.5,0.2,1-0.2,1.4l-2.1,2.1c-0.4,0.4-0.4,1.2,0,1.6c0,0,0,0,0,0l3.5,3.5c0.4,0.4,1.2,0.4,1.6,0l2.4-2.4
				c0.3-0.3,0.9-0.4,1.3-0.2c1,0.5,2,0.9,3.1,1.1c0.5,0.1,0.9,0.6,0.9,1.1l0,3.5c0,0.6,0.5,1.1,1.1,1.1l5,0c0.6,0,1.1-0.5,1.1-1.1
				l0-3.8c0-0.5,0.3-0.9,0.8-1.1c0.9-0.3,1.8-0.7,2.7-1.1c0.4-0.2,1-0.2,1.4,0.2l2.7,2.7c0.4,0.4,1.2,0.4,1.6,0l3.6-3.6
				c0.4-0.4,0.4-1.2,0-1.6c0,0,0,0,0,0l-2.7-2.7c-0.4-0.4-0.4-0.9-0.2-1.4c0.5-0.9,0.9-1.8,1.2-2.7c0.2-0.5,0.6-0.8,1.1-0.8l3.8,0
				c0.6,0,1.1-0.5,1.1-1.1v-5C175.8,36.7,175.3,36.2,174.7,36.2L174.7,36.2z M51.8,93.3h6.9v-8h-6.9V93.3z"/>
			<path class="st5" d="M154.6,30.4c-2.4,0-4.6,0.9-6.3,2.6c-1.7,1.7-2.6,3.9-2.6,6.3c0,2.4,0.9,4.6,2.6,6.3
				c1.7,1.7,3.9,2.6,6.3,2.6c2.4,0,4.6-0.9,6.3-2.6c1.7-1.7,2.6-3.9,2.6-6.3c0-2.4-0.9-4.6-2.6-6.3
				C159.2,31.4,156.9,30.4,154.6,30.4L154.6,30.4z M154.6,49.7c-2.8,0-5.4-1.1-7.4-3c-2-1.9-3.1-4.6-3-7.4c0-2.8,1.1-5.4,3-7.4
				c1.9-2,4.6-3.1,7.4-3c2.8,0,5.4,1.1,7.4,3c2,1.9,3.1,4.6,3,7.4c0,2.8-1.1,5.4-3,7.4C160,48.6,157.4,49.7,154.6,49.7L154.6,49.7z"
				/>
			<path class="st5" d="M147.1,52.7c0.3,0,0.6,0.1,0.9,0.2c0.9,0.5,1.9,0.8,2.9,1.1c0.8,0.2,1.4,1,1.4,1.8l0,3.5
				c0,0.2,0.2,0.4,0.4,0.4l5,0c0.2,0,0.4-0.2,0.4-0.4c0,0,0,0,0,0l0-3.8c0-0.8,0.5-1.6,1.3-1.8c0.9-0.3,1.7-0.6,2.5-1.1
				c0.7-0.4,1.7-0.3,2.3,0.3l2.7,2.7c0.1,0.1,0.4,0.1,0.5,0l3.6-3.6c0.1-0.1,0.1-0.4,0-0.5l-2.7-2.7c-0.6-0.6-0.7-1.5-0.3-2.3
				c0.4-0.8,0.8-1.7,1.1-2.6c0.3-0.8,1-1.3,1.8-1.3h0l3.8,0c0.2,0,0.4-0.2,0.4-0.4v-5c0-0.2-0.2-0.4-0.4-0.4c0,0,0,0,0,0h0l-3.5,0h0
				c-0.9,0-1.6-0.6-1.9-1.4c-0.3-1-0.6-2-1.1-2.9c-0.4-0.7-0.2-1.6,0.4-2.2l2.4-2.4c0.1-0.1,0.1-0.4,0-0.5c0,0,0,0,0,0l-3.5-3.5
				c-0.1-0.1-0.4-0.1-0.5,0l-2.1,2.1c-0.6,0.6-1.6,0.7-2.3,0.3c-1-0.6-2-1.1-3.1-1.4c-0.8-0.3-1.3-1-1.3-1.8l0-2.8
				c0-0.2-0.2-0.4-0.4-0.4h-5c-0.2,0-0.4,0.2-0.4,0.4c0,0,0,0,0,0l0,2.5c0,0.9-0.6,1.6-1.4,1.9c-1.2,0.3-2.4,0.8-3.5,1.4
				c-0.7,0.4-1.7,0.3-2.3-0.3l-1.7-1.7c-0.1-0.1-0.4-0.1-0.5,0l-3.6,3.6c-0.1,0.1-0.1,0.4,0,0.5c0,0,0,0,0,0l1.7,1.7
				c0.6,0.6,0.7,1.5,0.3,2.3c-0.6,1.1-1,2.3-1.4,3.5c-0.2,0.8-1,1.4-1.9,1.4h0l-2.5,0h0c-0.2,0-0.4,0.2-0.4,0.4l0,5
				c0,0.2,0.2,0.4,0.4,0.4l2.8,0h0c0.8,0,1.6,0.5,1.8,1.3c0.4,1.1,0.8,2.1,1.4,3.1c0.5,0.8,0.3,1.7-0.3,2.3l-2.1,2.1
				c-0.1,0.1-0.1,0.4,0,0.5c0,0,0,0,0,0l3.5,3.5c0.1,0.1,0.4,0.1,0.5,0l2.4-2.4C146.1,52.9,146.6,52.7,147.1,52.7L147.1,52.7z
				 M157.6,61.3l-5,0c-1.1,0-1.9-0.9-1.9-1.9l0-3.5c0-0.2-0.1-0.3-0.3-0.4c-1.1-0.3-2.2-0.7-3.2-1.2c-0.1-0.1-0.3,0-0.4,0.1
				l-2.4,2.4c-0.7,0.7-2,0.7-2.7,0l-3.5-3.5c-0.7-0.7-0.7-2,0-2.7l2.1-2.1c0.1-0.1,0.1-0.3,0.1-0.5c-0.7-1.1-1.2-2.3-1.6-3.5
				c-0.1-0.2-0.2-0.3-0.4-0.3l-2.8,0h0c-0.5,0-1-0.2-1.4-0.6c-0.4-0.4-0.6-0.8-0.6-1.4l0-5c0-0.5,0.2-1,0.6-1.4
				c0.4-0.4,0.8-0.6,1.4-0.6h0l2.5,0c0.2,0,0.3-0.1,0.4-0.3c0.4-1.3,0.9-2.6,1.5-3.8c0.1-0.1,0.1-0.3-0.1-0.4l-1.7-1.7
				c-0.7-0.7-0.7-2,0-2.7l3.6-3.6c0.7-0.7,2-0.7,2.7,0l1.7,1.7c0.1,0.1,0.3,0.1,0.4,0.1c1.2-0.7,2.5-1.2,3.8-1.5
				c0.2,0,0.3-0.2,0.3-0.4l0-2.5c0-0.5,0.2-1,0.6-1.4c0.4-0.4,0.8-0.6,1.4-0.6h5c0.5,0,1,0.2,1.4,0.6c0.4,0.4,0.6,0.8,0.6,1.4l0,2.8
				c0,0.2,0.1,0.3,0.3,0.4c1.2,0.4,2.4,0.9,3.5,1.6c0.1,0.1,0.3,0.1,0.5-0.1l2.1-2.1c0.7-0.7,2-0.7,2.7,0l3.5,3.5
				c0.7,0.7,0.7,2,0,2.7l-2.4,2.4c-0.1,0.1-0.1,0.3-0.1,0.4c0.5,1,0.9,2.1,1.2,3.2c0,0.2,0.2,0.3,0.4,0.3l3.5,0c0.5,0,1,0.2,1.4,0.6
				c0.4,0.4,0.6,0.8,0.6,1.4v5c0,0.5-0.2,1-0.6,1.4s-0.8,0.6-1.4,0.6l-3.8,0c-0.2,0-0.3,0.1-0.4,0.3c-0.3,1-0.7,1.9-1.2,2.8
				c-0.1,0.1-0.1,0.3,0.1,0.4l2.7,2.7c0.7,0.7,0.7,2,0,2.7l-3.6,3.6c-0.7,0.7-2,0.7-2.7,0l-2.7-2.7c-0.1-0.1-0.3-0.1-0.4-0.1
				c-0.9,0.5-1.8,0.9-2.8,1.2c-0.2,0-0.3,0.2-0.3,0.4l0,3.8c0,0.5-0.2,1-0.6,1.4C158.6,61.1,158.1,61.3,157.6,61.3L157.6,61.3z
				 M8.2,26.8c-0.2,0-0.4-0.1-0.5-0.2L6,24.9c-0.3-0.3-0.3-0.8,0-1.1c0.3-0.3,0.7-0.3,1,0L8.2,25l3.6-3.6c0.3-0.3,0.8-0.3,1.1,0
				c0.3,0.3,0.3,0.8,0,1.1l-4.1,4.1C8.6,26.8,8.4,26.8,8.2,26.8"/>
			<path class="st5" d="M8.4,30.1c-2.8,0-5.1-2.3-5.1-5.1c0-2.8,2.3-5.1,5.1-5.1c0.4,0,0.8,0.4,0.7,0.8c0,0.4-0.3,0.7-0.7,0.7
				c-2,0-3.5,1.6-3.5,3.5c0,2,1.6,3.5,3.5,3.5c1.9,0,3.5-1.6,3.5-3.5c0-0.4,0.3-0.8,0.8-0.8c0.4,0,0.8,0.3,0.8,0.8
				C13.5,27.8,11.2,30.1,8.4,30.1 M39,23.9H16.8c-0.4,0-0.8-0.4-0.7-0.8c0-0.4,0.3-0.7,0.7-0.7H39c0.4,0,0.8,0.3,0.8,0.8
				S39.4,23.9,39,23.9 M53.1,28.1H16.8c-0.4,0-0.8-0.4-0.7-0.8c0-0.4,0.3-0.7,0.7-0.7h36.2c0.4,0,0.8,0.3,0.8,0.8
				C53.8,27.7,53.5,28.1,53.1,28.1 M8.2,44.5c-0.2,0-0.4-0.1-0.5-0.2L6,42.6c-0.3-0.3-0.3-0.8,0.1-1.1c0.3-0.3,0.7-0.3,1,0l1.2,1.2
				l3.6-3.6c0.3-0.3,0.8-0.3,1.1,0s0.3,0.8,0,1.1l-4.1,4.1C8.6,44.4,8.4,44.5,8.2,44.5"/>
			<path class="st5" d="M8.4,47.8c-2.8,0-5.1-2.3-5.1-5.1c0-2.8,2.3-5.1,5.1-5.1c0.4,0,0.8,0.4,0.7,0.8c0,0.4-0.3,0.7-0.7,0.7
				c-2,0-3.5,1.6-3.5,3.5c0,2,1.6,3.5,3.5,3.5c1.9,0,3.5-1.6,3.5-3.5c0-0.4,0.4-0.8,0.8-0.7c0.4,0,0.7,0.3,0.7,0.7
				C13.5,45.5,11.2,47.8,8.4,47.8 M39,41.5H16.8c-0.4,0-0.8-0.4-0.7-0.8c0-0.4,0.3-0.7,0.7-0.7H39c0.4,0,0.8,0.3,0.8,0.8
				C39.8,41.1,39.4,41.5,39,41.5C39,41.5,39,41.5,39,41.5 M53.1,45.6H16.8c-0.4,0-0.8-0.4-0.7-0.8c0-0.4,0.3-0.7,0.7-0.7h36.2
				c0.4,0,0.8,0.3,0.8,0.8C53.8,45.3,53.5,45.6,53.1,45.6C53.1,45.6,53.1,45.6,53.1,45.6 M8.2,62.2c-0.2,0-0.4-0.1-0.5-0.2L6,60.2
				c-0.3-0.3-0.3-0.8,0.1-1.1c0.3-0.3,0.7-0.3,1,0l1.2,1.2l3.6-3.6c0.3-0.3,0.8-0.3,1.1,0c0.3,0.3,0.3,0.8,0,1.1L8.8,62
				C8.6,62.1,8.4,62.2,8.2,62.2"/>
			<path class="st5" d="M8.4,65.5c-2.8,0-5.1-2.3-5.1-5.1c0-2.8,2.3-5.1,5.1-5.1c0.4,0,0.8,0.4,0.7,0.8c0,0.4-0.3,0.7-0.7,0.7
				c-1.9,0-3.5,1.6-3.5,3.5c0,2,1.6,3.5,3.5,3.5c1.9,0,3.5-1.6,3.5-3.5c0-0.4,0.4-0.8,0.8-0.7c0.4,0,0.7,0.3,0.7,0.7
				C13.5,63.2,11.2,65.5,8.4,65.5 M39,59.2H16.8c-0.4,0-0.8-0.4-0.7-0.8c0-0.4,0.3-0.7,0.7-0.7H39c0.4,0,0.8,0.3,0.8,0.8
				C39.8,58.9,39.4,59.2,39,59.2C39,59.2,39,59.2,39,59.2 M53.1,63.4H16.8c-0.4,0-0.8-0.4-0.7-0.8c0-0.4,0.3-0.7,0.7-0.7h36.2
				c0.4,0,0.8,0.3,0.8,0.8C53.8,63.1,53.5,63.4,53.1,63.4C53.1,63.4,53.1,63.4,53.1,63.4 M140.3,134.8H38.9c-0.4,0-0.8-0.3-0.8-0.8
				s0.3-0.8,0.8-0.8h101.4c0.4,0,0.8,0.3,0.8,0.8S140.7,134.8,140.3,134.8 M77.9,161.4c-0.4,0-0.8-0.3-0.8-0.8c0,0,0,0,0,0v-15.8
				c0-0.4,0.3-0.8,0.8-0.8s0.8,0.3,0.8,0.8v15.8C78.6,161.1,78.3,161.4,77.9,161.4C77.9,161.4,77.9,161.4,77.9,161.4 M101.3,161.4
				c-0.4,0-0.8-0.3-0.8-0.8l0,0v-15.8c0-0.4,0.3-0.8,0.8-0.8s0.8,0.3,0.8,0.8v15.8C102.1,161.1,101.8,161.4,101.3,161.4
				C101.4,161.4,101.4,161.4,101.3,161.4"/>
			<path class="st5" d="M111.7,161.8h-44c-0.4,0-0.8-0.3-0.8-0.8c0-0.4,0.3-0.8,0.8-0.8l0,0h44c0.4,0,0.8,0.3,0.8,0.8
				C112.4,161.5,112.1,161.8,111.7,161.8L111.7,161.8 M89.6,138.1c-0.7,0-1.2,0.5-1.2,1.2c0,0.7,0.5,1.2,1.2,1.2
				c0.7,0,1.2-0.5,1.2-1.2S90.3,138.1,89.6,138.1L89.6,138.1z M89.6,142c-1.5,0-2.7-1.2-2.7-2.7c0-1.5,1.2-2.7,2.7-2.7
				c1.5,0,2.7,1.2,2.7,2.7C92.3,140.8,91.1,142,89.6,142z"/>
			<path class="st5" d="M42.9,75.4c-1.8,0-3.2,1.4-3.2,3.2v61.9c0,1.8,1.4,3.2,3.2,3.2h93.4c1.8,0,3.2-1.4,3.2-3.2V78.7
				c0-1.8-1.4-3.2-3.2-3.2H42.9z M136.3,145.3H42.9c-2.6,0-4.8-2.1-4.8-4.8V78.7c0-2.6,2.1-4.8,4.8-4.8h93.4c2.6,0,4.8,2.1,4.8,4.8
				v61.9C141.1,143.2,139,145.3,136.3,145.3z"/>
			<path class="st5" d="M133.7,129.2H45.4c-0.4,0-0.8-0.3-0.8-0.8V84.4c0-0.4,0.3-0.8,0.8-0.8c0.4,0,0.8,0.3,0.8,0.8l0,0v43.3H133
				V84.4c0-0.4,0.3-0.8,0.8-0.8c0.4,0,0.8,0.3,0.8,0.8v44.1C134.5,128.9,134.2,129.2,133.7,129.2
				C133.7,129.2,133.7,129.2,133.7,129.2"/>
			<path class="st5" d="M52.6,91.7H58v-5.6h-5.4V91.7L52.6,91.7z M51.8,93.2c-0.4,0-0.8-0.3-0.8-0.8v-7.2c0-0.4,0.3-0.8,0.8-0.8h6.9
				c0.4,0,0.8,0.3,0.8,0.8v7.2c0,0.4-0.3,0.8-0.8,0.8H51.8z M64.8,86.8c-0.4,0-0.8-0.3-0.8-0.8s0.3-0.8,0.8-0.8l0,0h11.9
				c0.4,0,0.8,0.3,0.8,0.8s-0.3,0.8-0.8,0.8l0,0H64.8L64.8,86.8z M64.8,92.8c-0.4,0-0.8-0.3-0.8-0.8s0.3-0.8,0.8-0.8l0,0h19.6
				c0.4,0,0.8,0.3,0.8,0.8s-0.3,0.8-0.8,0.8H64.8z"/>
			<path class="st4" d="M51.8,107.3h6.9v-8h-6.9V107.3z"/>
			<path class="st5" d="M52.6,105.7H58v-5.6h-5.4V105.7L52.6,105.7z M51.8,107.2c-0.4,0-0.8-0.3-0.8-0.8v-7.2c0-0.4,0.3-0.8,0.8-0.8
				h6.9c0.4,0,0.8,0.3,0.8,0.8v7.2c0,0.4-0.3,0.8-0.8,0.8H51.8z M64.8,100.8c-0.4,0-0.8-0.3-0.8-0.8s0.3-0.8,0.8-0.8l0,0h11.9
				c0.4,0,0.8,0.3,0.8,0.8s-0.3,0.8-0.8,0.8l0,0H64.8L64.8,100.8z M64.8,106.8c-0.4,0-0.8-0.3-0.8-0.8s0.3-0.8,0.8-0.8l0,0h19.6
				c0.4,0,0.8,0.3,0.8,0.8s-0.3,0.8-0.8,0.8H64.8z"/>
			<path class="st4" d="M51.8,121.3h6.9v-8h-6.9V121.3z"/>
			<path class="st5" d="M52.6,119.7H58v-5.6h-5.4V119.7L52.6,119.7z M51.8,121.2c-0.4,0-0.8-0.3-0.8-0.8v-7.2c0-0.4,0.3-0.8,0.8-0.8
				h6.9c0.4,0,0.8,0.3,0.8,0.8v7.2c0,0.4-0.3,0.8-0.8,0.8H51.8z M64.8,114.8c-0.4,0-0.8-0.3-0.8-0.8s0.3-0.8,0.8-0.8l0,0h11.9
				c0.4,0,0.8,0.3,0.8,0.8s-0.3,0.8-0.8,0.8l0,0H64.8L64.8,114.8z M64.8,120.8c-0.4,0-0.8-0.3-0.8-0.8s0.3-0.8,0.8-0.8l0,0h19.6
				c0.4,0,0.8,0.3,0.8,0.8s-0.3,0.8-0.8,0.8H64.8z"/>
			<path class="st4" d="M94.8,93.3h6.9v-8h-6.9V93.3z"/>
			<path class="st5" d="M95.6,91.7h5.4v-5.6h-5.4V91.7L95.6,91.7z M94.8,93.2c-0.4,0-0.8-0.3-0.8-0.8v-7.2c0-0.4,0.3-0.8,0.8-0.8
				h6.9c0.4,0,0.8,0.3,0.8,0.8v7.2c0,0.4-0.3,0.8-0.8,0.8H94.8z M107.8,86.8c-0.4,0-0.8-0.3-0.8-0.8s0.3-0.8,0.8-0.8h10.9
				c0.4,0,0.8,0.3,0.8,0.8s-0.3,0.8-0.8,0.8H107.8L107.8,86.8z M107.8,92.8c-0.4,0-0.8-0.3-0.8-0.8s0.3-0.8,0.8-0.8h18.6
				c0.4,0,0.8,0.3,0.8,0.8s-0.3,0.8-0.8,0.8l0,0H107.8z"/>
			<path class="st4" d="M94.8,107.3h6.9v-8h-6.9V107.3z"/>
			<path class="st5" d="M95.6,105.7h5.4v-5.6h-5.4V105.7L95.6,105.7z M94.8,107.2c-0.4,0-0.8-0.3-0.8-0.8v-7.2
				c0-0.4,0.3-0.8,0.8-0.8h6.9c0.4,0,0.8,0.3,0.8,0.8v7.2c0,0.4-0.3,0.8-0.8,0.8H94.8z M107.8,100.8c-0.4,0-0.8-0.3-0.8-0.8
				s0.3-0.8,0.8-0.8h10.9c0.4,0,0.8,0.3,0.8,0.8s-0.3,0.8-0.8,0.8H107.8L107.8,100.8z M107.8,106.8c-0.4,0-0.8-0.3-0.8-0.8
				s0.3-0.8,0.8-0.8h18.6c0.4,0,0.8,0.3,0.8,0.8s-0.3,0.8-0.8,0.8l0,0H107.8z"/>
			<path class="st4" d="M94.8,121.3h6.9v-8h-6.9V121.3z"/>
			<path class="st5" d="M95.6,119.7h5.4v-5.6h-5.4V119.7L95.6,119.7z M94.8,121.2c-0.4,0-0.8-0.3-0.8-0.8v-7.2
				c0-0.4,0.3-0.8,0.8-0.8h6.9c0.4,0,0.8,0.3,0.8,0.8v7.2c0,0.4-0.3,0.8-0.8,0.8H94.8z M107.8,114.8c-0.4,0-0.8-0.3-0.8-0.8
				s0.3-0.8,0.8-0.8h10.9c0.4,0,0.8,0.3,0.8,0.8s-0.3,0.8-0.8,0.8H107.8L107.8,114.8z M107.8,120.8c-0.4,0-0.8-0.3-0.8-0.8
				s0.3-0.8,0.8-0.8h18.6c0.4,0,0.8,0.3,0.8,0.8s-0.3,0.8-0.8,0.8l0,0H107.8z"/>
			<path class="st6" d="M155.8,69.5c-0.5,0-0.8-0.4-0.8-0.8v-1.4c0-0.5,0.4-0.8,0.8-0.8c0.5,0,0.8,0.4,0.8,0.8v1.4
				C156.7,69.1,156.3,69.5,155.8,69.5 M155.8,76.5c-0.5,0-0.8-0.4-0.8-0.8v-2.5c0-0.5,0.4-0.8,0.8-0.8c0.5,0,0.8,0.4,0.8,0.8v2.5
				C156.7,76.1,156.3,76.5,155.8,76.5L155.8,76.5z M155.8,83.5c-0.5,0-0.8-0.4-0.8-0.8v-2.5c0-0.5,0.4-0.8,0.8-0.8
				c0.5,0,0.8,0.4,0.8,0.8v2.5C156.7,83.2,156.3,83.5,155.8,83.5z M155.8,90.6c-0.5,0-0.8-0.4-0.8-0.8v-2.5c0-0.5,0.4-0.8,0.8-0.8
				c0.5,0,0.8,0.4,0.8,0.8v2.5C156.7,90.2,156.3,90.6,155.8,90.6z M155.8,97.6c-0.5,0-0.8-0.4-0.8-0.8v-2.5c0-0.5,0.4-0.8,0.8-0.8
				c0.5,0,0.8,0.4,0.8,0.8v2.5C156.7,97.2,156.3,97.6,155.8,97.6L155.8,97.6z M155.8,104.6c-0.5,0-0.8-0.4-0.8-0.8v-2.5
				c0-0.5,0.4-0.8,0.8-0.8c0.5,0,0.8,0.4,0.8,0.8v2.5C156.7,104.2,156.3,104.6,155.8,104.6z M155.8,110.5h-1.4
				c-0.5,0-0.8-0.4-0.8-0.8c0-0.5,0.4-0.8,0.8-0.8h0.5v-0.5c0-0.5,0.4-0.8,0.8-0.8c0.5,0,0.8,0.4,0.8,0.8v1.4
				C156.7,110.1,156.3,110.5,155.8,110.5 M150.5,110.5h-2.2c-0.5,0-0.8-0.4-0.8-0.8c0-0.5,0.4-0.8,0.8-0.8h2.2
				c0.5,0,0.8,0.4,0.8,0.8C151.3,110.1,151,110.5,150.5,110.5 M144.4,110.5h-1.3c-0.5,0-0.8-0.4-0.8-0.8c0-0.5,0.4-0.8,0.8-0.8h1.3
				c0.5,0,0.8,0.4,0.8,0.8C145.2,110.1,144.8,110.5,144.4,110.5 M8.3,72.8c-0.5,0-0.8-0.4-0.8-0.8c0,0,0,0,0,0v-1.4
				c0-0.5,0.4-0.8,0.8-0.8c0.5,0,0.8,0.4,0.8,0.8V72C9.2,72.4,8.8,72.8,8.3,72.8C8.3,72.8,8.3,72.8,8.3,72.8 M8.3,80.6
				c-0.5,0-0.8-0.4-0.8-0.8c0,0,0,0,0,0v-2.9c0-0.5,0.4-0.8,0.8-0.8c0.5,0,0.8,0.4,0.8,0.8v2.9C9.2,80.2,8.8,80.6,8.3,80.6
				C8.3,80.6,8.3,80.6,8.3,80.6z M8.3,88.5c-0.5,0-0.8-0.4-0.8-0.8c0,0,0,0,0,0v-2.9c0-0.5,0.4-0.8,0.8-0.8c0.5,0,0.8,0.4,0.8,0.8
				v2.9C9.2,88.1,8.8,88.5,8.3,88.5z M8.3,96.4c-0.5,0-0.8-0.4-0.8-0.8c0,0,0,0,0,0v-2.9c0-0.5,0.4-0.8,0.8-0.8
				c0.5,0,0.8,0.4,0.8,0.8v2.9C9.2,96,8.8,96.4,8.3,96.4C8.3,96.4,8.3,96.4,8.3,96.4z M8.3,104.3c-0.5,0-0.8-0.4-0.8-0.8v-2.9
				c0-0.5,0.4-0.8,0.8-0.8c0.5,0,0.8,0.4,0.8,0.8v2.9C9.2,103.9,8.8,104.3,8.3,104.3L8.3,104.3z M9.7,110.5H8.3
				c-0.5,0-0.8-0.4-0.8-0.8c0,0,0,0,0,0v-1.4c0-0.5,0.4-0.8,0.8-0.8c0.5,0,0.8,0.4,0.8,0.8v0.5h0.5c0.5,0,0.8,0.4,0.8,0.8
				C10.5,110.1,10.2,110.5,9.7,110.5 M17.9,110.5h-3c-0.5,0-0.8-0.4-0.8-0.8c0-0.5,0.4-0.8,0.8-0.8h3c0.5,0,0.8,0.4,0.8,0.8
				C18.8,110.1,18.4,110.5,17.9,110.5L17.9,110.5z M26.2,110.5h-3c-0.5,0-0.8-0.4-0.8-0.8c0-0.5,0.4-0.8,0.8-0.8h3
				c0.5,0,0.8,0.4,0.8,0.8C27,110.1,26.6,110.5,26.2,110.5z M32.8,110.5h-1.4c-0.5,0-0.8-0.4-0.8-0.8c0-0.5,0.4-0.8,0.8-0.8h1.4
				c0.5,0,0.8,0.4,0.8,0.8C33.6,110.1,33.2,110.5,32.8,110.5 M166.7,116.8c-0.5,0-0.8-0.4-0.8-0.8V111c0-0.5,0.4-0.8,0.8-0.8
				c0.5,0,0.8,0.4,0.8,0.8v4.9C167.5,116.4,167.2,116.8,166.7,116.8"/>
			<path class="st6" d="M169.3,114.4h-4.9c-0.5,0-0.8-0.4-0.8-0.8s0.4-0.8,0.8-0.8h4.9c0.5,0,0.8,0.4,0.8,0.8
				S169.7,114.4,169.3,114.4 M142.9,156.1c-0.5,0-0.8-0.4-0.8-0.8v-4.9c0-0.5,0.4-0.8,0.8-0.8c0.5,0,0.8,0.4,0.8,0.8v4.9
				C143.7,155.7,143.3,156.1,142.9,156.1"/>
			<path class="st6" d="M145.5,153.7h-4.9c-0.5,0-0.8-0.4-0.8-0.8c0-0.5,0.4-0.8,0.8-0.8h4.9c0.5,0,0.8,0.4,0.8,0.8
				C146.3,153.4,145.9,153.7,145.5,153.7 M22.9,128.1c-0.5,0-0.8-0.4-0.8-0.8v-4.9c0-0.5,0.4-0.8,0.8-0.8c0.5,0,0.8,0.4,0.8,0.8v4.9
				C23.8,127.7,23.4,128.1,22.9,128.1"/>
			<path class="st6" d="M25.5,125.7h-4.9c-0.5,0-0.8-0.4-0.8-0.8c0-0.5,0.4-0.8,0.8-0.8h4.9c0.5,0,0.8,0.4,0.8,0.8
				C26.3,125.4,26,125.7,25.5,125.7 M120.2,61.7c-0.5,0-0.8-0.4-0.8-0.8v-4.9c0-0.5,0.4-0.8,0.8-0.8s0.8,0.4,0.8,0.8v4.9
				C121,61.3,120.6,61.7,120.2,61.7C120.2,61.7,120.2,61.7,120.2,61.7"/>
			<path class="st6" d="M122.8,59.3h-4.9c-0.5,0-0.8-0.4-0.8-0.8c0-0.5,0.4-0.8,0.8-0.8h4.9c0.5,0,0.8,0.4,0.8,0.8
				C123.6,59,123.2,59.3,122.8,59.3 M73.6,38c-0.5,0-0.8-0.4-0.8-0.8c0,0,0,0,0,0v-4.9c0-0.5,0.4-0.8,0.8-0.8s0.8,0.4,0.8,0.8v4.9
				C74.5,37.6,74.1,38,73.6,38C73.6,38,73.6,38,73.6,38"/>
			<path class="st6" d="M76.2,35.6h-4.9c-0.5,0-0.8-0.4-0.8-0.8c0-0.5,0.4-0.8,0.8-0.8h4.9c0.5,0,0.8,0.4,0.8,0.8
				C77,35.3,76.7,35.6,76.2,35.6 M41.4,160.4c-0.5,0-0.8-0.4-0.8-0.8c0,0,0,0,0,0v-4.9c0-0.5,0.4-0.8,0.8-0.8c0.5,0,0.8,0.4,0.8,0.8
				v4.9C42.2,160,41.8,160.4,41.4,160.4"/>
			<path class="st6" d="M44,158H39c-0.5,0-0.8-0.4-0.8-0.8c0-0.5,0.4-0.8,0.8-0.8H44c0.5,0,0.8,0.4,0.8,0.8
				C44.8,157.6,44.4,158,44,158"/>
			<path class="st5" d="M168.3,149.6c0-0.6,0.5-1.1,1.1-1.1s1.1,0.5,1.1,1.1c0,0.6-0.5,1.1-1.1,1.1
				C168.8,150.7,168.3,150.2,168.3,149.6z M172,151.7c-0.5-0.4-0.5-1.1-0.1-1.5c0.4-0.5,1.1-0.5,1.5-0.1c0,0,0,0,0,0
				c0.4,0.4,0.5,1.1,0,1.6C173.1,152.1,172.4,152.1,172,151.7L172,151.7z M165,151.9c-0.4-0.4-0.4-1.1,0-1.6c0.4-0.4,1.1-0.4,1.6,0
				s0.4,1.1,0,1.6C166.2,152.3,165.5,152.3,165,151.9L165,151.9z M173.3,154.4c0-0.6,0.4-1.1,1-1.1c0,0,0,0,0,0
				c0.6,0,1.1,0.5,1.1,1.1v0c0,0.6-0.4,1.1-1,1.1h0C173.8,155.5,173.3,155,173.3,154.4L173.3,154.4z M163.3,154.7
				c0-0.6,0.5-1.1,1.1-1.1c0.6,0,1.1,0.5,1.1,1.1c0,0.6-0.5,1.1-1.1,1.1h0C163.8,155.8,163.3,155.3,163.3,154.7L163.3,154.7z
				 M172.3,158.8c-0.4-0.4-0.5-1.1,0-1.6c0.4-0.4,1.1-0.5,1.6,0s0.5,1.1,0,1.6C173.4,159.2,172.7,159.2,172.3,158.8z M165.1,159
				c-0.4-0.4-0.4-1.1,0-1.6c0.4-0.4,1.1-0.4,1.6,0s0.4,1.1,0,1.6C166.3,159.4,165.6,159.4,165.1,159z M168.4,159.6
				c0-0.6,0.5-1.1,1.1-1.1c0,0,0,0,0,0c0.6,0,1.1,0.4,1.1,1c0,0,0,0,0,0c0,0.6-0.4,1.1-1,1.1c0,0,0,0,0,0h0
				C168.9,160.6,168.4,160.2,168.4,159.6L168.4,159.6z M8.4,149.6c0-0.6,0.5-1.1,1.1-1.1c0.6,0,1.1,0.5,1.1,1.1
				c0,0.6-0.5,1.1-1.1,1.1S8.4,150.2,8.4,149.6L8.4,149.6z M12.1,151.7c-0.5-0.4-0.5-1.1-0.1-1.5s1.1-0.5,1.5-0.1c0,0,0,0,0.1,0
				c0.4,0.4,0.4,1.1,0,1.6C13.2,152.1,12.5,152.1,12.1,151.7z M5.1,151.9c-0.4-0.4-0.4-1.1,0-1.6c0.4-0.4,1.1-0.4,1.6,0
				c0.4,0.4,0.4,1.1,0,1.6C6.2,152.3,5.6,152.3,5.1,151.9L5.1,151.9z M13.4,154.5c0-0.6,0.5-1.1,1.1-1.1s1.1,0.5,1.1,1.1
				c0,0.6-0.4,1.1-1.1,1.1h0C13.9,155.5,13.4,155,13.4,154.5z M3.4,154.7c0-0.6,0.5-1.1,1.1-1.1c0.6,0,1.1,0.5,1.1,1.1
				c0,0.6-0.5,1.1-1.1,1.1h0C3.9,155.8,3.4,155.3,3.4,154.7L3.4,154.7z M12.4,158.8c-0.5-0.4-0.5-1.1-0.1-1.6
				c0.4-0.5,1.1-0.5,1.6-0.1c0,0,0,0,0,0c0.4,0.4,0.4,1.1,0,1.6C13.5,159.2,12.8,159.2,12.4,158.8z M5.2,159c-0.4-0.4-0.5-1.1,0-1.6
				c0.4-0.4,1.1-0.5,1.6,0c0,0,0,0,0,0c0.4,0.4,0.4,1.1,0,1.6C6.3,159.4,5.7,159.4,5.2,159L5.2,159z M8.5,159.6
				c0-0.6,0.5-1.1,1.1-1.1c0,0,0,0,0,0c0.6,0,1.1,0.4,1.1,1c0,0,0,0,0,0c0,0.6-0.4,1.1-1,1.1c0,0,0,0,0,0h0
				C9,160.6,8.5,160.2,8.5,159.6L8.5,159.6z M105.8,22.3c0-0.6,0.5-1.1,1.1-1.1s1.1,0.5,1.1,1.1c0,0.6-0.5,1.1-1.1,1.1
				S105.8,22.9,105.8,22.3z M109.6,24.4c-0.4-0.4-0.5-1.1-0.1-1.6c0.4-0.4,1.1-0.5,1.6-0.1l0,0c0.4,0.4,0.5,1.1,0.1,1.6
				C110.7,24.8,110,24.8,109.6,24.4z M102.6,24.6c-0.4-0.4-0.5-1.1,0-1.6c0.4-0.4,1.1-0.5,1.6,0c0,0,0,0,0,0c0.4,0.4,0.4,1.1,0,1.6
				C103.7,25,103,25,102.6,24.6z M110.8,27.1c0-0.6,0.4-1.1,1-1.1c0,0,0,0,0,0c0.6,0,1.1,0.4,1.1,1c0,0,0,0,0,0
				c0,0.6-0.4,1.1-1.1,1.1h0C111.3,28.2,110.8,27.7,110.8,27.1L110.8,27.1z M100.8,27.4c0-0.6,0.5-1.1,1.1-1.1
				c0.6,0,1.1,0.5,1.1,1.1c0,0.6-0.5,1.1-1.1,1.1h0C101.3,28.5,100.8,28,100.8,27.4z M109.8,31.5c-0.5-0.4-0.5-1.1-0.1-1.6
				s1.1-0.5,1.6-0.1c0,0,0,0,0,0c0.4,0.4,0.4,1.1,0,1.6C110.9,31.9,110.2,31.9,109.8,31.5z M102.7,31.7c-0.4-0.4-0.5-1.1,0-1.6
				c0.4-0.4,1.1-0.5,1.6,0c0,0,0,0,0,0c0.4,0.4,0.4,1.1,0,1.6C103.8,32.1,103.1,32.1,102.7,31.7z M106,32.3c0-0.6,0.5-1.1,1.1-1.1
				c0,0,0,0,0,0c0.6,0,1.1,0.4,1.1,1c0,0,0,0,0,0c0,0.6-0.4,1.1-1,1.1c0,0,0,0,0,0h0C106.5,33.3,106,32.9,106,32.3z M90.5,54.4
				c0-0.6,0.5-1.1,1.1-1.1s1.1,0.5,1.1,1.1s-0.5,1.1-1.1,1.1S90.5,55,90.5,54.4z M94.2,56.5c-0.4-0.4-0.5-1.1-0.1-1.6
				c0.4-0.4,1.1-0.5,1.6-0.1c0.4,0.4,0.5,1.1,0,1.6C95.3,56.8,94.6,56.9,94.2,56.5L94.2,56.5z M87.2,56.6c-0.4-0.4-0.5-1.1,0-1.6
				c0.4-0.4,1.1-0.5,1.6,0c0,0,0,0,0,0c0.4,0.4,0.4,1.1,0,1.6C88.3,57,87.7,57,87.2,56.6z M95.4,59.2c0-0.6,0.4-1.1,1-1.1
				c0,0,0,0,0,0c0.6,0,1.1,0.4,1.1,1c0,0,0,0,0,0c0,0.6-0.4,1.1-1.1,1.1h0C96,60.2,95.5,59.8,95.4,59.2z M85.5,59.4
				c0-0.6,0.5-1.1,1.1-1.1c0.6,0,1.1,0.5,1.1,1.1c0,0.6-0.5,1.1-1.1,1.1h0C86,60.6,85.5,60,85.5,59.4z M94.4,63.6
				C94,63.2,94,62.5,94.4,62c0.4-0.5,1.1-0.5,1.6-0.1c0,0,0,0,0,0c0.4,0.4,0.4,1.1,0,1.6C95.5,63.9,94.9,63.9,94.4,63.6z M87.3,63.7
				L87.3,63.7c-0.4-0.4-0.5-1.1,0-1.6c0.4-0.4,1.1-0.4,1.6,0s0.4,1.1,0,1.6c-0.2,0.2-0.5,0.3-0.8,0.3C87.8,64,87.6,64,87.3,63.7z
				 M90.6,64.3c0-0.6,0.5-1.1,1.1-1.1c0,0,0,0,0,0c0.6,0,1.1,0.4,1.1,1c0,0,0,0,0,0c0,0.6-0.4,1.1-1,1.1c0,0,0,0,0,0h0
				C91.1,65.4,90.6,64.9,90.6,64.3L90.6,64.3z"/>
		</g>
	</g>
</g>
</svg>
