<?xml version="1.0" encoding="utf-8"?>
<!-- Generator: Adobe Illustrator 22.1.0, SVG Export Plug-In . SVG Version: 6.00 Build 0)  -->
<svg version="1.1" id="Слой_1" xmlns="http://www.w3.org/2000/svg" xmlns:xlink="http://www.w3.org/1999/xlink" x="0px" y="0px"
	 viewBox="0 0 180 180" style="enable-background:new 0 0 180 180;" xml:space="preserve">
<style type="text/css">
	.st0{filter:url(#Adobe_OpacityMaskFilter);}
	.st1{fill:#FFFFFF;}
	.st2{mask:url(#b_1_);}
	.st3{fill:#F6F4FE;}
	.st4{fill:#DAD3FF;}
	.st5{fill:#566386;}
	.st6{fill:#654BFA;}
</style>
<g transform="translate(-2 -17)">
	<defs>
		<filter id="Adobe_OpacityMaskFilter" filterUnits="userSpaceOnUse" x="4.1" y="34.3" width="175.9" height="145.7">
			<feColorMatrix  type="matrix" values="1 0 0 0 0  0 1 0 0 0  0 0 1 0 0  0 0 0 1 0"/>
		</filter>
	</defs>
	<mask maskUnits="userSpaceOnUse" x="4.1" y="34.3" width="175.9" height="145.7" id="b_1_">
		<g class="st0">
			<path id="a_1_" class="st1" d="M2,17h180v180H2V17z"/>
		</g>
	</mask>
	<g class="st2">
		<g transform="translate(2 17)">
			<circle class="st3" cx="90.5" cy="89.5" r="68.5"/>
			<path class="st1" d="M51.5,18.5h5.3v38.3h81.6l3.3,2.2v51.7l2.1-1l6.1-4.9l7.6,6.9l-1.3,5.7h-27.6v16.4l13.8,11.4l-19.9,15.9
				l-0.7-29.3H97.3v19.9h-23v-19.9H31.9l-2.4-2.8V58.2l-8.3-3.5V34.8l30.3-13.6V18.5z"/>
			<path class="st4" d="M39.1,76.8c-1.9,0-3.5,1.6-3.5,3.5c0,1.9,1.6,3.5,3.5,3.5h0c1.9,0,3.5-1.6,3.5-3.5c0,0,0,0,0,0
				C42.5,78.3,41,76.8,39.1,76.8 M39.1,89.9c-1.9,0-3.5,1.6-3.5,3.5l0,0c0,1.9,1.6,3.5,3.5,3.5c1.9,0,3.5-1.6,3.5-3.5c0,0,0,0,0,0
				C42.5,91.5,41,89.9,39.1,89.9C39.1,89.9,39.1,89.9,39.1,89.9 M39.1,103c-1.9,0-3.5,1.6-3.5,3.5c0,1.9,1.6,3.5,3.5,3.5
				c1.9,0,3.5-1.6,3.5-3.5c0,0,0,0,0,0C42.5,104.6,41,103,39.1,103L39.1,103 M128.6,133.1l13.5,11.9l7.5-6.4l7.5,6.2l13.5-11.8
				v-15.3h-42L128.6,133.1 M3.1,53.4h10.7V35.5H3.1V53.4z"/>
			<path class="st5" d="M121.4,132.9H33.6c-2.8,0-5-2.2-5-5V61c0-0.8,0.2-1.5,0.5-2.2c0.2-0.5,0.8-0.6,1.3-0.4
				c0.4,0.2,0.6,0.8,0.4,1.2c-0.2,0.4-0.3,0.9-0.3,1.4v66.9c0,1.7,1.4,3.1,3.2,3.1h87.8c0.5,0,1,0.4,1,0.9
				C122.4,132.5,122,132.9,121.4,132.9C121.4,132.9,121.4,132.9,121.4,132.9 M142,111.6c-0.5,0-0.9-0.4-0.9-0.9V61
				c0-1.7-1.4-3.2-3.1-3.2H56.8c-0.5,0-1-0.4-1-0.9c0-0.5,0.4-1,0.9-1c0,0,0.1,0,0.1,0h81.1c2.8,0,5,2.3,5,5v49.6
				C142.9,111.1,142.5,111.6,142,111.6"/>
			<path class="st5" d="M128.3,121.3H29.6c-0.5,0-1-0.4-1-0.9c0-0.5,0.4-1,0.9-1c0,0,0.1,0,0.1,0h98.7c0.5,0,1,0.4,1,0.9
				C129.3,120.8,128.9,121.2,128.3,121.3C128.3,121.3,128.3,121.3,128.3,121.3 M74.4,153.4c-0.5,0-0.9-0.4-0.9-0.9v-20.1
				c0-0.5,0.5-0.9,1-0.9c0.5,0,0.9,0.4,0.9,0.9v20.1C75.3,152.9,74.9,153.4,74.4,153.4 M97.1,153.4c-0.5,0-0.9-0.4-0.9-0.9v-20.3
				c0-0.5,0.4-0.9,0.9-0.9c0.5,0,0.9,0.4,0.9,0.9v20.3C98.1,152.9,97.6,153.4,97.1,153.4"/>
			<path class="st5" d="M114.4,153.4H57.2c-0.5,0-1-0.4-1-0.9c0-0.5,0.4-1,0.9-1c0,0,0.1,0,0.1,0h57.2c0.5,0,1,0.4,1,0.9
				C115.4,153,115,153.4,114.4,153.4C114.4,153.4,114.4,153.4,114.4,153.4 M177,163h-54.8c-0.5,0-0.9-0.4-0.9-0.9c0,0,0,0,0,0v-33.9
				c0-0.5,0.4-0.9,0.9-0.9c0.5,0,0.9,0.4,0.9,0.9v33h53v-33c0-0.5,0.4-0.9,0.9-0.9s0.9,0.4,0.9,0.9V162
				C177.9,162.5,177.5,163,177,163C177,163,177,163,177,163"/>
			<path class="st5" d="M122.2,129c-0.5,0-0.9-0.4-0.9-0.9c0-0.3,0.1-0.5,0.3-0.7l5.7-4.8c0.4-0.3,1-0.3,1.3,0.1
				c0.3,0.4,0.3,1-0.1,1.3c0,0,0,0,0,0l-5.7,4.8C122.6,129,122.4,129,122.2,129 M134.9,118.3c-0.3,0-0.5-0.1-0.7-0.3
				c-0.3-0.4-0.3-1,0.1-1.3c0,0,0,0,0,0l14.8-12.5c0.4-0.3,0.9-0.3,1.2,0l14.4,12.3c0.4,0.3,0.4,0.9,0.1,1.3c0,0,0,0,0,0
				c-0.3,0.4-0.9,0.4-1.3,0.1l-13.8-11.7l-14.2,12C135.4,118.2,135.2,118.3,134.9,118.3 M177,128.9c-0.2,0-0.4-0.1-0.6-0.2l-6-5.1
				c-0.4-0.3-0.4-0.9-0.1-1.3c0,0,0,0,0,0c0.3-0.4,0.9-0.4,1.3-0.1l6,5.1c0.4,0.3,0.4,0.9,0.1,1.3
				C177.5,128.8,177.2,128.9,177,128.9 M122.2,162.9c-0.5,0-0.9-0.4-0.9-0.9c0-0.3,0.1-0.5,0.3-0.7l27.4-23.3c0.4-0.3,0.9-0.3,1.2,0
				l27.4,23.1c0.4,0.3,0.4,0.9,0.1,1.3c-0.3,0.4-0.9,0.4-1.3,0.1l-26.8-22.6l-26.8,22.7C122.6,162.8,122.4,162.9,122.2,162.9"/>
			<path class="st5" d="M142,146c-0.2,0-0.4-0.1-0.6-0.2l-19.9-17c-0.4-0.3-0.4-0.9-0.1-1.3s0.9-0.4,1.3-0.1l19.9,17
				c0.4,0.3,0.4,0.9,0.1,1.3C142.6,145.9,142.3,146,142,146 M157.1,145.8c-0.5,0-0.9-0.4-0.9-0.9c0-0.3,0.1-0.5,0.3-0.7l20-16.8
				c0.4-0.3,1-0.3,1.3,0.1c0.3,0.4,0.3,1-0.1,1.3l-20,16.8C157.5,145.7,157.3,145.8,157.1,145.8"/>
			<path class="st5" d="M170.6,134.1c-0.5,0-0.9-0.4-0.9-0.9v-14.4h-40.1v14.4c0,0.5-0.4,0.9-0.9,0.9c-0.5,0-0.9-0.4-0.9-0.9v-15.3
				c0-0.5,0.4-0.9,0.9-0.9h42c0.5,0,0.9,0.4,0.9,0.9v15.3C171.5,133.6,171.1,134.1,170.6,134.1"/>
			<path class="st5" d="M162.6,124.7h-25.9c-0.5,0-0.9-0.4-0.9-0.9c0-0.5,0.4-0.9,0.9-0.9h25.9c0.5,0,1,0.4,1,0.9
				C163.6,124.2,163.2,124.7,162.6,124.7C162.6,124.7,162.6,124.7,162.6,124.7 M162.6,129.9h-25.9c-0.5,0-0.9-0.4-0.9-0.9
				c0-0.5,0.4-0.9,0.9-0.9h25.9c0.5,0,1,0.4,1,0.9C163.6,129.5,163.2,129.9,162.6,129.9C162.6,129.9,162.6,129.9,162.6,129.9
				 M162.6,135.2h-25.9c-0.5,0-0.9-0.4-0.9-0.9c0-0.5,0.4-0.9,0.9-0.9h25.9c0.5,0,1,0.4,1,0.9C163.5,134.8,163.1,135.2,162.6,135.2
				C162.6,135.2,162.6,135.2,162.6,135.2 M14.7,87.9h4.8v-60h-4.8C14.7,27.9,14.7,87.9,14.7,87.9z M21.4,88.8c0,0.5-0.4,0.9-0.9,0.9
				h-6.7c-0.5,0-0.9-0.4-0.9-0.9l0,0V27c0-0.5,0.4-0.9,0.9-0.9h6.7c0.5,0,0.9,0.4,0.9,0.9V88.8L21.4,88.8z"/>
			<path class="st5" d="M26.2,65h-5c-0.5,0-1-0.4-1-0.9c0-0.5,0.4-1,0.9-1c0,0,0.1,0,0.1,0h3.9l-0.9-6.2c-0.1-0.5,0.3-1,0.8-1.1
				s1,0.3,1.1,0.8l1.1,7.3c0.1,0.5-0.3,1-0.8,1.1C26.2,65,26.2,65,26.2,65 M56.5,72.7h-5.2c-0.5,0-0.9-0.4-0.9-0.9c0,0,0,0,0,0V47.5
				c0-0.5,0.4-0.9,0.9-0.9s0.9,0.4,0.9,0.9v23.4h3.3V19.2h-3.3v14.5c0,0.5-0.4,0.9-0.9,0.9s-0.9-0.4-0.9-0.9V18.2
				c0-0.5,0.4-0.9,0.9-0.9h5.2c0.5,0,0.9,0.4,0.9,0.9v53.5C57.4,72.3,57,72.7,56.5,72.7 M13.8,54.3H3.1c-0.5,0-0.9-0.4-0.9-0.9
				c0,0,0,0,0,0V35.5c0-0.5,0.4-0.9,0.9-0.9h10.7c0.5,0,1,0.4,1,0.9s-0.4,1-0.9,1c0,0-0.1,0-0.1,0H4v16h9.8c0.5,0,1,0.4,1,0.9
				C14.8,53.9,14.4,54.3,13.8,54.3C13.9,54.3,13.8,54.3,13.8,54.3"/>
			<path class="st5" d="M51.2,68.6c-0.1,0-0.3,0-0.4-0.1l-30.6-13c-0.5-0.2-0.7-0.8-0.5-1.2c0.2-0.5,0.8-0.7,1.2-0.5l30.6,13
				c0.5,0.2,0.7,0.8,0.5,1.2C51.9,68.4,51.5,68.6,51.2,68.6 M20.5,35.2c-0.5,0-0.9-0.4-0.9-0.9c0-0.4,0.2-0.7,0.6-0.9l30.6-13
				c0.5-0.2,1,0,1.2,0.5c0.2,0.5,0,1-0.5,1.2l-30.6,13C20.8,35.2,20.7,35.2,20.5,35.2"/>
			<path class="st5" d="M51.1,71.6H35.6c-0.5,0-0.9-0.4-0.9-0.9c0,0,0,0,0,0v-7.9c0-0.5,0.4-0.9,0.9-0.9h3.8c0.5,0,1,0.4,1,0.9
				c0,0.5-0.4,1-0.9,1c0,0-0.1,0-0.1,0h-2.9v6h14.5c0.5,0,1,0.4,1,0.9C52.1,71.1,51.7,71.6,51.1,71.6C51.2,71.6,51.1,71.6,51.1,71.6
				 M135.9,71.6H57c-0.5,0-1-0.4-1-0.9c0-0.5,0.4-1,0.9-1c0,0,0.1,0,0.1,0h77.9v-6H57.1c-0.5,0-1-0.4-1-0.9c0-0.5,0.4-1,0.9-1
				c0,0,0.1,0,0.1,0h78.8c0.5,0,0.9,0.4,0.9,0.9v7.9C136.8,71.2,136.4,71.6,135.9,71.6"/>
			<path class="st5" d="M47.7,71.4c-0.5,0-0.9-0.4-0.9-0.9c0,0,0,0,0,0V67c0-0.5,0.4-0.9,0.9-0.9s0.9,0.4,0.9,0.9v3.5
				C48.7,71,48.2,71.4,47.7,71.4 M41.7,66.1c-0.3,0-0.6,0.3-0.6,0.6s0.3,0.6,0.6,0.6s0.6-0.3,0.6-0.6S42,66.1,41.7,66.1z M41.7,69.2
				c-1.4,0-2.5-1.1-2.5-2.5c0-1.4,1.2-2.5,2.6-2.4c1.3,0,2.4,1.1,2.4,2.4C44.1,68,43,69.2,41.7,69.2z M131.5,67.7H56.8
				c-0.5,0-1-0.4-1-0.9c0-0.5,0.4-1,0.9-1c0,0,0.1,0,0.1,0h74.7c0.5,0,1,0.4,1,0.9S132.1,67.7,131.5,67.7
				C131.5,67.7,131.5,67.7,131.5,67.7 M39.1,77.7c-1.4,0-2.5,1.1-2.5,2.5c0,1.4,1.2,2.5,2.6,2.4c1.3,0,2.4-1.1,2.4-2.4
				C41.6,78.9,40.5,77.7,39.1,77.7z M39.1,84.7c-2.4,0-4.4-2-4.4-4.4c0-2.4,2-4.4,4.4-4.4c2.4,0,4.4,2,4.4,4.4
				C43.5,82.7,41.5,84.7,39.1,84.7z M119.3,81.3H49.4c-0.5,0-1-0.4-1-0.9c0-0.5,0.4-1,0.9-1c0,0,0.1,0,0.1,0h69.8c0.5,0,1,0.4,1,0.9
				S119.9,81.2,119.3,81.3C119.3,81.3,119.3,81.3,119.3,81.3 M135.8,81.3h-5.3c-0.5,0-0.9-0.5-0.9-1c0-0.5,0.4-0.9,0.9-0.9h5.3
				c0.5,0,1,0.4,1,0.9S136.4,81.2,135.8,81.3C135.9,81.3,135.8,81.3,135.8,81.3 M39.1,90.9c-1.4,0-2.5,1.1-2.5,2.5
				c0,1.4,1.2,2.5,2.6,2.4c1.3,0,2.4-1.1,2.4-2.4C41.6,92,40.5,90.9,39.1,90.9z M39.1,97.8c-2.4,0-4.4-2-4.4-4.4
				c0-2.4,2-4.4,4.4-4.4c2.4,0,4.4,2,4.4,4.4C43.5,95.8,41.5,97.8,39.1,97.8z M119.3,94.2H49.4c-0.5,0-1-0.4-1-0.9
				c0-0.5,0.4-1,0.9-1c0,0,0.1,0,0.1,0h69.8c0.5,0,1,0.4,1,0.9S119.9,94.2,119.3,94.2C119.3,94.2,119.3,94.2,119.3,94.2 M135.8,94.2
				h-5.3c-0.5,0-0.9-0.4-0.9-0.9c0-0.5,0.4-0.9,0.9-0.9h5.3c0.5,0,1,0.4,1,0.9C136.8,93.8,136.4,94.2,135.8,94.2
				C135.9,94.2,135.8,94.2,135.8,94.2 M39.1,104c-1.4,0-2.5,1.1-2.5,2.5c0,1.4,1.2,2.5,2.6,2.4c1.3,0,2.4-1.1,2.4-2.4
				C41.6,105.1,40.5,104,39.1,104L39.1,104z M39.1,110.9c-2.4,0-4.4-2-4.4-4.4c0-2.4,2-4.4,4.4-4.4c2.4,0,4.4,2,4.4,4.4
				C43.5,108.9,41.5,110.9,39.1,110.9L39.1,110.9z M119.3,107.5H49.4c-0.5,0-1-0.4-1-0.9c0-0.5,0.4-1,0.9-1c0,0,0,0,0.1,0h69.8
				c0.5,0,1,0.4,1,0.9C120.3,107.1,119.8,107.5,119.3,107.5C119.3,107.5,119.3,107.5,119.3,107.5 M135.8,107.5h-5.3
				c-0.5,0-0.9-0.4-0.9-0.9c0-0.5,0.4-0.9,0.9-0.9h5.3c0.5,0,1,0.4,1,0.9C136.8,107.1,136.4,107.5,135.8,107.5
				C135.8,107.5,135.8,107.5,135.8,107.5"/>
			<path class="st6" d="M17.1,103.7c-0.5,0-0.9-0.4-0.9-0.9l0,0v-1.7c0-0.5,0.4-0.9,0.9-0.9s0.9,0.4,0.9,0.9v1.7
				C18,103.3,17.6,103.7,17.1,103.7 M17.1,112.2c-0.5,0-0.9-0.4-0.9-0.9l0,0v-3.2c0-0.5,0.4-0.9,0.9-0.9s0.9,0.4,0.9,0.9v3.2
				C18,111.8,17.6,112.2,17.1,112.2L17.1,112.2z M17.1,120.8c-0.5,0-0.9-0.4-0.9-0.9c0,0,0,0,0,0v-3.2c0-0.5,0.4-0.9,0.9-0.9
				s0.9,0.4,0.9,0.9v3.2C18,120.3,17.6,120.8,17.1,120.8L17.1,120.8z M17.1,129.3c-0.5,0-0.9-0.4-0.9-0.9c0,0,0,0,0,0v-3.2
				c0-0.5,0.4-0.9,0.9-0.9s0.9,0.4,0.9,0.9v3.2C18,128.9,17.6,129.3,17.1,129.3L17.1,129.3z M17.1,137.8c-0.5,0-0.9-0.4-0.9-0.9
				c0,0,0,0,0,0v-3.2c0-0.5,0.4-0.9,0.9-0.9s0.9,0.4,0.9,0.9v3.2C18,137.4,17.6,137.8,17.1,137.8L17.1,137.8z M17.1,146.4
				c-0.5,0-0.9-0.4-0.9-0.9c0,0,0,0,0,0v-3.2c0-0.5,0.4-0.9,0.9-0.9s0.9,0.4,0.9,0.9v3.2C18,146,17.6,146.4,17.1,146.4L17.1,146.4z
				 M18.7,153.5h-1.6c-0.5,0-0.9-0.4-0.9-0.9V151c0-0.5,0.4-0.9,0.9-0.9s0.9,0.4,0.9,0.9v0.7h0.7c0.5,0,1,0.4,1,0.9
				C19.7,153.1,19.3,153.5,18.7,153.5C18.7,153.5,18.7,153.5,18.7,153.5 M26.7,153.5h-3c-0.5,0-1-0.4-1-0.9c0-0.5,0.4-1,0.9-1
				c0,0,0.1,0,0.1,0h3c0.5,0,1,0.4,1,0.9C27.7,153.1,27.3,153.5,26.7,153.5C26.7,153.5,26.7,153.5,26.7,153.5z M34.7,153.5h-3
				c-0.5,0-1-0.4-1-0.9c0-0.5,0.4-1,0.9-1c0,0,0.1,0,0.1,0h3c0.5,0,1,0.4,1,0.9C35.7,153.1,35.3,153.5,34.7,153.5
				C34.7,153.5,34.7,153.5,34.7,153.5z M42.7,153.5h-3c-0.5,0-1-0.4-1-0.9c0-0.5,0.4-1,0.9-1c0,0,0.1,0,0.1,0h3c0.5,0,1,0.4,1,0.9
				C43.7,153.1,43.3,153.5,42.7,153.5C42.7,153.5,42.7,153.5,42.7,153.5z M49.1,153.5h-1.7c-0.5,0-1-0.4-1-0.9c0-0.5,0.4-1,0.9-1
				c0,0,0.1,0,0.1,0h1.7c0.5,0,1,0.4,1,0.9C50.1,153.1,49.7,153.5,49.1,153.5C49.2,153.5,49.1,153.5,49.1,153.5 M150.6,94.1
				c-0.5,0-0.9-0.4-0.9-0.9v-1.7c0-0.5,0.5-0.9,1-0.9c0.5,0,0.9,0.4,0.9,0.9v1.7C151.6,93.6,151.1,94.1,150.6,94.1 M150.6,46.3
				c-0.5,0-0.9-0.4-0.9-0.9l0,0v-3.1c0-0.5,0.4-0.9,0.9-0.9s0.9,0.4,0.9,0.9v3.1C151.6,45.9,151.1,46.3,150.6,46.3z M150.6,54.5
				c-0.5,0-0.9-0.4-0.9-0.9c0,0,0,0,0,0v-3.1c0-0.5,0.4-0.9,0.9-0.9s0.9,0.4,0.9,0.9v3.1C151.6,54.1,151.1,54.5,150.6,54.5z
				 M150.6,62.7c-0.5,0-0.9-0.4-0.9-0.9c0,0,0,0,0,0v-3.1c0-0.5,0.4-0.9,0.9-0.9s0.9,0.4,0.9,0.9v3.1
				C151.6,62.3,151.1,62.7,150.6,62.7z M150.6,70.9c-0.5,0-0.9-0.4-0.9-0.9c0,0,0,0,0,0v-3.1c0-0.5,0.4-0.9,0.9-0.9s0.9,0.4,0.9,0.9
				v3.1C151.6,70.5,151.1,70.9,150.6,70.9z M150.6,79.1c-0.5,0-0.9-0.4-0.9-0.9c0,0,0,0,0,0V75c0-0.5,0.4-0.9,0.9-0.9
				s0.9,0.4,0.9,0.9v3.1C151.6,78.7,151.1,79.1,150.6,79.1z M150.6,87.3c-0.5,0-0.9-0.4-0.9-0.9v-3.1c0-0.5,0.5-0.9,1-0.9
				c0.5,0,0.9,0.4,0.9,0.9v3.1C151.6,86.9,151.1,87.3,150.6,87.3z M150.6,38.3c-0.5,0-0.9-0.4-0.9-0.9l0,0v-0.8h-0.8
				c-0.5,0-1-0.4-1-0.9c0-0.5,0.4-1,0.9-1c0,0,0.1,0,0.1,0h1.7c0.5,0,0.9,0.4,0.9,0.9v1.7C151.6,37.9,151.1,38.3,150.6,38.3
				 M106.3,36.6h-3.4c-0.5,0-1-0.4-1-0.9c0-0.5,0.4-1,0.9-1c0,0,0.1,0,0.1,0h3.4c0.5,0,1,0.4,1,0.9
				C107.3,36.1,106.9,36.6,106.3,36.6C106.3,36.6,106.3,36.6,106.3,36.6z M115.5,36.6H112c-0.5,0-1-0.4-1-0.9c0-0.5,0.4-1,0.9-1
				c0,0,0.1,0,0.1,0h3.4c0.5,0,0.9,0.4,0.9,0.9S116,36.6,115.5,36.6z M124.7,36.6h-3.4c-0.5,0-1-0.4-1-0.9c0-0.5,0.4-1,0.9-1
				c0,0,0.1,0,0.1,0h3.4c0.5,0,1,0.4,1,0.9C125.7,36.1,125.3,36.6,124.7,36.6C124.8,36.6,124.7,36.6,124.7,36.6z M133.9,36.6h-3.4
				c-0.5,0-1-0.4-1-0.9c0-0.5,0.4-1,0.9-1c0,0,0.1,0,0.1,0h3.4c0.5,0,1,0.4,1,0.9C134.9,36.1,134.5,36.6,133.9,36.6
				C134,36.6,133.9,36.6,133.9,36.6z M143.1,36.6h-3.4c-0.5,0-1-0.4-1-0.9s0.4-1,0.9-1c0,0,0.1,0,0.1,0h3.4c0.5,0,1,0.4,1,0.9
				C144.1,36.1,143.7,36.6,143.1,36.6C143.2,36.6,143.2,36.6,143.1,36.6L143.1,36.6z M95.3,38.3c-0.5,0-0.9-0.4-0.9-0.9v-1.7
				c0-0.5,0.4-0.9,0.9-0.9h1.6c0.5,0,1,0.4,1,0.9c0,0.5-0.4,1-0.9,1c0,0-0.1,0-0.1,0h-0.7v0.8C96.3,37.9,95.9,38.3,95.3,38.3
				 M95.3,45.8c-0.5,0-0.9-0.4-0.9-0.9v0V42c0-0.5,0.4-0.9,0.9-0.9c0.5,0,0.9,0.4,0.9,0.9v2.9C96.3,45.4,95.9,45.8,95.3,45.8
				 M95.3,52.2c-0.5,0-0.9-0.4-0.9-0.9v-1.7c0-0.5,0.4-0.9,0.9-0.9c0.5,0,0.9,0.4,0.9,0.9v1.7C96.3,51.7,95.9,52.2,95.3,52.2"/>
			<path class="st5" d="M170.6,23.5L170.6,23.5c-0.7,0-1.3-0.6-1.3-1.3c0-0.7,0.6-1.3,1.3-1.3h0c0.7,0,1.3,0.6,1.3,1.3
				C171.9,22.9,171.3,23.5,170.6,23.5L170.6,23.5L170.6,23.5L170.6,23.5z M166,25c-0.6-0.5-0.7-1.3-0.2-1.9c0.5-0.6,1.3-0.7,1.9-0.2
				c0.6,0.5,0.7,1.3,0.2,1.9c-0.3,0.3-0.6,0.5-1,0.5C166.5,25.3,166.2,25.2,166,25L166,25z M173.3,24.8c-0.5-0.6-0.4-1.4,0.2-1.9
				c0,0,0,0,0,0c0.6-0.5,1.4-0.4,1.9,0.2c0.5,0.6,0.4,1.4-0.2,1.9c-0.2,0.2-0.5,0.3-0.8,0.3C173.9,25.3,173.5,25.1,173.3,24.8z
				 M164.6,28.3c-0.2-0.7,0.3-1.4,1-1.6s1.4,0.3,1.6,1c0.2,0.7-0.3,1.4-1,1.6S164.7,29,164.6,28.3L164.6,28.3L164.6,28.3z
				 M174.9,29.3c-0.7-0.2-1.2-0.9-1-1.6c0.2-0.7,0.9-1.2,1.6-1c0.7,0.2,1.2,0.9,1,1.6C176.4,29,175.7,29.5,174.9,29.3z M167.9,32.5
				c-0.7-0.3-0.9-1.1-0.6-1.8c0,0,0,0,0,0c0.3-0.7,1.1-0.9,1.8-0.6c0.7,0.3,0.9,1.1,0.6,1.8S168.6,32.8,167.9,32.5
				C167.9,32.5,167.9,32.5,167.9,32.5z M171.4,31.8c-0.3-0.7,0-1.5,0.6-1.8c0,0,0,0,0,0c0.7-0.3,1.5,0,1.8,0.6
				c0.3,0.7,0,1.5-0.6,1.8c-0.2,0.1-0.4,0.1-0.6,0.1C172.1,32.6,171.7,32.3,171.4,31.8z M73.2,39.2L73.2,39.2
				c-0.7,0-1.3-0.6-1.3-1.3c0-0.7,0.6-1.3,1.3-1.3h0c0.7,0,1.3,0.6,1.3,1.3S74,39.2,73.2,39.2L73.2,39.2L73.2,39.2z M68.6,40.7
				c-0.6-0.5-0.7-1.3-0.2-1.9c0.5-0.6,1.3-0.7,1.9-0.2l0,0c0.6,0.5,0.7,1.3,0.2,1.9c-0.3,0.3-0.6,0.5-1,0.5
				C69.2,41,68.9,40.9,68.6,40.7z M75.9,40.5c-0.5-0.6-0.4-1.4,0.2-1.9c0,0,0,0,0,0c0.6-0.5,1.4-0.4,1.9,0.2
				c0.5,0.6,0.4,1.4-0.2,1.9C77.6,40.9,77.3,41,77,41C76.6,41,76.2,40.9,75.9,40.5z M67.2,44c-0.2-0.7,0.3-1.4,1-1.6
				c0.7-0.2,1.4,0.3,1.6,1c0.2,0.7-0.3,1.4-1,1.6C68.1,45.2,67.4,44.8,67.2,44L67.2,44z M77.6,45.1c-0.7-0.2-1.2-0.9-1-1.6
				c0.2-0.7,0.9-1.2,1.6-1c0.7,0.2,1.2,0.9,1,1.6C79,44.8,78.3,45.2,77.6,45.1L77.6,45.1z M70.5,48.2c-0.7-0.3-0.9-1.1-0.6-1.8
				c0,0,0,0,0,0c0.3-0.7,1.1-0.9,1.8-0.6c0.6,0.3,0.9,1.1,0.6,1.7C72,48.2,71.2,48.5,70.5,48.2z M74.1,47.6c-0.3-0.7,0-1.5,0.6-1.8
				c0,0,0,0,0,0c0.7-0.3,1.5,0,1.8,0.6c0.3,0.7,0,1.5-0.6,1.8c-0.2,0.1-0.4,0.1-0.6,0.1C74.8,48.3,74.3,48.1,74.1,47.6z M166.9,57.6
				c-0.5,0-0.9-0.4-0.9-0.9v-4c0-0.5,0.4-0.9,0.9-0.9s0.9,0.4,0.9,0.9v4C167.9,57.2,167.5,57.6,166.9,57.6"/>
			<path class="st5" d="M169,55.7h-4c-0.5,0-1-0.4-1-0.9s0.4-1,0.9-1c0,0,0.1,0,0.1,0h4c0.5,0,1,0.4,1,0.9S169.6,55.6,169,55.7
				C169.1,55.7,169,55.7,169,55.7 M89.9,25.1c-0.5,0-0.9-0.4-0.9-0.9v-4c0-0.5,0.4-0.9,0.9-0.9c0.5,0,0.9,0.4,0.9,0.9v4
				C90.8,24.7,90.4,25.1,89.9,25.1"/>
			<path class="st5" d="M92,23.2h-4c-0.5,0-1-0.4-1-0.9s0.4-1,0.9-1c0,0,0.1,0,0.1,0h4c0.5,0,1,0.4,1,0.9S92.6,23.2,92,23.2
				C92,23.2,92,23.2,92,23.2 M5,162.9c-0.5,0-0.9-0.4-0.9-0.9l0,0v-4c0-0.5,0.4-0.9,0.9-0.9s0.9,0.4,0.9,0.9v4
				C5.9,162.5,5.5,162.9,5,162.9"/>
			<path class="st5" d="M7,161H3c-0.5,0-1-0.4-1-0.9c0-0.5,0.4-1,0.9-1c0,0,0,0,0.1,0h4c0.5,0,1,0.4,1,0.9C8,160.5,7.6,160.9,7,161
				C7.1,161,7.1,161,7,161 M172.7,98.5c-0.5,0-0.9-0.4-0.9-0.9v-4c0-0.5,0.5-0.9,1-0.9c0.5,0,0.9,0.4,0.9,0.9v4
				C173.7,98.1,173.2,98.5,172.7,98.5"/>
			<path class="st5" d="M174.8,96.6h-4c-0.5,0-0.9-0.4-0.9-0.9c0-0.5,0.4-0.9,0.9-0.9h4c0.5,0,1,0.4,1,0.9
				C175.8,96.1,175.4,96.5,174.8,96.6C174.8,96.6,174.8,96.6,174.8,96.6"/>
		</g>
	</g>
</g>
</svg>
