<?xml version="1.0" encoding="utf-8"?>
<!-- Generator: Adobe Illustrator 22.1.0, SVG Export Plug-In . SVG Version: 6.00 Build 0)  -->
<svg version="1.1" id="Слой_1" xmlns="http://www.w3.org/2000/svg" xmlns:xlink="http://www.w3.org/1999/xlink" x="0px" y="0px"
	 viewBox="0 0 180 180" style="enable-background:new 0 0 180 180;" xml:space="preserve">
<style type="text/css">
	.st0{filter:url(#Adobe_OpacityMaskFilter);}
	.st1{fill:#FFFFFF;}
	.st2{mask:url(#b_1_);}
	.st3{fill:#DAD3FF;}
	.st4{fill:#566386;}
	.st5{fill:#654BFA;}
</style>
<g transform="translate(-3 -18)">
	<defs>
		<filter id="Adobe_OpacityMaskFilter" filterUnits="userSpaceOnUse" x="6.1" y="36" width="173.9" height="144.2">
			<feColorMatrix  type="matrix" values="1 0 0 0 0  0 1 0 0 0  0 0 1 0 0  0 0 0 1 0"/>
		</filter>
	</defs>
	<mask maskUnits="userSpaceOnUse" x="6.1" y="36" width="173.9" height="144.2" id="b_1_">
		<g class="st0">
			<path id="a_1_" class="st1" d="M3,17.5h180v180H3V17.5z"/>
		</g>
	</mask>
	<g class="st2">
		<path class="st3" d="M9.6,45.6h11.7v-6.9H9.6V45.6z M133.8,179.2h45.2v-57h-45.2L133.8,179.2z M68,100c-2.2,0-4.1-1.8-4.1-4.1
			c0-2.3,1.8-4.1,4.1-4.1s4.1,1.8,4.1,4.1S70.2,100,68,100z M68,84.6c-7.3,0-13.2,5.9-13.2,13.2c0,4.9,2.6,9.1,6.5,11.4v-3
			c0-3.4,3-6.2,6.7-6.2c3.7,0,6.7,2.8,6.7,6.2v3c4-2.4,6.5-6.7,6.5-11.4C81.1,90.6,75.2,84.6,68,84.6L68,84.6z M9.1,117.4h12.6V61.8
			H9.1V117.4z"/>
		<path class="st4" d="M65.8,110.9c-1.5-0.3-3-0.8-4.5-1.6C62.7,110.1,64.2,110.7,65.8,110.9 M70.1,110.9c1.6-0.2,3.1-0.8,4.5-1.6
			C73.1,110.1,71.6,110.7,70.1,110.9 M10,117.1l5.5,10.9l5.5-10.9V62.8H10V117.1z M15.5,131.1c-0.4,0-0.7-0.2-0.8-0.5l-6.4-12.8
			c-0.1-0.1-0.1-0.3-0.1-0.4V61.8c0-0.5,0.4-0.9,0.9-0.9h12.9c0.5,0,0.9,0.4,0.9,0.9v55.5c0,0.1,0,0.3-0.1,0.4l-6.4,12.8
			C16.2,130.9,15.8,131.1,15.5,131.1L15.5,131.1z"/>
		<path class="st4" d="M8,60.9h15V46.5H8C8,46.5,8,60.9,8,60.9z M23.9,62.8H7.1c-0.5,0-0.9-0.4-0.9-0.9V45.6c0-0.5,0.4-0.9,0.9-0.9
			h16.8c0.5,0,0.9,0.4,0.9,0.9v16.2C24.9,62.3,24.4,62.7,23.9,62.8L23.9,62.8z M21.7,118.3H9.3c-0.5,0-0.9-0.4-0.9-0.9
			c0-0.5,0.4-0.9,0.9-0.9h12.4c0.5,0,0.9,0.4,0.9,0.9C22.6,117.9,22.2,118.3,21.7,118.3C21.7,118.3,21.7,118.3,21.7,118.3
			 M17.2,126.4h-3.4c-0.5,0-0.9-0.4-0.9-0.9c0-0.5,0.4-0.9,0.9-0.9h3.4c0.5,0,0.9,0.4,0.9,0.9S17.7,126.4,17.2,126.4"/>
		<path class="st4" d="M10.6,44.7h9.9v-5h-9.9V44.7z M21.4,46.6H9.6c-0.5,0-0.9-0.4-0.9-0.9c0,0,0,0,0,0v-6.9c0-0.5,0.4-0.9,0.9-0.9
			h11.7c0.5,0,0.9,0.4,0.9,0.9v6.9C22.3,46.1,21.9,46.5,21.4,46.6L21.4,46.6L21.4,46.6z M12.6,85.1c-0.5,0-0.9-0.4-0.9-0.9V61.9
			c0-0.5,0.4-0.9,0.9-0.9c0.5,0,0.9,0.4,0.9,0.9v22.3C13.5,84.6,13.1,85.1,12.6,85.1C12.6,85.1,12.6,85.1,12.6,85.1 M18.5,98.4
			c-0.5,0-0.9-0.4-0.9-0.9l0,0V61.9c0-0.5,0.4-0.9,0.9-0.9s0.9,0.4,0.9,0.9v35.6C19.5,98,19.1,98.4,18.5,98.4
			C18.5,98.4,18.5,98.4,18.5,98.4 M18.5,117.8c-0.5,0-0.9-0.4-0.9-0.9v-8c0-0.5,0.4-0.9,0.9-0.9s0.9,0.4,0.9,0.9v8
			C19.5,117.4,19.1,117.8,18.5,117.8C18.5,117.8,18.5,117.8,18.5,117.8 M12.6,117.8c-0.5,0-0.9-0.4-0.9-0.9V99.7
			c0-0.5,0.4-0.9,0.9-0.9c0.5,0,0.9,0.4,0.9,0.9v17.1C13.5,117.4,13.1,117.8,12.6,117.8C12.6,117.8,12.6,117.8,12.6,117.8
			 M23.6,58.9h-2.2c-0.5,0-0.9-0.4-0.9-0.9c0,0,0,0,0,0c0-0.5,0.4-0.9,0.9-0.9h2.2c0.5,0,0.9,0.4,0.9,0.9
			C24.5,58.4,24.1,58.9,23.6,58.9 M16.5,58.9H7.1c-0.5,0-0.9-0.4-0.9-0.9c0-0.5,0.4-0.9,0.9-0.9h9.4c0.5,0,0.9,0.4,0.9,0.9
			S17,58.9,16.5,58.9 M16.5,50.3H7.1c-0.5,0-0.9-0.4-0.9-0.9c0-0.5,0.4-0.9,0.9-0.9h9.4c0.5,0,0.9,0.4,0.9,0.9
			C17.4,49.9,17,50.3,16.5,50.3 M23.1,50.3h-1.8c-0.5,0-0.9-0.4-0.9-0.9l0,0c0-0.5,0.4-0.9,0.9-0.9h1.8c0.5,0,0.9,0.4,0.9,0.9
			C24.1,49.9,23.7,50.3,23.1,50.3 M41.4,137.3c-0.5,0-0.9-0.4-0.9-0.9c0,0,0,0,0,0V77.1c0-3.7,3-6.7,6.7-6.7h92.2
			c3.7,0,6.7,3,6.7,6.7v44.3c0,0.5-0.4,0.9-0.9,0.9c0,0,0,0,0,0c-0.5,0-0.9-0.4-0.9-0.9l0,0V77.1c0-2.7-2.1-4.8-4.8-4.8H47.2
			c-2.6,0-4.8,2.2-4.8,4.8v59.2C42.4,136.9,42,137.3,41.4,137.3C41.4,137.3,41.4,137.3,41.4,137.3"/>
		<path class="st4" d="M133.2,147.3h-89c-4.8,0-8.8-3.9-8.8-8.8v-2.2c0-0.5,0.4-0.9,0.9-0.9h96.7c0.5,0,0.9,0.4,0.9,0.9
			c0,0.5-0.4,0.9-0.9,0.9H37.4v1.2c0,3.8,3.1,6.9,6.9,6.9h89c0.5,0,0.9,0.4,0.9,0.9C134.2,146.9,133.8,147.3,133.2,147.3"/>
		<path class="st4" d="M46.5,137.3c-0.5,0-0.9-0.4-0.9-0.9c0,0,0,0,0,0V76.7c0-0.5,0.4-0.9,0.9-0.9H140c0.5,0,0.9,0.4,0.9,0.9v44.8
			c0,0.5-0.4,0.9-0.9,0.9c0,0,0,0,0,0c-0.5,0-0.9-0.4-0.9-0.9c0,0,0,0,0,0V77.7H47.5v58.6C47.5,136.9,47.1,137.3,46.5,137.3
			L46.5,137.3 M106.7,142.4h-27c-3.3,0-5.9-2.7-5.9-6c0-0.5,0.4-0.9,0.9-0.9s0.9,0.4,0.9,0.9c0,2.2,1.8,4.1,4,4.1h27
			c2.2,0,4.1-1.8,4.1-4.1c0-0.5,0.4-0.9,0.9-0.9c0.5,0,0.9,0.4,0.9,0.9C112.7,139.7,110,142.4,106.7,142.4"/>
		<path class="st4" d="M68,85.6c-6.7,0-12.2,5.5-12.2,12.3c0,6.8,5.5,12.3,12.2,12.3c6.7,0,12.2-5.5,12.2-12.3
			C80.2,91.1,74.7,85.6,68,85.6z M68,112.1c-7.8,0-14.1-6.4-14.1-14.2S60.2,83.7,68,83.7s14.1,6.4,14.1,14.2S75.8,112.1,68,112.1
			L68,112.1z"/>
		<path class="st4" d="M74.7,110.3c-0.5,0-0.9-0.4-0.9-0.9c0,0,0,0,0,0v-3c0-2.9-2.6-5.3-5.7-5.3s-5.7,2.4-5.7,5.3v3
			c0,0.5-0.4,0.9-0.9,0.9c0,0,0,0,0,0c-0.5,0-0.9-0.4-0.9-0.9v-3c0-4,3.4-7.2,7.6-7.2s7.6,3.2,7.6,7.2v3
			C75.6,109.8,75.2,110.3,74.7,110.3"/>
		<path class="st4" d="M68,92.7c-1.7,0-3.1,1.4-3.1,3.1c0,1.7,1.4,3.1,3.1,3.1c1.7,0,3.1-1.4,3.1-3.1C71.1,94.1,69.7,92.7,68,92.7
			L68,92.7z M68,100.9c-2.8,0-5-2.3-5-5s2.2-5,5-5c2.8,0,5,2.3,5,5S70.7,100.9,68,100.9z M130.7,89.7H90.8c-0.5,0-0.9-0.4-0.9-0.9
			c0,0,0,0,0,0c0-0.5,0.4-0.9,0.9-0.9h39.9c0.5,0,0.9,0.4,0.9,0.9C131.7,89.3,131.2,89.7,130.7,89.7
			C130.7,89.7,130.7,89.7,130.7,89.7 M130.7,106.5H90.8c-0.5,0-0.9-0.4-0.9-0.9c0-0.5,0.4-0.9,0.9-0.9h39.9c0.5,0,0.9,0.4,0.9,0.9
			C131.7,106.1,131.2,106.5,130.7,106.5C130.7,106.5,130.7,106.5,130.7,106.5 M126.5,137.3c-0.5,0-0.9-0.4-0.9-0.9v-17.2H61v17
			c0,0.5-0.4,0.9-0.9,0.9h0c-0.5,0-0.9-0.4-0.9-0.9c0,0,0,0,0,0v-17.9c0-0.5,0.4-0.9,0.9-0.9h66.5c0.5,0,0.9,0.4,0.9,0.9v18.2
			C127.4,136.9,127,137.3,126.5,137.3"/>
		<path class="st4" d="M69.5,124.4c-1.6,0-2.8,1.3-2.8,2.8c0,1.6,1.3,2.8,2.8,2.8c1.6,0,2.8-1.3,2.8-2.8
			C72.3,125.7,71,124.4,69.5,124.4z M69.5,132c-2.6,0-4.7-2.1-4.7-4.7c0-2.6,2.1-4.7,4.7-4.7c2.6,0,4.7,2.1,4.7,4.7
			C74.2,129.9,72.1,132,69.5,132z M118.3,128.2h-38c-0.5,0-0.9-0.4-0.9-0.9c0-0.5,0.4-0.9,0.9-0.9h38c0.5,0,0.9,0.4,0.9,0.9
			C119.3,127.8,118.8,128.2,118.3,128.2C118.3,128.2,118.3,128.2,118.3,128.2 M134.8,178.2h43.4v-55.1h-43.4V178.2z M179.1,180.1
			h-45.2c-0.5,0-0.9-0.4-0.9-0.9v-57c0-0.5,0.4-0.9,0.9-0.9h45.2c0.5,0,0.9,0.4,0.9,0.9v57C180,179.7,179.6,180.1,179.1,180.1
			L179.1,180.1z"/>
		<path class="st4" d="M145,176.3h-7.6c-0.5,0-0.9-0.4-0.9-0.9c0,0,0,0,0,0v-7.6c0-0.5,0.4-0.9,0.9-0.9c0.5,0,0.9,0.4,0.9,0.9v6.6
			h6.6c0.5,0,0.9,0.4,0.9,0.9C146,175.9,145.5,176.3,145,176.3C145,176.3,145,176.3,145,176.3 M175.4,134.5c-0.5,0-0.9-0.4-0.9-0.9
			c0,0,0,0,0,0v-6.6h-6.6c-0.5,0-0.9-0.4-0.9-0.9c0,0,0,0,0,0c0-0.5,0.4-0.9,0.9-0.9h7.6c0.5,0,0.9,0.4,0.9,0.9v7.6
			C176.4,134.1,175.9,134.5,175.4,134.5 M171.3,135.6h-29.6c-0.5,0-0.9-0.4-0.9-0.9c0,0,0,0,0,0c0-0.5,0.4-0.9,0.9-0.9h29.6
			c0.5,0,0.9,0.4,0.9,0.9C172.2,135.1,171.8,135.6,171.3,135.6L171.3,135.6"/>
		<path class="st4" d="M171.3,130.9h-29.6c-0.5,0-0.9-0.4-0.9-0.9c0,0,0,0,0,0c0-0.5,0.4-0.9,0.9-0.9h29.6c0.5,0,0.9,0.4,0.9,0.9
			C172.2,130.5,171.8,130.9,171.3,130.9L171.3,130.9 M171.3,140.2h-29.6c-0.5,0-0.9-0.4-0.9-0.9c0,0,0,0,0,0c0-0.5,0.4-0.9,0.9-0.9
			h29.6c0.5,0,0.9,0.4,0.9,0.9C172.2,139.8,171.8,140.2,171.3,140.2C171.3,140.2,171.3,140.2,171.3,140.2 M171.3,144.9h-29.6
			c-0.5,0-0.9-0.4-0.9-0.9c0,0,0,0,0,0c0-0.5,0.4-0.9,0.9-0.9h29.6c0.5,0,0.9,0.4,0.9,0.9C172.2,144.5,171.8,144.9,171.3,144.9
			L171.3,144.9 M171.3,149.7h-29.6c-0.5,0-0.9-0.4-0.9-0.9c0,0,0,0,0,0c0-0.5,0.4-0.9,0.9-0.9h29.6c0.5,0,0.9,0.4,0.9,0.9
			C172.2,149.3,171.8,149.7,171.3,149.7C171.3,149.7,171.3,149.7,171.3,149.7 M156.4,154.4h-14.7c-0.5,0-0.9-0.4-0.9-0.9l0,0
			c0-0.5,0.4-0.9,0.9-0.9h14.7c0.5,0,0.9,0.4,0.9,0.9C157.4,154,156.9,154.4,156.4,154.4"/>
		<path class="st5" d="M156.4,119.1c-0.5,0-0.9-0.4-0.9-0.9l0,0v-1.7c0-0.5,0.4-0.9,0.9-0.9c0.5,0,0.9,0.4,0.9,0.9v1.7
			C157.3,118.7,156.9,119.1,156.4,119.1C156.4,119.1,156.4,119.1,156.4,119.1 M156.4,64.3c-0.5,0-0.9-0.4-0.9-0.9c0,0,0,0,0,0v-3.6
			c0-0.5,0.4-0.9,0.9-0.9c0.5,0,0.9,0.4,0.9,0.9v3.6C157.3,63.8,156.9,64.3,156.4,64.3C156.4,64.3,156.4,64.3,156.4,64.3z
			 M156.4,73.7c-0.5,0-0.9-0.4-0.9-0.9c0,0,0,0,0,0v-3.6c0-0.5,0.4-0.9,0.9-0.9c0.5,0,0.9,0.4,0.9,0.9v3.6
			C157.3,73.3,156.9,73.7,156.4,73.7C156.4,73.7,156.4,73.7,156.4,73.7z M156.4,83.2c-0.5,0-0.9-0.4-0.9-0.9l0,0v-3.6
			c0-0.5,0.4-0.9,0.9-0.9c0.5,0,0.9,0.4,0.9,0.9v3.6C157.3,82.8,156.9,83.2,156.4,83.2C156.4,83.2,156.4,83.2,156.4,83.2z
			 M156.4,92.6c-0.5,0-0.9-0.4-0.9-0.9v-3.6c0-0.5,0.4-0.9,0.9-0.9c0.5,0,0.9,0.4,0.9,0.9v3.6C157.3,92.2,156.9,92.6,156.4,92.6
			L156.4,92.6L156.4,92.6z M156.4,102.1c-0.5,0-0.9-0.4-0.9-0.9v-3.6c0-0.5,0.4-0.9,0.9-0.9c0.5,0,0.9,0.4,0.9,0.9v3.6
			C157.3,101.7,156.9,102.1,156.4,102.1C156.4,102.1,156.4,102.1,156.4,102.1z M156.4,111.6c-0.5,0-0.9-0.4-0.9-0.9v-3.6
			c0-0.5,0.4-0.9,0.9-0.9c0.5,0,0.9,0.4,0.9,0.9v3.6C157.3,111.1,156.9,111.6,156.4,111.6L156.4,111.6z M156.4,55.1
			c-0.5,0-0.9-0.4-0.9-0.9c0,0,0,0,0,0v-0.8h-0.8c-0.5,0-0.9-0.4-0.9-0.9v0c0-0.5,0.4-0.9,0.9-0.9h1.7c0.5,0,0.9,0.4,0.9,0.9v1.7
			C157.3,54.7,156.9,55.1,156.4,55.1C156.4,55.1,156.4,55.1,156.4,55.1 M98.3,53.4H95c-0.5,0-0.9-0.4-0.9-0.9c0,0,0,0,0,0
			c0-0.5,0.4-0.9,0.9-0.9h3.2c0.5,0,0.9,0.4,0.9,0.9C99.2,53,98.8,53.4,98.3,53.4z M106.8,53.4h-3.2c-0.5,0-0.9-0.4-0.9-0.9
			c0,0,0,0,0,0c0-0.5,0.4-0.9,0.9-0.9h3.2c0.5,0,0.9,0.4,0.9,0.9C107.7,53,107.3,53.4,106.8,53.4z M115.3,53.4h-3.2
			c-0.5,0-0.9-0.4-0.9-0.9c0,0,0,0,0,0c0-0.5,0.4-0.9,0.9-0.9h3.2c0.5,0,0.9,0.4,0.9,0.9C116.3,53,115.8,53.4,115.3,53.4L115.3,53.4
			L115.3,53.4z M123.8,53.4h-3.2c-0.5,0-0.9-0.4-0.9-0.9c0,0,0,0,0,0c0-0.5,0.4-0.9,0.9-0.9h3.2c0.5,0,0.9,0.4,0.9,0.9
			C124.8,53,124.4,53.4,123.8,53.4z M132.4,53.4h-3.2c-0.5,0-0.9-0.4-0.9-0.9c0,0,0,0,0,0c0-0.5,0.4-0.9,0.9-0.9h3.2
			c0.5,0,0.9,0.4,0.9,0.9C133.3,53,132.9,53.4,132.4,53.4C132.4,53.4,132.4,53.4,132.4,53.4z M140.9,53.4h-3.2
			c-0.5,0-0.9-0.4-0.9-0.9c0,0,0,0,0,0c0-0.5,0.4-0.9,0.9-0.9h3.2c0.5,0,0.9,0.4,0.9,0.9C141.9,53,141.4,53.4,140.9,53.4L140.9,53.4
			L140.9,53.4z M149.4,53.4h-3.2c-0.5,0-0.9-0.4-0.9-0.9c0,0,0,0,0,0c0-0.5,0.4-0.9,0.9-0.9h3.2c0.5,0,0.9,0.4,0.9,0.9
			C150.4,53,150,53.4,149.4,53.4C149.4,53.4,149.4,53.4,149.4,53.4z M88.2,55.1c-0.5,0-0.9-0.4-0.9-0.9c0,0,0,0,0,0v-1.7
			c0-0.5,0.4-0.9,0.9-0.9h1.6c0.5,0,0.9,0.4,0.9,0.9c0,0.5-0.4,0.9-0.9,0.9h-0.7v0.8C89.2,54.7,88.8,55.1,88.2,55.1
			C88.2,55.1,88.2,55.1,88.2,55.1 M88.2,62c-0.5,0-0.9-0.4-0.9-0.9c0,0,0,0,0,0v-2.6c0-0.5,0.4-0.9,0.9-0.9c0.5,0,0.9,0.4,0.9,0.9
			v2.6C89.2,61.6,88.8,62,88.2,62C88.2,62,88.2,62,88.2,62 M88.2,68c-0.5,0-0.9-0.4-0.9-0.9c0,0,0,0,0,0v-1.7c0-0.5,0.4-0.9,0.9-0.9
			c0.5,0,0.9,0.4,0.9,0.9v1.7C89.2,67.6,88.8,68,88.2,68C88.2,68,88.2,68,88.2,68 M15.4,139.6c-0.5,0-0.9-0.4-0.9-0.9V137
			c0-0.5,0.4-0.9,0.9-0.9s0.9,0.4,0.9,0.9v1.7C16.4,139.2,16,139.6,15.4,139.6C15.4,139.6,15.4,139.6,15.4,139.6 M15.4,149.8
			c-0.5,0-0.9-0.4-0.9-0.9V145c0-0.5,0.4-0.9,0.9-0.9s0.9,0.4,0.9,0.9v3.8C16.4,149.3,16,149.8,15.4,149.8
			C15.4,149.8,15.4,149.8,15.4,149.8z M15.4,159.9c-0.5,0-0.9-0.4-0.9-0.9v-3.8c0-0.5,0.4-0.9,0.9-0.9s0.9,0.4,0.9,0.9v3.8
			C16.4,159.5,16,159.9,15.4,159.9C15.4,159.9,15.4,159.9,15.4,159.9z M17,168.1h-1.6c-0.5,0-0.9-0.4-0.9-0.9v-1.6
			c0-0.5,0.4-0.9,0.9-0.9s0.9,0.4,0.9,0.9v0.7H17c0.5,0,0.9,0.4,0.9,0.9C18,167.7,17.6,168.1,17,168.1
			C17.1,168.1,17.1,168.1,17,168.1 M25.9,168.1h-3.3c-0.5,0-0.9-0.4-0.9-0.9c0-0.5,0.4-0.9,0.9-0.9h3.3c0.5,0,0.9,0.4,0.9,0.9
			C26.9,167.7,26.4,168.1,25.9,168.1L25.9,168.1z M34.8,168.1h-3.3c-0.5,0-0.9-0.4-0.9-0.9c0-0.5,0.4-0.9,0.9-0.9h3.3
			c0.5,0,0.9,0.4,0.9,0.9C35.7,167.7,35.3,168.1,34.8,168.1z M43.6,168.1h-3.3c-0.5,0-0.9-0.4-0.9-0.9c0-0.5,0.4-0.9,0.9-0.9h3.3
			c0.5,0,0.9,0.4,0.9,0.9C44.6,167.7,44.2,168.1,43.6,168.1z M52.5,168.1h-3.3c-0.5,0-0.9-0.4-0.9-0.9c0-0.5,0.4-0.9,0.9-0.9h3.3
			c0.5,0,0.9,0.4,0.9,0.9C53.4,167.7,53,168.1,52.5,168.1L52.5,168.1z M61.4,168.1H58c-0.5,0-0.9-0.4-0.9-0.9c0-0.5,0.4-0.9,0.9-0.9
			h3.3c0.5,0,0.9,0.4,0.9,0.9C62.3,167.7,61.9,168.1,61.4,168.1L61.4,168.1z M70.2,168.1h-3.3c-0.5,0-0.9-0.4-0.9-0.9
			c0-0.5,0.4-0.9,0.9-0.9h3.3c0.5,0,0.9,0.4,0.9,0.9C71.2,167.7,70.7,168.1,70.2,168.1z M79.1,168.1h-3.3c-0.5,0-0.9-0.4-0.9-0.9
			c0-0.5,0.4-0.9,0.9-0.9h3.3c0.5,0,0.9,0.4,0.9,0.9C80,167.7,79.6,168.1,79.1,168.1C79.1,168.1,79.1,168.1,79.1,168.1z M88,168.1
			h-3.3c-0.5,0-0.9-0.4-0.9-0.9c0-0.5,0.4-0.9,0.9-0.9H88c0.5,0,0.9,0.4,0.9,0.9C88.9,167.7,88.5,168.1,88,168.1z M95.2,168.1h-1.7
			c-0.5,0-0.9-0.4-0.9-0.9c0-0.5,0.4-0.9,0.9-0.9h0.8v-0.7c0-0.5,0.4-0.9,0.9-0.9s0.9,0.4,0.9,0.9v1.6
			C96.2,167.7,95.7,168.1,95.2,168.1C95.2,168.1,95.2,168.1,95.2,168.1 M95.2,161.3c-0.5,0-0.9-0.4-0.9-0.9v-3
			c0-0.5,0.4-0.9,0.9-0.9s0.9,0.4,0.9,0.9v3C96.2,160.9,95.7,161.3,95.2,161.3C95.2,161.3,95.2,161.3,95.2,161.3 M95.2,153.3
			c-0.5,0-0.9-0.4-0.9-0.9v-1.7c0-0.5,0.4-0.9,0.9-0.9s0.9,0.4,0.9,0.9v1.7C96.2,152.9,95.7,153.3,95.2,153.3
			C95.2,153.3,95.2,153.3,95.2,153.3"/>
		<path class="st4" d="M39.5,42.1c-0.7-0.1-1.3-0.7-1.2-1.5c0,0,0,0,0,0c0.1-0.7,0.7-1.3,1.5-1.2c0.7,0.1,1.3,0.7,1.2,1.5
			c0,0,0,0,0,0C40.9,41.7,40.2,42.2,39.5,42.1C39.5,42.1,39.5,42.1,39.5,42.1z M34.8,43.1c-0.5-0.5-0.5-1.4,0-1.9c0,0,0,0,0,0
			c0.5-0.5,1.4-0.5,1.9,0c0,0,0,0,0,0c0.5,0.5,0.5,1.4,0,1.9l0,0l0,0C36.1,43.7,35.3,43.7,34.8,43.1C34.8,43.2,34.8,43.1,34.8,43.1z
			 M42,43.8c-0.4-0.6-0.2-1.4,0.4-1.8c0.6-0.4,1.4-0.2,1.8,0.4c0.3,0.6,0.2,1.4-0.4,1.8C43.3,44.6,42.4,44.4,42,43.8
			C42,43.8,42,43.8,42,43.8z M33,46.3c-0.1-0.7,0.4-1.4,1.2-1.5c0.7-0.1,1.4,0.4,1.5,1.2c0,0,0,0,0,0c0.1,0.7-0.4,1.4-1.2,1.5
			c0,0-0.1,0-0.1,0C33.7,47.5,33.1,47,33,46.3L33,46.3z M43.2,48.5c-0.7-0.2-1.1-1-0.8-1.7c0.2-0.7,1-1.1,1.7-0.8c0,0,0,0,0,0
			c0.7,0.2,1,1,0.8,1.7v0c-0.2,0.5-0.7,0.9-1.2,0.9C43.5,48.5,43.3,48.5,43.2,48.5z M35.8,50.8c-0.6-0.4-0.8-1.2-0.4-1.8
			c0.4-0.6,1.2-0.8,1.8-0.4c0,0,0,0,0,0c0.6,0.4,0.8,1.2,0.4,1.8C37.3,51,36.5,51.2,35.8,50.8C35.9,50.8,35.8,50.8,35.8,50.8z
			 M39.4,50.6c-0.2-0.7,0.1-1.5,0.8-1.7c0.7-0.2,1.4,0.1,1.7,0.8c0,0,0,0,0,0c0.2,0.7-0.1,1.5-0.8,1.7c-0.1,0-0.3,0.1-0.4,0.1
			C40.1,51.5,39.6,51.1,39.4,50.6L39.4,50.6z M173,38.7c-0.7-0.1-1.3-0.7-1.2-1.5c0.1-0.7,0.7-1.3,1.5-1.2c0.7,0.1,1.3,0.7,1.2,1.5
			C174.4,38.3,173.7,38.8,173,38.7C173,38.7,173,38.7,173,38.7L173,38.7z M168.3,39.7c-0.5-0.5-0.5-1.4,0-1.9c0,0,0,0,0,0v0
			c0.5-0.5,1.4-0.5,1.9,0c0,0,0,0,0,0c0.5,0.5,0.5,1.4,0,1.9c0,0,0,0,0,0C169.6,40.2,168.8,40.2,168.3,39.7z M175.5,40.3
			c-0.4-0.6-0.2-1.5,0.4-1.8c0.6-0.4,1.4-0.2,1.8,0.4v0c0.3,0.6,0.2,1.5-0.4,1.8C176.8,41.1,175.9,40.9,175.5,40.3
			C175.5,40.3,175.5,40.3,175.5,40.3z M166.5,42.8c-0.1-0.7,0.4-1.4,1.2-1.5c0,0,0,0,0,0c0.7-0.1,1.4,0.4,1.5,1.2c0,0,0,0,0,0
			c0.1,0.7-0.4,1.4-1.2,1.5c-0.1,0-0.1,0-0.2,0C167.2,44,166.6,43.5,166.5,42.8L166.5,42.8z M176.7,45c-0.7-0.2-1.1-1-0.8-1.7
			c0.2-0.7,1-1.1,1.7-0.8c0,0,0,0,0,0c0.7,0.3,1,1,0.8,1.7c-0.2,0.5-0.7,0.9-1.2,0.9C177,45.1,176.8,45.1,176.7,45L176.7,45z
			 M169.3,47.4c-0.6-0.4-0.8-1.2-0.4-1.8c0.4-0.6,1.2-0.8,1.8-0.4c0,0,0,0,0,0c0.6,0.4,0.8,1.2,0.4,1.8c-0.2,0.4-0.7,0.6-1.1,0.6
			C169.8,47.6,169.6,47.5,169.3,47.4z M172.9,47.1c-0.2-0.7,0.1-1.5,0.8-1.7c0.7-0.2,1.5,0.1,1.7,0.8c0.2,0.7-0.1,1.5-0.8,1.7
			C173.9,48.2,173.2,47.8,172.9,47.1C172.9,47.1,172.9,47.1,172.9,47.1L172.9,47.1z M171,105.4c-0.7-0.1-1.3-0.7-1.2-1.5
			c0.1-0.7,0.7-1.3,1.5-1.2c0.7,0.1,1.3,0.7,1.2,1.5C172.4,104.9,171.7,105.5,171,105.4C171,105.4,171,105.4,171,105.4L171,105.4z
			 M166.3,106.4c-0.5-0.5-0.5-1.4,0-1.9v0v0c0.6-0.5,1.4-0.5,1.9,0c0.5,0.5,0.5,1.4,0,1.9v0C167.6,106.9,166.8,106.9,166.3,106.4z
			 M173.5,107c-0.4-0.6-0.2-1.4,0.4-1.8c0.6-0.4,1.4-0.2,1.8,0.4v0c0.3,0.6,0.2,1.4-0.4,1.8C174.8,107.8,173.9,107.6,173.5,107
			C173.5,107,173.5,107,173.5,107z M164.5,109.5c-0.1-0.7,0.4-1.4,1.2-1.5c0,0,0,0,0,0c0.7-0.1,1.4,0.4,1.5,1.2c0,0,0,0,0,0
			c0.1,0.7-0.4,1.4-1.2,1.5c0,0-0.1,0-0.1,0C165.2,110.7,164.6,110.2,164.5,109.5L164.5,109.5z M174.7,111.7c-0.7-0.2-1.1-1-0.8-1.7
			c0.2-0.7,1-1.1,1.7-0.8c0,0,0,0,0,0c0.7,0.3,1,1,0.8,1.7c-0.2,0.5-0.7,0.9-1.2,0.9C175,111.8,174.8,111.8,174.7,111.7L174.7,111.7
			z M167.3,114.1c-0.6-0.4-0.8-1.2-0.4-1.8c0.4-0.6,1.2-0.8,1.8-0.4c0,0,0,0,0,0c0.6,0.4,0.8,1.2,0.4,1.8
			C168.8,114.3,168,114.4,167.3,114.1z M170.9,113.8c-0.2-0.7,0.1-1.5,0.8-1.7s1.5,0.1,1.7,0.8c0.2,0.7-0.1,1.5-0.8,1.7
			C171.9,114.9,171.2,114.5,170.9,113.8C170.9,113.8,170.9,113.8,170.9,113.8L170.9,113.8z M115,164.3c-0.7-0.1-1.3-0.7-1.2-1.5
			c0.1-0.7,0.7-1.3,1.4-1.2c0.7,0.1,1.3,0.7,1.2,1.4c0,0,0,0.1,0,0.1C116.3,163.8,115.7,164.4,115,164.3
			C115,164.3,115,164.3,115,164.3z M110.2,165.3c-0.5-0.5-0.5-1.4,0-1.9c0,0,0,0,0,0c0,0,0,0,0,0v0c0.6-0.5,1.4-0.5,1.9,0
			c0.5,0.5,0.5,1.4,0,1.9c0,0,0,0,0,0C111.6,165.8,110.8,165.8,110.2,165.3C110.2,165.3,110.2,165.3,110.2,165.3L110.2,165.3z
			 M117.5,165.9c-0.4-0.6-0.2-1.4,0.4-1.8c0.6-0.4,1.4-0.2,1.8,0.4c0,0,0,0,0,0c0.4,0.6,0.2,1.4-0.4,1.8c-0.2,0.1-0.5,0.2-0.7,0.2
			C118.2,166.5,117.7,166.3,117.5,165.9z M108.5,168.4c-0.1-0.7,0.5-1.4,1.2-1.4c0.7-0.1,1.3,0.4,1.4,1.1c0.1,0.7-0.4,1.4-1.2,1.5
			c0,0-0.1,0-0.1,0C109.1,169.6,108.5,169.1,108.5,168.4L108.5,168.4z M118.6,170.6c-0.7-0.2-1.1-1-0.8-1.7c0.2-0.7,1-1.1,1.7-0.8
			c0,0,0,0,0,0c0.7,0.2,1.1,1,0.8,1.7c-0.2,0.5-0.7,0.9-1.3,0.9C118.9,170.7,118.8,170.7,118.6,170.6L118.6,170.6z M111.3,173
			c-0.6-0.4-0.8-1.2-0.4-1.8c0.4-0.6,1.2-0.8,1.8-0.4c0,0,0,0,0,0c0.6,0.4,0.8,1.2,0.4,1.8C112.7,173.2,111.9,173.3,111.3,173
			C111.3,173,111.3,173,111.3,173L111.3,173z M114.9,172.7c-0.2-0.7,0.1-1.5,0.8-1.7c0.7-0.2,1.4,0.1,1.7,0.8c0,0,0,0,0,0
			c0.2,0.7-0.1,1.5-0.8,1.7c-0.1,0-0.3,0.1-0.4,0.1C115.6,173.6,115.1,173.3,114.9,172.7L114.9,172.7z"/>
		<path class="st5" d="M30.2,131.4c-0.5,0-0.9-0.4-0.9-0.9v-4c0-0.5,0.4-0.9,0.9-0.9c0.5,0,0.9,0.4,0.9,0.9v4
			C31.1,131,30.7,131.4,30.2,131.4L30.2,131.4"/>
		<path class="st5" d="M32.2,129.4h-4c-0.5,0-0.9-0.4-0.9-0.9c0-0.5,0.4-0.9,0.9-0.9h4c0.5,0,0.9,0.4,0.9,0.9
			C33.2,129,32.8,129.4,32.2,129.4C32.2,129.4,32.2,129.4,32.2,129.4 M73.2,60.8c-0.5,0-0.9-0.4-0.9-0.9v-4c0-0.5,0.4-0.9,0.9-0.9
			c0.5,0,0.9,0.4,0.9,0.9v4C74.1,60.4,73.7,60.8,73.2,60.8C73.2,60.8,73.2,60.8,73.2,60.8"/>
		<path class="st5" d="M75.2,58.9h-4c-0.5,0-0.9-0.4-0.9-0.9v0c0-0.5,0.4-0.9,0.9-0.9h4c0.5,0,0.9,0.4,0.9,0.9S75.7,58.9,75.2,58.9
			 M170.5,82.2c-0.5,0-0.9-0.4-0.9-0.9c0,0,0,0,0,0v-4c0-0.5,0.4-0.9,0.9-0.9c0.5,0,0.9,0.4,0.9,0.9v4
			C171.5,81.8,171.1,82.2,170.5,82.2L170.5,82.2"/>
		<path class="st5" d="M172.6,80.2h-4c-0.5,0-0.9-0.4-0.9-0.9l0,0c0-0.5,0.4-0.9,0.9-0.9h4c0.5,0,0.9,0.4,0.9,0.9
			C173.5,79.8,173.1,80.2,172.6,80.2L172.6,80.2 M11.7,180.3c-0.5,0-0.9-0.4-0.9-0.9v-4c0-0.5,0.4-0.9,0.9-0.9s0.9,0.4,0.9,0.9v4
			C12.6,179.8,12.2,180.3,11.7,180.3"/>
		<path class="st5" d="M13.7,178.3h-4c-0.5,0-0.9-0.4-0.9-0.9c0-0.5,0.4-0.9,0.9-0.9h4c0.5,0,0.9,0.4,0.9,0.9
			C14.7,177.9,14.2,178.3,13.7,178.3"/>
	</g>
</g>
</svg>
