<?xml version="1.0" encoding="utf-8"?>
<!-- Generator: Adobe Illustrator 22.1.0, SVG Export Plug-In . SVG Version: 6.00 Build 0)  -->
<svg version="1.1" id="Слой_1" xmlns="http://www.w3.org/2000/svg" xmlns:xlink="http://www.w3.org/1999/xlink" x="0px" y="0px"
	 viewBox="0 0 180 180" style="enable-background:new 0 0 180 180;" xml:space="preserve">
<style type="text/css">
	.st0{filter:url(#Adobe_OpacityMaskFilter);}
	.st1{fill:#FFFFFF;}
	.st2{mask:url(#b_1_);}
	.st3{fill:#F6F4FE;}
	.st4{fill:#DAD3FF;}
	.st5{fill:#566386;}
	.st6{fill:#654BFA;}
</style>
<g transform="translate(-3 -18)">
	<defs>
		<filter id="Adobe_OpacityMaskFilter" filterUnits="userSpaceOnUse" x="6" y="36.4" width="174" height="143.5">
			<feColorMatrix  type="matrix" values="1 0 0 0 0  0 1 0 0 0  0 0 1 0 0  0 0 0 1 0"/>
		</filter>
	</defs>
	<mask maskUnits="userSpaceOnUse" x="6" y="36.4" width="174" height="143.5" id="b_1_">
		<g class="st0">
			<path id="a_1_" class="st1" d="M3,18h180v180H3V18z"/>
		</g>
	</mask>
	<g class="st2">
		<g transform="translate(3 18)">
			<circle class="st3" cx="91.5" cy="88.5" r="68.5"/>
			<path class="st1" d="M101.1,138.4h28.6V161h-22.5l-3.9-1.5l-1.7-3.4L101.1,138.4z"/>
			<path class="st1" d="M123.5,138.6v-7.1l1.7-1.9h23.5l1.8,2.5v7.4l-3-1l-0.5-5.7l-3.3-0.7l-17.1,0.4l-0.2,6.6L123.5,138.6z
				 M163.6,103.7v-2.2l-3.1-1.4v-6.5l-1.7-4.1l-3.5-3.4l-4.1-1.4l-30,0.4l-4.4,1.8l-3,4.1l-0.7,6.1v3l-2.3,1.4l-0.9,1.7h13v-1.7
				l-3-1.4l-0.5-5.1l2.5-4l7.5-0.7h21l2.8,2l1.2,2.6v3.9l-0.3,1.9l-2.8,0.6v2.2H163.6z M39.9,19.3C20,19.3,3.8,35.5,3.8,55.5
				S20,91.6,39.9,91.6s36.1-16.2,36.1-36.2C76.1,35.5,59.9,19.3,39.9,19.3"/>
			<path class="st1" d="M129.9,129.2h13.7v-25.7h-13.7L129.9,129.2z"/>
			<path class="st4" d="M97.3,109.2v23.6c0,3.1,2.5,5.6,5.6,5.6c0,0,0,0,0,0h19.9l0-5.7c0-2,1.6-3.5,3.6-3.5c0,0,0.1,0,0.1,0
				l3.4,0.1v-25.6h-26.9C99.8,103.6,97.3,106.1,97.3,109.2L97.3,109.2 M170.9,103.6H144v25.6h3.4c1.8,0,3.3,1.5,3.3,3.3c0,0,0,0,0,0
				l0,5.9h20.3c3.1,0,5.6-2.5,5.6-5.6v-23.6C176.5,106.1,174,103.6,170.9,103.6"/>
			<path class="st1" d="M129.9,160.9h13.7v-13.3h-13.7L129.9,160.9z M136.7,136.4c1.1,0,2,0.9,2,2c0,1.1-0.8,2.1-2,2.1
				c-1.1,0-2.1-0.8-2.1-2c0,0,0-0.1,0-0.1C134.7,137.3,135.6,136.4,136.7,136.4L136.7,136.4z M129.9,143.9h13.7v-11.1h-13.7V143.9z"
				/>
			<path class="st4" d="M143.6,138.1h3.4v-5.5h-3.4V138.1z M126.5,138.1h3v-5.3h-3V138.1z"/>
			<path class="st5" d="M39.9,20.1C20.5,20.1,4.7,36,4.7,55.5s15.8,35.3,35.3,35.3c19.5,0,35.3-15.8,35.3-35.3S59.4,20.1,39.9,20.1z
				 M39.9,92.4c-9.9,0-19.1-3.8-26.1-10.8C6.8,74.6,3,65.3,3,55.5c0-9.9,3.8-19.2,10.8-26.2c7-7,16.3-10.8,26.1-10.8
				c9.9,0,19.1,3.8,26.1,10.8c7,7,10.8,16.3,10.8,26.2S73,74.6,66.1,81.6C59.1,88.6,49.8,92.4,39.9,92.4z"/>
			<path class="st5" d="M39.9,92.4c-0.5,0-0.8-0.4-0.8-0.9c0-0.4,0.4-0.8,0.8-0.8c8.6,0,13.8-5.9,16.6-10.9
				c3.7-6.4,5.7-15.1,5.7-24.4s-2-18-5.7-24.4c-2.8-5-8-10.9-16.6-10.9c-0.5,0-0.8-0.4-0.8-0.8s0.4-0.8,0.8-0.8
				c7.5,0,13.7,4.1,18.1,11.7c3.8,6.7,5.9,15.7,5.9,25.3c0,9.6-2.1,18.6-5.9,25.3C53.6,88.4,47.4,92.4,39.9,92.4"/>
			<path class="st5" d="M39.9,92.4c-7.8,0-14.4-4-19-11.7c-4-6.7-6.2-15.7-6.2-25.3s2.2-18.6,6.2-25.3c4.6-7.7,11.1-11.7,19-11.7
				c0.5,0,0.8,0.4,0.8,0.8s-0.4,0.8-0.8,0.8c-9.1,0-14.6,5.9-17.6,10.9c-3.9,6.4-6,15.1-6,24.4c0,9.3,2.1,18,6,24.4
				c3,5,8.4,10.9,17.6,10.9c0.5,0,0.8,0.4,0.8,0.9C40.7,92.1,40.3,92.4,39.9,92.4"/>
			<path class="st5" d="M39.9,92.4c-0.5,0-0.8-0.4-0.8-0.8V19.3c0-0.5,0.3-0.8,0.8-0.9s0.8,0.3,0.9,0.8c0,0,0,0.1,0,0.1v72.3
				C40.7,92.1,40.4,92.4,39.9,92.4"/>
			<path class="st5" d="M40.1,42.9c-5.8,0-11.5-0.5-16.3-1.4c-5.2-1-11.8-3-13.5-6.9c-0.2-0.4,0-0.9,0.4-1.1c0.4-0.2,0.9,0,1.1,0.4
				c1.1,2.5,5.5,4.6,12.3,5.9c6.3,1.2,14.3,1.6,22,1.2c5.9-0.3,11-1.2,15-2.4c4.1-1.3,6.5-2.9,7.1-4.6c0.1-0.4,0.6-0.7,1-0.5
				s0.7,0.6,0.5,1l0,0c-0.7,2.3-3.5,4.3-8.2,5.7c-4,1.3-9.3,2.1-15.3,2.5C44.1,42.9,42.1,42.9,40.1,42.9 M40.4,80.5
				c-6.8,0-13.5-0.8-19.1-2.3c-7-1.9-12.4-4.8-15.4-8.5c-0.3-0.4-0.2-0.9,0.1-1.2c0.4-0.3,0.9-0.2,1.2,0.1c0,0,0,0,0,0
				c2.8,3.4,7.8,6.1,14.5,8c6.2,1.7,13.7,2.5,21.1,2.3c14.2-0.4,25.7-4.3,30-10.2c0.3-0.4,0.8-0.5,1.2-0.2c0.4,0.3,0.5,0.8,0.2,1.2
				l0,0c-2.4,3.2-6.7,6-12.6,7.9c-5.4,1.7-11.8,2.8-18.7,3C42,80.5,41.2,80.5,40.4,80.5 M39.5,64.9c-1,0-2,0-3,0
				c-7.4-0.2-14.4-1.3-20.1-3.1c-6.3-1.9-10.8-4.7-13.2-8c-0.2-0.4-0.1-0.9,0.3-1.1c0.4-0.2,0.8-0.2,1.1,0.2
				c4.3,5.9,16.6,9.9,32,10.4c14.7,0.5,32.4-2.6,38.9-10.4c0.3-0.4,0.8-0.4,1.2-0.1c0,0,0,0,0,0c0.4,0.3,0.4,0.8,0.1,1.2
				c-3.1,3.7-8.8,6.7-16.5,8.7C54.1,64.1,46.8,64.9,39.5,64.9 M165.8,162h-58.1c-3.9,0-7.1-3.2-7.1-7.1v-16.2c0-0.5,0.4-0.8,0.8-0.8
				s0.8,0.4,0.8,0.8v16.2c0,3,2.4,5.4,5.4,5.4h58.1c3,0,5.4-2.4,5.4-5.4v-16.2c0-0.5,0.3-0.9,0.8-0.9c0.5,0,0.9,0.3,0.9,0.8
				c0,0,0,0.1,0,0.1v16.2C172.9,158.8,169.7,162,165.8,162"/>
			<path class="st5" d="M171.3,139h-20.9c-0.5,0-0.8-0.4-0.8-0.8s0.4-0.8,0.8-0.8h20.9c2.2,0,4-1.8,4-4v-24.2c0-2.6-2.1-4.7-4.7-4.7
				h-67.7c-2.6,0-4.7,2.1-4.7,4.7v24.2c0,2.2,1.8,4,4,4h20.9c0.5,0,0.8,0.4,0.8,0.9c0,0.4-0.4,0.8-0.8,0.8h-20.9
				c-3.1,0-5.6-2.5-5.7-5.7v-24.2c0-3.5,2.9-6.4,6.4-6.4h67.7c3.5,0,6.4,2.9,6.4,6.4v24.2C177,136.5,174.4,139,171.3,139"/>
			<path class="st5" d="M143.6,144.7c-0.5,0-0.8-0.4-0.8-0.8v0v-11c0-0.5,0.4-0.8,0.8-0.8s0.8,0.4,0.8,0.8v11
				C144.4,144.3,144.1,144.7,143.6,144.7 M143.6,130c-0.5,0-0.8-0.4-0.8-0.8c0,0,0,0,0,0v-25.1c0-0.5,0.4-0.8,0.8-0.8
				s0.8,0.4,0.8,0.8v25.1C144.4,129.6,144.1,130,143.6,130 M129.9,130.1c-0.5,0-0.8-0.4-0.8-0.8v-25.2c0-0.5,0.4-0.8,0.8-0.8
				c0.5,0,0.8,0.4,0.8,0.8c0,0,0,0,0,0v25.2C130.7,129.7,130.3,130.1,129.9,130.1 M129.9,144.7c-0.5,0-0.8-0.4-0.8-0.8v-11
				c0-0.5,0.3-0.9,0.8-0.9c0.5,0,0.9,0.3,0.9,0.8c0,0,0,0.1,0,0.1v11C130.7,144.3,130.3,144.7,129.9,144.7 M129.9,161.7
				c-0.5,0-0.8-0.4-0.8-0.8v-13.3c0-0.5,0.4-0.8,0.8-0.8c0.5,0,0.8,0.4,0.8,0.8c0,0,0,0,0,0v13.3
				C130.7,161.3,130.3,161.7,129.9,161.7 M143.6,161.7c-0.5,0-0.8-0.4-0.8-0.8c0,0,0,0,0,0v-13.4c0-0.5,0.4-0.8,0.8-0.8
				s0.8,0.4,0.8,0.8v13.4C144.4,161.3,144.1,161.7,143.6,161.7"/>
			<path class="st5" d="M125.9,130.4c-1,0-1.8,0.8-1.8,1.8v12.4c0,1,0.8,1.8,1.8,1.8h21.6c1,0,1.8-0.8,1.8-1.8v-12.4
				c0-1-0.8-1.8-1.8-1.8L125.9,130.4L125.9,130.4z M147.5,148.1h-21.6c-1.9,0-3.5-1.6-3.5-3.5v-12.4c0-1.9,1.6-3.5,3.5-3.5h21.6
				c1.9,0,3.5,1.6,3.5,3.5v12.4C151,146.5,149.5,148.1,147.5,148.1L147.5,148.1z"/>
			<path class="st5" d="M127.1,143.4h19.3v-9.9h-19.3L127.1,143.4L127.1,143.4z M146.5,145.1H127c-0.9,0-1.5-0.7-1.5-1.5v-10.2
				c0-0.9,0.7-1.5,1.5-1.5h19.5c0.9,0,1.5,0.7,1.5,1.5v10.2C148.1,144.4,147.4,145.1,146.5,145.1z"/>
			<path class="st5" d="M136.7,137.2c-0.7,0-1.2,0.5-1.2,1.2c0,0.7,0.5,1.2,1.2,1.2c0.7,0,1.2-0.6,1.2-1.2
				C137.9,137.8,137.4,137.3,136.7,137.2L136.7,137.2z M136.7,141.3c-1.6,0-2.9-1.3-2.9-2.9c0-1.6,1.3-2.9,2.9-2.9
				c1.6,0,2.9,1.3,2.9,2.9S138.3,141.3,136.7,141.3z"/>
			<path class="st5" d="M136.7,148.1c-0.5,0-0.8-0.4-0.8-0.8v-8.7c0-0.5,0.3-0.9,0.8-0.9c0.5,0,0.9,0.3,0.9,0.8c0,0,0,0.1,0,0.1v8.7
				C137.5,147.7,137.1,148.1,136.7,148.1 M162.8,111.1h-11c-0.5,0-0.8-0.4-0.8-0.9c0-0.4,0.4-0.8,0.8-0.8h11c0.5,0,0.8,0.4,0.8,0.8
				S163.2,111.1,162.8,111.1 M168.9,111.1h-2.4c-0.5,0-0.8-0.4-0.8-0.9c0-0.4,0.4-0.8,0.8-0.8h2.4c0.5,0,0.8,0.4,0.8,0.9
				C169.6,110.7,169.3,111.1,168.9,111.1 M166.8,115.5h-7c-0.5,0-0.8-0.4-0.8-0.9c0-0.4,0.4-0.8,0.8-0.8h7c0.5,0,0.8,0.4,0.8,0.8
				S167.2,115.5,166.8,115.5 M172.1,115.5h-2c-0.5,0-0.8-0.4-0.8-0.9c0-0.4,0.4-0.8,0.8-0.8h2c0.5,0,0.8,0.4,0.8,0.8
				S172.5,115.5,172.1,115.5 M110.4,134h-6.1c-0.5,0-0.8-0.4-0.8-0.9c0-0.4,0.4-0.8,0.8-0.8h6.1c0.5,0,0.8,0.4,0.8,0.9
				C111.2,133.6,110.9,134,110.4,134 M115.2,134h-1.5c-0.5,0-0.8-0.4-0.8-0.9c0-0.4,0.4-0.8,0.8-0.8h1.5c0.5,0,0.8,0.4,0.8,0.9
				C116,133.6,115.6,134,115.2,134 M122.6,104.3c-0.5,0-0.8-0.4-0.8-0.8c0,0,0,0,0,0v-0.7c0-1-0.8-1.7-1.7-1.7h-7.6
				c-1,0-1.7,0.8-1.7,1.7v0.7c0,0.5-0.4,0.8-0.8,0.8s-0.8-0.4-0.8-0.8l0,0v-0.7c0-1.9,1.5-3.4,3.4-3.4h7.6c1.9,0,3.4,1.5,3.4,3.4
				v0.7C123.5,103.9,123.1,104.3,122.6,104.3 M163.6,104.3c-0.5,0-0.8-0.4-0.8-0.8c0,0,0,0,0,0v-0.7c0-1-0.8-1.7-1.7-1.7h-7.6
				c-1,0-1.7,0.8-1.7,1.7v0.7c0,0.5-0.4,0.8-0.8,0.8c-0.5,0-0.8-0.4-0.8-0.8l0,0v-0.7c0-1.9,1.5-3.4,3.4-3.4h7.6
				c1.9,0,3.4,1.5,3.4,3.4v0.7C164.4,103.9,164.1,104.3,163.6,104.3"/>
			<path class="st5" d="M160.4,101.1c-0.5,0-0.8-0.4-0.8-0.8v-5.6c0-5.1-4.1-9.3-9.3-9.3h-27.2c-5.1,0-9.2,4.2-9.2,9.3v5.6
				c0,0.5-0.3,0.9-0.8,0.9s-0.9-0.3-0.9-0.8c0,0,0-0.1,0-0.1v-5.6c0-6,4.9-10.9,10.9-10.9h27.2c6,0,10.9,4.9,10.9,10.9v5.6
				C161.2,100.7,160.9,101.1,160.4,101.1"/>
			<path class="st5" d="M154.1,101.1c-0.5,0-0.8-0.4-0.8-0.8v-4.5c0-2.5-2-4.5-4.5-4.5h-24c-2.5,0-4.5,2-4.5,4.5v4.5
				c0,0.5-0.3,0.9-0.8,0.9c-0.5,0-0.9-0.3-0.9-0.8c0,0,0-0.1,0-0.1v-4.5c0-3.4,2.8-6.2,6.2-6.2h24c3.4,0,6.2,2.8,6.2,6.2v4.5
				C154.9,100.7,154.6,101.1,154.1,101.1"/>
			<path class="st6" d="M39.6,98.8c-0.5,0-0.8-0.4-0.8-0.8v-1.4c0-0.5,0.3-0.9,0.8-0.9c0.5,0,0.9,0.3,0.9,0.8c0,0,0,0.1,0,0.1v1.4
				C40.4,98.4,40,98.8,39.6,98.8 M39.6,107c-0.5,0-0.8-0.4-0.8-0.8v-3c0-0.5,0.3-0.9,0.8-0.9c0.5,0,0.9,0.3,0.9,0.8c0,0,0,0.1,0,0.1
				v3C40.4,106.7,40,107,39.6,107L39.6,107z M39.6,115.4c-0.5,0-0.8-0.4-0.8-0.8v-3c0-0.5,0.3-0.9,0.8-0.9c0.5,0,0.9,0.3,0.9,0.8
				c0,0,0,0.1,0,0.1v3C40.4,115.1,40,115.4,39.6,115.4z M39.6,123.9c-0.5,0-0.8-0.4-0.8-0.8v-3c0-0.5,0.3-0.9,0.8-0.9
				c0.5,0,0.9,0.3,0.9,0.8c0,0,0,0.1,0,0.1v3C40.4,123.5,40,123.9,39.6,123.9L39.6,123.9z M39.6,132.3c-0.5,0-0.8-0.4-0.8-0.8v-3
				c0-0.5,0.3-0.9,0.8-0.9c0.5,0,0.9,0.3,0.9,0.8c0,0,0,0.1,0,0.1v3C40.4,131.9,40,132.3,39.6,132.3z M41,138.9h-1.4
				c-0.5,0-0.8-0.4-0.8-0.8v-1.4c0-0.5,0.3-0.9,0.8-0.9c0.5,0,0.9,0.3,0.9,0.8c0,0,0,0.1,0,0.1v0.6H41c0.5,0,0.8,0.4,0.8,0.9
				C41.7,138.6,41.4,138.9,41,138.9 M48.4,138.9h-2.7c-0.5,0-0.8-0.4-0.8-0.9c0-0.4,0.4-0.8,0.8-0.8h2.7c0.5,0,0.8,0.4,0.8,0.9
				C49.1,138.6,48.8,138.9,48.4,138.9z M55.8,138.9h-2.7c-0.5,0-0.8-0.4-0.8-0.9c0-0.4,0.4-0.8,0.8-0.8h2.7c0.5,0,0.8,0.4,0.8,0.9
				C56.5,138.6,56.2,138.9,55.8,138.9z M63.2,138.9h-2.7c-0.5,0-0.8-0.4-0.8-0.9c0-0.4,0.4-0.8,0.8-0.8h2.7c0.5,0,0.8,0.4,0.8,0.9
				C63.9,138.6,63.6,138.9,63.2,138.9L63.2,138.9z M70.6,138.9h-2.7c-0.5,0-0.8-0.4-0.8-0.9c0-0.4,0.4-0.8,0.8-0.8h2.7
				c0.5,0,0.8,0.4,0.8,0.9C71.3,138.6,71,138.9,70.6,138.9z M78,138.9h-2.7c-0.5,0-0.8-0.4-0.8-0.9c0-0.4,0.4-0.8,0.8-0.8H78
				c0.5,0,0.8,0.4,0.8,0.9C78.7,138.6,78.4,138.9,78,138.9L78,138.9z M85.4,138.9h-2.7c-0.5,0-0.8-0.4-0.8-0.9
				c0-0.4,0.4-0.8,0.8-0.8h2.7c0.5,0,0.8,0.4,0.8,0.9C86.1,138.6,85.8,138.9,85.4,138.9z M92.8,138.9h-2.7c-0.5,0-0.8-0.4-0.8-0.9
				c0-0.4,0.4-0.8,0.8-0.8h2.7c0.5,0,0.8,0.4,0.8,0.9C93.5,138.6,93.2,138.9,92.8,138.9z M99.4,138.9h-1.4c-0.5,0-0.8-0.4-0.8-0.9
				c0-0.4,0.4-0.8,0.8-0.8h1.4c0.5,0,0.8,0.4,0.8,0.9C100.2,138.6,99.8,138.9,99.4,138.9 M80.2,56.3h-1.3c-0.5,0-0.8-0.4-0.8-0.8
				c0-0.5,0.4-0.8,0.8-0.8h1.3c0.5,0,0.8,0.4,0.8,0.8C81,56,80.6,56.3,80.2,56.3 M88.6,56.3h-3c-0.5,0-0.8-0.4-0.8-0.8
				c0-0.5,0.4-0.8,0.8-0.8h3c0.5,0,0.8,0.4,0.8,0.8C89.4,56,89,56.3,88.6,56.3L88.6,56.3L88.6,56.3z M96.8,56.3h-3
				c-0.5,0-0.8-0.4-0.8-0.8c0-0.5,0.4-0.8,0.8-0.8l0,0h3c0.5,0,0.8,0.4,0.8,0.8C97.7,56,97.3,56.3,96.8,56.3z M105.1,56.3h-3
				c-0.5,0-0.8-0.4-0.8-0.8c0-0.5,0.4-0.8,0.8-0.8h3c0.5,0,0.8,0.4,0.8,0.8C106,56,105.6,56.3,105.1,56.3z M113.4,56.3h-3
				c-0.5,0-0.8-0.4-0.8-0.8c0-0.5,0.4-0.8,0.8-0.8h3c0.5,0,0.8,0.4,0.8,0.8C114.2,56,113.9,56.3,113.4,56.3z M121.7,56.3h-3
				c-0.5,0-0.8-0.4-0.8-0.8c0-0.5,0.4-0.8,0.8-0.8h3c0.5,0,0.8,0.4,0.8,0.8C122.5,56,122.1,56.3,121.7,56.3L121.7,56.3z M130,56.3
				h-3c-0.5,0-0.8-0.4-0.8-0.8c0-0.5,0.4-0.8,0.8-0.8l0,0h3c0.5,0,0.8,0.4,0.8,0.8C130.8,56,130.4,56.3,130,56.3z M136.7,57.7
				c-0.5,0-0.8-0.4-0.8-0.8v-0.6h-0.6c-0.5,0-0.8-0.4-0.8-0.8c0-0.5,0.4-0.8,0.8-0.8h1.4c0.5,0,0.8,0.4,0.8,0.8v1.4
				C137.5,57.4,137.1,57.7,136.7,57.7 M136.7,66.8c-0.5,0-0.8-0.4-0.8-0.8v-3.2c0-0.5,0.3-0.8,0.8-0.9c0.5,0,0.8,0.3,0.9,0.8
				c0,0,0,0.1,0,0.1V66C137.5,66.4,137.1,66.8,136.7,66.8L136.7,66.8z M136.7,75.9c-0.5,0-0.8-0.4-0.8-0.8v-3.2
				c0-0.5,0.3-0.8,0.8-0.9c0.5,0,0.8,0.3,0.9,0.8c0,0,0,0.1,0,0.1V75C137.5,75.5,137.1,75.9,136.7,75.9L136.7,75.9z M136.7,83.1
				c-0.5,0-0.8-0.4-0.8-0.8v-1.3c0-0.5,0.3-0.9,0.8-0.9c0.5,0,0.9,0.3,0.9,0.8c0,0,0,0.1,0,0.1v1.3C137.5,82.7,137.1,83,136.7,83.1"
				/>
			<path class="st5" d="M69.9,108.2c-0.6-0.1-1-0.6-0.9-1.2c0.1-0.6,0.6-1,1.2-0.9c0.6,0.1,1.1,0.6,1,1.2c-0.1,0.6-0.5,1-1.1,1
				C70,108.2,69.9,108.2,69.9,108.2z M65.3,109.2c-0.4-0.4-0.4-1.1,0-1.6c0,0,0,0,0,0c0.4-0.4,1.1-0.4,1.6,0c0.4,0.4,0.4,1.1,0,1.6
				l0,0C66.4,109.7,65.7,109.7,65.3,109.2C65.3,109.2,65.3,109.2,65.3,109.2L65.3,109.2z M72.6,109.9c-0.3-0.5-0.2-1.2,0.3-1.5
				c0.5-0.3,1.2-0.2,1.5,0.3c0.3,0.5,0.2,1.2-0.3,1.5c-0.2,0.1-0.4,0.2-0.6,0.2C73.1,110.4,72.8,110.2,72.6,109.9z M63.6,112.5
				L63.6,112.5z M73.6,114.5c-0.6-0.2-0.9-0.9-0.6-1.4c0.2-0.5,0.8-0.8,1.4-0.7c0.6,0.2,0.8,0.9,0.6,1.4
				C74.7,114.3,74.1,114.6,73.6,114.5z M66.3,116.8c-0.5-0.3-0.6-1-0.3-1.5c0.3-0.5,1-0.6,1.5-0.3c0.5,0.3,0.7,1,0.3,1.5
				c-0.2,0.3-0.6,0.5-0.9,0.5C66.7,117,66.5,116.9,66.3,116.8z M70,116.7L70,116.7z M99.8,29.8c-0.6-0.1-1-0.6-1-1.2c0,0,0,0,0,0
				c0.1-0.6,0.6-1,1.2-1c0.6,0.1,1,0.6,1,1.2C100.9,29.4,100.4,29.9,99.8,29.8z M95.2,30.8c-0.4-0.4-0.4-1.1,0-1.6h0c0,0,0,0,0,0
				c0,0,0,0,0,0c0.4-0.4,1.1-0.4,1.6,0c0,0,0,0,0,0c0.4,0.4,0.4,1.1,0,1.6l0,0l0,0C96.3,31.3,95.6,31.3,95.2,30.8
				C95.2,30.8,95.2,30.8,95.2,30.8z M102.5,31.5c-0.3-0.5-0.2-1.2,0.3-1.5c0.5-0.3,1.2-0.2,1.5,0.3l0,0c0.3,0.5,0.2,1.2-0.3,1.5
				C103.5,32.2,102.8,32,102.5,31.5z M93.5,34.1L93.5,34.1z M103.5,36.1c-0.6-0.2-0.9-0.8-0.7-1.4s0.8-0.9,1.4-0.7l0,0
				c0.6,0.2,0.9,0.8,0.7,1.4S104.1,36.3,103.5,36.1z M96.2,38.4c-0.5-0.3-0.6-1-0.3-1.5c0.3-0.5,1-0.6,1.5-0.3
				c0.5,0.3,0.6,1,0.3,1.5C97.4,38.6,96.7,38.7,96.2,38.4L96.2,38.4z M99.9,38.3c-0.2-0.6,0.1-1.2,0.7-1.4c0.6-0.2,1.2,0.1,1.4,0.7
				c0.2,0.6-0.1,1.2-0.7,1.4c0,0,0,0,0,0C100.7,39.2,100.1,38.9,99.9,38.3z M166.8,70.7c-0.6-0.1-1-0.6-1-1.2c0.1-0.6,0.6-1,1.2-1
				c0.6,0.1,1,0.6,1,1.2c-0.1,0.6-0.5,1-1.1,1C166.9,70.7,166.9,70.7,166.8,70.7z M162.3,71.7c-0.4-0.4-0.4-1.1,0-1.6c0,0,0,0,0,0
				c0.4-0.4,1.1-0.4,1.6,0c0,0,0,0,0,0c0.4,0.4,0.4,1.1,0,1.6l0,0c0,0,0,0,0,0C163.4,72.2,162.7,72.2,162.3,71.7
				C162.3,71.7,162.3,71.7,162.3,71.7L162.3,71.7z M169.5,72.4c-0.3-0.5-0.2-1.2,0.3-1.5c0,0,0,0,0,0c0.5-0.3,1.2-0.2,1.5,0.3
				c0,0,0,0,0,0c0.3,0.4,0.2,1.2-0.4,1.5C170.5,73.1,169.8,72.9,169.5,72.4z M160.6,75L160.6,75z M170.6,77
				c-0.6-0.2-0.9-0.8-0.7-1.4c0.2-0.6,0.8-0.9,1.4-0.7s0.9,0.8,0.7,1.4C171.8,76.9,171.1,77.2,170.6,77z M163.3,79.3
				c-0.5-0.3-0.6-1-0.3-1.5c0.3-0.5,1-0.6,1.5-0.3c0.5,0.3,0.7,1,0.3,1.5C164.5,79.5,163.8,79.7,163.3,79.3
				C163.3,79.3,163.3,79.3,163.3,79.3z M166.9,79.2c-0.2-0.6,0.1-1.2,0.7-1.4c0.6-0.2,1.2,0.1,1.4,0.7c0.2,0.6-0.1,1.2-0.7,1.4
				C167.8,80.1,167.1,79.8,166.9,79.2z M16,147.9c-0.6-0.1-1-0.6-1-1.2c0,0,0,0,0,0c0.1-0.6,0.6-1,1.2-1c0.6,0.1,1,0.6,1,1.2
				C17.1,147.5,16.6,147.9,16,147.9z M11.4,148.9c-0.4-0.4-0.4-1.1,0-1.6c0,0,0,0,0,0c0.4-0.4,1.1-0.4,1.6,0c0,0,0,0,0,0
				c0.4,0.4,0.4,1.1,0,1.6c0,0,0,0,0,0c0,0,0,0,0,0C12.5,149.4,11.8,149.4,11.4,148.9C11.4,148.9,11.4,148.9,11.4,148.9L11.4,148.9z
				 M18.7,149.6c-0.3-0.5-0.2-1.2,0.3-1.5c0.5-0.3,1.2-0.2,1.5,0.3s0.2,1.2-0.3,1.5C19.7,150.2,19,150.1,18.7,149.6z M9.7,152.2
				L9.7,152.2z M19.7,154.2c-0.6-0.2-0.8-0.9-0.6-1.4c0.2-0.5,0.8-0.8,1.4-0.7c0.6,0.2,0.8,0.9,0.6,1.4
				C20.8,154,20.2,154.3,19.7,154.2L19.7,154.2z M12.4,156.5c-0.5-0.3-0.6-1-0.3-1.5c0.3-0.5,1-0.6,1.5-0.3c0.5,0.3,0.7,1,0.3,1.5
				c-0.2,0.3-0.6,0.5-0.9,0.5C12.8,156.7,12.6,156.6,12.4,156.5z M16.1,156.4L16.1,156.4z"/>
			<path class="st6" d="M15.5,102.6c-0.5,0-0.8-0.4-0.8-0.8v-5.3c0-0.5,0.3-0.9,0.8-0.9c0.5,0,0.9,0.3,0.9,0.8c0,0,0,0.1,0,0.1v5.3
				C16.3,102.3,16,102.6,15.5,102.6"/>
			<path class="st6" d="M18.2,100h-5.3c-0.5,0-0.8-0.4-0.8-0.9c0-0.4,0.4-0.8,0.8-0.8h5.3c0.5,0,0.8,0.4,0.8,0.9
				C19,99.7,18.6,100,18.2,100 M76,155c-0.5,0-0.8-0.4-0.8-0.8v-5.3c0-0.5,0.3-0.9,0.8-0.9s0.9,0.3,0.9,0.8c0,0,0,0.1,0,0.1v5.3
				C76.9,154.7,76.5,155,76,155"/>
			<path class="st6" d="M78.7,152.4h-5.3c-0.5,0-0.8-0.4-0.8-0.9c0-0.4,0.4-0.8,0.8-0.8h5.3c0.5,0,0.8,0.4,0.8,0.9
				C79.5,152.1,79.2,152.4,78.7,152.4 M97.2,81.3c-0.5,0-0.8-0.4-0.8-0.8v-5.3c0-0.5,0.3-0.8,0.8-0.9c0.5,0,0.8,0.3,0.9,0.8
				c0,0,0,0,0,0.1v5.3C98.1,80.9,97.7,81.3,97.2,81.3"/>
			<path class="st6" d="M99.9,78.7h-5.3c-0.5,0-0.8-0.4-0.8-0.8s0.4-0.8,0.8-0.8l0,0h5.3c0.5,0,0.8,0.4,0.8,0.8
				C100.8,78.3,100.4,78.7,99.9,78.7 M159.7,39.6c-0.5,0-0.8-0.4-0.8-0.8v-5.3c0-0.5,0.3-0.8,0.8-0.9c0.5,0,0.8,0.3,0.9,0.8
				c0,0,0,0,0,0.1v5.3C160.6,39.2,160.2,39.6,159.7,39.6"/>
			<path class="st6" d="M162.4,37h-5.3c-0.5,0-0.8-0.4-0.8-0.8s0.4-0.8,0.8-0.8h5.3c0.5,0,0.8,0.4,0.8,0.8S162.9,37,162.4,37"/>
			<path class="st5" d="M129,138.9h-2.2c-0.5,0-0.8-0.4-0.8-0.9c0-0.4,0.4-0.8,0.8-0.8h2.2c0.5,0,0.8,0.4,0.8,0.9
				C129.7,138.6,129.4,138.9,129,138.9 M146.8,138.9h-2.2c-0.5,0-0.8-0.4-0.8-0.9c0-0.4,0.4-0.8,0.8-0.8h2.2c0.5,0,0.8,0.4,0.8,0.9
				C147.5,138.6,147.2,138.9,146.8,138.9"/>
		</g>
	</g>
</g>
</svg>
