<?xml version="1.0" encoding="utf-8"?>
<!-- Generator: Adobe Illustrator 22.1.0, SVG Export Plug-In . SVG Version: 6.00 Build 0)  -->
<svg version="1.1" id="Слой_1" xmlns="http://www.w3.org/2000/svg" xmlns:xlink="http://www.w3.org/1999/xlink" x="0px" y="0px"
	 viewBox="0 0 180 180" style="enable-background:new 0 0 180 180;" xml:space="preserve">
<style type="text/css">
	.st0{fill:#FFFFFF;}
	.st1{fill:#DAD3FF;}
	.st2{fill:#654BFA;}
	.st3{fill:#566386;}
</style>
<g id="Group">
	<g>
		<polygon class="st0" points="128.8,152.5 128.8,147.8 124,147.2 123.4,142.3 121.5,142.3 116.9,131.1 113,99.9 124,93.4 
			128.8,93.4 127.8,88.7 132,88.7 132,83.4 128.8,83.4 90.3,45 52.3,82.7 47.6,83.4 47.6,88.7 51.8,88.7 51.8,93.4 56.3,93.4 
			56.3,98 59.4,99.1 60,142.3 56.3,142.3 56.3,147.2 52.3,147.8 52.3,152.5 45.2,153.1 45.2,157.7 135.1,157.7 134.4,152.5 		"/>
		<polygon class="st0" points="173.9,107 161.1,107 140.2,107 135.3,107 134.2,109 134.2,112.8 134.2,134 134.2,140.2 137,141.1 
			173.9,141.1 175.4,139.7 175.4,136.8 175.4,109 		"/>
		<polygon class="st0" points="27.7,54.4 26.1,52.3 23.9,52.3 26.4,56.7 27.4,61.1 27.1,64.7 25.5,67.8 23.2,70.5 20.5,72.1 
			20.9,73.1 23.2,73.1 24.8,72.1 26.9,70.4 28,68.9 29.3,66.9 30.2,63.4 30.2,59.9 29.5,56.8 		"/>
		<polygon class="st0" points="57.8,41.1 59.4,40.1 61.6,38.4 62.7,36.9 63.9,34.9 64.8,31.4 64.8,27.9 64.2,24.8 62.4,22.4 
			60.8,20.3 58.5,20.3 61,24.7 62.1,29.1 61.8,32.7 60.2,35.8 57.8,38.5 55.2,40.1 55.6,41.1 		"/>
	</g>
	<g>
		<ellipse class="st0" cx="50.4" cy="29.4" rx="11.6" ry="11.5"/>
		<path class="st0" d="M16.2,50.1c-6.4,0-11.6,5.2-11.6,11.5s5.2,11.5,11.6,11.5S27.7,68,27.7,61.7S22.5,50.1,16.2,50.1z"/>
	</g>
	<g>
		<rect x="140.9" y="119.7" class="st1" width="27.8" height="5.2"/>
		<rect x="140.9" y="130.2" class="st1" width="27.8" height="5.2"/>
		<rect x="106.6" y="93.5" class="st1" width="17.3" height="54.5"/>
		<rect x="56.4" y="93.5" class="st1" width="17.3" height="54.5"/>
		<path class="st1" d="M90.2,68.2c-2.7,0-4.8,2.2-4.8,4.8c0,2.7,2.2,4.8,4.8,4.8c2.7,0,4.8-2.2,4.8-4.8C95,70.4,92.9,68.2,90.2,68.2
			z"/>
	</g>
	<g>
		<path class="st2" d="M154.8,102.3c-0.5,0-0.8,0.4-0.8,0.8v1.3c0,0.4,0.4,0.8,0.8,0.8s0.8-0.4,0.8-0.8v-1.3
			C155.6,102.7,155.3,102.3,154.8,102.3z"/>
		<path class="st2" d="M154.8,87.8c-0.5,0-0.8,0.4-0.8,0.8v2.6c0,0.4,0.4,0.8,0.8,0.8s0.8-0.4,0.8-0.8v-2.6
			C155.6,88.1,155.3,87.8,154.8,87.8z"/>
		<path class="st2" d="M154.8,80.5c-0.5,0-0.8,0.4-0.8,0.8v2.6c0,0.4,0.4,0.8,0.8,0.8s0.8-0.4,0.8-0.8v-2.6
			C155.6,80.9,155.3,80.5,154.8,80.5z"/>
		<path class="st2" d="M154.8,95c-0.5,0-0.8,0.4-0.8,0.8v2.6c0,0.4,0.4,0.8,0.8,0.8s0.8-0.4,0.8-0.8v-2.6
			C155.6,95.4,155.3,95,154.8,95z"/>
		<path class="st2" d="M154.8,73.2c-0.5,0-0.8,0.4-0.8,0.8v2.6c0,0.4,0.4,0.8,0.8,0.8s0.8-0.4,0.8-0.8V74
			C155.6,73.6,155.3,73.2,154.8,73.2z"/>
		<path class="st2" d="M154.8,66c-0.5,0-0.8,0.4-0.8,0.8v2.6c0,0.4,0.4,0.8,0.8,0.8s0.8-0.4,0.8-0.8v-2.6
			C155.6,66.3,155.3,66,154.8,66z"/>
		<path class="st2" d="M154.8,60.4h-1.4c-0.5,0-0.8,0.4-0.8,0.8c0,0.4,0.4,0.8,0.8,0.8h0.5v0.5c0,0.4,0.4,0.8,0.8,0.8
			s0.8-0.4,0.8-0.8v-1.4C155.6,60.7,155.3,60.4,154.8,60.4z"/>
		<path class="st2" d="M135.1,60.4h-2.5c-0.5,0-0.8,0.4-0.8,0.8c0,0.4,0.4,0.8,0.8,0.8h2.5c0.5,0,0.8-0.4,0.8-0.8
			C135.9,60.7,135.5,60.4,135.1,60.4z"/>
		<path class="st2" d="M142.1,60.4h-2.5c-0.5,0-0.8,0.4-0.8,0.8c0,0.4,0.4,0.8,0.8,0.8h2.5c0.5,0,0.8-0.4,0.8-0.8
			C142.9,60.7,142.5,60.4,142.1,60.4z"/>
		<path class="st2" d="M128.1,60.4h-2.5c-0.5,0-0.8,0.4-0.8,0.8c0,0.4,0.4,0.8,0.8,0.8h2.5c0.5,0,0.8-0.4,0.8-0.8
			C128.9,60.7,128.6,60.4,128.1,60.4z"/>
		<path class="st2" d="M149,60.4h-2.5c-0.5,0-0.8,0.4-0.8,0.8c0,0.4,0.4,0.8,0.8,0.8h2.5c0.5,0,0.8-0.4,0.8-0.8
			C149.8,60.7,149.5,60.4,149,60.4z"/>
		<path class="st2" d="M121.2,60.4h-1.3c-0.5,0-0.8,0.4-0.8,0.8c0,0.4,0.4,0.8,0.8,0.8h1.3c0.5,0,0.8-0.4,0.8-0.8
			C122,60.7,121.6,60.4,121.2,60.4z"/>
		<path class="st2" d="M17.2,84.9c0.5,0,0.8-0.4,0.8-0.8v-1.3c0-0.4-0.4-0.8-0.8-0.8s-0.8,0.4-0.8,0.8v1.3
			C16.4,84.6,16.7,84.9,17.2,84.9z"/>
		<path class="st2" d="M17.2,108.4c0.5,0,0.8-0.4,0.8-0.8v-2.8c0-0.4-0.4-0.8-0.8-0.8s-0.8,0.4-0.8,0.8v2.8
			C16.4,108,16.7,108.4,17.2,108.4z"/>
		<path class="st2" d="M17.2,92.8c0.5,0,0.8-0.4,0.8-0.8v-2.8c0-0.4-0.4-0.8-0.8-0.8s-0.8,0.4-0.8,0.8V92
			C16.4,92.4,16.7,92.8,17.2,92.8z"/>
		<path class="st2" d="M17.2,100.6c0.5,0,0.8-0.4,0.8-0.8V97c0-0.4-0.4-0.8-0.8-0.8s-0.8,0.4-0.8,0.8v2.8
			C16.4,100.2,16.7,100.6,17.2,100.6z"/>
		<path class="st2" d="M17.2,116.2c0.5,0,0.8-0.4,0.8-0.8v-2.8c0-0.4-0.4-0.8-0.8-0.8s-0.8,0.4-0.8,0.8v2.8
			C16.4,115.8,16.7,116.2,17.2,116.2z"/>
		<path class="st2" d="M18.5,120.7H18v-0.5c0-0.4-0.4-0.8-0.8-0.8s-0.8,0.4-0.8,0.8v1.4c0,0.4,0.4,0.8,0.8,0.8h1.4
			c0.5,0,0.8-0.4,0.8-0.8S19,120.7,18.5,120.7z"/>
		<path class="st2" d="M26.3,120.7h-2.7c-0.5,0-0.8,0.4-0.8,0.8s0.4,0.8,0.8,0.8h2.7c0.5,0,0.8-0.4,0.8-0.8S26.7,120.7,26.3,120.7z"
			/>
		<path class="st2" d="M41.7,120.7H39c-0.5,0-0.8,0.4-0.8,0.8s0.4,0.8,0.8,0.8h2.7c0.5,0,0.8-0.4,0.8-0.8S42.1,120.7,41.7,120.7z"/>
		<path class="st2" d="M31.3,122.3H34c0.5,0,0.8-0.4,0.8-0.8s-0.4-0.8-0.8-0.8h-2.7c-0.5,0-0.8,0.4-0.8,0.8S30.8,122.3,31.3,122.3z"
			/>
		<path class="st2" d="M48,120.7h-1.4c-0.5,0-0.8,0.4-0.8,0.8s0.4,0.8,0.8,0.8H48c0.5,0,0.8-0.4,0.8-0.8S48.5,120.7,48,120.7z"/>
		<path class="st2" d="M173.1,68.2h-1.7v-1.7c0-0.4-0.4-0.8-0.8-0.8c-0.5,0-0.8,0.4-0.8,0.8v1.7h-1.5c-0.5,0-0.8,0.4-0.8,0.8
			s0.4,0.8,0.8,0.8h1.5v1.5c0,0.4,0.4,0.8,0.8,0.8c0.5,0,0.8-0.4,0.8-0.8v-1.5h1.7c0.5,0,0.8-0.4,0.8-0.8
			C174,68.6,173.6,68.2,173.1,68.2z"/>
		<path class="st2" d="M146.6,44.2v-1.5h1.7c0.5,0,0.8-0.4,0.8-0.8s-0.4-0.8-0.8-0.8h-1.7v-1.7c0-0.4-0.4-0.8-0.8-0.8
			S145,39,145,39.4v1.7h-1.5c-0.5,0-0.8,0.4-0.8,0.8s0.4,0.8,0.8,0.8h1.5v1.5c0,0.4,0.4,0.8,0.8,0.8S146.6,44.7,146.6,44.2z"/>
		<path class="st2" d="M90.3,21.1h-1.7v-1.7c0-0.4-0.4-0.8-0.8-0.8S87,19,87,19.4v1.7h-1.5c-0.5,0-0.8,0.4-0.8,0.8s0.4,0.8,0.8,0.8
			H87v1.5c0,0.4,0.4,0.8,0.8,0.8s0.8-0.4,0.8-0.8v-1.5h1.7c0.5,0,0.8-0.4,0.8-0.8C91.1,21.5,90.7,21.1,90.3,21.1z"/>
		<path class="st2" d="M35.1,134.7h-1.7V133c0-0.4-0.4-0.8-0.8-0.8s-0.8,0.4-0.8,0.8v1.7h-1.5c-0.5,0-0.8,0.4-0.8,0.8
			c0,0.4,0.4,0.8,0.8,0.8h1.5v1.5c0,0.4,0.4,0.8,0.8,0.8s0.8-0.4,0.8-0.8v-1.5h1.7c0.5,0,0.8-0.4,0.8-0.8
			C35.9,135.1,35.5,134.7,35.1,134.7z"/>
		<path class="st2" d="M166,151.9h-1.7v-1.7c0-0.4-0.4-0.8-0.8-0.8c-0.5,0-0.8,0.4-0.8,0.8v1.7h-1.5c-0.5,0-0.8,0.4-0.8,0.8
			s0.4,0.8,0.8,0.8h1.5v1.5c0,0.4,0.4,0.8,0.8,0.8c0.5,0,0.8-0.4,0.8-0.8v-1.5h1.7c0.5,0,0.8-0.4,0.8-0.8S166.4,151.9,166,151.9z"/>
	</g>
	<g>
		<path class="st3" d="M135.1,150.9h-5.7v-4.3c0-0.4-0.4-0.8-0.8-0.8h-4V94.3h4c0.5,0,0.8-0.4,0.8-0.8v-4.3h3.1
			c0.5,0,0.8-0.4,0.8-0.8v-5.1c0-0.4-0.4-0.8-0.8-0.8h-3.3L90.8,44.3c-0.2-0.2-0.4-0.2-0.6-0.2s-0.4,0.1-0.6,0.2L51.3,82.5h-3.5
			c-0.5,0-0.8,0.4-0.8,0.8v5.1c0,0.4,0.4,0.8,0.8,0.8h3.1v4.3c0,0.5,0.4,0.8,0.8,0.8h4v51.5h-4c-0.5,0-0.8,0.4-0.8,0.8v4.3h-5.7
			c-0.5,0-0.8,0.4-0.8,0.8v5.1c0,0.4,0.4,0.8,0.8,0.8h89.9c0.5,0,0.8-0.4,0.8-0.8v-5.1C135.9,151.3,135.6,150.9,135.1,150.9z
			 M123,145.9h-15.5V94.3H123V145.9z M74.5,145.9V94.3h31.4v51.5L74.5,145.9L74.5,145.9z M90.3,46l36.6,36.6h-6.1l0,0l-30-29.9
			c-0.2-0.2-0.4-0.2-0.6-0.2s-0.4,0.1-0.6,0.2l-30,29.9h-6.1L90.3,46z M118.5,82.5H62l28.2-28.2L118.5,82.5z M52.5,89.2h43.9
			c0.5,0,0.8-0.4,0.8-0.8s-0.4-0.8-0.8-0.8H48.6v-3.4h83v3.4h-11.5c-0.5,0-0.8,0.4-0.8,0.8s0.4,0.8,0.8,0.8h7.6v3.4H52.5V89.2z
			 M57.3,94.3h15.5v51.5H57.3V94.3z M134.3,156H46v-3.4h24.6c0.5,0,0.8-0.4,0.8-0.8S71,151,70.6,151H52.5v-3.4h3.2
			c0.1,0.4,0.4,0.7,0.8,0.7h17.1c0.4,0,0.7-0.3,0.8-0.7h31.5c0.1,0.4,0.4,0.7,0.8,0.7h17.1c0.4,0,0.7-0.3,0.8-0.7h3.2v3.4h-14
			c-0.5,0-0.8,0.4-0.8,0.8s0.4,0.8,0.8,0.8h20.5V156z"/>
		<path class="st3" d="M99.4,150.9H83.2c-0.5,0-0.8,0.4-0.8,0.8s0.4,0.8,0.8,0.8h16.2c0.5,0,0.8-0.4,0.8-0.8S99.9,150.9,99.4,150.9z
			"/>
		<path class="st3" d="M112,87.7h-6.3c-0.5,0-0.8,0.4-0.8,0.8s0.4,0.8,0.8,0.8h6.3c0.5,0,0.8-0.4,0.8-0.8
			C112.9,88.1,112.5,87.7,112,87.7z"/>
		<path class="st3" d="M84.6,73c0,3.1,2.5,5.6,5.6,5.6s5.6-2.5,5.6-5.6s-2.5-5.6-5.6-5.6S84.6,69.9,84.6,73z M94.2,73
			c0,2.2-1.8,4-4,4s-4-1.8-4-4s1.8-4,4-4C92.4,69,94.2,70.8,94.2,73z"/>
		<path class="st3" d="M113.7,120.5c0.5,0,0.8-0.4,0.8-0.8v-14.3c0-0.4-0.4-0.8-0.8-0.8s-0.8,0.4-0.8,0.8v14.3
			C112.9,120.2,113.3,120.5,113.7,120.5z"/>
		<path class="st3" d="M117.1,139c0.5,0,0.8-0.4,0.8-0.8V129c0-0.4-0.4-0.8-0.8-0.8s-0.8,0.4-0.8,0.8v9.2
			C116.3,138.6,116.6,139,117.1,139z"/>
		<path class="st3" d="M117.1,124c0.5,0,0.8-0.4,0.8-0.8v-3.5c0-0.4-0.4-0.8-0.8-0.8s-0.8,0.4-0.8,0.8v3.5
			C116.3,123.6,116.6,124,117.1,124z"/>
		<path class="st3" d="M63.4,104.6c-0.5,0-0.8,0.4-0.8,0.8v14.3c0,0.4,0.4,0.8,0.8,0.8s0.8-0.4,0.8-0.8v-14.3
			C64.2,104.9,63.8,104.6,63.4,104.6z"/>
		<path class="st3" d="M66.6,128.1c-0.5,0-0.8,0.4-0.8,0.8v9.2c0,0.4,0.4,0.8,0.8,0.8s0.8-0.4,0.8-0.8v-9.2
			C67.5,128.5,67.1,128.1,66.6,128.1z"/>
		<path class="st3" d="M66.6,118.9c-0.5,0-0.8,0.4-0.8,0.8v3.5c0,0.4,0.4,0.8,0.8,0.8s0.8-0.4,0.8-0.8v-3.5
			C67.5,119.3,67.1,118.9,66.6,118.9z"/>
		<path class="st3" d="M91.1,113.5c-0.5,0-0.8,0.4-0.8,0.8v11.4c0,0.4,0.4,0.8,0.8,0.8s0.8-0.4,0.8-0.8v-11.4
			C91.9,113.8,91.6,113.5,91.1,113.5z"/>
		<path class="st3" d="M99.7,103.6c-0.5,0-0.8,0.4-0.8,0.8v4.9c0,0.4,0.4,0.8,0.8,0.8s0.8-0.4,0.8-0.8v-4.9
			C100.5,104,100.2,103.6,99.7,103.6z"/>
		<path class="st3" d="M99.7,115.1c-0.5,0-0.8,0.4-0.8,0.8v3.4c0,0.4,0.4,0.8,0.8,0.8s0.8-0.4,0.8-0.8v-3.4
			C100.5,115.5,100.2,115.1,99.7,115.1z"/>
		<path class="st3" d="M82.3,123.6c-0.5,0-0.8,0.4-0.8,0.8v7.8c0,0.4,0.4,0.8,0.8,0.8s0.8-0.4,0.8-0.8v-7.8
			C83.1,123.9,82.8,123.6,82.3,123.6z"/>
		<path class="st3" d="M82.3,116.4c-0.5,0-0.8,0.4-0.8,0.8v2c0,0.4,0.4,0.8,0.8,0.8s0.8-0.4,0.8-0.8v-2
			C83.1,116.8,82.8,116.4,82.3,116.4z"/>
		<path class="st3" d="M49.8,30.3v3c-0.5,0-1.1-0.2-1.7-0.4c-0.6-0.2-1.1-0.5-1.4-0.7v2.3c1,0.5,2,0.8,3.1,0.8V37H51v-1.8
			c1.1-0.1,1.9-0.5,2.5-1c0.6-0.6,0.9-1.3,0.9-2.2c0-0.8-0.3-1.5-0.8-2c-0.5-0.6-1.4-1.1-2.6-1.5v-3.1c1,0.1,1.8,0.4,2.6,0.9v-2.2
			c-0.6-0.3-1.4-0.5-2.6-0.6V22h-1.2v1.5c-1,0.1-1.8,0.5-2.4,1.1c-0.6,0.6-0.9,1.3-0.9,2.2c0,0.8,0.2,1.5,0.7,2
			C47.6,29.3,48.5,29.8,49.8,30.3z M51,30.7c0.8,0.3,1.2,0.8,1.2,1.3c0,0.7-0.4,1.1-1.2,1.2V30.7z M49.8,25.3v2.6
			c-0.8-0.4-1.2-0.9-1.2-1.4C48.6,25.8,49,25.4,49.8,25.3z"/>
		<path class="st3" d="M47.4,41.4c0.1,0.1,0.1,0.1,0.2,0.2c1.6,0.7,3.2,1,5,1c7,0,12.8-5.7,12.8-12.8c0-7-5.7-12.8-12.8-12.8
			c-0.4,0-0.8,0-1.1,0.1l0,0c-0.4,0-0.7-0.1-1.1-0.1C43.6,17,38,22.6,38,29.4C38,35.2,42,40.1,47.4,41.4z M63.8,29.8
			c0,5-3.3,9.2-7.9,10.6c4-2,6.8-6.2,6.8-11c0-3.3-1.3-6.2-3.3-8.4C62.1,23,63.8,26.2,63.8,29.8z M50.4,18.7
			c5.9,0,10.8,4.8,10.8,10.7s-4.8,10.7-10.8,10.7s-10.8-4.8-10.8-10.7C39.6,23.5,44.5,18.7,50.4,18.7z"/>
		<path class="st3" d="M16.6,68.9v-1.8c1.1-0.1,1.9-0.5,2.5-1c0.6-0.6,0.9-1.3,0.9-2.2c0-0.8-0.3-1.5-0.8-2
			c-0.5-0.6-1.4-1.1-2.6-1.5v-3.1c1,0.1,1.8,0.4,2.6,0.9V56c-0.6-0.3-1.4-0.5-2.6-0.6v-1.5h-1.2v1.5c-1,0.1-1.8,0.5-2.4,1.1
			c-0.6,0.5-1,1.3-1,2.1s0.2,1.5,0.7,2c0.5,0.6,1.4,1.1,2.6,1.6v3c-0.5,0-1.1-0.2-1.7-0.4c-0.6-0.2-1.1-0.5-1.4-0.7v2.3
			c1,0.5,2,0.8,3.1,0.8v1.7H16.6z M16.6,62.7c0.8,0.3,1.2,0.8,1.2,1.3c0,0.7-0.4,1.1-1.2,1.2V62.7z M14.2,58.5
			c0-0.7,0.4-1.1,1.2-1.2v2.6C14.6,59.5,14.2,59.1,14.2,58.5z"/>
		<path class="st3" d="M18.3,49c-0.4,0-0.8,0-1.1,0.1l0,0C16.8,49,16.4,49,16,49C9.2,49,3.6,54.6,3.6,61.4c0,5.8,4,10.7,9.4,12
			c0.1,0.1,0.1,0.1,0.2,0.2c1.6,0.7,3.2,1,5,1c7,0,12.8-5.7,12.8-12.8C31.1,54.7,25.3,49,18.3,49z M5.3,61.4
			c0-5.9,4.8-10.7,10.8-10.7s10.8,4.8,10.8,10.7s-4.8,10.7-10.8,10.7S5.3,67.3,5.3,61.4z M21.6,72.4c4-2,6.8-6.2,6.8-11
			c0-3.2-1.3-6.2-3.3-8.4c2.6,2,4.4,5.2,4.4,8.8C29.4,66.8,26.1,71,21.6,72.4z"/>
		<path class="st3" d="M30.3,27.2h-6.2c-4.9,0-8.9,4-8.9,8.9v10.3c0,0.4,0.4,0.8,0.8,0.8c0.5,0,0.8-0.4,0.8-0.8V36.1
			c0-4,3.3-7.3,7.3-7.3h6.2c0.5,0,0.8-0.4,0.8-0.8S30.7,27.2,30.3,27.2z"/>
		<path class="st3" d="M51.3,53.3v-6.9c0-0.4-0.4-0.8-0.8-0.8s-0.8,0.4-0.8,0.8v6.9c0,4-3.3,7.3-7.3,7.3h-7.7
			c-0.5,0-0.8,0.4-0.8,0.8c0,0.4,0.4,0.8,0.8,0.8h7.7C47.3,62.2,51.3,58.2,51.3,53.3z"/>
		<path class="st3" d="M173.1,106h-36.5c-1.9,0-3.4,1.5-3.4,3.4v29.1c0,1.8,1.5,3.4,3.4,3.4h36.5c1.9,0,3.4-1.5,3.4-3.4v-29.1
			C176.5,107.6,175,106,173.1,106z M174.8,109.4v2H146v-3.7h27.1C174.1,107.7,174.8,108.5,174.8,109.4z M136.6,107.7h7.8v3.7h-9.5
			v-2C134.8,108.5,135.6,107.7,136.6,107.7z M173.1,140.3h-36.5c-1,0-1.7-0.8-1.7-1.7V113h40v25.5
			C174.8,139.5,174.1,140.3,173.1,140.3z"/>
		<path class="st3" d="M168.8,118.9H141c-0.5,0-0.8,0.4-0.8,0.8v5.2c0,0.4,0.4,0.8,0.8,0.8h27.8c0.5,0,0.8-0.4,0.8-0.8v-5.2
			C169.6,119.3,169.2,118.9,168.8,118.9z M152.9,124.1l3.6-3.6h2.7l-3.6,3.6H152.9z M147.9,124.1l3.6-3.6h2.7l-3.6,3.6H147.9z
			 M142.9,124.1l3.6-3.6h2.7l-3.6,3.6H142.9z M144.2,120.5l-2.5,2.5v-2.5H144.2z M167.9,124.1h-10l3.6-3.6h6.4V124.1z"/>
		<path class="st3" d="M168.8,129.4H141c-0.5,0-0.8,0.4-0.8,0.8v5.2c0,0.4,0.4,0.8,0.8,0.8h27.8c0.5,0,0.8-0.4,0.8-0.8v-5.2
			C169.6,129.7,169.2,129.4,168.8,129.4z M152.9,134.6l3.6-3.6h2.7l-3.6,3.6H152.9z M147.9,134.6l3.6-3.6h2.7l-3.6,3.6H147.9z
			 M142.9,134.6l3.6-3.6h2.7l-3.6,3.6H142.9z M144.2,131l-2.4,2.4V131H144.2z M167.9,134.6h-10.1l3.6-3.6h6.5V134.6z"/>
		<path class="st3" d="M175.6,24.1c-0.6,0-1.1,0.5-1,1.1c0,0.6,0.5,1,1.1,1l0,0c0.6,0,1.1-0.5,1-1.1C176.7,24.5,176.2,24,175.6,24.1
			z"/>
		<path class="st3" d="M165.8,26.5L165.8,26.5c0.6,0,1.1-0.5,1.1-1.1s-0.5-1.1-1.1-1.1s-1.1,0.5-1.1,1.1S165.2,26.5,165.8,26.5z"/>
		<path class="st3" d="M166.5,28.1c-0.4,0.4-0.4,1.1,0,1.5c0.2,0.2,0.5,0.3,0.8,0.3s0.6-0.1,0.8-0.3c0.4-0.4,0.4-1.1,0-1.5
			C167.6,27.7,166.9,27.7,166.5,28.1z"/>
		<path class="st3" d="M173.6,29.5c0.2,0.2,0.5,0.3,0.7,0.3c0.3,0,0.6-0.1,0.8-0.3c0.4-0.4,0.4-1.1,0-1.5s-1.1-0.4-1.5,0
			C173.1,28.4,173.2,29.1,173.6,29.5z"/>
		<path class="st3" d="M174.1,22.8c0.3,0,0.6-0.1,0.8-0.4c0.4-0.4,0.4-1.1-0.1-1.5c-0.4-0.4-1.1-0.4-1.5,0.1
			c-0.4,0.4-0.4,1.1,0.1,1.5C173.5,22.7,173.8,22.8,174.1,22.8z"/>
		<path class="st3" d="M170.7,21.5c0.6,0,1.1-0.5,1.1-1.1s-0.5-1.1-1.1-1.1s-1.1,0.5-1.1,1.1C169.6,21,170.1,21.5,170.7,21.5z"/>
		<path class="st3" d="M170.8,29.2c-0.6,0-1.1,0.5-1.1,1.1s0.5,1,1.1,1l0,0c0.6,0,1.1-0.5,1.1-1.1C171.9,29.6,171.4,29.2,170.8,29.2
			z"/>
		<path class="st3" d="M167.2,23c0.3,0,0.6-0.1,0.8-0.3c0.4-0.4,0.4-1.1,0-1.5s-1.1-0.4-1.5,0s-0.4,1.1,0,1.5
			C166.7,22.8,166.9,23,167.2,23z"/>
		<ellipse class="st3" cx="113.8" cy="32.2" rx="1.1" ry="1.1"/>
		<path class="st3" d="M113.9,41c-0.6,0-1.1,0.5-1.1,1.1s0.5,1,1.1,1l0,0c0.6,0,1.1-0.5,1.1-1.1S114.5,41,113.9,41z"/>
		<path class="st3" d="M117.1,34.6c0.3,0,0.6-0.1,0.8-0.4c0.4-0.4,0.4-1.1-0.1-1.5c-0.4-0.4-1.1-0.4-1.5,0.1
			c-0.4,0.4-0.4,1.1,0.1,1.5C116.6,34.5,116.8,34.6,117.1,34.6z"/>
		<path class="st3" d="M116.6,39.8c-0.4,0.4-0.4,1.1,0,1.5c0.2,0.2,0.5,0.3,0.7,0.3c0.3,0,0.6-0.1,0.8-0.3c0.4-0.4,0.4-1.1,0-1.5
			C117.7,39.3,117,39.4,116.6,39.8z"/>
		<path class="st3" d="M108.8,38.4L108.8,38.4c0.6,0,1.1-0.5,1.1-1.1s-0.5-1.1-1.1-1.1s-1.1,0.5-1.1,1.1l0,0
			C107.7,37.8,108.2,38.4,108.8,38.4z"/>
		<path class="st3" d="M117.6,37c0,0.6,0.5,1,1.1,1l0,0c0.6,0,1.1-0.5,1-1.1c0-0.6-0.5-1.1-1.1-1C118.1,35.9,117.6,36.4,117.6,37z"
			/>
		<path class="st3" d="M109.5,40c-0.4,0.4-0.4,1.1,0,1.5c0.2,0.2,0.5,0.3,0.8,0.3s0.6-0.1,0.8-0.3c0.4-0.4,0.4-1.1,0-1.5
			S110,39.5,109.5,40z"/>
		<path class="st3" d="M110.2,34.8c0.3,0,0.6-0.1,0.8-0.3c0.4-0.4,0.4-1.1,0-1.5s-1.1-0.4-1.5,0s-0.4,1.1,0,1.5
			C109.7,34.7,110,34.8,110.2,34.8z"/>
		<path class="st3" d="M5.5,152.8c0-0.6-0.5-1.1-1.1-1.1s-1.1,0.5-1.1,1.1l0,0c0,0.5,0.5,1.1,1.1,1.1l0,0
			C5.1,153.9,5.5,153.4,5.5,152.8z"/>
		<path class="st3" d="M14.3,151.4c-0.6,0-1.1,0.5-1,1.1c0,0.6,0.5,1,1.1,1l0,0c0.6,0,1.1-0.5,1-1.1
			C15.4,151.9,14.9,151.4,14.3,151.4z"/>
		<ellipse class="st3" cx="9.4" cy="147.8" rx="1.1" ry="1.1"/>
		<path class="st3" d="M12.7,150.1c0.3,0,0.6-0.1,0.8-0.4c0.4-0.4,0.4-1.1-0.1-1.5c-0.4-0.4-1.1-0.4-1.5,0.1
			c-0.4,0.4-0.4,1.1,0.1,1.5C12.2,150.1,12.5,150.1,12.7,150.1z"/>
		<path class="st3" d="M12.2,155.3c-0.4,0.4-0.4,1.1,0,1.5c0.2,0.2,0.5,0.3,0.7,0.3c0.3,0,0.6-0.1,0.8-0.3c0.4-0.4,0.4-1.1,0-1.5
			C13.3,154.9,12.6,154.9,12.2,155.3z"/>
		<path class="st3" d="M9.5,156.5c-0.6,0-1.1,0.5-1.1,1.1s0.5,1,1.1,1l0,0c0.6,0,1.1-0.5,1.1-1.1C10.6,157,10.1,156.5,9.5,156.5z"/>
		<path class="st3" d="M6.6,150c0.4-0.4,0.4-1.1,0-1.5s-1.1-0.4-1.5,0s-0.4,1.1,0,1.5c0.2,0.2,0.5,0.3,0.8,0.3
			C6.1,150.3,6.4,150.2,6.6,150z"/>
		<path class="st3" d="M5.2,155.5c-0.4,0.4-0.4,1.1,0,1.5c0.2,0.2,0.5,0.3,0.8,0.3s0.6-0.1,0.8-0.3c0.4-0.4,0.4-1.1,0-1.5
			S5.6,155.1,5.2,155.5z"/>
	</g>
	<polygon class="st0" points="53,147.5 53.7,149.5 127.4,149.5 127.4,147.5 	"/>
</g>
</svg>
