<?xml version="1.0" encoding="utf-8"?>
<!-- Generator: Adobe Illustrator 22.1.0, SVG Export Plug-In . SVG Version: 6.00 Build 0)  -->
<svg version="1.1" id="Слой_1" xmlns="http://www.w3.org/2000/svg" xmlns:xlink="http://www.w3.org/1999/xlink" x="0px" y="0px"
	 viewBox="0 0 180 180" style="enable-background:new 0 0 180 180;" xml:space="preserve">
<style type="text/css">
	.st0{fill:#FFFFFF;}
	.st1{fill:#DAD3FF;}
	.st2{fill:#566386;}
	.st3{fill:#654BFA;}
</style>
<g transform="translate(3.000000, 18.000000)">
	<g>
		<polygon class="st0" points="136.4,38.7 132.4,37.4 96.1,37.4 39.4,37.4 36.1,39.3 35.2,42.5 35.2,102.3 29.7,102.9 31,108.2 
			35.2,111.8 48.4,111.8 127.5,112.6 127.5,88.4 138.8,88.4 138.8,42.5 		"/>
		<polygon class="st0" points="0.6,27.8 17.4,27.8 17.6,11.6 0.6,12 		"/>
		<polygon class="st0" points="9,95.8 15.2,83.4 3.1,83.8 		"/>
	</g>
	<g>
		<rect x="3.1" y="4.7" class="st1" width="11.7" height="6.9"/>
		<rect x="127.3" y="88.2" class="st1" width="45.2" height="57"/>
		<path class="st1" d="M61.5,50.6c-7.3,0-13.2,5.9-13.2,13.2c0,4.9,2.6,9.1,6.5,11.4v-3c0-3.4,3-6.2,6.7-6.2c3.7,0,6.7,2.8,6.7,6.2
			v3c3.9-2.3,6.5-6.6,6.5-11.4C74.6,56.6,68.7,50.6,61.5,50.6z M61.5,66c-2.2,0-4.1-1.8-4.1-4.1c0-2.3,1.8-4.1,4.1-4.1
			c2.2,0,4.1,1.8,4.1,4.1C65.5,64.1,63.7,66,61.5,66z"/>
		<rect x="2.6" y="27.8" class="st1" width="12.6" height="55.6"/>
	</g>
	<g>
		<path class="st2" d="M17.4,10.7h-1.6v-6c0-0.5-0.4-0.9-0.9-0.9H3.1c-0.5,0-0.9,0.4-0.9,0.9v6H0.6c-0.5,0-0.9,0.4-0.9,0.9v16.2
			c0,0.5,0.4,0.9,0.9,0.9h1.1v54.6c0,0.1,0,0.3,0.1,0.4l6.4,12.8C8.4,96.8,8.7,97,9,97c0.4,0,0.7-0.2,0.8-0.5l6.4-12.8
			c0.1-0.1,0.1-0.3,0.1-0.4V28.7h1.1c0.5,0,0.9-0.4,0.9-0.9V11.6C18.4,11.1,17.9,10.7,17.4,10.7z M4.1,5.6H14v5H4.1V5.6z M9,94
			l-0.8-1.6h1.6L9,94z M10.7,90.6C10.7,90.6,10.7,90.5,10.7,90.6H7.2l-3.1-6.2h9.7L10.7,90.6z M14.5,82.4H13v-7.6
			c0-0.5-0.4-0.9-0.9-0.9s-0.9,0.4-0.9,0.9v7.6H7V65.7c0-0.5-0.4-0.9-0.9-0.9s-0.9,0.4-0.9,0.9v16.7H3.5V28.7h1.6v21.4
			C5.1,50.6,5.5,51,6,51s0.9-0.4,0.9-0.9V28.7H11v34.7c0,0.5,0.4,0.9,0.9,0.9s0.9-0.4,0.9-0.9V28.7h1.5v53.7H14.5z M16.5,14.4h-1.6
			c-0.5,0-0.9,0.4-0.9,0.9s0.4,0.9,0.9,0.9h1.6V23h-1.6c-0.5,0-0.9,0.4-0.9,0.9s0.4,0.9,0.9,0.9h1.6v2h-1.1H2.6H1.5v-2H10
			c0.5,0,0.9-0.4,0.9-0.9S10.5,23,10,23H1.5v-6.7H10c0.5,0,0.9-0.4,0.9-0.9s-0.4-0.9-0.9-0.9H1.5v-1.8h1.6h11.7h1.6v1.7H16.5z"/>
		<path class="st2" d="M61.5,49.7c-7.8,0-14.1,6.4-14.1,14.2c0,5.1,2.7,9.6,6.7,12.1c0.1,0.1,0.3,0.2,0.4,0.2c2.1,1.2,4.4,1.9,7,1.9
			c2.5,0,4.9-0.7,7-1.9c0.2,0,0.3-0.1,0.4-0.3c4-2.5,6.7-7,6.7-12.1C75.6,56.1,69.3,49.7,61.5,49.7z M55.7,74.7v-2.4
			c0-2.9,2.6-5.3,5.7-5.3c3.2,0,5.7,2.4,5.7,5.3v2.4c-1.7,0.9-3.7,1.4-5.7,1.4C59.4,76.2,57.4,75.7,55.7,74.7z M58.3,61.9
			c0-1.7,1.4-3.1,3.1-3.1c1.7,0,3.1,1.4,3.1,3.1c0,1.7-1.4,3.1-3.1,3.1C59.7,65,58.3,63.6,58.3,61.9z M69.1,73.5v-1.2
			c0-2.9-1.9-5.4-4.5-6.5c1.1-0.9,1.9-2.3,1.9-3.9c0-2.8-2.2-5-5-5c-2.8,0-5,2.3-5,5c0,1.6,0.7,3,1.9,3.9c-2.7,1.1-4.5,3.6-4.5,6.5
			v1.2c-2.8-2.3-4.6-5.7-4.6-9.6c0-6.8,5.5-12.3,12.2-12.3s12.2,5.5,12.2,12.3C73.7,67.8,71.9,71.2,69.1,73.5z"/>
		<path class="st2" d="M124.2,53.8H84.3c-0.5,0-0.9,0.4-0.9,0.9s0.4,0.9,0.9,0.9h39.9c0.5,0,0.9-0.4,0.9-0.9S124.7,53.8,124.2,53.8z
			"/>
		<path class="st2" d="M124.2,70.6H84.3c-0.5,0-0.9,0.4-0.9,0.9s0.4,0.9,0.9,0.9h39.9c0.5,0,0.9-0.4,0.9-0.9S124.7,70.6,124.2,70.6z
			"/>
		<path class="st2" d="M63,88.5c-2.6,0-4.7,2.1-4.7,4.7s2.1,4.7,4.7,4.7c2.6,0,4.7-2.1,4.7-4.7C67.7,90.7,65.6,88.5,63,88.5z
			 M63,96.1c-1.5,0-2.8-1.3-2.8-2.8c0-1.6,1.3-2.8,2.8-2.8s2.8,1.3,2.8,2.8C65.8,94.8,64.5,96.1,63,96.1z"/>
		<path class="st2" d="M111.8,92.3h-38c-0.5,0-0.9,0.4-0.9,0.9s0.4,0.9,0.9,0.9h38c0.5,0,0.9-0.4,0.9-0.9
			C112.8,92.7,112.3,92.3,111.8,92.3z"/>
		<path class="st2" d="M172.6,87.2h-33V43.1c0-3.7-3-6.7-6.7-6.7H40.7c-3.7,0-6.7,3-6.7,6.7v58.3h-4c-0.5,0-0.9,0.4-0.9,0.9v2.2
			c0,4.9,3.9,8.8,8.8,8.8h88.6v31.9c0,0.5,0.4,0.9,0.9,0.9h45.2c0.5,0,0.9-0.4,0.9-0.9v-57C173.5,87.6,173.1,87.2,172.6,87.2z
			 M35.9,43.1c0-2.7,2.1-4.8,4.8-4.8h92.2c2.6,0,4.8,2.2,4.8,4.8v44.1h-3.2V42.7c0-0.5-0.4-0.9-0.9-0.9H40c-0.5,0-0.9,0.4-0.9,0.9
			v58.6h-3.2C35.9,101.3,35.9,43.1,35.9,43.1z M126.4,111.4H37.8c-3.8,0-6.9-3.1-6.9-6.9v-1.2h36.5c0.4,2.9,2.9,5.1,5.9,5.1h27
			c3,0,5.5-2.2,5.9-5.1h20.3L126.4,111.4L126.4,111.4z M54.5,101.4V85.1H119v16.3C119,101.4,54.5,101.4,54.5,101.4z M104.2,103.3
			c-0.4,1.8-2,3.2-4,3.2h-27c-1.9,0-3.6-1.4-4-3.2H104.2z M126.4,88.2v13.2h-5.5V84.2c0-0.5-0.4-0.9-0.9-0.9H53.5
			c-0.5,0-0.9,0.4-0.9,0.9v17.2H41V43.7h91.6v43.5h-5.2C126.8,87.2,126.4,87.6,126.4,88.2z M171.6,144.2h-43.4V89.1h43.4V144.2z"/>
		<path class="st2" d="M131,142.3h7.6c0.5,0,0.9-0.4,0.9-0.9s-0.4-0.9-0.9-0.9H132v-6.6c0-0.5-0.4-0.9-0.9-0.9s-0.9,0.4-0.9,0.9v7.6
			C130,141.9,130.4,142.3,131,142.3z"/>
		<path class="st2" d="M161.4,92.9h6.6v6.6c0,0.5,0.4,0.9,0.9,0.9s0.9-0.4,0.9-0.9V92c0-0.5-0.4-0.9-0.9-0.9h-7.6
			c-0.5,0-0.9,0.4-0.9,0.9S160.8,92.9,161.4,92.9z"/>
		<path class="st2" d="M135.2,101.6h29.6c0.5,0,0.9-0.4,0.9-0.9s-0.4-0.9-0.9-0.9h-29.6c-0.5,0-0.9,0.4-0.9,0.9
			S134.7,101.6,135.2,101.6z"/>
		<path class="st2" d="M135.2,96.9h29.6c0.5,0,0.9-0.4,0.9-0.9s-0.4-0.9-0.9-0.9h-29.6c-0.5,0-0.9,0.4-0.9,0.9
			C134.2,96.5,134.7,96.9,135.2,96.9z"/>
		<path class="st2" d="M135.2,106.2h29.6c0.5,0,0.9-0.4,0.9-0.9s-0.4-0.9-0.9-0.9h-29.6c-0.5,0-0.9,0.4-0.9,0.9
			C134.2,105.8,134.7,106.2,135.2,106.2z"/>
		<path class="st2" d="M135.2,110.9h29.6c0.5,0,0.9-0.4,0.9-0.9s-0.4-0.9-0.9-0.9h-29.6c-0.5,0-0.9,0.4-0.9,0.9
			C134.2,110.5,134.7,110.9,135.2,110.9z"/>
		<path class="st2" d="M135.2,115.7h29.6c0.5,0,0.9-0.4,0.9-0.9s-0.4-0.9-0.9-0.9h-29.6c-0.5,0-0.9,0.4-0.9,0.9
			C134.2,115.3,134.7,115.7,135.2,115.7z"/>
		<path class="st2" d="M135.2,120.4h14.7c0.5,0,0.9-0.4,0.9-0.9s-0.4-0.9-0.9-0.9h-14.7c-0.5,0-0.9,0.4-0.9,0.9
			C134.2,120,134.7,120.4,135.2,120.4z"/>
		<path class="st2" d="M33.7,14.9c-0.7,0.2-1.1,1-0.8,1.7c0.2,0.6,0.7,0.9,1.3,0.9c0.1,0,0.3,0,0.4-0.1c0.7-0.2,1.1-1,0.8-1.7
			C35.2,15,34.4,14.6,33.7,14.9z"/>
		<path class="st2" d="M36.7,10.4c0.2,0,0.5-0.1,0.7-0.2C38,9.8,38.1,9,37.8,8.3l0,0c-0.4-0.6-1.2-0.8-1.8-0.4s-0.8,1.2-0.4,1.8
			C35.8,10.2,36.2,10.4,36.7,10.4z"/>
		<path class="st2" d="M33,8.1c0.1,0,0.1,0,0.2,0c0.7,0,1.2-0.5,1.3-1.2s-0.4-1.4-1.2-1.5c-0.7-0.1-1.4,0.4-1.5,1.2
			C31.8,7.4,32.3,8.1,33,8.1z"/>
		<path class="st2" d="M29.2,9.5c0.3,0,0.7-0.1,0.9-0.4l0,0l0,0c0.5-0.5,0.5-1.4,0-1.9s-1.4-0.5-1.9,0l0,0l0,0
			c-0.5,0.5-0.5,1.4,0,1.9C28.5,9.4,28.9,9.5,29.2,9.5z"/>
		<path class="st2" d="M29.2,12c-0.1-0.7-0.7-1.3-1.5-1.2c-0.7,0.1-1.3,0.7-1.2,1.5c0.1,0.7,0.7,1.2,1.3,1.2h0.1
			C28.7,13.4,29.3,12.7,29.2,12z"/>
		<path class="st2" d="M30.1,17c0.4,0,0.9-0.2,1.1-0.6c0.4-0.6,0.2-1.4-0.4-1.8c-0.6-0.4-1.4-0.2-1.8,0.4c-0.4,0.6-0.2,1.4,0.4,1.8
			C29.6,17,29.8,17,30.1,17z"/>
		<path class="st2" d="M35.9,12.8c-0.2,0.7,0.1,1.5,0.8,1.7c0.1,0.1,0.3,0.1,0.4,0.1c0.5,0,1-0.3,1.2-0.9l0,0
			c0.2-0.7-0.1-1.5-0.8-1.7C36.9,11.7,36.1,12.1,35.9,12.8z"/>
		<path class="st2" d="M161.3,10h0.1c0.7-0.1,1.3-0.7,1.2-1.5c-0.1-0.7-0.7-1.3-1.5-1.2c-0.7,0.1-1.3,0.7-1.2,1.5
			C160.1,9.5,160.7,10,161.3,10z"/>
		<path class="st2" d="M170.2,6.9c0.2,0,0.5-0.1,0.7-0.2c0.6-0.4,0.8-1.2,0.4-1.8l0,0c-0.4-0.6-1.2-0.8-1.8-0.4s-0.8,1.2-0.4,1.8
			C169.3,6.7,169.7,6.9,170.2,6.9z"/>
		<path class="st2" d="M162.7,6.1c0.3,0,0.7-0.1,0.9-0.4l0,0c0.5-0.5,0.5-1.4,0-1.9s-1.4-0.5-1.9,0l0,0l0,0c-0.5,0.5-0.5,1.4,0,1.9
			C162,6,162.4,6.1,162.7,6.1z"/>
		<path class="st2" d="M162.4,11.5c-0.4,0.6-0.2,1.4,0.4,1.8c0.2,0.1,0.5,0.2,0.7,0.2c0.4,0,0.9-0.2,1.1-0.6
			c0.4-0.6,0.2-1.4-0.4-1.8C163.6,10.7,162.8,10.9,162.4,11.5z"/>
		<path class="st2" d="M166.5,4.7c0,0,0.1,0,0.2,0c0.7,0,1.2-0.5,1.3-1.2s-0.4-1.4-1.2-1.5c-0.7-0.1-1.4,0.4-1.5,1.2
			C165.3,4,165.8,4.6,166.5,4.7z"/>
		<path class="st2" d="M167.2,11.4c-0.7,0.2-1.1,1-0.8,1.7c0.2,0.6,0.7,0.9,1.3,0.9c0.1,0,0.3,0,0.4-0.1c0.7-0.2,1.1-1,0.8-1.7
			C168.7,11.6,167.9,11.2,167.2,11.4z"/>
		<path class="st2" d="M169.4,9.3c-0.2,0.7,0.1,1.5,0.8,1.7c0.1,0.1,0.3,0.1,0.4,0.1c0.5,0,1.1-0.3,1.3-0.9c0.2-0.7-0.1-1.5-0.8-1.7
			C170.4,8.2,169.6,8.6,169.4,9.3z"/>
		<path class="st2" d="M165.7,80.7c0.1,0,0.3,0,0.4-0.1c0.7-0.2,1.1-1,0.8-1.7c-0.2-0.7-1-1.1-1.7-0.8c-0.7,0.2-1.1,1-0.8,1.7
			C164.6,80.4,165.1,80.7,165.7,80.7z"/>
		<path class="st2" d="M162.3,77.8c-0.6-0.4-1.4-0.2-1.8,0.4c-0.4,0.6-0.2,1.4,0.4,1.8c0.2,0.1,0.5,0.2,0.7,0.2
			c0.4,0,0.9-0.2,1.1-0.6C163.1,79,162.9,78.2,162.3,77.8z"/>
		<path class="st2" d="M168.2,77.7c0.1,0.1,0.3,0.1,0.4,0.1c0.5,0,1.1-0.3,1.3-0.9c0.2-0.7-0.1-1.5-0.8-1.7s-1.5,0.1-1.7,0.8
			C167.1,76.7,167.5,77.5,168.2,77.7z"/>
		<path class="st2" d="M159.3,76.7h0.1c0.7-0.1,1.3-0.7,1.2-1.5c-0.1-0.7-0.7-1.3-1.5-1.2c-0.7,0.1-1.3,0.7-1.2,1.5
			C158.1,76.2,158.7,76.7,159.3,76.7z"/>
		<path class="st2" d="M160.7,72.8c0.3,0,0.7-0.1,0.9-0.4l0,0c0.5-0.5,0.5-1.4,0-1.9s-1.3-0.5-1.9,0l0,0l0,0l0,0
			c-0.5,0.5-0.5,1.4,0,1.9C160,72.6,160.4,72.8,160.7,72.8z"/>
		<path class="st2" d="M166,70.2c0.1-0.7-0.4-1.4-1.2-1.5c-0.7-0.1-1.4,0.4-1.5,1.2c-0.1,0.7,0.4,1.4,1.2,1.5c0,0,0.1,0,0.2,0
			C165.3,71.4,165.9,70.9,166,70.2z"/>
		<path class="st2" d="M168.2,73.6c0.2,0,0.5-0.1,0.7-0.2c0.6-0.4,0.8-1.2,0.4-1.8l0,0c-0.4-0.6-1.2-0.8-1.8-0.4s-0.8,1.2-0.4,1.8
			C167.3,73.4,167.7,73.6,168.2,73.6z"/>
		<path class="st2" d="M104.6,134.1c-0.1-0.7-0.7-1.3-1.5-1.2c-0.7,0.1-1.3,0.7-1.2,1.5c0.1,0.7,0.7,1.2,1.3,1.2h0.1
			C104.2,135.5,104.7,134.9,104.6,134.1z"/>
		<path class="st2" d="M108.6,130.3c0.7,0,1.2-0.5,1.3-1.2c0.1-0.7-0.4-1.4-1.2-1.5c-0.7-0.1-1.4,0.4-1.5,1.2
			c-0.1,0.7,0.4,1.4,1.2,1.5C108.5,130.3,108.6,130.3,108.6,130.3z"/>
		<path class="st2" d="M103.7,131.3c0.3,0.3,0.6,0.4,0.9,0.4s0.7-0.1,0.9-0.4l0,0l0,0c0.5-0.5,0.5-1.4,0-1.9s-1.3-0.5-1.9,0l0,0l0,0
			l0,0C103.2,129.9,103.2,130.8,103.7,131.3z"/>
		<path class="st2" d="M109.2,137c-0.7,0.2-1.1,1-0.8,1.7c0.2,0.6,0.7,0.9,1.3,0.9c0.1,0,0.3,0,0.4-0.1c0.7-0.2,1.1-1,0.8-1.7
			C110.6,137.2,109.9,136.8,109.2,137z"/>
		<path class="st2" d="M106.2,136.7c-0.6-0.4-1.4-0.2-1.8,0.4c-0.4,0.6-0.2,1.4,0.4,1.8c0.2,0.1,0.5,0.2,0.7,0.2
			c0.4,0,0.9-0.2,1.1-0.6C107,137.9,106.8,137.1,106.2,136.7z"/>
		<path class="st2" d="M113,134.1c-0.7-0.2-1.5,0.1-1.7,0.8s0.1,1.5,0.8,1.7c0.1,0.1,0.3,0.1,0.4,0.1c0.5,0,1.1-0.3,1.3-0.9
			C114.1,135.1,113.7,134.3,113,134.1z"/>
		<path class="st2" d="M112.8,132.3c0.6-0.4,0.8-1.2,0.4-1.8s-1.2-0.8-1.8-0.4c-0.6,0.4-0.8,1.2-0.4,1.8c0.3,0.4,0.7,0.6,1.1,0.6
			C112.4,132.5,112.6,132.5,112.8,132.3z"/>
	</g>
	<g>
		<path class="st3" d="M149.9,81.6c-0.5,0-0.9,0.4-0.9,0.9v1.7c0,0.5,0.4,0.9,0.9,0.9s0.9-0.4,0.9-0.9v-1.7
			C150.8,82,150.4,81.6,149.9,81.6z"/>
		<path class="st3" d="M149.9,62.7c-0.5,0-0.9,0.4-0.9,0.9v3.6c0,0.5,0.4,0.9,0.9,0.9s0.9-0.4,0.9-0.9v-3.6
			C150.8,63.1,150.4,62.7,149.9,62.7z"/>
		<path class="st3" d="M149.9,53.2c-0.5,0-0.9,0.4-0.9,0.9v3.6c0,0.5,0.4,0.9,0.9,0.9s0.9-0.4,0.9-0.9v-3.6
			C150.8,53.6,150.4,53.2,149.9,53.2z"/>
		<path class="st3" d="M149.9,72.1c-0.5,0-0.9,0.4-0.9,0.9v3.6c0,0.5,0.4,0.9,0.9,0.9s0.9-0.4,0.9-0.9V73
			C150.8,72.5,150.4,72.1,149.9,72.1z"/>
		<path class="st3" d="M149.9,34.3c-0.5,0-0.9,0.4-0.9,0.9v3.6c0,0.5,0.4,0.9,0.9,0.9s0.9-0.4,0.9-0.9v-3.6
			C150.8,34.7,150.4,34.3,149.9,34.3z"/>
		<path class="st3" d="M149.9,43.7c-0.5,0-0.9,0.4-0.9,0.9v3.6c0,0.5,0.4,0.9,0.9,0.9s0.9-0.4,0.9-0.9v-3.6
			C150.8,44.1,150.4,43.7,149.9,43.7z"/>
		<path class="st3" d="M149.9,24.8c-0.5,0-0.9,0.4-0.9,0.9v3.6c0,0.5,0.4,0.9,0.9,0.9s0.9-0.4,0.9-0.9v-3.6
			C150.8,25.2,150.4,24.8,149.9,24.8z"/>
		<path class="st3" d="M149.9,17.5h-1.7c-0.5,0-0.9,0.4-0.9,0.9s0.4,0.9,0.9,0.9h0.8v0.8c0,0.5,0.4,0.9,0.9,0.9s0.9-0.4,0.9-0.9
			v-1.7C150.8,17.9,150.4,17.5,149.9,17.5z"/>
		<path class="st3" d="M117.3,17.5h-3.2c-0.5,0-0.9,0.4-0.9,0.9s0.4,0.9,0.9,0.9h3.2c0.5,0,0.9-0.4,0.9-0.9
			C118.3,17.9,117.9,17.5,117.3,17.5z"/>
		<path class="st3" d="M108.8,17.5h-3.2c-0.5,0-0.9,0.4-0.9,0.9s0.4,0.9,0.9,0.9h3.2c0.5,0,0.9-0.4,0.9-0.9
			C109.8,17.9,109.3,17.5,108.8,17.5z"/>
		<path class="st3" d="M100.3,17.5h-3.2c-0.5,0-0.9,0.4-0.9,0.9s0.4,0.9,0.9,0.9h3.2c0.5,0,0.9-0.4,0.9-0.9
			C101.2,17.9,100.8,17.5,100.3,17.5z"/>
		<path class="st3" d="M91.8,17.5h-3.2c-0.5,0-0.9,0.4-0.9,0.9s0.4,0.9,0.9,0.9h3.2c0.5,0,0.9-0.4,0.9-0.9
			C92.7,17.9,92.3,17.5,91.8,17.5z"/>
		<path class="st3" d="M125.9,17.5h-3.2c-0.5,0-0.9,0.4-0.9,0.9s0.4,0.9,0.9,0.9h3.2c0.5,0,0.9-0.4,0.9-0.9S126.4,17.5,125.9,17.5z"
			/>
		<path class="st3" d="M142.9,17.5h-3.2c-0.5,0-0.9,0.4-0.9,0.9s0.4,0.9,0.9,0.9h3.2c0.5,0,0.9-0.4,0.9-0.9
			C143.9,17.9,143.5,17.5,142.9,17.5z"/>
		<path class="st3" d="M134.4,17.5h-3.2c-0.5,0-0.9,0.4-0.9,0.9s0.4,0.9,0.9,0.9h3.2c0.5,0,0.9-0.4,0.9-0.9
			C135.4,17.9,134.9,17.5,134.4,17.5z"/>
		<path class="st3" d="M83.3,17.5h-1.6c-0.5,0-0.9,0.4-0.9,0.9v1.7c0,0.5,0.4,0.9,0.9,0.9s0.9-0.4,0.9-0.9v-0.8h0.7
			c0.5,0,0.9-0.4,0.9-0.9C84.3,17.9,83.9,17.5,83.3,17.5z"/>
		<path class="st3" d="M81.7,23.6c-0.5,0-0.9,0.4-0.9,0.9v2.6c0,0.5,0.4,0.9,0.9,0.9s0.9-0.4,0.9-0.9v-2.6
			C82.7,24,82.3,23.6,81.7,23.6z"/>
		<path class="st3" d="M81.7,30.5c-0.5,0-0.9,0.4-0.9,0.9v1.7c0,0.5,0.4,0.9,0.9,0.9s0.9-0.4,0.9-0.9v-1.7
			C82.7,30.9,82.3,30.5,81.7,30.5z"/>
		<path class="st3" d="M8.9,105.6c0.5,0,0.9-0.4,0.9-0.9V103c0-0.5-0.4-0.9-0.9-0.9S8,102.5,8,103v1.7C8,105.2,8.4,105.6,8.9,105.6z
			"/>
		<path class="st3" d="M8.9,115.8c0.5,0,0.9-0.4,0.9-0.9V111c0-0.5-0.4-0.9-0.9-0.9S8,110.5,8,111v3.8C8,115.3,8.4,115.8,8.9,115.8z
			"/>
		<path class="st3" d="M8.9,125.9c0.5,0,0.9-0.4,0.9-0.9v-3.8c0-0.5-0.4-0.9-0.9-0.9S8,120.7,8,121.2v3.8
			C8,125.5,8.4,125.9,8.9,125.9z"/>
		<path class="st3" d="M10.6,132.2H9.9v-0.7c0-0.5-0.4-0.9-0.9-0.9s-0.9,0.4-0.9,0.9v1.6c0,0.5,0.4,0.9,0.9,0.9h1.6
			c0.5,0,0.9-0.4,0.9-0.9S11.1,132.2,10.6,132.2z"/>
		<path class="st3" d="M37.1,132.2h-3.3c-0.5,0-0.9,0.4-0.9,0.9s0.4,0.9,0.9,0.9h3.3c0.5,0,0.9-0.4,0.9-0.9
			C38.1,132.6,37.7,132.2,37.1,132.2z"/>
		<path class="st3" d="M46,132.2h-3.3c-0.5,0-0.9,0.4-0.9,0.9s0.4,0.9,0.9,0.9H46c0.5,0,0.9-0.4,0.9-0.9
			C46.9,132.6,46.5,132.2,46,132.2z"/>
		<path class="st3" d="M54.9,132.2h-3.3c-0.5,0-0.9,0.4-0.9,0.9s0.4,0.9,0.9,0.9h3.3c0.5,0,0.9-0.4,0.9-0.9
			C55.8,132.6,55.4,132.2,54.9,132.2z"/>
		<path class="st3" d="M28.3,132.2H25c-0.5,0-0.9,0.4-0.9,0.9s0.4,0.9,0.9,0.9h3.3c0.5,0,0.9-0.4,0.9-0.9
			C29.2,132.6,28.8,132.2,28.3,132.2z"/>
		<path class="st3" d="M19.4,132.2h-3.3c-0.5,0-0.9,0.4-0.9,0.9s0.4,0.9,0.9,0.9h3.3c0.5,0,0.9-0.4,0.9-0.9
			C20.4,132.6,19.9,132.2,19.4,132.2z"/>
		<path class="st3" d="M81.5,132.2h-3.3c-0.5,0-0.9,0.4-0.9,0.9s0.4,0.9,0.9,0.9h3.3c0.5,0,0.9-0.4,0.9-0.9
			C82.4,132.6,82,132.2,81.5,132.2z"/>
		<path class="st3" d="M72.6,132.2h-3.3c-0.5,0-0.9,0.4-0.9,0.9s0.4,0.9,0.9,0.9h3.3c0.5,0,0.9-0.4,0.9-0.9
			C73.5,132.6,73.1,132.2,72.6,132.2z"/>
		<path class="st3" d="M63.7,132.2h-3.3c-0.5,0-0.9,0.4-0.9,0.9s0.4,0.9,0.9,0.9h3.3c0.5,0,0.9-0.4,0.9-0.9
			C64.7,132.6,64.2,132.2,63.7,132.2z"/>
		<path class="st3" d="M88.7,130.6c-0.5,0-0.9,0.4-0.9,0.9v0.7H87c-0.5,0-0.9,0.4-0.9,0.9s0.4,0.9,0.9,0.9h1.7
			c0.5,0,0.9-0.4,0.9-0.9v-1.6C89.7,131,89.2,130.6,88.7,130.6z"/>
		<path class="st3" d="M88.7,122.4c-0.5,0-0.9,0.4-0.9,0.9v3c0,0.5,0.4,0.9,0.9,0.9s0.9-0.4,0.9-0.9v-3
			C89.7,122.9,89.2,122.4,88.7,122.4z"/>
		<path class="st3" d="M88.7,115.8c-0.5,0-0.9,0.4-0.9,0.9v1.7c0,0.5,0.4,0.9,0.9,0.9s0.9-0.4,0.9-0.9v-1.7
			C89.7,116.2,89.2,115.8,88.7,115.8z"/>
		<path class="st3" d="M24.6,96.4v-1h1.1c0.5,0,0.9-0.4,0.9-0.9s-0.4-0.9-0.9-0.9h-1.1v-1.1c0-0.5-0.4-0.9-0.9-0.9s-0.9,0.4-0.9,0.9
			v1.1h-1c-0.5,0-0.9,0.4-0.9,0.9s0.4,0.9,0.9,0.9h1v1c0,0.5,0.4,0.9,0.9,0.9C24.2,97.4,24.6,97,24.6,96.4z"/>
		<path class="st3" d="M69.7,23.9c0-0.5-0.4-0.9-0.9-0.9h-1.1v-1.1c0-0.5-0.4-0.9-0.9-0.9s-0.9,0.4-0.9,0.9V23h-1
			c-0.5,0-0.9,0.4-0.9,0.9s0.4,0.9,0.9,0.9h1v1c0,0.5,0.4,0.9,0.9,0.9s0.9-0.4,0.9-0.9v-1h1.1C69.2,24.9,69.7,24.4,69.7,23.9z"/>
		<path class="st3" d="M166.1,44.3H165v-1.1c0-0.5-0.4-0.9-0.9-0.9s-0.9,0.4-0.9,0.9v1.1h-1c-0.5,0-0.9,0.4-0.9,0.9s0.4,0.9,0.9,0.9
			h1v1c0,0.5,0.4,0.9,0.9,0.9s0.9-0.4,0.9-0.9v-1h1.1c0.5,0,0.9-0.4,0.9-0.9S166.6,44.3,166.1,44.3z"/>
		<path class="st3" d="M7.2,142.4H6.1v-1.1c0-0.5-0.4-0.9-0.9-0.9s-0.9,0.4-0.9,0.9v1.1h-1c-0.5,0-0.9,0.4-0.9,0.9s0.4,0.9,0.9,0.9
			h1v1c0,0.5,0.4,0.9,0.9,0.9s0.9-0.4,0.9-0.9v-1h1.1c0.5,0,0.9-0.4,0.9-0.9C8.2,142.9,7.7,142.4,7.2,142.4z"/>
	</g>
</g>
</svg>
