<?xml version="1.0" encoding="utf-8"?>
<!-- Generator: Adobe Illustrator 22.1.0, SVG Export Plug-In . SVG Version: 6.00 Build 0)  -->
<svg version="1.1" id="Слой_1" xmlns="http://www.w3.org/2000/svg" xmlns:xlink="http://www.w3.org/1999/xlink" x="0px" y="0px"
	 viewBox="0 0 180 180" style="enable-background:new 0 0 180 180;" xml:space="preserve">
<style type="text/css">
	.st0{fill:#FFFFFF;}
	.st1{fill:#DAD3FF;}
	.st2{fill:#654BFA;}
	.st3{fill:#566386;}
</style>
<g id="Group-2">
	<g>
		<polygon class="st0" points="149,139.9 149,133.7 147.2,131.2 146.7,131.2 123.7,131.2 123.2,131.2 121.4,133.7 121.4,139.9 
			99.6,139.9 100.1,157.6 101.8,161 105.7,162.5 128.2,162.5 128.2,139.9 124.9,139.9 125,134.4 126.2,134.1 135.2,133.9 
			144.2,134.1 145.4,134.4 145.5,139.9 142.2,139.9 142.2,162.5 164.7,162.5 168.6,161 170.3,157.6 170.8,139.9 		"/>
		<polygon class="st0" points="121.3,102.9 118.3,101.5 117.8,96.5 120.3,92.5 127.8,91.8 148.8,91.8 151.6,93.9 152.8,96.5 
			152.8,100.4 152.5,102.3 149.7,102.9 149.7,105.2 162.1,105.2 162.1,102.9 159.1,101.5 159.1,95 157.3,90.9 153.8,87.6 
			149.7,86.2 119.7,86.5 115.2,88.4 112.2,92.5 111.5,98.6 111.5,101.5 109.2,102.9 108.2,104.6 121.3,104.6 		"/>
	</g>
	<g>
		<ellipse class="st0" cx="38.4" cy="57" rx="36.1" ry="36.2"/>
		<rect x="128.4" y="105" class="st0" width="13.7" height="25.7"/>
		<rect x="128.4" y="149" class="st0" width="13.7" height="13.3"/>
		<path class="st0" d="M142.1,134.4h-13.7v11.1h13.7V134.4z M135.2,142c-1.1,0-2-0.9-2-2c0-1.1,0.9-2,2-2c1.1,0,2,0.9,2,2
			C137.3,141.1,136.4,142,135.2,142z"/>
	</g>
	<g>
		<path class="st1" d="M95.8,110.7v23.6c0,3.1,2.5,5.6,5.6,5.6h19.9l0-5.7c0-2,1.7-3.6,3.6-3.5l3.4,0.1v-25.6h-26.9
			C98.3,105.1,95.8,107.6,95.8,110.7z"/>
		<path class="st1" d="M169.4,105.1h-26.9v25.6h3.4c1.8,0,3.3,1.5,3.3,3.3l0,5.9h20.3c3.1,0,5.6-2.5,5.6-5.6v-23.6
			C175,107.6,172.5,105.1,169.4,105.1z"/>
		<rect x="142.1" y="134.1" class="st1" width="3.4" height="5.5"/>
		<rect x="125" y="134.4" class="st1" width="3" height="5.3"/>
	</g>
	<g>
		<path class="st2" d="M38.1,100.3c0.5,0,0.8-0.4,0.8-0.8V98c0-0.5-0.4-0.8-0.8-0.8s-0.8,0.4-0.8,0.8v1.4
			C37.3,99.9,37.6,100.3,38.1,100.3z"/>
		<path class="st2" d="M38.1,116.9c0.5,0,0.8-0.4,0.8-0.8v-3c0-0.5-0.4-0.8-0.8-0.8s-0.8,0.4-0.8,0.8v3
			C37.3,116.6,37.6,116.9,38.1,116.9z"/>
		<path class="st2" d="M38.1,125.4c0.5,0,0.8-0.4,0.8-0.8v-3c0-0.5-0.4-0.8-0.8-0.8s-0.8,0.4-0.8,0.8v3
			C37.3,125,37.6,125.4,38.1,125.4z"/>
		<path class="st2" d="M38.1,133.8c0.5,0,0.8-0.4,0.8-0.8v-3c0-0.5-0.4-0.8-0.8-0.8s-0.8,0.4-0.8,0.8v3
			C37.3,133.4,37.6,133.8,38.1,133.8z"/>
		<path class="st2" d="M38.1,108.5c0.5,0,0.8-0.4,0.8-0.8v-3c0-0.5-0.4-0.8-0.8-0.8s-0.8,0.4-0.8,0.8v3
			C37.3,108.2,37.6,108.5,38.1,108.5z"/>
		<path class="st2" d="M39.5,138.8h-0.6v-0.6c0-0.5-0.4-0.8-0.8-0.8s-0.8,0.4-0.8,0.8v1.4c0,0.5,0.4,0.8,0.8,0.8h1.4
			c0.5,0,0.8-0.4,0.8-0.8S39.9,138.8,39.5,138.8z"/>
		<path class="st2" d="M91.3,138.8h-2.7c-0.5,0-0.8,0.4-0.8,0.8s0.4,0.8,0.8,0.8h2.7c0.5,0,0.8-0.4,0.8-0.8S91.7,138.8,91.3,138.8z"
			/>
		<path class="st2" d="M61.7,138.8H59c-0.5,0-0.8,0.4-0.8,0.8s0.4,0.8,0.8,0.8h2.7c0.5,0,0.8-0.4,0.8-0.8S62.1,138.8,61.7,138.8z"/>
		<path class="st2" d="M54.3,138.8h-2.7c-0.5,0-0.8,0.4-0.8,0.8s0.4,0.8,0.8,0.8h2.7c0.5,0,0.8-0.4,0.8-0.8S54.7,138.8,54.3,138.8z"
			/>
		<path class="st2" d="M83.9,138.8h-2.7c-0.5,0-0.8,0.4-0.8,0.8s0.4,0.8,0.8,0.8h2.7c0.5,0,0.8-0.4,0.8-0.8S84.3,138.8,83.9,138.8z"
			/>
		<path class="st2" d="M69.1,138.8h-2.7c-0.5,0-0.8,0.4-0.8,0.8s0.4,0.8,0.8,0.8h2.7c0.5,0,0.8-0.4,0.8-0.8S69.5,138.8,69.1,138.8z"
			/>
		<path class="st2" d="M73.8,140.4h2.7c0.5,0,0.8-0.4,0.8-0.8s-0.4-0.8-0.8-0.8h-2.7c-0.5,0-0.8,0.4-0.8,0.8S73.4,140.4,73.8,140.4z
			"/>
		<path class="st2" d="M46.9,138.8h-2.7c-0.5,0-0.8,0.4-0.8,0.8s0.4,0.8,0.8,0.8h2.7c0.5,0,0.8-0.4,0.8-0.8S47.3,138.8,46.9,138.8z"
			/>
		<path class="st2" d="M97.9,138.8h-1.4c-0.5,0-0.8,0.4-0.8,0.8s0.4,0.8,0.8,0.8h1.4c0.5,0,0.8-0.4,0.8-0.8S98.3,138.8,97.9,138.8z"
			/>
		<path class="st2" d="M78.7,56.2h-1.3c-0.5,0-0.8,0.4-0.8,0.8c0,0.5,0.4,0.8,0.8,0.8h1.3c0.5,0,0.8-0.4,0.8-0.8
			C79.5,56.6,79.1,56.2,78.7,56.2z"/>
		<path class="st2" d="M92.4,57.8h3c0.5,0,0.8-0.4,0.8-0.8c0-0.5-0.4-0.8-0.8-0.8h-3c-0.5,0-0.8,0.4-0.8,0.8
			C91.5,57.5,91.9,57.8,92.4,57.8z"/>
		<path class="st2" d="M111.9,56.2h-3c-0.5,0-0.8,0.4-0.8,0.8c0,0.5,0.4,0.8,0.8,0.8h3c0.5,0,0.8-0.4,0.8-0.8
			C112.7,56.6,112.4,56.2,111.9,56.2z"/>
		<path class="st2" d="M120.2,56.2h-3c-0.5,0-0.8,0.4-0.8,0.8c0,0.5,0.4,0.8,0.8,0.8h3c0.5,0,0.8-0.4,0.8-0.8
			C121,56.6,120.6,56.2,120.2,56.2z"/>
		<path class="st2" d="M103.6,56.2h-3c-0.5,0-0.8,0.4-0.8,0.8c0,0.5,0.4,0.8,0.8,0.8h3c0.5,0,0.8-0.4,0.8-0.8
			C104.5,56.6,104.1,56.2,103.6,56.2z"/>
		<path class="st2" d="M128.5,56.2h-3c-0.5,0-0.8,0.4-0.8,0.8c0,0.5,0.4,0.8,0.8,0.8h3c0.5,0,0.8-0.4,0.8-0.8
			C129.3,56.6,128.9,56.2,128.5,56.2z"/>
		<path class="st2" d="M87.1,56.2h-3c-0.5,0-0.8,0.4-0.8,0.8c0,0.5,0.4,0.8,0.8,0.8h3c0.5,0,0.8-0.4,0.8-0.8
			C87.9,56.6,87.5,56.2,87.1,56.2z"/>
		<path class="st2" d="M135.2,56.2h-1.4c-0.5,0-0.8,0.4-0.8,0.8c0,0.5,0.4,0.8,0.8,0.8h0.6v0.6c0,0.5,0.4,0.8,0.8,0.8
			s0.8-0.4,0.8-0.8V57C136,56.6,135.6,56.2,135.2,56.2z"/>
		<path class="st2" d="M135.2,72.5c-0.5,0-0.8,0.4-0.8,0.8v3.2c0,0.5,0.4,0.8,0.8,0.8s0.8-0.4,0.8-0.8v-3.2
			C136,72.9,135.6,72.5,135.2,72.5z"/>
		<path class="st2" d="M135.2,63.4c-0.5,0-0.8,0.4-0.8,0.8v3.2c0,0.5,0.4,0.8,0.8,0.8s0.8-0.4,0.8-0.8v-3.2
			C136,63.8,135.6,63.4,135.2,63.4z"/>
		<path class="st2" d="M135.2,81.6c-0.5,0-0.8,0.4-0.8,0.8v1.3c0,0.5,0.4,0.8,0.8,0.8s0.8-0.4,0.8-0.8v-1.3
			C136,81.9,135.6,81.6,135.2,81.6z"/>
		<path class="st2" d="M16.7,99.9h-1.9V98c0-0.5-0.4-0.8-0.8-0.8s-0.8,0.4-0.8,0.8v1.9h-1.8c-0.5,0-0.8,0.4-0.8,0.8s0.4,0.8,0.8,0.8
			h1.8v1.8c0,0.5,0.4,0.8,0.8,0.8s0.8-0.4,0.8-0.8v-1.8h1.9c0.5,0,0.8-0.4,0.8-0.8S17.2,99.9,16.7,99.9z"/>
		<path class="st2" d="M77.2,152.3h-1.9v-1.9c0-0.5-0.4-0.8-0.8-0.8s-0.8,0.4-0.8,0.8v1.9h-1.8c-0.5,0-0.8,0.4-0.8,0.8
			s0.4,0.8,0.8,0.8h1.8v1.8c0,0.5,0.4,0.8,0.8,0.8s0.8-0.4,0.8-0.8v-1.8h1.9c0.5,0,0.8-0.4,0.8-0.8S77.7,152.3,77.2,152.3z"/>
		<path class="st2" d="M98.4,78.5h-1.9v-1.9c0-0.5-0.4-0.8-0.8-0.8s-0.8,0.4-0.8,0.8v1.9h-1.8c-0.5,0-0.8,0.4-0.8,0.8
			c0,0.5,0.4,0.8,0.8,0.8h1.8V82c0,0.5,0.4,0.8,0.8,0.8s0.8-0.4,0.8-0.8v-1.8h1.9c0.5,0,0.8-0.4,0.8-0.8
			C99.3,78.9,98.9,78.5,98.4,78.5z"/>
		<path class="st2" d="M160.9,36.8h-1.9V35c0-0.5-0.4-0.8-0.8-0.8s-0.8,0.4-0.8,0.8v1.9h-1.8c-0.5,0-0.8,0.4-0.8,0.8
			s0.4,0.8,0.8,0.8h1.8v1.8c0,0.5,0.4,0.8,0.8,0.8s0.8-0.4,0.8-0.8v-1.8h1.9c0.5,0,0.8-0.4,0.8-0.8S161.4,36.8,160.9,36.8z"/>
	</g>
	<g>
		<path class="st3" d="M75.3,54.4c-0.6-8.9-4.4-17.2-10.7-23.6c-7-7-16.3-10.8-26.1-10.8c0,0,0,0,0,0c0,0,0,0,0,0c0,0-0.1,0-0.1,0
			c-9.8,0-19,3.9-26,10.8C5.9,37.2,2.2,45.6,1.6,54.5c-0.1,0.2-0.1,0.3,0,0.5c0,0.6-0.1,1.3-0.1,1.9c0,9.9,3.8,19.2,10.8,26.2
			c6.9,7,16.2,10.8,26,10.8c0,0,0.1,0,0.1,0c0,0,0,0,0,0c0,0,0,0,0,0c9.9,0,19.1-3.8,26.1-10.8c3.5-3.5,6.2-7.6,8-12
			c0.1-0.1,0.1-0.2,0.1-0.4c1.7-4.3,2.6-9,2.6-13.8c0-0.6,0-1.2,0-1.9C75.4,54.9,75.4,54.6,75.3,54.4z M26.6,23.7
			c-2.7,1.9-5.1,4.6-7.2,8c-1.4,2.4-2.6,5-3.5,7.9c-2.9-1.1-4.8-2.5-5.5-4C14.5,30.2,20.1,26,26.6,23.7z M9.3,37.1
			c1.2,1.8,3.5,3.1,6.1,4.1C14,46,13.2,51.4,13.2,57c0,1.4,0.1,2.7,0.1,4c-4.6-1.7-8.1-3.9-10.1-6.4C3.7,48.1,5.9,42.1,9.3,37.1z
			 M5.7,70.2C4.1,66.1,3.2,61.6,3.2,57c0,0,0,0,0,0c2.4,2.3,5.9,4.3,10.4,5.8c0.5,5.1,1.6,10,3.3,14.2C11.9,75.3,8.1,73,5.7,70.2z
			 M7.7,74.2c2.6,1.9,6,3.6,10.1,4.9c0.5,1.1,1.1,2.2,1.7,3.2c2,3.4,4.4,6.1,7.2,8C18.5,87.4,11.8,81.6,7.7,74.2z M37.6,92.3
			c-8.6-0.4-13.8-6-16.7-10.9c-0.3-0.5-0.6-1.1-0.9-1.7c5.3,1.4,11.4,2.2,17.6,2.3V92.3z M37.6,80.3c-6.2-0.1-12.2-0.9-17.4-2.3
			c-0.4-0.1-0.8-0.2-1.2-0.4c-1.9-4.2-3.2-9.1-3.7-14.3c5.7,1.7,12.5,2.7,19.8,3c0.9,0,1.7,0,2.6,0V80.3z M37.6,64.7
			c-0.8,0-1.7,0-2.5,0c-7.6-0.2-14.5-1.3-20-3.1c-0.1-1.5-0.2-3.1-0.2-4.6c0-5.4,0.7-10.6,2.1-15.3c1.8,0.6,3.6,1,5.3,1.3
			c4.5,0.9,9.8,1.3,15.3,1.4V64.7z M37.6,42.7c-5.4,0-10.6-0.5-15-1.3c-1.9-0.4-3.6-0.8-5.1-1.3c0.9-2.8,2-5.3,3.4-7.6
			C23.7,27.7,29,22,37.6,21.7V42.7z M67.6,37.2c3.4,5,5.6,11,6,17.5c-2.5,2.9-6.6,5.1-11.5,6.7c0.1-1.4,0.2-2.9,0.2-4.3
			c0-5.4-0.7-10.6-1.9-15.3C64.1,40.4,66.5,38.9,67.6,37.2z M66.6,35.7C66,37.3,63.7,38.8,60,40c-0.9-3-2.1-5.9-3.5-8.3
			c-2.1-3.6-4.6-6.5-7.4-8.4C56.1,25.5,62.2,29.9,66.6,35.7z M39.2,21.7c8.1,0.4,13.1,6,15.8,10.8c1.4,2.4,2.5,5.1,3.4,8
			c-3.8,1-8.5,1.7-13.8,2.1c-1.8,0.1-3.6,0.2-5.3,0.2V21.7z M39.2,44.4c1.8,0,3.6-0.1,5.4-0.2c5.4-0.3,10.3-1.1,14.1-2.1
			c1.2,4.6,1.9,9.6,1.9,14.8c0,1.6-0.1,3.3-0.2,4.8c-6.4,1.9-14,2.8-21.2,2.9V44.4z M39.2,66.4c6.9-0.1,13.7-0.9,19.4-2.3
			c0.6-0.1,1.1-0.3,1.7-0.4C59.8,69,58.5,74,56.6,78.3c-4.5,1.2-9.7,1.9-15.3,2c-0.7,0-1.4,0-2.1,0V66.4z M39.2,82
			c0.7,0,1.4,0,2.1,0c5.1-0.2,10-0.8,14.3-1.8c-0.2,0.4-0.4,0.8-0.6,1.2c-2.7,4.8-7.7,10.5-15.8,10.8V82z M49,90.7
			c2.9-2,5.4-4.8,7.4-8.4c0.5-0.8,0.9-1.7,1.3-2.6c0.8-0.2,1.5-0.4,2.2-0.7c3.6-1.2,6.6-2.6,8.9-4.4C64.6,82.2,57.5,88,49,90.7z
			 M71.1,70.3c-2.4,3.1-6.7,5.6-12.5,7.4c1.8-4.3,2.9-9.3,3.4-14.6c5-1.6,9-3.7,11.7-6.2c0,0,0,0,0,0.1
			C73.7,61.7,72.8,66.2,71.1,70.3z"/>
		<path class="st3" d="M169.1,104.2h-6.2c0-1.8-1.4-3.2-3.2-3.3v-4.8c0-6-4.9-10.9-10.9-10.9h-27.2c-6,0-10.9,4.9-10.9,10.9v4.8
			c-1.8,0.1-3.2,1.5-3.2,3.3h-6.2c-3.5,0-6.4,2.9-6.4,6.4v24.2c0,2.6,1.7,4.7,4.1,5.4v16.1c0,3.9,3.2,7.1,7.1,7.1h58.1
			c3.9,0,7.1-3.2,7.1-7.1v-16.1c2.4-0.7,4.1-2.9,4.1-5.4v-24.2C175.5,107.1,172.6,104.2,169.1,104.2z M161.3,104.2h-11.1
			c0-0.9,0.8-1.7,1.7-1.7h7.6C160.5,102.6,161.2,103.3,161.3,104.2z M135.2,137.1c-1.6,0-2.9,1.3-2.9,2.9c0,1.3,0.8,2.3,1.9,2.7v2.3
			h-5.1V135h12.1v9.9H136v-2.2c1.2-0.3,2.1-1.4,2.1-2.7C138.1,138.4,136.8,137.1,135.2,137.1z M134,139.9c0-0.7,0.5-1.2,1.2-1.2
			c0.7,0,1.2,0.5,1.2,1.2c0,0.4-0.2,0.7-0.5,0.9V140c0-0.5-0.4-0.8-0.8-0.8s-0.8,0.4-0.8,0.8v0.7C134.2,140.5,134,140.2,134,139.9z
			 M136,146.6h9c0.9,0,1.5-0.7,1.5-1.5v-10.2c0-0.9-0.7-1.5-1.5-1.5h-19.5c-0.9,0-1.5,0.7-1.5,1.5V145c0,0.9,0.7,1.5,1.5,1.5h8.9
			v1.4h-9.9c-1,0-1.8-0.8-1.8-1.8v-12.4c0-1,0.8-1.8,1.8-1.8H146c1,0,1.8,0.8,1.8,1.8v12.4c0,1-0.8,1.8-1.8,1.8H136V146.6z
			 M142.9,140.4c0,0,0.1,0,0.1,0h1.8v4.5h-2V140.4z M144.9,138.8h-1.8c0,0-0.1,0-0.1,0V135h2V138.8z M127.5,138.8
			C127.5,138.8,127.5,138.8,127.5,138.8l-2,0V135h2V138.8z M125.6,140.4h1.9c0,0,0,0,0.1,0v4.5h-2V140.4z M141.3,130.3h-12.1v-24.4
			h12.1V130.3z M122,104.2c0-1.8-1.5-3.2-3.3-3.3v-3.7c0-2.5,2-4.5,4.5-4.5h24c2.5,0,4.5,2,4.5,4.5v3.7c-1.8,0.1-3.2,1.5-3.3,3.3
			H122z M112.4,96.1c0-5.1,4.2-9.3,9.3-9.3h27.2c5.1,0,9.3,4.2,9.3,9.3v4.8h-4.7v-3.7c0-3.4-2.8-6.2-6.2-6.2h-24
			c-3.4,0-6.2,2.8-6.2,6.2v3.7h-4.7V96.1z M110.9,102.6h7.6c0.9,0,1.7,0.7,1.7,1.7h-11.1C109.2,103.3,110,102.6,110.9,102.6z
			 M96.7,134.8v-24.2c0-2.6,2.1-4.7,4.7-4.7h26.2v24.4h-3.1c-1.9,0-3.5,1.6-3.5,3.5v5.1h-20.3C98.5,138.8,96.7,137,96.7,134.8z
			 M127.5,161.8h-21.4c-3,0-5.4-2.4-5.4-5.4v-15.9H121v5.6c0,1.9,1.6,3.5,3.5,3.5h3.1V161.8z M141.3,161.8h-12.1v-12.2h12.1V161.8z
			 M169.7,156.4c0,3-2.4,5.4-5.4,5.4h-21.4v-12.2h3.1c1.9,0,3.5-1.6,3.5-3.5v-5.6h20.2V156.4z M173.8,134.8c0,2.2-1.8,4-4,4h-20.3
			v-5.1c0-1.9-1.6-3.5-3.5-3.5h-3.1v-24.4h26.2c2.6,0,4.7,2.1,4.7,4.7V134.8z"/>
		<path class="st3" d="M162.1,111.8c0-0.5-0.4-0.8-0.8-0.8h-11c-0.5,0-0.8,0.4-0.8,0.8s0.4,0.8,0.8,0.8h11
			C161.7,112.6,162.1,112.2,162.1,111.8z"/>
		<path class="st3" d="M168.2,111.8c0-0.5-0.4-0.8-0.8-0.8h-2.4c-0.5,0-0.8,0.4-0.8,0.8s0.4,0.8,0.8,0.8h2.4
			C167.8,112.6,168.2,112.2,168.2,111.8z"/>
		<path class="st3" d="M165.3,115.3h-7c-0.5,0-0.8,0.4-0.8,0.8c0,0.5,0.4,0.8,0.8,0.8h7c0.5,0,0.8-0.4,0.8-0.8
			C166.1,115.7,165.7,115.3,165.3,115.3z"/>
		<path class="st3" d="M170.6,115.3h-2c-0.5,0-0.8,0.4-0.8,0.8c0,0.5,0.4,0.8,0.8,0.8h2c0.5,0,0.8-0.4,0.8-0.8
			C171.4,115.7,171,115.3,170.6,115.3z"/>
		<path class="st3" d="M108.9,133.8h-6.1c-0.5,0-0.8,0.4-0.8,0.8c0,0.5,0.4,0.8,0.8,0.8h6.1c0.5,0,0.8-0.4,0.8-0.8
			C109.8,134.2,109.4,133.8,108.9,133.8z"/>
		<path class="st3" d="M113.7,133.8h-1.5c-0.5,0-0.8,0.4-0.8,0.8c0,0.5,0.4,0.8,0.8,0.8h1.5c0.5,0,0.8-0.4,0.8-0.8
			C114.5,134.2,114.1,133.8,113.7,133.8z"/>
		<path class="st3" d="M69.6,108.7c0.1-0.6-0.4-1.2-1-1.2c-0.6-0.1-1.2,0.4-1.2,1c-0.1,0.6,0.4,1.2,1,1.2c0,0,0.1,0,0.1,0
			C69,109.7,69.5,109.3,69.6,108.7z"/>
		<path class="st3" d="M69.2,116.8c-0.6,0.2-0.9,0.8-0.7,1.4c0.2,0.5,0.6,0.7,1,0.7c0.1,0,0.2,0,0.4-0.1c0.6-0.2,0.9-0.8,0.7-1.4
			C70.4,116.9,69.7,116.6,69.2,116.8z"/>
		<path class="st3" d="M63.1,112.8c-0.6,0.1-1,0.6-1,1.2c0.1,0.6,0.5,1,1.1,1c0,0,0.1,0,0.1,0c0.6-0.1,1-0.6,1-1.2
			C64.2,113.1,63.7,112.7,63.1,112.8z"/>
		<path class="st3" d="M65.4,110.7C65.4,110.7,65.4,110.7,65.4,110.7c0.4-0.4,0.4-1.1,0-1.6c-0.4-0.4-1.1-0.4-1.6,0c0,0,0,0,0,0
			c0,0,0,0,0,0c-0.4,0.4-0.4,1.1,0,1.6c0.2,0.2,0.5,0.3,0.8,0.3C64.9,111.1,65.1,110.9,65.4,110.7z"/>
		<path class="st3" d="M66,116.4c-0.5-0.3-1.2-0.2-1.5,0.3c-0.3,0.5-0.2,1.2,0.3,1.5c0.2,0.1,0.4,0.2,0.6,0.2c0.4,0,0.7-0.2,0.9-0.5
			C66.7,117.5,66.5,116.8,66,116.4z"/>
		<path class="st3" d="M72.8,113.9c-0.6-0.2-1.2,0.1-1.4,0.7c-0.2,0.6,0.1,1.2,0.7,1.4c0.1,0,0.2,0.1,0.4,0.1c0.5,0,0.9-0.3,1-0.7
			C73.7,114.7,73.4,114.1,72.8,113.9z"/>
		<path class="st3" d="M72.6,111.7c0.5-0.3,0.7-1,0.3-1.5c-0.3-0.5-1-0.7-1.5-0.3s-0.7,1-0.3,1.5c0.2,0.3,0.6,0.5,0.9,0.5
			C72.2,111.9,72.4,111.8,72.6,111.7z"/>
		<path class="st3" d="M93,34.4c-0.6,0.1-1,0.6-1,1.2c0.1,0.6,0.5,1,1.1,1c0,0,0.1,0,0.1,0c0.6-0.1,1-0.6,1-1.2
			C94.2,34.7,93.6,34.3,93,34.4z"/>
		<path class="st3" d="M98.3,31.3c0,0,0.1,0,0.1,0c0.6,0,1-0.4,1.1-1c0.1-0.6-0.4-1.2-1-1.2c-0.6-0.1-1.2,0.4-1.2,1
			C97.3,30.7,97.7,31.2,98.3,31.3z"/>
		<path class="st3" d="M94.5,32.7c0.3,0,0.6-0.1,0.8-0.3c0,0,0,0,0,0c0,0,0,0,0,0c0.4-0.4,0.4-1.1,0-1.6c-0.4-0.4-1.1-0.4-1.6,0
			c0,0,0,0,0,0c0,0,0,0,0,0h0c-0.4,0.4-0.4,1.1,0,1.6C93.9,32.5,94.2,32.7,94.5,32.7z"/>
		<path class="st3" d="M96.3,39.6c0.3-0.5,0.2-1.2-0.3-1.5c-0.5-0.3-1.2-0.2-1.5,0.3c-0.3,0.5-0.2,1.2,0.3,1.5
			c0.2,0.1,0.4,0.2,0.6,0.2C95.7,40.1,96.1,39.9,96.3,39.6z"/>
		<path class="st3" d="M101.9,33.5c0.2,0,0.4-0.1,0.6-0.2c0.5-0.3,0.7-1,0.3-1.5c-0.3-0.5-1-0.7-1.5-0.3c-0.5,0.3-0.7,1-0.3,1.5
			C101.2,33.3,101.6,33.5,101.9,33.5z"/>
		<path class="st3" d="M99.1,38.4c-0.6,0.2-0.9,0.8-0.7,1.4c0.2,0.5,0.6,0.7,1,0.7c0.1,0,0.2,0,0.4-0.1c0.6-0.2,0.9-0.8,0.7-1.4
			C100.3,38.5,99.7,38.2,99.1,38.4z"/>
		<path class="st3" d="M101.3,36.2c-0.2,0.6,0.1,1.2,0.7,1.4c0.1,0,0.2,0.1,0.4,0.1c0.5,0,0.9-0.3,1-0.7c0.2-0.6-0.1-1.2-0.7-1.4
			C102.2,35.3,101.5,35.6,101.3,36.2z"/>
		<path class="st3" d="M168.4,77.1c-0.2,0.6,0.1,1.2,0.7,1.4c0.1,0,0.2,0.1,0.4,0.1c0.5,0,0.9-0.3,1-0.7c0.2-0.6-0.1-1.2-0.7-1.4
			C169.2,76.2,168.6,76.5,168.4,77.1z"/>
		<path class="st3" d="M161.5,73.6c0.3,0,0.6-0.1,0.8-0.3c0,0,0,0,0,0c0,0,0,0,0,0c0,0,0,0,0,0c0.4-0.4,0.4-1.1,0-1.6
			c-0.4-0.4-1.1-0.4-1.6,0c0,0,0,0,0,0c-0.4,0.4-0.4,1.1,0,1.6C161,73.5,161.3,73.6,161.5,73.6z"/>
		<path class="st3" d="M166.1,79.3c-0.6,0.2-0.9,0.8-0.7,1.4c0.2,0.5,0.6,0.7,1,0.7c0.1,0,0.2,0,0.4-0.1c0.6-0.2,0.9-0.8,0.7-1.4
			C167.3,79.4,166.7,79.1,166.1,79.3z"/>
		<path class="st3" d="M169,74.4c0.2,0,0.4,0,0.6-0.2c0.5-0.3,0.7-1.1,0.3-1.5h0c-0.3-0.6-1-0.7-1.5-0.4c-0.5,0.3-0.7,1-0.3,1.5
			C168.2,74.2,168.6,74.4,169,74.4z"/>
		<path class="st3" d="M165.3,72.2c0,0,0.1,0,0.1,0c0.6,0,1-0.4,1.1-1c0.1-0.6-0.4-1.2-1-1.2c-0.6-0.1-1.2,0.4-1.2,1
			S164.7,72.1,165.3,72.2z"/>
		<path class="st3" d="M160.2,77.5c0,0,0.1,0,0.1,0c0.6-0.1,1-0.6,1-1.2c-0.1-0.6-0.6-1-1.2-1c-0.6,0.1-1,0.6-1,1.2
			C159.1,77.1,159.6,77.5,160.2,77.5z"/>
		<path class="st3" d="M161.4,79.3c-0.3,0.5-0.2,1.2,0.3,1.5c0.2,0.1,0.4,0.2,0.6,0.2c0.4,0,0.7-0.2,0.9-0.5
			c0.3-0.5,0.2-1.2-0.3-1.5C162.4,78.6,161.8,78.8,161.4,79.3z"/>
		<path class="st3" d="M9.2,152.5c-0.6,0.1-1,0.6-1,1.2c0.1,0.6,0.5,1,1.1,1c0,0,0.1,0,0.1,0c0.6-0.1,1-0.6,1-1.2
			C10.3,152.8,9.8,152.4,9.2,152.5z"/>
		<path class="st3" d="M11.5,150.4C11.5,150.4,11.5,150.4,11.5,150.4C11.5,150.4,11.5,150.4,11.5,150.4
			C11.5,150.4,11.5,150.4,11.5,150.4c0.4-0.5,0.4-1.1,0-1.6c-0.4-0.4-1.1-0.4-1.6,0c0,0,0,0,0,0c-0.4,0.4-0.4,1.1,0,1.6
			c0.2,0.2,0.5,0.3,0.8,0.3C11,150.7,11.2,150.6,11.5,150.4z"/>
		<path class="st3" d="M18.9,153.6c-0.6-0.2-1.2,0.1-1.4,0.7c-0.2,0.6,0.1,1.2,0.7,1.4c0.1,0,0.2,0.1,0.4,0.1c0.5,0,0.9-0.3,1-0.7
			C19.8,154.4,19.5,153.8,18.9,153.6z"/>
		<path class="st3" d="M15.7,148.4c0.1-0.6-0.4-1.2-1-1.2c-0.6-0.1-1.2,0.4-1.2,1c-0.1,0.6,0.4,1.2,1,1.2c0,0,0.1,0,0.1,0
			C15.2,149.4,15.6,149,15.7,148.4z"/>
		<path class="st3" d="M12.1,156.1c-0.5-0.3-1.2-0.2-1.5,0.3c-0.3,0.5-0.2,1.2,0.3,1.5c0.2,0.1,0.4,0.2,0.6,0.2
			c0.4,0,0.7-0.2,0.9-0.5C12.8,157.1,12.6,156.5,12.1,156.1z"/>
		<path class="st3" d="M15.3,156.5c-0.6,0.2-0.9,0.8-0.7,1.4c0.2,0.5,0.6,0.7,1,0.7c0.1,0,0.2,0,0.4-0.1c0.6-0.2,0.9-0.8,0.7-1.4
			C16.5,156.6,15.8,156.3,15.3,156.5z"/>
		<path class="st3" d="M18.7,151.4c0.5-0.3,0.7-1,0.3-1.5c-0.3-0.5-1-0.7-1.5-0.3s-0.7,1-0.3,1.5c0.2,0.3,0.6,0.5,0.9,0.5
			C18.3,151.6,18.5,151.5,18.7,151.4z"/>
	</g>
</g>
</svg>
