<?xml version="1.0" encoding="utf-8"?>
<!-- Generator: Adobe Illustrator 22.1.0, SVG Export Plug-In . SVG Version: 6.00 Build 0)  -->
<svg version="1.1" id="Слой_1" xmlns="http://www.w3.org/2000/svg" xmlns:xlink="http://www.w3.org/1999/xlink" x="0px" y="0px"
	 viewBox="0 0 180 180" style="enable-background:new 0 0 180 180;" xml:space="preserve">
<style type="text/css">
	.st0{fill:#FFFFFF;}
	.st1{fill:#DAD3FF;}
	.st2{fill:#566386;}
	.st3{fill:#654BFA;}
</style>
<g id="Group">
	<path class="st0" d="M149.4,105.3l-6.2,4.9l-2,1V65.8v-6.3l-3.3-2.2H56.3V19H51v2.7L21.1,35.1L20,33.9v-6.4h-6.7v61.7h6.5V55.7
		l1-0.5l8.2,3.5v55.6v15.3l2.3,2.7h42.5v20h23v-20h24.4l0.8,29.4l54.5,0.7V129L149.4,105.3z M133.6,117.9l-5.5,4.4v-4.4H133.6z"/>
	<g>
		<path class="st1" d="M38.6,77.3c-1.9,0-3.5,1.6-3.5,3.5s1.6,3.5,3.5,3.5s3.5-1.6,3.5-3.5C42,78.8,40.5,77.3,38.6,77.3z"/>
		<path class="st1" d="M38.6,90.4c-1.9,0-3.5,1.6-3.5,3.5s1.6,3.5,3.5,3.5s3.5-1.6,3.5-3.5C42,92,40.5,90.4,38.6,90.4z"/>
		<path class="st1" d="M38.6,103.5c-1.9,0-3.5,1.6-3.5,3.5s1.6,3.5,3.5,3.5s3.5-1.6,3.5-3.5C42,105.1,40.5,103.5,38.6,103.5z"/>
		<polygon class="st1" points="128.1,118.3 128.1,133.6 141.5,145.6 149,139.2 156.6,145.4 170.1,133.6 170.1,118.3 		"/>
		<rect x="2.6" y="36" class="st1" width="10.7" height="17.8"/>
	</g>
	<g>
		<path class="st2" d="M177.4,128.5c0-0.1,0-0.1,0-0.2c0,0,0-0.1-0.1-0.1c-0.1-0.2-0.1-0.3-0.3-0.4l-6-5.1v-4.4
			c0-0.5-0.4-0.9-0.9-0.9h-5.5c-0.1-0.2-0.1-0.3-0.3-0.5l-14.4-12.3c-0.4-0.3-0.9-0.3-1.2,0l-6.2,5.3V61.5c0-2.8-2.2-5.1-5-5.1H56.9
			V18.7c0-0.5-0.4-0.9-0.9-0.9h-5.2c-0.5,0-0.9,0.4-0.9,0.9V21l-29,12.3v-5.9c0-0.5-0.4-0.9-0.9-0.9h-6.7c-0.5,0-0.9,0.4-0.9,0.9V35
			H2.6c-0.5,0-0.9,0.4-0.9,0.9v17.8c0,0.5,0.4,0.9,0.9,0.9h9.7v34.5c0,0.5,0.4,0.9,0.9,0.9h6.7c0.5,0,0.9-0.4,0.9-0.9V65.5h4.8
			c0.3,0,0.5-0.1,0.7-0.3c0.2-0.2,0.3-0.5,0.2-0.8l-0.8-5.8l2.7,1.1c-0.2,0.6-0.3,1.2-0.3,1.8v66.9c0,2.8,2.3,5,5,5h39.8V152H56.7
			c-0.5,0-0.9,0.4-0.9,0.9s0.4,0.9,0.9,0.9h57.2c0.5,0,0.9-0.4,0.9-0.9s-0.4-0.9-0.9-0.9H97.6v-18.6h23.2v29.1
			c0,0.5,0.4,0.9,0.9,0.9h54.8c0.5,0,0.9-0.4,0.9-0.9v-33.9V128.5z M12.3,52.9H3.5V37h8.8V52.9z M19,88.4h-4.8V54.2
			c0-0.1,0.1-0.2,0.1-0.3s0-0.2-0.1-0.3V36.3c0-0.1,0.1-0.2,0.1-0.3s0-0.2-0.1-0.3v-7.3H19V88.4z M171,125.1l4.1,3.4L171,132V125.1z
			 M169.2,119.2v14.3l-12.7,10.7l-6.8-5.8c-0.4-0.3-0.9-0.3-1.2,0l-6.9,5.9L129,133.6l0,0v-14.4C129,119.2,169.2,119.2,169.2,119.2z
			 M149.2,106.6l12.7,10.8h-25.4L149.2,106.6z M131,66.3H57v-2.1h77.5v6H56.9v-2h74c0.5,0,0.9-0.4,0.9-0.9S131.5,66.3,131,66.3z
			 M20.9,63.6v-7.1l2.9,1.2l0.8,5.8L20.9,63.6L20.9,63.6z M20.9,54.5v-19l29-12.3v11.1c0,0.5,0.4,0.9,0.9,0.9s0.9-0.4,0.9-0.9V19.7
			H55v51.7h-3.3V47.9c0-0.5-0.4-0.9-0.9-0.9s-0.9,0.4-0.9,0.9v18.9L20.9,54.5z M49.8,68.9v1.4h-1.7v-2.1L49.8,68.9z M41.2,69.7
			c1.4,0,2.5-1.1,2.5-2.5c0-0.4-0.1-0.7-0.2-1l2.9,1.2v0.1v2.8H36.1v-6H39l0,0l1.4,0.6c-1,0.3-1.7,1.3-1.7,2.3
			C38.7,68.5,39.8,69.7,41.2,69.7z M40.5,67.2c0-0.3,0.3-0.6,0.6-0.6s0.6,0.3,0.6,0.6c0,0.3-0.3,0.6-0.6,0.6
			C40.8,67.8,40.5,67.5,40.5,67.2z M34.7,62.4c-0.3,0.1-0.6,0.5-0.6,0.9v7.9c0,0.5,0.4,0.9,0.9,0.9h14.7v0.2c0,0.5,0.4,0.9,0.9,0.9
			H56c0.5,0,0.9-0.4,0.9-0.9v-0.2h78.4c0.5,0,0.9-0.4,0.9-0.9v-7.9c0-0.5-0.4-0.9-0.9-0.9H56.9v-4h80.5c1.7,0,3.1,1.4,3.1,3.2v49.6
			c0,0.1,0,0.2,0.1,0.3l-6.7,5.7c-0.1,0.1-0.1,0.1-0.2,0.2h-5.6c-0.5,0-0.9,0.4-0.9,0.9v1.6H30V61.5c0-0.4,0.1-0.7,0.2-1.1
			L34.7,62.4z M95.7,152H74.8v-18.6h20.9C95.7,133.4,95.7,152,95.7,152z M33.1,131.5c-1.7,0-3.2-1.4-3.2-3.1v-6.6h97.2v1.1
			c-0.1,0-0.2,0.1-0.3,0.2l-5.7,4.8l0,0c0,0,0,0-0.1,0.1l0,0c0,0,0,0.1-0.1,0.1l-0.1,0.1c0,0,0,0,0,0.1v0.1v0.1l0,0v2.9L33.1,131.5
			L33.1,131.5z M127.1,125.2v6.8l-4-3.4L127.1,125.2z M122.6,130.6l17.5,14.9l-17.5,14.9C122.6,160.4,122.6,130.6,122.6,130.6z
			 M124.1,161.6l24.9-21.2l25.1,21.2H124.1z M175.6,160.3L158,145.4l17.6-14.8V160.3z"/>
		<path class="st2" d="M136.2,125.2h25.9c0.5,0,0.9-0.4,0.9-0.9s-0.4-0.9-0.9-0.9h-25.9c-0.5,0-0.9,0.4-0.9,0.9
			C135.2,124.8,135.7,125.2,136.2,125.2z"/>
		<path class="st2" d="M136.2,130.4h25.9c0.5,0,0.9-0.4,0.9-0.9s-0.4-0.9-0.9-0.9h-25.9c-0.5,0-0.9,0.4-0.9,0.9
			C135.2,130,135.7,130.4,136.2,130.4z"/>
		<path class="st2" d="M136.2,135.7h25.9c0.5,0,0.9-0.4,0.9-0.9s-0.4-0.9-0.9-0.9h-25.9c-0.5,0-0.9,0.4-0.9,0.9
			S135.7,135.7,136.2,135.7z"/>
		<path class="st2" d="M38.6,85.2c2.4,0,4.4-2,4.4-4.4s-2-4.4-4.4-4.4s-4.4,2-4.4,4.4C34.2,83.2,36.1,85.2,38.6,85.2z M38.6,78.2
			c1.4,0,2.5,1.1,2.5,2.5s-1.1,2.5-2.5,2.5s-2.5-1.1-2.5-2.5C36,79.4,37.2,78.2,38.6,78.2z"/>
		<path class="st2" d="M48.9,81.8h69.8c0.5,0,0.9-0.4,0.9-0.9s-0.4-0.9-0.9-0.9H48.9c-0.5,0-0.9,0.4-0.9,0.9
			C48,81.3,48.4,81.8,48.9,81.8z"/>
		<path class="st2" d="M130,81.8h5.3c0.5,0,0.9-0.4,0.9-0.9s-0.4-0.9-0.9-0.9H130c-0.5,0-0.9,0.4-0.9,0.9
			C129,81.3,129.5,81.8,130,81.8z"/>
		<path class="st2" d="M38.6,98.3c2.4,0,4.4-2,4.4-4.4s-2-4.4-4.4-4.4s-4.4,2-4.4,4.4C34.2,96.3,36.1,98.3,38.6,98.3z M38.6,91.4
			c1.4,0,2.5,1.1,2.5,2.5s-1.1,2.5-2.5,2.5s-2.5-1.1-2.5-2.5S37.2,91.4,38.6,91.4z"/>
		<path class="st2" d="M48.9,94.7h69.8c0.5,0,0.9-0.4,0.9-0.9s-0.4-0.9-0.9-0.9H48.9c-0.5,0-0.9,0.4-0.9,0.9S48.4,94.7,48.9,94.7z"
			/>
		<path class="st2" d="M130,94.7h5.3c0.5,0,0.9-0.4,0.9-0.9s-0.4-0.9-0.9-0.9H130c-0.5,0-0.9,0.4-0.9,0.9S129.5,94.7,130,94.7z"/>
		<path class="st2" d="M38.6,111.4c2.4,0,4.4-2,4.4-4.4s-2-4.4-4.4-4.4s-4.4,2-4.4,4.4C34.2,109.4,36.1,111.4,38.6,111.4z
			 M38.6,104.5c1.4,0,2.5,1.1,2.5,2.5s-1.1,2.5-2.5,2.5s-2.5-1.1-2.5-2.5S37.2,104.5,38.6,104.5z"/>
		<path class="st2" d="M48.9,108h69.8c0.5,0,0.9-0.4,0.9-0.9s-0.4-0.9-0.9-0.9H48.9c-0.5,0-0.9,0.4-0.9,0.9S48.4,108,48.9,108z"/>
		<path class="st2" d="M130,108h5.3c0.5,0,0.9-0.4,0.9-0.9s-0.4-0.9-0.9-0.9H130c-0.5,0-0.9,0.4-0.9,0.9S129.5,108,130,108z"/>
	</g>
	<g>
		<path class="st3" d="M16.6,104.2c0.5,0,0.9-0.4,0.9-0.9v-1.7c0-0.5-0.4-0.9-0.9-0.9s-0.9,0.4-0.9,0.9v1.7
			C15.6,103.8,16.1,104.2,16.6,104.2z"/>
		<path class="st3" d="M16.6,146.9c0.5,0,0.9-0.4,0.9-0.9v-3.2c0-0.5-0.4-0.9-0.9-0.9s-0.9,0.4-0.9,0.9v3.2
			C15.6,146.5,16.1,146.9,16.6,146.9z"/>
		<path class="st3" d="M16.6,112.7c0.5,0,0.9-0.4,0.9-0.9v-3.2c0-0.5-0.4-0.9-0.9-0.9s-0.9,0.4-0.9,0.9v3.2
			C15.6,112.3,16.1,112.7,16.6,112.7z"/>
		<path class="st3" d="M16.6,138.3c0.5,0,0.9-0.4,0.9-0.9v-3.2c0-0.5-0.4-0.9-0.9-0.9s-0.9,0.4-0.9,0.9v3.2
			C15.6,137.9,16.1,138.3,16.6,138.3z"/>
		<path class="st3" d="M16.6,121.3c0.5,0,0.9-0.4,0.9-0.9v-3.2c0-0.5-0.4-0.9-0.9-0.9s-0.9,0.4-0.9,0.9v3.2
			C15.6,120.8,16.1,121.3,16.6,121.3z"/>
		<path class="st3" d="M16.6,129.8c0.5,0,0.9-0.4,0.9-0.9v-3.2c0-0.5-0.4-0.9-0.9-0.9s-0.9,0.4-0.9,0.9v3.2
			C15.6,129.4,16.1,129.8,16.6,129.8z"/>
		<path class="st3" d="M18.2,152.1h-0.7v-0.7c0-0.5-0.4-0.9-0.9-0.9s-0.9,0.4-0.9,0.9v1.6c0,0.5,0.4,0.9,0.9,0.9h1.6
			c0.5,0,0.9-0.4,0.9-0.9C19.1,152.6,18.7,152.1,18.2,152.1z"/>
		<path class="st3" d="M42.2,152.1h-3c-0.5,0-0.9,0.4-0.9,0.9s0.4,0.9,0.9,0.9h3c0.5,0,0.9-0.4,0.9-0.9
			C43.1,152.6,42.7,152.1,42.2,152.1z"/>
		<path class="st3" d="M34.2,152.1h-3c-0.5,0-0.9,0.4-0.9,0.9s0.4,0.9,0.9,0.9h3c0.5,0,0.9-0.4,0.9-0.9
			C35.1,152.6,34.7,152.1,34.2,152.1z"/>
		<path class="st3" d="M26.2,152.1h-3c-0.5,0-0.9,0.4-0.9,0.9s0.4,0.9,0.9,0.9h3c0.5,0,0.9-0.4,0.9-0.9
			C27.1,152.6,26.7,152.1,26.2,152.1z"/>
		<path class="st3" d="M48.6,152.1h-1.7c-0.5,0-0.9,0.4-0.9,0.9s0.4,0.9,0.9,0.9h1.7c0.5,0,0.9-0.4,0.9-0.9
			C49.5,152.6,49.1,152.1,48.6,152.1z"/>
		<path class="st3" d="M150.1,91c-0.5,0-0.9,0.4-0.9,0.9v1.7c0,0.5,0.4,0.9,0.9,0.9s0.9-0.4,0.9-0.9V92
			C151.1,91.4,150.6,91,150.1,91z"/>
		<path class="st3" d="M150.1,50c-0.5,0-0.9,0.4-0.9,0.9V54c0,0.5,0.4,0.9,0.9,0.9s0.9-0.4,0.9-0.9v-3.1
			C151.1,50.4,150.6,50,150.1,50z"/>
		<path class="st3" d="M150.1,58.2c-0.5,0-0.9,0.4-0.9,0.9v3.1c0,0.5,0.4,0.9,0.9,0.9s0.9-0.4,0.9-0.9v-3.1
			C151.1,58.6,150.6,58.2,150.1,58.2z"/>
		<path class="st3" d="M150.1,82.8c-0.5,0-0.9,0.4-0.9,0.9v3.1c0,0.5,0.4,0.9,0.9,0.9s0.9-0.4,0.9-0.9v-3.1
			C151.1,83.2,150.6,82.8,150.1,82.8z"/>
		<path class="st3" d="M150.1,41.8c-0.5,0-0.9,0.4-0.9,0.9v3.1c0,0.5,0.4,0.9,0.9,0.9s0.9-0.4,0.9-0.9v-3.1
			C151.1,42.2,150.6,41.8,150.1,41.8z"/>
		<path class="st3" d="M150.1,74.6c-0.5,0-0.9,0.4-0.9,0.9v3.1c0,0.5,0.4,0.9,0.9,0.9s0.9-0.4,0.9-0.9v-3.1
			C151.1,75,150.6,74.6,150.1,74.6z"/>
		<path class="st3" d="M150.1,66.4c-0.5,0-0.9,0.4-0.9,0.9v3.1c0,0.5,0.4,0.9,0.9,0.9s0.9-0.4,0.9-0.9v-3.1
			C151.1,66.8,150.6,66.4,150.1,66.4z"/>
		<path class="st3" d="M150.1,35.2h-1.7c-0.5,0-0.9,0.4-0.9,0.9s0.4,0.9,0.9,0.9h0.8v0.8c0,0.5,0.4,0.9,0.9,0.9s0.9-0.4,0.9-0.9
			v-1.7C151.1,35.6,150.6,35.2,150.1,35.2z"/>
		<path class="st3" d="M133.4,35.2H130c-0.5,0-0.9,0.4-0.9,0.9s0.4,0.9,0.9,0.9h3.4c0.5,0,0.9-0.4,0.9-0.9
			C134.4,35.6,133.9,35.2,133.4,35.2z"/>
		<path class="st3" d="M115,35.2h-3.4c-0.5,0-0.9,0.4-0.9,0.9s0.4,0.9,0.9,0.9h3.4c0.5,0,0.9-0.4,0.9-0.9
			C115.9,35.6,115.5,35.2,115,35.2z"/>
		<path class="st3" d="M105.8,35.2h-3.4c-0.5,0-0.9,0.4-0.9,0.9s0.4,0.9,0.9,0.9h3.4c0.5,0,0.9-0.4,0.9-0.9
			C106.7,35.6,106.3,35.2,105.8,35.2z"/>
		<path class="st3" d="M124.2,35.2h-3.4c-0.5,0-0.9,0.4-0.9,0.9s0.4,0.9,0.9,0.9h3.4c0.5,0,0.9-0.4,0.9-0.9
			C125.1,35.6,124.7,35.2,124.2,35.2z"/>
		<path class="st3" d="M142.6,35.2h-3.4c-0.5,0-0.9,0.4-0.9,0.9s0.4,0.9,0.9,0.9h3.4c0.5,0,0.9-0.4,0.9-0.9
			C143.6,35.6,143.2,35.2,142.6,35.2z"/>
		<path class="st3" d="M96.4,35.2h-1.6c-0.5,0-0.9,0.4-0.9,0.9v1.7c0,0.5,0.4,0.9,0.9,0.9s0.9-0.4,0.9-0.9V37h0.7
			c0.5,0,0.9-0.4,0.9-0.9C97.4,35.6,97,35.2,96.4,35.2z"/>
		<path class="st3" d="M94.8,41.6c-0.5,0-0.9,0.4-0.9,0.9v2.9c0,0.5,0.4,0.9,0.9,0.9s0.9-0.4,0.9-0.9v-2.9
			C95.8,42,95.4,41.6,94.8,41.6z"/>
		<path class="st3" d="M94.8,49.1c-0.5,0-0.9,0.4-0.9,0.9v1.7c0,0.5,0.4,0.9,0.9,0.9s0.9-0.4,0.9-0.9V50
			C95.8,49.5,95.4,49.1,94.8,49.1z"/>
	</g>
	<g>
		<path class="st2" d="M166.3,25.8c0.4,0,0.8-0.2,1-0.5c0.5-0.6,0.4-1.4-0.2-1.9c-0.6-0.5-1.4-0.4-1.9,0.2s-0.4,1.4,0.2,1.9
			C165.7,25.7,166,25.8,166.3,25.8z"/>
		<path class="st2" d="M166.8,31.2c-0.3,0.7,0,1.5,0.6,1.8c0.2,0.1,0.4,0.1,0.6,0.1c0.5,0,1-0.3,1.2-0.8c0.3-0.7,0-1.5-0.6-1.8
			C167.9,30.2,167.1,30.5,166.8,31.2z"/>
		<path class="st2" d="M165.4,29.8c0.1,0,0.2,0,0.3,0c0.7-0.2,1.2-0.9,1-1.6s-0.9-1.2-1.6-1c-0.7,0.2-1.2,0.9-1,1.6
			C164.2,29.4,164.8,29.8,165.4,29.8z"/>
		<path class="st2" d="M175,27.2c-0.7-0.2-1.4,0.3-1.6,1c-0.2,0.7,0.3,1.4,1,1.6c0.1,0,0.2,0,0.3,0c0.6,0,1.2-0.4,1.3-1
			C176.2,28.1,175.8,27.4,175,27.2z"/>
		<path class="st2" d="M173.8,25.8c0.3,0,0.6-0.1,0.8-0.3c0.6-0.5,0.7-1.3,0.2-1.9s-1.3-0.7-1.9-0.2c-0.6,0.5-0.7,1.3-0.2,1.9
			C173,25.6,173.4,25.8,173.8,25.8z"/>
		<path class="st2" d="M170.9,32.3c0.2,0.5,0.7,0.8,1.2,0.8c0.2,0,0.4,0,0.6-0.1c0.7-0.3,0.9-1.1,0.6-1.8c-0.3-0.7-1.1-0.9-1.8-0.6
			C170.9,30.9,170.6,31.7,170.9,32.3z"/>
		<path class="st2" d="M170.1,24L170.1,24L170.1,24c0.8,0,1.3-0.6,1.4-1.3c0-0.7-0.6-1.3-1.3-1.3l0,0l0,0c-0.7,0-1.3,0.6-1.3,1.3
			C168.7,23.4,169.3,24,170.1,24z"/>
		<path class="st2" d="M76.5,41.5c0.3,0,0.6-0.1,0.8-0.3c0.6-0.5,0.7-1.3,0.2-1.9c-0.5-0.6-1.3-0.7-1.9-0.2s-0.7,1.3-0.2,1.9
			C75.7,41.4,76.1,41.5,76.5,41.5z"/>
		<path class="st2" d="M69,41.5c0.4,0,0.8-0.2,1-0.5c0.5-0.6,0.4-1.4-0.2-1.9s-1.4-0.4-1.9,0.2c-0.5,0.6-0.4,1.4,0.2,1.9
			C68.4,41.4,68.7,41.5,69,41.5z"/>
		<path class="st2" d="M71.2,46.3c-0.7-0.3-1.5,0-1.8,0.6c-0.3,0.7,0,1.5,0.6,1.8c0.2,0.1,0.4,0.1,0.6,0.1c0.5,0,1-0.3,1.2-0.8
			C72.1,47.4,71.9,46.6,71.2,46.3z"/>
		<path class="st2" d="M74.2,46.3c-0.7,0.3-0.9,1.1-0.6,1.8c0.2,0.5,0.7,0.8,1.2,0.8c0.2,0,0.4,0,0.6-0.1c0.7-0.3,0.9-1.1,0.6-1.8
			C75.7,46.3,74.9,46,74.2,46.3z"/>
		<path class="st2" d="M74.1,38.4c0-0.7-0.6-1.3-1.3-1.3l0,0c-0.7,0-1.3,0.6-1.3,1.3s0.6,1.3,1.3,1.3l0,0l0,0l0,0
			C73.5,39.7,74.1,39.2,74.1,38.4z"/>
		<path class="st2" d="M77.7,43c-0.7-0.2-1.4,0.3-1.6,1s0.3,1.4,1,1.6c0.1,0,0.2,0,0.3,0c0.6,0,1.2-0.4,1.3-1
			C78.8,43.8,78.4,43.1,77.7,43z"/>
		<path class="st2" d="M69.3,44c-0.2-0.7-0.9-1.2-1.6-1s-1.2,0.9-1,1.6c0.1,0.6,0.7,1,1.3,1c0.1,0,0.2,0,0.3,0
			C69,45.4,69.5,44.7,69.3,44z"/>
		<path class="st2" d="M168.5,54.3h-1.1v-1.1c0-0.5-0.4-0.9-0.9-0.9s-0.9,0.4-0.9,0.9v1.1h-1c-0.5,0-0.9,0.4-0.9,0.9
			s0.4,0.9,0.9,0.9h1v1c0,0.5,0.4,0.9,0.9,0.9s0.9-0.4,0.9-0.9v-1h1.1c0.5,0,0.9-0.4,0.9-0.9S169,54.3,168.5,54.3z"/>
		<path class="st2" d="M91.5,21.8h-1.1v-1.1c0-0.5-0.4-0.9-0.9-0.9s-0.9,0.4-0.9,0.9v1.1h-1c-0.5,0-0.9,0.4-0.9,0.9s0.4,0.9,0.9,0.9
			h1v1c0,0.5,0.4,0.9,0.9,0.9s0.9-0.4,0.9-0.9v-1h1.1c0.5,0,0.9-0.4,0.9-0.9C92.4,22.2,92,21.8,91.5,21.8z"/>
		<path class="st2" d="M6.5,159.6H5.4v-1.1c0-0.5-0.4-0.9-0.9-0.9s-0.9,0.4-0.9,0.9v1.1h-1c-0.5,0-0.9,0.4-0.9,0.9s0.4,0.9,0.9,0.9
			h1v1c0,0.5,0.4,0.9,0.9,0.9s0.9-0.4,0.9-0.9v-1h1.1c0.5,0,0.9-0.4,0.9-0.9C7.5,160,7.1,159.6,6.5,159.6z"/>
		<path class="st2" d="M174.3,95.2h-1.1v-1.1c0-0.5-0.4-0.9-0.9-0.9s-0.9,0.4-0.9,0.9v1.1h-1c-0.5,0-0.9,0.4-0.9,0.9
			s0.4,0.9,0.9,0.9h1v1c0,0.5,0.4,0.9,0.9,0.9s0.9-0.4,0.9-0.9v-1h1.1c0.5,0,0.9-0.4,0.9-0.9S174.8,95.2,174.3,95.2z"/>
	</g>
</g>
</svg>
