<?xml version="1.0" encoding="utf-8"?>
<!-- Generator: Adobe Illustrator 22.1.0, SVG Export Plug-In . SVG Version: 6.00 Build 0)  -->
<svg version="1.1" id="Слой_1" xmlns="http://www.w3.org/2000/svg" xmlns:xlink="http://www.w3.org/1999/xlink" x="0px" y="0px"
	 viewBox="0 0 180 180" style="enable-background:new 0 0 180 180;" xml:space="preserve">
<style type="text/css">
	.st0{filter:url(#Adobe_OpacityMaskFilter);}
	.st1{fill:#FFFFFF;}
	.st2{mask:url(#b_1_);}
	.st3{fill:#F6F4FE;}
	.st4{fill:#DAD3FF;}
	.st5{fill:#566386;}
	.st6{fill:#654BFA;}
</style>
<g transform="translate(-3 -17)">
	<defs>
		<filter id="Adobe_OpacityMaskFilter" filterUnits="userSpaceOnUse" x="6" y="34.1" width="173.6" height="145.9">
			<feColorMatrix  type="matrix" values="1 0 0 0 0  0 1 0 0 0  0 0 1 0 0  0 0 0 1 0"/>
		</filter>
	</defs>
	<mask maskUnits="userSpaceOnUse" x="6" y="34.1" width="173.6" height="145.9" id="b_1_">
		<g class="st0">
			<path id="a_1_" class="st1" d="M3,17h180v180H3V17z"/>
		</g>
	</mask>
	<g class="st2">
		<g transform="translate(3 17)">
			<circle class="st3" cx="71.5" cy="94.5" r="68.5"/>
			<path class="st1" d="M52,82.7L90,45l38.5,38.5h3.3v5.3h-4.2l0.9,4.6h-4.8l-11,6.5l3.9,31.3l4.6,11.2h2l0.6,4.9l4.8,0.6v4.7h5.7
				l0.7,5.1H45v-4.6l7-0.6v-4.7l4-0.6v-4.9h3.7l-0.6-43.3l-3.1-1v-4.7h-4.6v-4.6h-4.2v-5.3L52,82.7z"/>
			<path class="st1" d="M133,112.8v-3.8l1.1-2.1h38.6l1.5,2.1v30.6l-1.5,1.4h-36.9l-2.8-0.9V134L133,112.8z M50.2,17.9
				c-6.4,0-11.6,5.2-11.6,11.5c0,6.4,5.2,11.5,11.6,11.5c6.4,0,11.6-5.2,11.6-11.5C61.7,23.1,56.5,17.9,50.2,17.9 M15.9,50.2
				c-6.4,0-11.6,5.2-11.6,11.5c0,6.4,5.2,11.5,11.6,11.5s11.6-5.2,11.6-11.5S22.3,50.2,15.9,50.2"/>
			<path class="st4" d="M140.7,125h27.8v-5.2h-27.8L140.7,125z M140.7,135.4h27.8v-5.2h-27.8L140.7,135.4z M106.4,148h17.3V93.5
				h-17.3V148z M56.2,148h17.3V93.5H56.2V148z M90,68.3c-2.7,0-4.8,2.1-4.8,4.8c0,0,0,0,0,0c0,2.7,2.2,4.8,4.8,4.8c0,0,0,0,0,0
				c2.7,0,4.8-2.1,4.8-4.8c0,0,0,0,0,0C94.8,70.4,92.6,68.3,90,68.3C90,68.3,90,68.3,90,68.3"/>
			<path class="st5" d="M51.5,84.1c-0.4,0-0.8-0.4-0.8-0.8c0-0.2,0.1-0.4,0.2-0.6l38.5-38.4c0.3-0.3,0.8-0.3,1.2,0L129,82.6
				c0.3,0.3,0.3,0.8,0,1.1c0,0,0,0,0,0c-0.3,0.3-0.8,0.3-1.2,0L90,46l-38,37.9C51.9,84.1,51.7,84.1,51.5,84.1"/>
			<path class="st5" d="M60,84c-0.4,0-0.8-0.4-0.8-0.8c0-0.2,0.1-0.4,0.2-0.6l30-29.9c0.3-0.3,0.8-0.3,1.2,0l29.9,29.8
				c0.3,0.3,0.3,0.8,0,1.1c0,0,0,0,0,0c-0.3,0.3-0.8,0.3-1.2,0L90,54.4L60.6,83.8C60.4,84,60.2,84,60,84"/>
			<path class="st5" d="M132.2,89.3h-12.3c-0.4,0-0.8-0.3-0.9-0.8c0-0.4,0.3-0.8,0.8-0.9c0,0,0.1,0,0.1,0h11.5v-3.4h-83v3.4h47.8
				c0.4,0,0.8,0.3,0.9,0.8c0,0.4-0.3,0.8-0.8,0.9c0,0-0.1,0-0.1,0H47.6c-0.4,0-0.8-0.4-0.8-0.8c0,0,0,0,0,0v-5.1
				c0-0.4,0.4-0.8,0.8-0.8h84.7c0.4,0,0.8,0.4,0.8,0.8v5.1C133.1,88.9,132.7,89.3,132.2,89.3"/>
			<path class="st5" d="M128.3,94.4H51.5c-0.4,0-0.8-0.4-0.8-0.8l0,0v-5.1c0-0.5,0.4-0.8,0.8-0.8c0.5,0,0.8,0.4,0.8,0.8v4.3h75.2
				v-4.3c0-0.5,0.4-0.8,0.8-0.8c0.4,0,0.8,0.4,0.8,0.8v5.1C129.2,94,128.8,94.4,128.3,94.4 M128.3,152.6c-0.4,0-0.8-0.4-0.8-0.8
				v-4.3H52.3v4.3c0,0.5-0.4,0.8-0.8,0.8c-0.5,0-0.8-0.4-0.8-0.8l0-5.1c0-0.4,0.4-0.8,0.8-0.8h76.9c0.4,0,0.8,0.4,0.8,0.8v5.1
				C129.2,152.2,128.8,152.6,128.3,152.6"/>
			<path class="st5" d="M134.9,157.7H45c-0.4,0-0.8-0.4-0.8-0.8v-5.1c0-0.4,0.4-0.8,0.8-0.8h25.4c0.4,0,0.8,0.3,0.9,0.8
				c0,0.4-0.3,0.8-0.8,0.9c0,0-0.1,0-0.1,0H45.8v3.4h88.3v-3.4h-20.5c-0.4,0-0.8-0.3-0.9-0.8c0-0.4,0.3-0.8,0.8-0.9c0,0,0.1,0,0.1,0
				h21.4c0.4,0,0.8,0.4,0.8,0.8v5.1C135.7,157.3,135.3,157.7,134.9,157.7"/>
			<path class="st5" d="M99.2,152.6H83c-0.4,0-0.8-0.3-0.9-0.8c0-0.4,0.3-0.8,0.8-0.9c0,0,0.1,0,0.1,0h16.2c0.4,0,0.8,0.3,0.9,0.8
				C100.1,152.2,99.7,152.6,99.2,152.6C99.3,152.6,99.2,152.6,99.2,152.6 M111.8,89.4h-6.3c-0.4,0-0.8-0.3-0.9-0.8
				c0-0.4,0.3-0.8,0.8-0.9c0,0,0.1,0,0.1,0h6.3c0.4,0,0.8,0.3,0.9,0.8C112.7,89,112.3,89.4,111.8,89.4
				C111.9,89.4,111.8,89.4,111.8,89.4 M56.3,148.2c-0.5,0-0.8-0.4-0.8-1V93.8c0-0.6,0.4-1,0.8-1c0.5,0,0.8,0.4,0.8,1v52.5h15.5V93.8
				c0-0.6,0.4-1,0.8-1c0.4,0,0.8,0.4,0.8,1v53.5c0,0.5-0.4,1-0.8,1L56.3,148.2L56.3,148.2z M106.4,148.2c-0.4,0-0.8-0.4-0.8-1V93.8
				c0-0.6,0.4-1,0.8-1c0.4,0,0.8,0.4,0.8,1v52.5h15.5V93.8c0-0.6,0.4-1,0.8-1c0.4,0,0.8,0.4,0.8,1v53.5c0,0.5-0.4,1-0.8,1
				L106.4,148.2L106.4,148.2z M90,69.1c-2.2,0-4,1.8-4,4c0,2.2,1.8,4,4,4c2.2,0,4-1.8,4-4C93.9,70.9,92.2,69.1,90,69.1z M90,78.7
				c-3.1,0-5.6-2.5-5.6-5.6c0-3.1,2.5-5.6,5.6-5.6c3.1,0,5.6,2.5,5.6,5.6C95.6,76.2,93.1,78.7,90,78.7L90,78.7z"/>
			<path class="st5" d="M113.5,120.6c-0.5,0-0.8-0.4-0.8-0.8v0v-14.3c0-0.5,0.4-0.8,0.8-0.8s0.8,0.4,0.8,0.8v14.3
				C114.3,120.2,113.9,120.6,113.5,120.6 M116.9,139c-0.4,0-0.8-0.4-0.8-0.8V129c0-0.5,0.4-0.8,0.8-0.8c0.4,0,0.8,0.4,0.8,0.8v9.2
				C117.7,138.7,117.3,139,116.9,139 M116.9,124c-0.4,0-0.8-0.4-0.8-0.8v-3.5c0-0.5,0.4-0.8,0.8-0.8c0.4,0,0.8,0.4,0.8,0.8v3.5
				C117.7,123.7,117.3,124,116.9,124 M63.1,120.6c-0.4,0-0.8-0.4-0.8-0.8v-14.3c0-0.5,0.4-0.8,0.8-0.8c0.5,0,0.8,0.4,0.8,0.8v14.3
				C64,120.2,63.6,120.6,63.1,120.6 M66.4,139c-0.4,0-0.8-0.4-0.8-0.8V129c0-0.5,0.4-0.8,0.8-0.8c0.5,0,0.8,0.4,0.8,0.8v9.2
				C67.2,138.7,66.9,139,66.4,139 M66.4,124c-0.4,0-0.8-0.4-0.8-0.8v-3.5c0-0.5,0.4-0.8,0.8-0.8c0.5,0,0.8,0.4,0.8,0.8v3.5
				C67.2,123.7,66.9,124,66.4,124 M90.9,126.5c-0.5,0-0.8-0.4-0.8-0.8v0v-11.4c0-0.5,0.4-0.8,0.8-0.8c0.4,0,0.8,0.4,0.8,0.8v11.4
				C91.7,126.2,91.3,126.5,90.9,126.5 M99.5,110.2c-0.5,0-0.8-0.4-0.8-0.8v0v-4.9c0-0.5,0.4-0.8,0.8-0.8s0.8,0.4,0.8,0.8v4.9
				C100.3,109.8,99.9,110.2,99.5,110.2 M99.5,120.1c-0.4,0-0.8-0.4-0.8-0.8V116c0-0.5,0.4-0.8,0.8-0.8s0.8,0.4,0.8,0.8v3.4
				C100.3,119.8,99.9,120.1,99.5,120.1 M82.1,133.1c-0.4,0-0.8-0.4-0.8-0.8v-7.8c0-0.5,0.4-0.8,0.8-0.8c0.4,0,0.8,0.4,0.8,0.8v7.8
				C82.9,132.7,82.5,133.1,82.1,133.1 M82.1,120c-0.4,0-0.8-0.4-0.8-0.8v-2c0-0.5,0.4-0.8,0.8-0.8c0.4,0,0.8,0.4,0.8,0.8v2
				C82.9,119.7,82.5,120,82.1,120 M50.7,33.3v-2.5c0.8,0.3,1.2,0.8,1.2,1.3C51.9,32.8,51.5,33.2,50.7,33.3L50.7,33.3z M49.5,28
				c-0.8-0.4-1.2-0.9-1.2-1.4c0-0.7,0.4-1.1,1.2-1.2V28z M50.7,28.5v-3.1c0.9,0.1,1.8,0.4,2.6,0.9V24c-0.6-0.3-1.4-0.5-2.6-0.6v-1.5
				h-1.2v1.5c-1,0.1-1.8,0.5-2.4,1.1c-0.6,0.6-0.9,1.4-0.9,2.2c0,0.8,0.2,1.5,0.7,2c0.5,0.6,1.4,1.1,2.6,1.6v3
				c-0.5,0-1.1-0.2-1.7-0.4c-0.6-0.2-1.1-0.5-1.4-0.7v2.3c1,0.5,2,0.8,3.1,0.8V37h1.2v-1.8c1.1-0.1,1.9-0.5,2.5-1
				c0.6-0.6,0.9-1.3,0.9-2.2c0-0.8-0.3-1.5-0.8-2C52.8,29.4,52,28.9,50.7,28.5L50.7,28.5z"/>
			<path class="st5" d="M50.2,18.7c-5.9,0-10.8,4.8-10.8,10.7c0,5.9,4.8,10.7,10.8,10.7c5.9,0,10.8-4.8,10.8-10.7
				C60.9,23.5,56.1,18.7,50.2,18.7z M50.2,41.8c-6.8,0-12.4-5.5-12.4-12.4c0-6.8,5.6-12.4,12.4-12.4c6.8,0,12.4,5.5,12.4,12.4
				C62.5,36.3,57,41.8,50.2,41.8z"/>
			<path class="st5" d="M52.4,42.6c-1.7,0-3.4-0.3-5-1c-0.4-0.2-0.6-0.7-0.4-1.1c0.2-0.4,0.7-0.6,1.1-0.4l0,0
				c1.4,0.6,2.8,0.9,4.3,0.9c6.1,0,11.1-5,11.1-11.1c0-6.1-5-11.1-11.2-11.1c-0.3,0-0.7,0-1,0c-0.4,0-0.8-0.3-0.9-0.8
				c0-0.4,0.3-0.8,0.7-0.8c0.4,0,0.8-0.1,1.1-0.1c7,0,12.8,5.7,12.8,12.8C65.2,36.9,59.5,42.6,52.4,42.6 M16.4,65.3v-2.5
				c0.8,0.3,1.2,0.8,1.2,1.3C17.5,64.7,17.2,65.1,16.4,65.3z M15.2,60c-0.8-0.4-1.1-0.9-1.1-1.4c0-0.7,0.4-1.1,1.1-1.2
				C15.2,57.3,15.2,60,15.2,60z M16.4,60.4v-3.1c0.9,0.1,1.8,0.4,2.6,0.9v-2.2c-0.6-0.3-1.4-0.5-2.6-0.6v-1.5h-1.2v1.5
				c-1,0.1-1.8,0.5-2.4,1.1c-0.6,0.6-0.9,1.4-0.9,2.2c0,0.8,0.2,1.5,0.7,2c0.5,0.6,1.4,1.1,2.6,1.6v3c-0.5,0-1.1-0.2-1.7-0.4
				s-1.1-0.5-1.4-0.7v2.3c1,0.5,2,0.8,3.1,0.8V69h1.2v-1.8c1.1-0.1,1.9-0.5,2.5-1c0.6-0.6,0.9-1.3,0.9-2.2c0-0.8-0.3-1.5-0.8-2
				C18.4,61.4,17.6,60.9,16.4,60.4z"/>
			<path class="st5" d="M15.8,50.7C9.8,50.7,5,55.5,5,61.4s4.8,10.7,10.8,10.7c5.9,0,10.8-4.8,10.8-10.7S21.7,50.7,15.8,50.7
				L15.8,50.7z M15.8,73.8c-6.8,0-12.4-5.5-12.4-12.4c0-6.8,5.6-12.4,12.4-12.4c6.8,0,12.4,5.5,12.4,12.4
				C28.2,68.2,22.6,73.8,15.8,73.8z"/>
			<path class="st5" d="M18,74.6c-1.7,0-3.4-0.3-5-1c-0.4-0.2-0.6-0.7-0.4-1.1c0,0,0,0,0,0c0.2-0.4,0.7-0.6,1.1-0.4
				c1.4,0.6,2.8,0.9,4.3,0.9c6.1,0,11.1-5,11.1-11.1c0-6.1-5-11.1-11.1-11.1c-0.3,0-0.7,0-1,0c-0.4,0-0.8-0.3-0.9-0.8
				c0-0.4,0.3-0.8,0.7-0.8c0.4,0,0.8-0.1,1.1-0.1c7,0,12.8,5.7,12.8,12.8S25.1,74.6,18,74.6 M15.7,47.2c-0.5,0-0.8-0.4-0.8-0.8l0,0
				V36.1c0-4.9,4-8.9,8.9-8.9H30c0.4,0,0.8,0.3,0.9,0.8c0,0.4-0.3,0.8-0.8,0.9c0,0-0.1,0-0.1,0h-6.2c-4,0-7.3,3.3-7.3,7.3v10.3
				C16.6,46.9,16.2,47.2,15.7,47.2 M42.1,62.3h-7.7c-0.4,0-0.8-0.3-0.9-0.8c0-0.4,0.3-0.8,0.8-0.9c0,0,0.1,0,0.1,0h7.7
				c4,0,7.3-3.3,7.3-7.3v-6.9c0-0.5,0.4-0.8,0.8-0.8c0.5,0,0.8,0.4,0.8,0.8l0,0v6.9C51,58.3,47,62.3,42.1,62.3 M136.3,107.7
				c-1,0-1.7,0.8-1.7,1.7v29.1c0,1,0.8,1.7,1.7,1.7h36.5c1,0,1.7-0.8,1.7-1.7v-29.1c0-1-0.8-1.7-1.7-1.7H136.3z M172.9,141.9h-36.5
				c-1.9,0-3.4-1.5-3.4-3.4v-29.1c0-1.9,1.5-3.4,3.4-3.4h36.5c1.9,0,3.4,1.5,3.4,3.4v29.1C176.2,140.4,174.7,141.9,172.9,141.9z"/>
			<path class="st5" d="M175,113h-40.7c-0.4,0-0.8-0.3-0.9-0.8c0-0.4,0.3-0.8,0.8-0.9c0,0,0.1,0,0.1,0H175c0.4,0,0.8,0.3,0.9,0.8
				C175.9,112.6,175.5,113,175,113C175,113,175,113,175,113"/>
			<path class="st5" d="M144.9,112.5c-0.4,0-0.8-0.4-0.8-0.8v-4.2c0-0.5,0.4-0.8,0.8-0.8s0.8,0.4,0.8,0.8v4.2
				C145.7,112.2,145.4,112.5,144.9,112.5 M141.5,124.2h26.2v-3.6h-26.2L141.5,124.2L141.5,124.2z M168.5,125.8h-27.8
				c-0.4,0-0.8-0.4-0.8-0.8c0,0,0,0,0,0v-5.2c0-0.4,0.4-0.8,0.8-0.8h27.8c0.4,0,0.8,0.4,0.8,0.8v5.2
				C169.3,125.4,169,125.8,168.5,125.8z M141.5,134.6h26.2V131h-26.2L141.5,134.6L141.5,134.6z M168.5,136.3h-27.8
				c-0.4,0-0.8-0.4-0.8-0.8c0,0,0,0,0,0v-5.2c0-0.4,0.4-0.8,0.8-0.8h27.8c0.4,0,0.8,0.4,0.8,0.8v5.2
				C169.3,135.9,169,136.3,168.5,136.3z"/>
			<path class="st5" d="M155.7,125.8c-0.4,0-0.8-0.4-0.8-0.8c0-0.2,0.1-0.4,0.2-0.6l5.1-5.1c0.3-0.3,0.8-0.3,1.2,0
				c0.3,0.3,0.3,0.8,0,1.1c0,0,0,0,0,0l-5.1,5.1C156.2,125.7,155.9,125.8,155.7,125.8 M150.7,125.8c-0.4,0-0.8-0.4-0.8-0.8
				c0-0.2,0.1-0.4,0.2-0.6l5.1-5.1c0.3-0.3,0.8-0.3,1.2,0c0.3,0.3,0.3,0.8,0,1.1c0,0,0,0,0,0l-5.1,5.1
				C151.1,125.7,150.9,125.8,150.7,125.8 M145.7,125.8c-0.4,0-0.8-0.4-0.8-0.8c0-0.2,0.1-0.4,0.2-0.6l5.1-5.1c0.3-0.3,0.8-0.3,1.2,0
				c0.3,0.3,0.3,0.8,0,1.1c0,0,0,0,0,0l-5.1,5.1C146.1,125.7,145.9,125.8,145.7,125.8 M140.7,125.8c-0.4,0-0.8-0.4-0.8-0.8
				c0-0.2,0.1-0.4,0.2-0.6l5.1-5.1c0.3-0.3,0.8-0.3,1.2,0c0.3,0.3,0.3,0.8,0,1.1c0,0,0,0,0,0l-5.1,5.1
				C141.1,125.7,140.9,125.8,140.7,125.8 M155.7,136.2c-0.4,0-0.8-0.4-0.8-0.8c0-0.2,0.1-0.4,0.2-0.6l5.1-5.1c0.3-0.3,0.8-0.3,1.2,0
				c0.3,0.3,0.3,0.8,0,1.1c0,0,0,0,0,0l-5.1,5.1C156.2,136.1,155.9,136.2,155.7,136.2 M150.7,136.2c-0.4,0-0.8-0.4-0.8-0.8
				c0-0.2,0.1-0.4,0.2-0.6l5.1-5.1c0.3-0.3,0.8-0.3,1.2,0c0.3,0.3,0.3,0.8,0,1.1c0,0,0,0,0,0l-5.1,5.1
				C151.1,136.1,150.9,136.2,150.7,136.2 M145.7,136.2c-0.4,0-0.8-0.4-0.8-0.8c0-0.2,0.1-0.4,0.2-0.6l5.1-5.1c0.3-0.3,0.8-0.3,1.2,0
				c0.3,0.3,0.3,0.8,0,1.1c0,0,0,0,0,0l-5.1,5.1C146.1,136.1,145.9,136.2,145.7,136.2 M140.7,136.2c-0.4,0-0.8-0.4-0.8-0.8
				c0-0.2,0.1-0.4,0.2-0.6l5.1-5.1c0.3-0.3,0.8-0.3,1.2,0c0.3,0.3,0.3,0.8,0,1.1c0,0,0,0,0,0l-5.1,5.1
				C141.1,136.1,140.9,136.2,140.7,136.2"/>
			<path class="st6" d="M154.6,105.3c-0.5,0-0.8-0.4-0.8-0.8c0,0,0,0,0,0v-1.3c0-0.5,0.4-0.8,0.8-0.8s0.8,0.4,0.8,0.8v1.3
				C155.4,104.9,155,105.3,154.6,105.3 M154.6,70.2c-0.4,0-0.8-0.4-0.8-0.8v-2.6c0-0.5,0.4-0.8,0.8-0.8s0.8,0.4,0.8,0.8v2.6
				C155.4,69.9,155,70.2,154.6,70.2L154.6,70.2z M154.6,77.5c-0.4,0-0.8-0.4-0.8-0.8v-2.6c0-0.5,0.4-0.8,0.8-0.8s0.8,0.4,0.8,0.8
				l0,0v2.6C155.4,77.1,155,77.5,154.6,77.5z M154.6,84.8c-0.4,0-0.8-0.4-0.8-0.8v-2.6c0-0.5,0.4-0.8,0.8-0.8s0.8,0.4,0.8,0.8V84
				C155.4,84.4,155,84.8,154.6,84.8z M154.6,92c-0.4,0-0.8-0.4-0.8-0.8v-2.6c0-0.5,0.4-0.8,0.8-0.8s0.8,0.4,0.8,0.8v2.6
				C155.4,91.7,155,92,154.6,92L154.6,92z M154.6,99.3c-0.4,0-0.8-0.4-0.8-0.8v-2.6c0-0.5,0.4-0.8,0.8-0.8s0.8,0.4,0.8,0.8v2.6
				C155.4,98.9,155,99.3,154.6,99.3z M154.6,63.4c-0.4,0-0.8-0.4-0.8-0.8V62h-0.5c-0.4,0-0.8-0.3-0.9-0.8c0-0.4,0.3-0.8,0.8-0.9
				c0,0,0.1,0,0.1,0h1.4c0.4,0,0.8,0.4,0.8,0.8v1.4C155.4,63,155,63.4,154.6,63.4 M127.9,62h-2.5c-0.4,0-0.8-0.3-0.9-0.8
				c0-0.4,0.3-0.8,0.8-0.9c0,0,0.1,0,0.1,0h2.5c0.4,0,0.8,0.3,0.9,0.8C128.8,61.6,128.4,62,127.9,62C127.9,62,127.9,62,127.9,62z
				 M134.9,62h-2.5c-0.4,0-0.8-0.3-0.9-0.8c0-0.4,0.3-0.8,0.8-0.9c0,0,0.1,0,0.1,0h2.5c0.4,0,0.8,0.3,0.9,0.8
				C135.7,61.6,135.4,62,134.9,62C134.9,62,134.9,62,134.9,62L134.9,62z M141.8,62h-2.5c-0.4,0-0.8-0.3-0.9-0.8
				c0-0.4,0.3-0.8,0.8-0.9c0,0,0.1,0,0.1,0h2.5c0.4,0,0.8,0.3,0.9,0.8C142.7,61.6,142.3,62,141.8,62C141.9,62,141.8,62,141.8,62z
				 M148.8,62h-2.5c-0.4,0-0.8-0.3-0.9-0.8c0-0.4,0.3-0.8,0.8-0.9c0,0,0.1,0,0.1,0h2.5c0.4,0,0.8,0.3,0.9,0.8
				C149.6,61.6,149.3,62,148.8,62C148.8,62,148.8,62,148.8,62z M120.9,62h-1.3c-0.4,0-0.8-0.3-0.9-0.8c0-0.4,0.3-0.8,0.8-0.9
				c0,0,0.1,0,0.1,0h1.3c0.4,0,0.8,0.3,0.9,0.8C121.8,61.6,121.5,62,120.9,62C121,62,121,62,120.9,62 M16.9,85
				c-0.4,0-0.8-0.4-0.8-0.8v-1.3c0-0.5,0.4-0.8,0.8-0.8s0.8,0.4,0.8,0.8v1.3C17.7,84.6,17.4,85,16.9,85 M16.9,92.8
				c-0.5,0-0.8-0.4-0.8-0.8c0,0,0,0,0,0v-2.8c0-0.5,0.4-0.8,0.8-0.8s0.8,0.4,0.8,0.8V92C17.7,92.4,17.4,92.8,16.9,92.8z M16.9,100.6
				c-0.5,0-0.8-0.4-0.8-0.8c0,0,0,0,0,0V97c0-0.5,0.4-0.8,0.8-0.8s0.8,0.4,0.8,0.8v2.8C17.7,100.2,17.4,100.6,16.9,100.6z
				 M16.9,108.4c-0.4,0-0.8-0.4-0.8-0.8v-2.8c0-0.5,0.4-0.8,0.8-0.8s0.8,0.4,0.8,0.8v2.8C17.7,108.1,17.4,108.4,16.9,108.4
				L16.9,108.4z M16.9,116.2c-0.5,0-0.8-0.4-0.8-0.8c0,0,0,0,0,0v-2.8c0-0.5,0.4-0.8,0.8-0.8s0.8,0.4,0.8,0.8l0,0v2.8
				C17.7,115.9,17.4,116.2,16.9,116.2z M18.3,122.4h-1.4c-0.4,0-0.8-0.4-0.8-0.8v-1.4c0-0.5,0.4-0.8,0.8-0.8s0.8,0.4,0.8,0.8v0.5
				h0.5c0.4,0,0.8,0.3,0.9,0.8C19.2,122,18.8,122.3,18.3,122.4C18.4,122.4,18.3,122.4,18.3,122.4 M26,122.4h-2.7
				c-0.4,0-0.8-0.3-0.9-0.8c0-0.4,0.3-0.8,0.8-0.9c0,0,0.1,0,0.1,0H26c0.4,0,0.8,0.3,0.9,0.8C26.9,122,26.6,122.3,26,122.4
				C26.1,122.4,26,122.4,26,122.4z M33.7,122.4H31c-0.4,0-0.8-0.3-0.9-0.8c0-0.4,0.3-0.8,0.8-0.9c0,0,0.1,0,0.1,0h2.7
				c0.4,0,0.8,0.3,0.9,0.8C34.6,122,34.3,122.3,33.7,122.4C33.8,122.4,33.8,122.4,33.7,122.4L33.7,122.4z M41.5,122.4h-2.7
				c-0.4,0-0.8-0.3-0.9-0.8c0-0.4,0.3-0.8,0.8-0.9c0,0,0.1,0,0.1,0h2.7c0.4,0,0.8,0.3,0.9,0.8C42.3,122,42,122.3,41.5,122.4
				C41.5,122.4,41.5,122.4,41.5,122.4z M47.8,122.4h-1.4c-0.4,0-0.8-0.3-0.9-0.8c0-0.4,0.3-0.8,0.8-0.9c0,0,0.1,0,0.1,0h1.4
				c0.4,0,0.8,0.3,0.9,0.8C48.6,122,48.3,122.3,47.8,122.4C47.8,122.4,47.8,122.4,47.8,122.4 M170.4,72.2c-0.5,0-0.8-0.4-0.8-0.8
				v-4.9c0-0.5,0.4-0.8,0.8-0.8s0.8,0.4,0.8,0.8v4.9C171.2,71.8,170.8,72.2,170.4,72.2"/>
			<path class="st6" d="M172.9,69.9H168c-0.4,0-0.8-0.3-0.9-0.8s0.3-0.8,0.8-0.9c0,0,0.1,0,0.1,0h4.9c0.4,0,0.8,0.3,0.9,0.8
				S173.5,69.8,172.9,69.9C173,69.9,172.9,69.9,172.9,69.9 M145.6,45.1c-0.5,0-0.8-0.4-0.8-0.8v-4.9c0-0.5,0.4-0.8,0.8-0.8
				c0.5,0,0.8,0.4,0.8,0.8v4.9C146.4,44.7,146,45.1,145.6,45.1"/>
			<path class="st6" d="M148.1,42.7h-4.9c-0.4,0-0.8-0.3-0.9-0.8c0-0.4,0.3-0.8,0.8-0.9c0,0,0.1,0,0.1,0h4.9c0.4,0,0.8,0.3,0.9,0.8
				S148.6,42.7,148.1,42.7C148.2,42.7,148.1,42.7,148.1,42.7 M87.5,25.1c-0.5,0-0.8-0.4-0.8-0.8c0,0,0,0,0,0v-4.9
				c0-0.5,0.4-0.8,0.8-0.8s0.8,0.4,0.8,0.8v4.9C88.3,24.7,87.9,25.1,87.5,25.1"/>
			<path class="st6" d="M90.1,22.8h-4.9c-0.4,0-0.8-0.3-0.9-0.8s0.3-0.8,0.8-0.9c0,0,0.1,0,0.1,0h4.9c0.4,0,0.8,0.3,0.9,0.8
				S90.6,22.7,90.1,22.8C90.1,22.8,90.1,22.8,90.1,22.8 M32.3,138.7c-0.5,0-0.8-0.4-0.8-0.8c0,0,0,0,0,0V133c0-0.5,0.4-0.8,0.8-0.8
				c0.5,0,0.8,0.4,0.8,0.8v4.9C33.1,138.3,32.7,138.7,32.3,138.7"/>
			<path class="st6" d="M34.8,136.4h-4.9c-0.4,0-0.8-0.3-0.9-0.8c0-0.4,0.3-0.8,0.8-0.9c0,0,0.1,0,0.1,0h4.9c0.4,0,0.8,0.3,0.9,0.8
				C35.7,135.9,35.4,136.3,34.8,136.4C34.9,136.4,34.9,136.4,34.8,136.4 M163.2,155.9c-0.4,0-0.8-0.4-0.8-0.8v-4.9
				c0-0.5,0.4-0.8,0.8-0.8s0.8,0.4,0.8,0.8v4.9C164,155.6,163.6,155.9,163.2,155.9"/>
			<path class="st6" d="M165.7,153.6h-4.9c-0.4,0-0.8-0.3-0.9-0.8s0.3-0.8,0.8-0.9c0,0,0.1,0,0.1,0h4.9c0.4,0,0.8,0.3,0.9,0.8
				S166.3,153.6,165.7,153.6C165.8,153.6,165.8,153.6,165.7,153.6"/>
			<path class="st5" d="M169.4,20.4c0-0.6,0.5-1.1,1.1-1.1c0.6,0,1.1,0.5,1,1.1c0,0.6-0.5,1-1,1C169.9,21.5,169.4,21,169.4,20.4
				C169.4,20.4,169.4,20.4,169.4,20.4z M173.1,22.5c-0.4-0.4-0.5-1.1-0.1-1.5c0,0,0,0,0,0c0.4-0.4,1.1-0.5,1.5-0.1
				c0.4,0.4,0.5,1.1,0.1,1.5c-0.2,0.2-0.5,0.4-0.8,0.4C173.6,22.8,173.3,22.7,173.1,22.5L173.1,22.5z M166.2,22.7
				c-0.4-0.4-0.4-1.1,0-1.5c0,0,0,0,0,0c0.4-0.4,1.1-0.4,1.5,0c0.4,0.4,0.4,1.1,0,1.5c-0.2,0.2-0.5,0.3-0.8,0.3
				C166.7,23,166.4,22.9,166.2,22.7z M174.3,25.2c0-0.6,0.4-1.1,1-1.1c0,0,0,0,0,0c0.6-0.1,1.1,0.4,1.2,1s-0.4,1.1-1,1.2
				c0,0-0.1,0-0.1,0h0C174.8,26.3,174.4,25.8,174.3,25.2L174.3,25.2z M164.5,25.5c0-0.6,0.5-1.1,1.1-1.1c0.6,0,1.1,0.5,1.1,1.1
				c0,0.6-0.5,1.1-1.1,1.1h0C165,26.6,164.5,26.1,164.5,25.5z M173.3,29.5c-0.4-0.4-0.5-1.1,0-1.5c0,0,0,0,0,0
				c0.4-0.4,1.1-0.5,1.5,0c0.4,0.4,0.5,1.1,0,1.5c-0.2,0.2-0.5,0.3-0.8,0.3C173.8,29.8,173.6,29.7,173.3,29.5L173.3,29.5z
				 M166.3,29.7c-0.4-0.4-0.4-1.1,0-1.5c0,0,0,0,0,0c0.4-0.4,1.1-0.4,1.5,0c0.4,0.4,0.4,1.1,0,1.5c-0.2,0.2-0.5,0.3-0.8,0.3
				C166.8,30,166.5,29.9,166.3,29.7L166.3,29.7z M169.5,30.3c0-0.6,0.5-1.1,1.1-1.1c0,0,0,0,0,0c0.6,0,1.1,0.4,1.1,1
				c0,0.6-0.4,1.1-1,1.1c0,0,0,0,0,0h0C170,31.3,169.5,30.9,169.5,30.3L169.5,30.3z M112.4,32.3c0-0.6,0.5-1.1,1.1-1.1
				s1.1,0.5,1.1,1.1c0,0.6-0.5,1.1-1.1,1.1C112.9,33.4,112.4,32.9,112.4,32.3C112.4,32.3,112.4,32.3,112.4,32.3z M116.1,34.4
				c-0.4-0.4-0.5-1.1-0.1-1.5c0,0,0,0,0,0c0.4-0.4,1.1-0.5,1.5-0.1c0.4,0.4,0.5,1.1,0.1,1.5c-0.2,0.2-0.5,0.4-0.8,0.4
				C116.6,34.7,116.3,34.6,116.1,34.4z M109.2,34.5c-0.4-0.4-0.4-1.1,0-1.5c0,0,0,0,0,0c0.4-0.4,1.1-0.4,1.5,0
				c0.4,0.4,0.4,1.1,0,1.5c-0.2,0.2-0.5,0.3-0.8,0.3C109.7,34.8,109.4,34.7,109.2,34.5z M117.4,37c0-0.6,0.4-1.1,1-1.1c0,0,0,0,0,0
				c0.6,0,1.1,0.4,1.1,1c0,0.6-0.4,1.1-1,1.1h0C117.9,38.1,117.4,37.6,117.4,37L117.4,37z M107.5,37.3L107.5,37.3
				c0-0.7,0.5-1.1,1.1-1.1c0.6,0,1.1,0.5,1.1,1.1c0,0.6-0.5,1.1-1.1,1.1h0C108,38.4,107.5,37.9,107.5,37.3L107.5,37.3z M116.4,41.4
				c-0.4-0.4-0.5-1.1,0-1.5c0,0,0,0,0,0c0.4-0.4,1.1-0.5,1.5,0c0.4,0.4,0.5,1.1,0.1,1.5c-0.2,0.2-0.5,0.3-0.8,0.3
				C116.9,41.7,116.6,41.6,116.4,41.4z M109.3,41.5c-0.4-0.4-0.4-1.1,0-1.5c0,0,0,0,0,0c0.4-0.4,1.1-0.4,1.5,0
				c0.4,0.4,0.4,1.1,0,1.5C110.5,41.9,109.8,42,109.3,41.5z M112.6,42.1c0-0.6,0.5-1.1,1-1.1c0,0,0,0,0,0c0.6,0,1.1,0.4,1.1,1
				c0,0.6-0.4,1.1-1,1.1c0,0,0,0,0,0h0C113.1,43.2,112.6,42.7,112.6,42.1z M8,147.8c0-0.6,0.5-1.1,1.1-1.1c0.6,0,1.1,0.5,1.1,1.1
				c0,0.6-0.5,1.1-1.1,1.1C8.5,148.9,8.1,148.4,8,147.8C8,147.8,8,147.8,8,147.8z M11.7,149.9c-0.4-0.4-0.5-1.1-0.1-1.5c0,0,0,0,0,0
				c0.4-0.4,1.1-0.5,1.5-0.1c0.4,0.4,0.5,1.1,0.1,1.5c-0.2,0.2-0.5,0.4-0.8,0.4C12.2,150.2,11.9,150.1,11.7,149.9z M4.9,150.1
				c-0.4-0.4-0.4-1.1,0-1.5c0,0,0,0,0,0c0.4-0.4,1.1-0.4,1.5,0c0.4,0.4,0.4,1.1,0,1.5c-0.2,0.2-0.5,0.3-0.8,0.3
				C5.3,150.4,5.1,150.3,4.9,150.1z M13,152.6c0-0.6,0.4-1.1,1-1.1c0,0,0,0,0,0c0.6,0,1.1,0.4,1.1,1c0,0.6-0.4,1.1-1,1.1h0
				C13.5,153.6,13,153.2,13,152.6L13,152.6z M3.1,152.9c0-0.7,0.5-1.1,1.1-1.1c0.6,0,1.1,0.5,1.1,1.1c0,0.6-0.5,1.1-1.1,1.1h0
				C3.6,153.9,3.1,153.4,3.1,152.9z M12,156.9c-0.4-0.4-0.5-1.1-0.1-1.5c0,0,0,0,0,0c0.4-0.4,1.1-0.5,1.5,0c0.4,0.4,0.5,1.1,0,1.5
				c-0.2,0.2-0.5,0.3-0.8,0.3C12.5,157.2,12.2,157.1,12,156.9z M5,157.1c-0.4-0.4-0.4-1.1,0-1.5c0,0,0,0,0,0c0.4-0.4,1.1-0.4,1.5,0
				c0.4,0.4,0.4,1.1,0,1.5c-0.2,0.2-0.5,0.3-0.8,0.3C5.4,157.4,5.2,157.3,5,157.1z M8.2,157.7c0-0.6,0.5-1.1,1.1-1.1c0,0,0,0,0,0
				c0.6,0,1.1,0.4,1.1,1c0,0.6-0.4,1.1-1,1.1c0,0,0,0,0,0h0C8.7,158.7,8.2,158.3,8.2,157.7L8.2,157.7z"/>
			<path class="st1" d="M52.7,147.5h74.5v2H53.4L52.7,147.5z"/>
		</g>
	</g>
</g>
</svg>
