<?xml version="1.0" encoding="utf-8"?>
<!-- Generator: Adobe Illustrator 22.1.0, SVG Export Plug-In . SVG Version: 6.00 Build 0)  -->
<svg version="1.1" id="Слой_1" xmlns="http://www.w3.org/2000/svg" xmlns:xlink="http://www.w3.org/1999/xlink" x="0px" y="0px"
	 viewBox="0 0 180 180" style="enable-background:new 0 0 180 180;" xml:space="preserve">
<style type="text/css">
	.st0{filter:url(#Adobe_OpacityMaskFilter);}
	.st1{fill:#FFFFFF;}
	.st2{mask:url(#b_1_);}
	.st3{fill:#DAD3FF;}
	.st4{fill:#566386;}
	.st5{fill:#654BFA;}
</style>
<g transform="translate(-3 -17)">
	<defs>
		<filter id="Adobe_OpacityMaskFilter" filterUnits="userSpaceOnUse" x="6.5" y="33.8" width="173.4" height="146.5">
			<feColorMatrix  type="matrix" values="1 0 0 0 0  0 1 0 0 0  0 0 1 0 0  0 0 0 1 0"/>
		</filter>
	</defs>
	<mask maskUnits="userSpaceOnUse" x="6.5" y="33.8" width="173.4" height="146.5" id="b_1_">
		<g class="st0">
			<path id="a_1_" class="st1" d="M3,16.5h180v180H3V16.5z"/>
		</g>
	</mask>
	<g class="st2">
		<path class="st3" d="M26.7,71.8c-8.7,0-15.7-7-15.7-15.7c0-8.7,7-15.7,15.7-15.7c8.7,0,15.7,7,15.7,15.7S35.4,71.8,26.7,71.8
			L26.7,71.8z M26.7,36.7C16,36.7,7.3,45.4,7.3,56.1c0,10.7,8.7,19.4,19.4,19.4c10.7,0,19.4-8.7,19.4-19.4
			C46.1,45.4,37.4,36.7,26.7,36.7L26.7,36.7z M47,126.6H141v-18.8H47V126.6z M47,149.3h14.4v-14.4H47V149.3z M73.5,149.3h14.4v-14.4
			H73.5V149.3z M100,149.3h14.4v-14.4H100V149.3z M126.4,149.3H141v-14.4h-14.5V149.3z M18.7,89.5h16.1v-4.7H18.7V89.5z"/>
		<path class="st4" d="M44.5,92.6c-1.5,0-2.7,1.2-2.7,2.6v79.2c0,1.5,1.2,2.7,2.8,2.7h98.9c1.5,0,2.7-1.2,2.7-2.7V95.1
			c0-1.4-1.2-2.5-2.6-2.5H44.5z M143.5,178.7H44.6c-2.4,0-4.4-2-4.4-4.4V95.2c0-2.3,1.9-4.3,4.3-4.3h99.1c2.4,0,4.3,1.9,4.3,4.2
			v79.3C147.8,176.8,145.9,178.7,143.5,178.7L143.5,178.7z"/>
		<path class="st4" d="M134.9,102.3H41.7c-0.5,0-0.8-0.4-0.8-0.9c0-0.4,0.4-0.8,0.8-0.8h93.2c0.5,0,0.8,0.4,0.8,0.9
			C135.7,101.9,135.3,102.3,134.9,102.3"/>
		<path class="st4" d="M61,101.6c-0.5,0-0.8-0.4-0.8-0.8v-8.4c0-0.5,0.4-0.8,0.8-0.8c0.5,0,0.8,0.4,0.8,0.8v8.4
			C61.9,101.2,61.5,101.6,61,101.6 M47.5,95.5c-0.5,0-0.9,0.5-0.9,1c0,0.5,0.4,0.8,0.9,0.9c0.5,0,0.9-0.5,0.9-1
			C48.3,95.9,48,95.6,47.5,95.5z M47.5,99c-1.4,0-2.6-1.2-2.6-2.6c0-1.4,1.2-2.6,2.6-2.6c1.4,0,2.6,1.2,2.6,2.6
			C50.1,97.9,48.9,99,47.5,99z M54.5,95.5c-0.5,0-0.9,0.5-0.9,1c0,0.5,0.4,0.8,0.9,0.9c0.5,0,0.9-0.5,0.9-1
			C55.3,95.9,55,95.6,54.5,95.5z M54.5,99c-1.4,0-2.6-1.2-2.6-2.6c0-1.4,1.2-2.6,2.6-2.6c1.4,0,2.6,1.2,2.6,2.6
			C57.1,97.9,55.9,99,54.5,99z M119.1,95.7H64.9c-0.5,0-0.8-0.4-0.8-0.8s0.4-0.8,0.8-0.8h54.3c0.5,0,0.8,0.4,0.8,0.9
			C119.9,95.3,119.6,95.6,119.1,95.7 M94,99.1H64.9c-0.5,0-0.8-0.4-0.8-0.8s0.4-0.8,0.8-0.8H94c0.5,0,0.8,0.4,0.8,0.8
			S94.4,99.1,94,99.1 M146.3,102.3h-4.7c-0.5,0-0.8-0.4-0.8-0.9c0-0.4,0.4-0.8,0.8-0.8h4.7c0.5,0,0.8,0.4,0.8,0.9
			C147.1,101.9,146.7,102.3,146.3,102.3 M47.9,125.7h92.3v-17.2H47.9V125.7z M141.8,126.5c0,0.5-0.4,0.8-0.8,0.8H47.1
			c-0.5,0-0.8-0.4-0.8-0.8l0,0v-18.8c0-0.5,0.4-0.8,0.8-0.8H141c0.5,0,0.8,0.4,0.8,0.8L141.8,126.5L141.8,126.5z M141.1,170H47
			c-0.5,0-0.8-0.4-0.8-0.9c0-0.4,0.4-0.8,0.8-0.8h94.1c0.5,0,0.8,0.4,0.8,0.9C141.9,169.6,141.5,170,141.1,170 M47.9,148.4h12.7
			v-12.7H47.9V148.4L47.9,148.4z M62.3,149.2c0,0.5-0.4,0.8-0.8,0.8H47.1c-0.5,0-0.8-0.4-0.8-0.8v-14.4c0-0.5,0.4-0.8,0.8-0.8h14.4
			c0.5,0,0.8,0.4,0.8,0.8L62.3,149.2L62.3,149.2z M74.4,148.4h12.7v-12.7H74.4V148.4L74.4,148.4z M88.8,149.2c0,0.5-0.4,0.8-0.8,0.8
			H73.5c-0.5,0-0.8-0.4-0.8-0.8v-14.4c0-0.5,0.4-0.8,0.8-0.8H88c0.5,0,0.8,0.4,0.8,0.8L88.8,149.2L88.8,149.2z M100.9,148.4h12.7
			v-12.7h-12.7V148.4L100.9,148.4z M115.3,149.2c0,0.5-0.4,0.8-0.8,0.8H100c-0.5,0-0.8-0.4-0.8-0.8v-14.4c0-0.5,0.4-0.8,0.8-0.8
			h14.4c0.5,0,0.8,0.4,0.8,0.8V149.2z M127.3,148.4h12.9v-12.7h-12.8L127.3,148.4L127.3,148.4z M141.8,149.2c0,0.5-0.4,0.8-0.8,0.8
			h-14.5c-0.5,0-0.8-0.4-0.8-0.8v-14.4c0-0.5,0.4-0.8,0.8-0.8H141c0.5,0,0.8,0.4,0.8,0.8L141.8,149.2L141.8,149.2z M141.1,161H47
			c-0.5,0-0.8-0.4-0.8-0.8c0-0.5,0.4-0.8,0.8-0.8h94.1c0.5,0,0.8,0.4,0.8,0.8C141.9,160.6,141.5,161,141.1,161 M26.7,41.2
			c-8.2,0-14.9,6.7-14.9,14.9S18.5,71,26.7,71c8.2,0,14.9-6.7,14.9-14.9S34.9,41.2,26.7,41.2z M26.7,72.7c-9.1,0-16.6-7.4-16.6-16.6
			s7.4-16.6,16.6-16.6c9.1,0,16.6,7.4,16.6,16.6S35.8,72.7,26.7,72.7z"/>
		<path class="st4" d="M26.7,37.6c-10.2,0-18.6,8.3-18.6,18.6s8.3,18.6,18.6,18.6c10.2,0,18.6-8.3,18.6-18.6S36.9,37.6,26.7,37.6z
			 M26.7,76.3c-11.1,0-20.2-9.1-20.2-20.2s9.1-20.2,20.2-20.2S46.9,45,46.9,56.1S37.8,76.3,26.7,76.3z"/>
		<path class="st4" d="M26.7,85.6c-0.5,0-0.8-0.4-0.8-0.8v-9.3c0-0.5,0.4-0.8,0.8-0.8c0.5,0,0.8,0.4,0.8,0.8v9.3
			C27.5,85.3,27.1,85.6,26.7,85.6"/>
		<path class="st4" d="M34.1,90.2h-3.9c-0.5,0-0.8-0.4-0.8-0.9c0-0.4,0.4-0.8,0.8-0.8h3.7v-2.9H19.4v2.9h6.5c0.5,0,0.8,0.4,0.8,0.8
			c0,0.5-0.4,0.8-0.8,0.8h-6.7c-0.8,0-1.5-0.6-1.5-1.4v-3.4c0-0.8,0.7-1.4,1.5-1.4h14.9c0.8,0,1.5,0.6,1.5,1.4v3.4
			C35.6,89.6,34.9,90.2,34.1,90.2"/>
		<path class="st4" d="M26.7,118.7c-3,0-5.5-2.5-5.5-5.5V89.4c0-0.5,0.4-0.8,0.8-0.8c0.5,0,0.8,0.4,0.8,0.8v23.7
			c0,2.1,1.7,3.8,3.8,3.8c2.1,0,3.8-1.7,3.8-3.8V89.4c0-0.5,0.4-0.8,0.8-0.8c0.5,0,0.8,0.4,0.8,0.8v23.7
			C32.2,116.2,29.7,118.7,26.7,118.7"/>
		<path class="st4" d="M26.5,93.7h-4.4c-0.5,0-0.8-0.4-0.8-0.8c0-0.5,0.4-0.8,0.8-0.8h4.4c0.5,0,0.8,0.4,0.8,0.9
			C27.3,93.3,27,93.6,26.5,93.7 M30.3,93.7h-0.6c-0.5,0-0.8-0.4-0.8-0.8c0-0.5,0.4-0.8,0.8-0.8h0.6c0.5,0,0.8,0.4,0.8,0.9
			C31.1,93.3,30.7,93.6,30.3,93.7 M38.6,58.1c-0.5,0-0.8-0.4-0.8-0.8c0,0,0,0,0,0c0-6.7-5.5-12.2-12.2-12.2c-0.5,0-0.8-0.4-0.8-0.8
			c0-0.5,0.4-0.8,0.8-0.8c7.7,0,13.9,6.2,13.9,13.9C39.5,57.7,39.1,58.1,38.6,58.1 M169.1,57.1c0.2,0,0.4,0.1,0.5,0.2l6.2,6.2
			l2.2-2.2l-6.2-6.2c-0.3-0.3-0.3-0.8,0-1.1c0,0,0,0,0,0l2.1-2.1l-8.8-1.2l1.2,8.8l2.2-2.2C168.6,57.2,168.8,57.1,169.1,57.1
			L169.1,57.1z M175.8,65.4c-0.2,0-0.4-0.1-0.5-0.2l-6.2-6.2l-2.8,2.8c-0.3,0.3-0.8,0.3-1.1,0c-0.1-0.1-0.2-0.3-0.2-0.4L163.4,50
			c-0.1-0.4,0.2-0.8,0.7-0.9c0.1,0,0.1,0,0.2,0l11.3,1.5c0.4,0.1,0.7,0.4,0.7,0.9c0,0.2-0.1,0.3-0.2,0.4l-2.7,2.7l6.2,6.2
			c0.3,0.3,0.3,0.8,0,1.1l-3.3,3.3C176.2,65.3,176,65.4,175.8,65.4L175.8,65.4z"/>
		<path class="st5" d="M54.1,56.9h-1.3c-0.4,0-0.8-0.3-0.8-0.8c0-0.4,0.3-0.8,0.8-0.8h1.3c0.4,0,0.8,0.3,0.8,0.8
			C54.9,56.5,54.5,56.9,54.1,56.9C54.1,56.9,54.1,56.9,54.1,56.9 M61.6,56.9H59c-0.4,0-0.8-0.3-0.8-0.8c0-0.4,0.3-0.8,0.8-0.8h2.7
			c0.4,0,0.8,0.3,0.8,0.8C62.4,56.5,62.1,56.9,61.6,56.9C61.6,56.9,61.6,56.9,61.6,56.9L61.6,56.9z M69.2,56.9h-2.7
			c-0.4,0-0.8-0.3-0.8-0.8c0-0.4,0.3-0.8,0.8-0.8l0,0h2.7c0.4,0,0.8,0.3,0.8,0.8C69.9,56.5,69.6,56.9,69.2,56.9
			C69.2,56.9,69.2,56.9,69.2,56.9L69.2,56.9z M76.7,56.9H74c-0.4,0-0.8-0.3-0.8-0.8c0-0.4,0.3-0.8,0.8-0.8h2.7
			c0.4,0,0.8,0.3,0.8,0.8C77.5,56.5,77.1,56.9,76.7,56.9C76.7,56.9,76.7,56.9,76.7,56.9L76.7,56.9z M84.2,56.9h-2.7
			c-0.4,0-0.8-0.3-0.8-0.8c0-0.4,0.3-0.8,0.8-0.8h2.7c0.4,0,0.8,0.3,0.8,0.8C85,56.5,84.7,56.9,84.2,56.9
			C84.2,56.9,84.2,56.9,84.2,56.9L84.2,56.9z M91.8,56.9h-2.7c-0.4,0-0.8-0.3-0.8-0.8c0-0.4,0.3-0.8,0.8-0.8h2.7
			c0.4,0,0.8,0.3,0.8,0.8C92.6,56.5,92.2,56.9,91.8,56.9C91.8,56.9,91.8,56.9,91.8,56.9L91.8,56.9z M99.3,56.9h-2.7
			c-0.4,0-0.8-0.3-0.8-0.8c0-0.4,0.3-0.8,0.8-0.8h2.7c0.4,0,0.8,0.3,0.8,0.8C100.1,56.5,99.7,56.9,99.3,56.9
			C99.3,56.9,99.3,56.9,99.3,56.9L99.3,56.9z M106.8,56.9h-2.7c-0.4,0-0.8-0.3-0.8-0.8c0-0.4,0.3-0.8,0.8-0.8h2.7
			c0.4,0,0.8,0.3,0.8,0.8C107.6,56.5,107.3,56.9,106.8,56.9C106.8,56.9,106.8,56.9,106.8,56.9L106.8,56.9z M114.4,56.9h-2.7
			c-0.4,0-0.8-0.3-0.8-0.8c0-0.4,0.3-0.8,0.8-0.8l0,0h2.7c0.4,0,0.8,0.3,0.8,0.8C115.2,56.5,114.8,56.9,114.4,56.9
			C114.4,56.9,114.4,56.9,114.4,56.9L114.4,56.9z M121.9,56.9h-2.7c-0.4,0-0.8-0.3-0.8-0.8c0-0.4,0.3-0.8,0.8-0.8h2.7
			c0.4,0,0.8,0.3,0.8,0.8C122.7,56.5,122.3,56.9,121.9,56.9C121.9,56.9,121.9,56.9,121.9,56.9L121.9,56.9z M129.4,56.9h-2.7
			c-0.4,0-0.8-0.3-0.8-0.8c0-0.4,0.3-0.8,0.8-0.8h2.7c0.4,0,0.8,0.3,0.8,0.8C130.2,56.5,129.9,56.9,129.4,56.9
			C129.4,56.9,129.4,56.9,129.4,56.9L129.4,56.9z M137,56.9h-2.7c-0.4,0-0.8-0.3-0.8-0.8c0-0.4,0.3-0.8,0.8-0.8h2.7
			c0.4,0,0.8,0.3,0.8,0.8S137.4,56.9,137,56.9C137,56.9,137,56.9,137,56.9L137,56.9z M144.5,56.9h-2.7c-0.4,0-0.8-0.3-0.8-0.8
			c0-0.4,0.3-0.8,0.8-0.8l0,0h2.7c0.4,0,0.8,0.3,0.8,0.8S144.9,56.9,144.5,56.9C144.5,56.9,144.5,56.9,144.5,56.9L144.5,56.9z
			 M152,56.9h-2.7c-0.4,0-0.8-0.3-0.8-0.8c0-0.4,0.3-0.8,0.8-0.8h2.7c0.4,0,0.8,0.3,0.8,0.8S152.5,56.9,152,56.9
			C152,56.9,152,56.9,152,56.9L152,56.9z M157.9,58.3c-0.4,0-0.8-0.3-0.8-0.8c0,0,0,0,0,0v-0.7h-0.7c-0.4,0-0.8-0.3-0.8-0.8
			s0.3-0.8,0.8-0.8c0,0,0,0,0,0h1.4c0.4,0,0.8,0.3,0.8,0.8v1.4C158.7,58,158.3,58.3,157.9,58.3C157.9,58.3,157.9,58.3,157.9,58.3
			 M157.9,66.1c-0.4,0-0.8-0.3-0.8-0.8v-2.8c0-0.4,0.3-0.8,0.8-0.8c0.4,0,0.8,0.3,0.8,0.8v2.8C158.7,65.7,158.3,66.1,157.9,66.1
			L157.9,66.1z M157.9,73.8c-0.4,0-0.8-0.3-0.8-0.8v-2.8c0-0.4,0.3-0.8,0.8-0.8c0.4,0,0.8,0.3,0.8,0.8v2.8
			C158.7,73.5,158.3,73.8,157.9,73.8L157.9,73.8z M157.9,81.6c-0.4,0-0.8-0.3-0.8-0.8V78c0-0.4,0.3-0.8,0.8-0.8
			c0.4,0,0.8,0.3,0.8,0.8v2.8C158.7,81.2,158.3,81.6,157.9,81.6L157.9,81.6z M157.9,89.3c-0.4,0-0.8-0.3-0.8-0.8v-2.8
			c0-0.4,0.3-0.8,0.8-0.8c0.4,0,0.8,0.3,0.8,0.8v2.8C158.7,89,158.3,89.3,157.9,89.3L157.9,89.3z M157.9,97.1
			c-0.4,0-0.8-0.3-0.8-0.8v-2.8c0-0.4,0.3-0.8,0.8-0.8c0.4,0,0.8,0.3,0.8,0.8v2.8C158.7,96.8,158.3,97.1,157.9,97.1L157.9,97.1z
			 M157.9,104.9c-0.4,0-0.8-0.3-0.8-0.8v-2.8c0-0.4,0.3-0.8,0.8-0.8c0.4,0,0.8,0.3,0.8,0.8l0,0v2.8
			C158.7,104.5,158.3,104.9,157.9,104.9L157.9,104.9z M157.9,112.6c-0.4,0-0.8-0.3-0.8-0.8v-2.8c0-0.4,0.3-0.8,0.8-0.8
			c0.4,0,0.8,0.3,0.8,0.8v2.8C158.7,112.3,158.3,112.6,157.9,112.6L157.9,112.6z M157.9,120.4c-0.4,0-0.8-0.3-0.8-0.8v-2.8
			c0-0.4,0.3-0.8,0.8-0.8c0.4,0,0.8,0.3,0.8,0.8v2.8C158.7,120,158.3,120.4,157.9,120.4L157.9,120.4z M157.9,128.1
			c-0.4,0-0.8-0.3-0.8-0.8v-2.8c0-0.4,0.3-0.8,0.8-0.8c0.4,0,0.8,0.3,0.8,0.8v2.8C158.7,127.8,158.3,128.1,157.9,128.1L157.9,128.1z
			 M157.9,135.9c-0.4,0-0.8-0.3-0.8-0.8v-2.8c0-0.4,0.3-0.8,0.8-0.8c0.4,0,0.8,0.3,0.8,0.8v2.8C158.7,135.5,158.3,135.9,157.9,135.9
			L157.9,135.9z M157.9,142.8h-1.4c-0.4,0-0.8-0.3-0.8-0.8s0.3-0.8,0.8-0.8h0.7v-0.6c0-0.4,0.3-0.8,0.8-0.8c0.4,0,0.8,0.3,0.8,0.8
			l0,0v1.3C158.7,142.5,158.3,142.8,157.9,142.8 M152.9,142.8h-1.3c-0.4,0-0.8-0.3-0.8-0.8s0.3-0.8,0.8-0.8h1.3
			c0.4,0,0.8,0.3,0.8,0.8C153.7,142.5,153.4,142.8,152.9,142.8 M26.6,140.6c-0.4,0-0.8-0.3-0.8-0.8l0,0v-5c0-0.4,0.3-0.8,0.8-0.8
			c0.4,0,0.8,0.3,0.8,0.8c0,0,0,0,0,0v5C27.4,140.3,27.1,140.6,26.6,140.6C26.6,140.6,26.6,140.6,26.6,140.6"/>
		<path class="st5" d="M29.2,138.2h-5c-0.4,0-0.8-0.3-0.8-0.8s0.3-0.8,0.8-0.8h5c0.4,0,0.8,0.3,0.8,0.8S29.6,138.2,29.2,138.2
			 M174.1,120c-0.4,0-0.8-0.3-0.8-0.8c0,0,0,0,0,0v-5c0-0.4,0.3-0.8,0.8-0.8c0.4,0,0.8,0.3,0.8,0.8v5
			C174.9,119.7,174.5,120,174.1,120C174.1,120,174.1,120,174.1,120"/>
		<path class="st5" d="M176.6,117.6h-5c-0.4,0-0.8-0.3-0.8-0.8c0-0.4,0.3-0.8,0.8-0.8h5c0.4,0,0.8,0.3,0.8,0.8
			S177.1,117.6,176.6,117.6 M85.8,78.2c-0.4,0-0.8-0.3-0.8-0.8l0,0v-5c0-0.4,0.3-0.8,0.8-0.8s0.8,0.3,0.8,0.8v5
			C86.6,77.8,86.2,78.2,85.8,78.2L85.8,78.2"/>
		<path class="st5" d="M88.3,75.7h-5c-0.4,0-0.8-0.3-0.8-0.8c0-0.4,0.3-0.8,0.8-0.8c0,0,0,0,0,0h5c0.4,0,0.8,0.3,0.8,0.8
			C89.1,75.4,88.8,75.7,88.3,75.7C88.3,75.7,88.3,75.7,88.3,75.7 M133.8,45.7c-0.4,0-0.8-0.3-0.8-0.8c0,0,0,0,0,0v-5
			c0-0.4,0.3-0.8,0.8-0.8s0.8,0.3,0.8,0.8l0,0v5C134.5,45.4,134.2,45.7,133.8,45.7C133.8,45.7,133.8,45.7,133.8,45.7"/>
		<path class="st5" d="M136.3,43.3h-5c-0.4,0-0.8-0.3-0.8-0.8s0.3-0.8,0.8-0.8h5c0.4,0,0.8,0.3,0.8,0.8S136.7,43.3,136.3,43.3
			C136.3,43.3,136.3,43.3,136.3,43.3"/>
		<path class="st4" d="M14.9,169.2c0-0.6,0.5-1.1,1.1-1.1c0.6,0,1.1,0.5,1.1,1.1c0,0,0,0,0,0.1c0,0.6-0.5,1.1-1.1,1.1
			C15.4,170.2,14.9,169.7,14.9,169.2z M18.6,171.3c-0.5-0.4-0.5-1.1-0.1-1.6c0.4-0.5,1.1-0.5,1.6-0.1s0.5,1.1,0.1,1.6
			C19.8,171.7,19.1,171.7,18.6,171.3C18.6,171.3,18.6,171.3,18.6,171.3z M11.6,171.4c-0.4-0.4-0.4-1.1,0-1.6c0.4-0.4,1.1-0.4,1.6,0
			s0.4,1.1,0,1.6C12.7,171.9,12,171.9,11.6,171.4L11.6,171.4z M19.9,174c0-0.6,0.5-1.1,1.1-1.1c0,0,0,0,0,0c0.6,0,1.1,0.4,1.1,1
			c0,0,0,0,0,0c0,0.6-0.5,1.1-1.1,1.1h0C20.4,175.1,19.9,174.6,19.9,174z M9.8,174.3c0-0.6,0.5-1.1,1.1-1.1c0.6,0,1.1,0.5,1.1,1.1
			s-0.5,1.1-1.1,1.1h0C10.3,175.4,9.8,174.9,9.8,174.3z M18.9,178.5c-0.5-0.4-0.5-1.1-0.1-1.6s1.1-0.5,1.6-0.1c0,0,0,0,0,0
			c0.4,0.4,0.5,1.1,0,1.6C20,178.8,19.3,178.9,18.9,178.5z M11.7,178.6c-0.5-0.4-0.5-1.1-0.1-1.6s1.1-0.5,1.6-0.1c0,0,0,0,0,0
			c0.4,0.4,0.4,1.1,0,1.6C12.8,179,12.1,179,11.7,178.6z M15,179.2c0-0.6,0.5-1.1,1.1-1.1c0,0,0,0,0,0c0.6,0,1.1,0.4,1.1,1.1
			c0,0,0,0,0,0c0,0.6-0.5,1.1-1,1.1c0,0,0,0,0,0h0C15.5,180.3,15,179.8,15,179.2z M170.5,160.2c0-0.6,0.5-1.1,1.1-1.1v0
			c0.6,0,1.1,0.5,1.1,1.1c0,0.6-0.5,1.1-1.1,1.1S170.5,160.8,170.5,160.2L170.5,160.2L170.5,160.2z M174.3,162.3
			c-0.5-0.4-0.5-1.1-0.1-1.6s1.1-0.5,1.6-0.1l0,0c0.5,0.4,0.5,1.1,0.1,1.6S174.7,162.7,174.3,162.3z M167.3,162.5
			c-0.4-0.4-0.4-1.1,0-1.6c0.4-0.4,1.1-0.4,1.6,0c0,0,0,0,0,0c0.4,0.4,0.4,1.1,0,1.6C168.4,162.9,167.7,162.9,167.3,162.5z
			 M175.6,165.1c0-0.6,0.4-1.1,1-1.1c0,0,0,0,0,0c0.6,0,1.1,0.5,1.1,1.1v0c0,0.6-0.4,1.1-1,1.1h0
			C176.1,166.1,175.6,165.7,175.6,165.1L175.6,165.1z M165.5,165.3c0-0.6,0.5-1.1,1.1-1.1c0.6,0,1.1,0.5,1.1,1.1
			c0,0.6-0.5,1.1-1.1,1.1h0C166,166.4,165.5,165.9,165.5,165.3L165.5,165.3z M174.5,169.5c-0.5-0.4-0.5-1.1-0.1-1.6
			c0.4-0.5,1.1-0.5,1.6-0.1c0,0,0,0,0,0c0.4,0.4,0.5,1.1,0,1.6C175.7,169.9,175,169.9,174.5,169.5z M167.4,169.6
			c-0.4-0.4-0.5-1.1,0-1.6c0.4-0.4,1.1-0.5,1.6,0c0,0,0,0,0,0c0.4,0.4,0.4,1.1,0,1.6C168.5,170,167.8,170,167.4,169.6L167.4,169.6z
			 M170.6,170.3c0-0.6,0.5-1.1,1.1-1.1c0,0,0,0,0,0c0.6,0,1.1,0.4,1.1,1c0,0,0,0,0,0c0,0.6-0.5,1.1-1.1,1.1c0,0,0,0,0,0h0
			C171.2,171.3,170.7,170.9,170.6,170.3L170.6,170.3z M130.4,74.9c0-0.6,0.5-1.1,1.1-1.1c0.6,0,1.1,0.5,1.1,1.1c0,0,0,0,0,0.1
			c0,0.6-0.5,1.1-1.1,1.1C130.9,76,130.4,75.5,130.4,74.9z M134.2,77c-0.5-0.4-0.5-1.1-0.1-1.6c0.4-0.5,1.1-0.5,1.6-0.1l0,0
			c0.5,0.4,0.5,1.1,0.1,1.6C135.3,77.4,134.6,77.4,134.2,77z M127.2,77.2c-0.4-0.4-0.4-1.1,0-1.6c0.4-0.4,1.1-0.4,1.6,0
			c0.4,0.4,0.4,1.1,0,1.6S127.6,77.6,127.2,77.2L127.2,77.2z M135.4,79.8c0-0.6,0.5-1.1,1.1-1.1c0,0,0,0,0,0c0.6,0,1.1,0.4,1.1,1
			c0,0,0,0,0,0c0,0.6-0.5,1.1-1.1,1.1h0C136,80.8,135.5,80.4,135.4,79.8L135.4,79.8z M125.4,80c0-0.6,0.5-1.1,1.1-1.1
			c0.6,0,1.1,0.5,1.1,1.1s-0.5,1.1-1.1,1.1h0C125.9,81.1,125.4,80.6,125.4,80L125.4,80z M134.4,84.2c-0.5-0.4-0.5-1.1-0.1-1.6
			s1.1-0.5,1.6-0.1c0,0,0,0,0,0c0.4,0.4,0.5,1.1,0,1.6C135.6,84.6,134.9,84.6,134.4,84.2z M127.3,84.4c-0.4-0.4-0.5-1.1,0-1.6
			c0.4-0.4,1.1-0.5,1.6,0c0.4,0.4,0.5,1.1,0,1.6C128.4,84.8,127.7,84.8,127.3,84.4L127.3,84.4z M130.5,85c0-0.6,0.5-1.1,1.1-1.1
			c0,0,0,0,0,0c0.6,0,1.1,0.4,1.1,1c0,0,0,0,0,0c0,0.6-0.5,1.1-1,1.1c0,0,0,0,0,0h0C131,86,130.6,85.6,130.5,85L130.5,85z
			 M79.7,34.9c0-0.6,0.5-1.1,1.1-1.1c0.6,0,1.1,0.5,1.1,1.1c0,0,0,0,0,0.1c0,0.6-0.5,1.1-1.1,1.1C80.2,36,79.7,35.5,79.7,34.9z
			 M83.4,37c-0.5-0.4-0.5-1.1-0.1-1.6c0.4-0.5,1.1-0.5,1.6-0.1c0,0,0,0,0,0c0.4,0.4,0.5,1.1,0.1,1.6C84.6,37.4,83.9,37.5,83.4,37z
			 M76.4,37.2c-0.4-0.4-0.4-1.1,0-1.6c0.4-0.4,1.1-0.4,1.6,0c0.4,0.4,0.4,1.1,0,1.6C77.6,37.6,76.9,37.6,76.4,37.2L76.4,37.2z
			 M84.7,39.8c0-0.6,0.5-1.1,1.1-1.1c0,0,0,0,0,0c0.6,0,1.1,0.4,1.1,1c0,0,0,0,0,0c0,0.6-0.5,1.1-1.1,1.1h0
			C85.2,40.8,84.7,40.4,84.7,39.8z M74.6,40c0-0.6,0.5-1.1,1.1-1.1c0.6,0,1.1,0.5,1.1,1.1c0,0.6-0.5,1.1-1.1,1.1h0
			C75.1,41.2,74.6,40.6,74.6,40z M83.7,44.2c-0.5-0.4-0.5-1.1-0.1-1.6c0.4-0.5,1.1-0.5,1.6-0.1c0,0,0,0,0,0c0.4,0.4,0.5,1.1,0,1.6
			C84.8,44.6,84.1,44.6,83.7,44.2z M76.5,44.4c-0.4-0.4-0.5-1.1,0-1.6c0.4-0.4,1.1-0.5,1.6,0c0,0,0,0,0,0c0.4,0.4,0.4,1.1,0,1.6
			C77.6,44.8,77,44.8,76.5,44.4z M79.8,45c0-0.6,0.5-1.1,1.1-1.1c0,0,0,0,0,0c0.6,0,1.1,0.5,1.1,1.1c0,0.6-0.5,1.1-1,1.1
			c0,0,0,0,0,0h0C80.3,46,79.8,45.6,79.8,45z"/>
	</g>
</g>
</svg>
