<?xml version="1.0" encoding="utf-8"?>
<!-- Generator: Adobe Illustrator 22.1.0, SVG Export Plug-In . SVG Version: 6.00 Build 0)  -->
<svg version="1.1" id="Слой_1" xmlns="http://www.w3.org/2000/svg" xmlns:xlink="http://www.w3.org/1999/xlink" x="0px" y="0px"
	 viewBox="0 0 180 180" style="enable-background:new 0 0 180 180;" xml:space="preserve">
<style type="text/css">
	.st0{fill:#FFFFFF;}
	.st1{fill:#DAD3FF;}
	.st2{fill:#566386;}
	.st3{fill:#654BFA;}
</style>
<g transform="translate(3.000000, 17.000000)">
	<g>
		<polygon class="st0" points="32.5,14.2 26.3,9.5 21.4,8 18.2,8.4 10.2,11.7 5.6,17.9 4.5,27 6.9,32.5 12.5,37.8 20.2,39.8 
			29.9,37.1 34.4,31.3 35.9,21.6 		"/>
		<polygon class="st0" points="15.2,82.5 17.9,85.6 22.3,85.6 25,82.5 25,57.4 15.2,57.4 		"/>
		<polygon class="st0" points="139.7,60.5 136.9,59.8 37.2,59.8 35.8,60.5 34.4,62.8 34.4,143.2 35.8,145.3 40.4,146.1 138.2,145.3 
			139.7,145.3 140.6,143.2 140.6,62.8 		"/>
	</g>
	<g>
		<path class="st1" d="M20.2,4.7C9.5,4.7,0.8,13.4,0.8,24.1s8.7,19.4,19.4,19.4s19.4-8.7,19.4-19.4S30.9,4.7,20.2,4.7z M20.2,39.8
			c-8.7,0-15.7-7-15.7-15.7s7-15.7,15.7-15.7s15.7,7,15.7,15.7S28.9,39.8,20.2,39.8z"/>
		<rect x="40.5" y="75.7" class="st1" width="93.9" height="18.8"/>
		<rect x="40.5" y="102.9" class="st1" width="14.4" height="14.4"/>
		<rect x="67" y="102.9" class="st1" width="14.4" height="14.4"/>
		<rect x="93.5" y="102.9" class="st1" width="14.4" height="14.4"/>
		<rect x="120" y="102.9" class="st1" width="14.5" height="14.4"/>
		<rect x="12.2" y="52.8" class="st1" width="16.1" height="4.7"/>
	</g>
	<g>
		<path class="st2" d="M137,58.9H38c-2.4,0-4.3,1.9-4.3,4.3v79.2c0,2.4,2,4.4,4.4,4.4H137c2.4,0,4.4-1.9,4.4-4.3V63.1
			C141.3,60.8,139.4,58.9,137,58.9z M38,60.6h15.7v8.1H35.3v-5.5C35.3,61.7,36.5,60.6,38,60.6z M137,145.1H38.1
			c-1.5,0-2.8-1.2-2.8-2.7v-72h93.1c0.5,0,0.8-0.4,0.8-0.8c0-0.5-0.4-0.8-0.8-0.8h-73v-8.1H137c1.4,0,2.6,1.1,2.6,2.5v5.5h-4.5
			c-0.5,0-0.8,0.4-0.8,0.8c0,0.5,0.4,0.8,0.8,0.8h4.5v72.1C139.7,143.9,138.5,145.1,137,145.1z"/>
		<path class="st2" d="M41,67c1.4,0,2.6-1.2,2.6-2.6s-1.2-2.6-2.6-2.6c-1.4,0-2.6,1.2-2.6,2.6C38.4,65.9,39.6,67,41,67z M41,63.5
			c0.5,0,0.9,0.4,0.9,0.9s-0.4,0.9-0.9,0.9s-0.9-0.4-0.9-0.9S40.5,63.5,41,63.5z"/>
		<path class="st2" d="M48,67c1.4,0,2.6-1.2,2.6-2.6s-1.2-2.6-2.6-2.6c-1.4,0-2.6,1.2-2.6,2.6C45.4,65.9,46.6,67,48,67z M48,63.5
			c0.5,0,0.9,0.4,0.9,0.9s-0.4,0.9-0.9,0.9s-0.9-0.4-0.9-0.9S47.5,63.5,48,63.5z"/>
		<path class="st2" d="M112.6,62H58.4c-0.5,0-0.8,0.4-0.8,0.8s0.4,0.8,0.8,0.8h54.3c0.5,0,0.8-0.4,0.8-0.8S113.1,62,112.6,62z"/>
		<path class="st2" d="M87.5,65.4H58.4c-0.5,0-0.8,0.4-0.8,0.8c0,0.5,0.4,0.8,0.8,0.8h29.1c0.5,0,0.8-0.4,0.8-0.8
			S87.9,65.4,87.5,65.4z"/>
		<path class="st2" d="M40.6,95.3h93.9c0.5,0,0.8-0.4,0.8-0.8V75.7c0-0.5-0.4-0.8-0.8-0.8H40.6c-0.5,0-0.8,0.4-0.8,0.8v18.8
			C39.7,95,40.1,95.3,40.6,95.3z M41.4,76.5h92.3v17.2H41.4V76.5z"/>
		<path class="st2" d="M134.6,136.3H40.5c-0.5,0-0.8,0.4-0.8,0.8s0.4,0.8,0.8,0.8h94.1c0.5,0,0.8-0.4,0.8-0.8S135,136.3,134.6,136.3
			z"/>
		<path class="st2" d="M40.6,118H55c0.5,0,0.8-0.4,0.8-0.8v-14.4c0-0.5-0.4-0.8-0.8-0.8H40.6c-0.5,0-0.8,0.4-0.8,0.8v14.4
			C39.7,117.7,40.1,118,40.6,118z M41.4,103.6h12.7v12.7H41.4V103.6z"/>
		<path class="st2" d="M67,102c-0.5,0-0.8,0.4-0.8,0.8v14.4c0,0.5,0.4,0.8,0.8,0.8h14.4c0.5,0,0.8-0.4,0.8-0.8v-14.4
			c0-0.5-0.4-0.8-0.8-0.8H67z M80.6,116.4H67.9v-12.7h12.7V116.4z"/>
		<path class="st2" d="M93.5,102c-0.5,0-0.8,0.4-0.8,0.8v14.4c0,0.5,0.4,0.8,0.8,0.8h14.4c0.5,0,0.8-0.4,0.8-0.8v-14.4
			c0-0.5-0.4-0.8-0.8-0.8H93.5z M107.1,116.4H94.4v-12.7h12.7V116.4z"/>
		<path class="st2" d="M134.5,102H120c-0.5,0-0.8,0.4-0.8,0.8v14.4c0,0.5,0.4,0.8,0.8,0.8h14.5c0.5,0,0.8-0.4,0.8-0.8v-14.4
			C135.3,102.4,135,102,134.5,102z M133.7,116.4h-12.9v-12.7h12.9V116.4z"/>
		<path class="st2" d="M134.6,127.4H40.5c-0.5,0-0.8,0.4-0.8,0.8c0,0.5,0.4,0.8,0.8,0.8h94.1c0.5,0,0.8-0.4,0.8-0.8
			C135.4,127.7,135,127.4,134.6,127.4z"/>
		<path class="st2" d="M20.2,40.7c9.1,0,16.6-7.4,16.6-16.6c0-9.1-7.4-16.6-16.6-16.6C11.1,7.6,3.6,15,3.6,24.1S11.1,40.7,20.2,40.7
			z M20.2,9.2c8.2,0,14.9,6.7,14.9,14.9S28.4,39,20.2,39S5.3,32.3,5.3,24.1S12,9.2,20.2,9.2z"/>
		<path class="st2" d="M27.6,52H21v-7.7c10.8-0.4,19.4-9.3,19.4-20.2c0-11.1-9.1-20.2-20.2-20.2C9,3.9,0,13,0,24.1
			C0,35,8.6,43.8,19.4,44.3V52h-6.6c-0.8,0-1.5,0.6-1.5,1.4v3.4c0,0.8,0.7,1.4,1.5,1.4h2v22.9c0,3,2.5,5.5,5.5,5.5s5.5-2.5,5.5-5.5
			V58.2h1.9c0.8,0,1.5-0.6,1.5-1.4v-3.4C29.1,52.7,28.4,52,27.6,52z M1.6,24.1C1.6,13.9,10,5.6,20.2,5.6s18.6,8.3,18.6,18.6
			c0,10.2-8.3,18.6-18.5,18.6l0,0l0,0C9.9,42.7,1.6,34.3,1.6,24.1z M27.4,56.6h-3.7c-0.5,0-0.8,0.4-0.8,0.8c0,0.5,0.4,0.8,0.8,0.8
			H24V60c-0.1,0-0.1,0-0.2,0h-0.6c-0.5,0-0.8,0.4-0.8,0.8c0,0.5,0.4,0.8,0.8,0.8h0.6c0.1,0,0.1,0,0.2,0v19.6c0,2.1-1.7,3.8-3.8,3.8
			s-3.8-1.7-3.8-3.8V61.7H20c0.5,0,0.8-0.4,0.8-0.8c0-0.5-0.4-0.8-0.8-0.8h-3.7v-1.8h3.1c0.5,0,0.8-0.4,0.8-0.8
			c0-0.5-0.4-0.8-0.8-0.8h-6.5v-2.9h14.5V56.6z"/>
		<path class="st2" d="M19.1,13c6.7,0,12.2,5.5,12.2,12.2c0,0.5,0.4,0.8,0.8,0.8c0.5,0,0.8-0.4,0.8-0.8c0-7.7-6.2-13.9-13.9-13.9
			c-0.5,0-0.8,0.4-0.8,0.8S18.6,13,19.1,13z"/>
		<path class="st2" d="M173.1,28.8l-6.2-6.2l2.7-2.7c0.2-0.2,0.3-0.5,0.2-0.8s-0.3-0.5-0.6-0.5l-11.3-1.5c-0.2,0-0.5,0-0.7,0.2
			s-0.3,0.4-0.2,0.7l1.5,11.3c0,0.3,0.2,0.5,0.5,0.6s0.6,0,0.8-0.2l2.8-2.8l6.2,6.2c0.2,0.2,0.4,0.2,0.5,0.2c0.2,0,0.4-0.1,0.5-0.2
			l3.3-3.3c0.1-0.1,0.2-0.3,0.2-0.5C173.4,29.1,173.3,28.9,173.1,28.8z M169.3,31.5l-6.2-6.2c-0.2-0.2-0.4-0.2-0.5-0.2
			c-0.2,0-0.4,0.1-0.5,0.2l-2.2,2.2l-1.2-8.8l8.8,1.2l-2.1,2.1c-0.1,0.1-0.2,0.3-0.2,0.5s0.1,0.4,0.2,0.5l6.2,6.2L169.3,31.5z"/>
	</g>
	<g>
		<path class="st3" d="M47.6,23.3h-1.3c-0.4,0-0.8,0.3-0.8,0.8c0,0.4,0.3,0.8,0.8,0.8h1.3c0.4,0,0.8-0.3,0.8-0.8
			C48.4,23.7,48,23.3,47.6,23.3z"/>
		<path class="st3" d="M122.9,23.3h-2.7c-0.4,0-0.8,0.3-0.8,0.8c0,0.4,0.3,0.8,0.8,0.8h2.7c0.4,0,0.8-0.3,0.8-0.8
			C123.7,23.7,123.4,23.3,122.9,23.3z"/>
		<path class="st3" d="M115.4,23.3h-2.7c-0.4,0-0.8,0.3-0.8,0.8c0,0.4,0.3,0.8,0.8,0.8h2.7c0.4,0,0.8-0.3,0.8-0.8
			C116.2,23.7,115.8,23.3,115.4,23.3z"/>
		<path class="st3" d="M107.9,23.3h-2.7c-0.4,0-0.8,0.3-0.8,0.8c0,0.4,0.3,0.8,0.8,0.8h2.7c0.4,0,0.8-0.3,0.8-0.8
			C108.6,23.7,108.3,23.3,107.9,23.3z"/>
		<path class="st3" d="M130.5,23.3h-2.7c-0.4,0-0.8,0.3-0.8,0.8c0,0.4,0.3,0.8,0.8,0.8h2.7c0.4,0,0.8-0.3,0.8-0.8
			C131.3,23.7,130.9,23.3,130.5,23.3z"/>
		<path class="st3" d="M138,23.3h-2.7c-0.4,0-0.8,0.3-0.8,0.8c0,0.4,0.3,0.8,0.8,0.8h2.7c0.4,0,0.8-0.3,0.8-0.8
			C138.8,23.7,138.4,23.3,138,23.3z"/>
		<path class="st3" d="M100.3,23.3h-2.7c-0.4,0-0.8,0.3-0.8,0.8c0,0.4,0.3,0.8,0.8,0.8h2.7c0.4,0,0.8-0.3,0.8-0.8
			C101.1,23.7,100.8,23.3,100.3,23.3z"/>
		<path class="st3" d="M62.7,23.3H60c-0.4,0-0.8,0.3-0.8,0.8c0,0.4,0.3,0.8,0.8,0.8h2.7c0.4,0,0.8-0.3,0.8-0.8
			C63.4,23.7,63.1,23.3,62.7,23.3z"/>
		<path class="st3" d="M146.3,24.1c0-0.4-0.3-0.8-0.8-0.8h-2.7c-0.4,0-0.8,0.3-0.8,0.8c0,0.4,0.3,0.8,0.8,0.8h2.7
			C146,24.9,146.3,24.5,146.3,24.1z"/>
		<path class="st3" d="M70.2,23.3h-2.7c-0.4,0-0.8,0.3-0.8,0.8c0,0.4,0.3,0.8,0.8,0.8h2.7c0.4,0,0.8-0.3,0.8-0.8
			C71,23.7,70.6,23.3,70.2,23.3z"/>
		<path class="st3" d="M55.1,23.3h-2.7c-0.4,0-0.8,0.3-0.8,0.8c0,0.4,0.3,0.8,0.8,0.8h2.7c0.4,0,0.8-0.3,0.8-0.8
			C55.9,23.7,55.6,23.3,55.1,23.3z"/>
		<path class="st3" d="M85.3,23.3h-2.7c-0.4,0-0.8,0.3-0.8,0.8c0,0.4,0.3,0.8,0.8,0.8h2.7c0.4,0,0.8-0.3,0.8-0.8
			C86,23.7,85.7,23.3,85.3,23.3z"/>
		<path class="st3" d="M92.8,23.3h-2.7c-0.4,0-0.8,0.3-0.8,0.8c0,0.4,0.3,0.8,0.8,0.8h2.7c0.4,0,0.8-0.3,0.8-0.8
			C93.6,23.7,93.2,23.3,92.8,23.3z"/>
		<path class="st3" d="M78.5,24.1c0-0.4-0.3-0.8-0.8-0.8H75c-0.4,0-0.8,0.3-0.8,0.8c0,0.4,0.3,0.8,0.8,0.8h2.7
			C78.2,24.9,78.5,24.5,78.5,24.1z"/>
		<path class="st3" d="M151.4,23.3H150c-0.4,0-0.8,0.3-0.8,0.8c0,0.4,0.3,0.8,0.8,0.8h0.7v0.7c0,0.4,0.3,0.8,0.8,0.8
			c0.4,0,0.8-0.3,0.8-0.8v-1.4C152.2,23.7,151.8,23.3,151.4,23.3z"/>
		<path class="st3" d="M151.4,76.3c-0.4,0-0.8,0.3-0.8,0.8v2.8c0,0.4,0.3,0.8,0.8,0.8c0.4,0,0.8-0.3,0.8-0.8v-2.8
			C152.2,76.6,151.8,76.3,151.4,76.3z"/>
		<path class="st3" d="M151.4,68.5c-0.4,0-0.8,0.3-0.8,0.8v2.8c0,0.4,0.3,0.8,0.8,0.8c0.4,0,0.8-0.3,0.8-0.8v-2.8
			C152.2,68.9,151.8,68.5,151.4,68.5z"/>
		<path class="st3" d="M151.4,45.3c-0.4,0-0.8,0.3-0.8,0.8v2.8c0,0.4,0.3,0.8,0.8,0.8c0.4,0,0.8-0.3,0.8-0.8V46
			C152.2,45.6,151.8,45.3,151.4,45.3z"/>
		<path class="st3" d="M151.4,37.5c-0.4,0-0.8,0.3-0.8,0.8v2.8c0,0.4,0.3,0.8,0.8,0.8c0.4,0,0.8-0.3,0.8-0.8v-2.8
			C152.2,37.9,151.8,37.5,151.4,37.5z"/>
		<path class="st3" d="M151.4,53c-0.4,0-0.8,0.3-0.8,0.8v2.8c0,0.4,0.3,0.8,0.8,0.8c0.4,0,0.8-0.3,0.8-0.8v-2.8
			C152.2,53.4,151.8,53,151.4,53z"/>
		<path class="st3" d="M151.4,60.8c-0.4,0-0.8,0.3-0.8,0.8v2.8c0,0.4,0.3,0.8,0.8,0.8c0.4,0,0.8-0.3,0.8-0.8v-2.8
			C152.2,61.1,151.8,60.8,151.4,60.8z"/>
		<path class="st3" d="M151.4,29.8c-0.4,0-0.8,0.3-0.8,0.8v2.8c0,0.4,0.3,0.8,0.8,0.8c0.4,0,0.8-0.3,0.8-0.8v-2.8
			C152.2,30.1,151.8,29.8,151.4,29.8z"/>
		<path class="st3" d="M151.4,84c-0.4,0-0.8,0.3-0.8,0.8v2.8c0,0.4,0.3,0.8,0.8,0.8c0.4,0,0.8-0.3,0.8-0.8v-2.8
			C152.2,84.4,151.8,84,151.4,84z"/>
		<path class="st3" d="M151.4,99.5c-0.4,0-0.8,0.3-0.8,0.8v2.8c0,0.4,0.3,0.8,0.8,0.8c0.4,0,0.8-0.3,0.8-0.8v-2.8
			C152.2,99.9,151.8,99.5,151.4,99.5z"/>
		<path class="st3" d="M151.4,91.8c-0.4,0-0.8,0.3-0.8,0.8v2.8c0,0.4,0.3,0.8,0.8,0.8c0.4,0,0.8-0.3,0.8-0.8v-2.8
			C152.2,92.1,151.8,91.8,151.4,91.8z"/>
		<path class="st3" d="M151.4,108c-0.4,0-0.8,0.3-0.8,0.8v0.6H150c-0.4,0-0.8,0.3-0.8,0.8c0,0.4,0.3,0.8,0.8,0.8h1.4
			c0.4,0,0.8-0.3,0.8-0.8v-1.3C152.2,108.3,151.8,108,151.4,108z"/>
		<path class="st3" d="M146.4,109.3h-1.3c-0.4,0-0.8,0.3-0.8,0.8c0,0.4,0.3,0.8,0.8,0.8h1.3c0.4,0,0.8-0.3,0.8-0.8
			C147.2,109.6,146.9,109.3,146.4,109.3z"/>
		<path class="st3" d="M22.7,104.6h-1.8v-1.8c0-0.4-0.3-0.8-0.8-0.8c-0.4,0-0.8,0.3-0.8,0.8v1.8h-1.7c-0.4,0-0.8,0.3-0.8,0.8
			c0,0.4,0.3,0.8,0.8,0.8h1.7v1.7c0,0.4,0.3,0.8,0.8,0.8c0.4,0,0.8-0.3,0.8-0.8v-1.7h1.8c0.4,0,0.8-0.3,0.8-0.8
			C23.5,105,23.1,104.6,22.7,104.6z"/>
		<path class="st3" d="M170.1,84h-1.8v-1.8c0-0.4-0.3-0.8-0.8-0.8c-0.4,0-0.8,0.3-0.8,0.8V84H165c-0.4,0-0.8,0.3-0.8,0.8
			c0,0.4,0.3,0.8,0.8,0.8h1.7v1.7c0,0.4,0.3,0.8,0.8,0.8c0.4,0,0.8-0.3,0.8-0.8v-1.7h1.8c0.4,0,0.8-0.3,0.8-0.8
			C170.9,84.4,170.6,84,170.1,84z"/>
		<path class="st3" d="M81.8,42.2H80v-1.8c0-0.4-0.3-0.8-0.8-0.8c-0.4,0-0.8,0.3-0.8,0.8v1.8h-1.7c-0.4,0-0.8,0.3-0.8,0.8
			s0.3,0.8,0.8,0.8h1.7v1.7c0,0.4,0.3,0.8,0.8,0.8c0.4,0,0.8-0.3,0.8-0.8v-1.7h1.8c0.4,0,0.8-0.3,0.8-0.8S82.3,42.2,81.8,42.2z"/>
		<path class="st3" d="M128,12.9v-1.7h1.8c0.4,0,0.8-0.3,0.8-0.8c0-0.4-0.3-0.8-0.8-0.8H128V7.9c0-0.4-0.3-0.8-0.8-0.8
			c-0.4,0-0.8,0.3-0.8,0.8v1.8h-1.7c-0.4,0-0.8,0.3-0.8,0.8c0,0.4,0.3,0.8,0.8,0.8h1.7V13c0,0.4,0.3,0.8,0.8,0.8
			C127.7,13.7,128,13.4,128,12.9z"/>
	</g>
	<g>
		<path class="st2" d="M5.2,145.1c-0.4,0.4-0.4,1.1,0,1.6c0.2,0.2,0.5,0.3,0.8,0.3s0.6-0.1,0.8-0.3c0.4-0.4,0.4-1.1,0-1.6
			S5.6,144.6,5.2,145.1z"/>
		<path class="st2" d="M5.5,142.3c0-0.6-0.5-1.1-1.1-1.1s-1.1,0.5-1.1,1.1s0.5,1.1,1.1,1.1l0,0C5.1,143.4,5.6,142.9,5.5,142.3z"/>
		<path class="st2" d="M12.3,144.9c-0.4,0.4-0.4,1.1,0,1.6c0.2,0.2,0.5,0.3,0.8,0.3s0.6-0.1,0.8-0.3c0.4-0.4,0.4-1.1,0-1.6
			C13.5,144.4,12.8,144.4,12.3,144.9z"/>
		<path class="st2" d="M5.9,139.8c0.3,0,0.6-0.1,0.8-0.3c0.4-0.4,0.4-1.1,0-1.6c-0.4-0.4-1.1-0.4-1.6,0c-0.4,0.4-0.4,1.1,0,1.6
			C5.3,139.7,5.6,139.8,5.9,139.8z"/>
		<path class="st2" d="M14.5,140.9c-0.6,0-1.1,0.5-1.1,1.1s0.5,1.1,1.1,1.1l0,0c0.6,0,1.1-0.5,1.1-1.1
			C15.6,141.3,15.1,140.9,14.5,140.9z"/>
		<path class="st2" d="M12.9,139.6c0.3,0,0.6-0.1,0.8-0.4c0.4-0.5,0.4-1.2-0.1-1.6c-0.5-0.4-1.2-0.4-1.6,0.1
			c-0.4,0.5-0.4,1.2,0.1,1.6C12.3,139.5,12.6,139.6,12.9,139.6z"/>
		<path class="st2" d="M9.6,146.1c-0.6,0-1.1,0.5-1.1,1.1s0.5,1.1,1.1,1.1l0,0c0.6,0,1.1-0.5,1.1-1.1
			C10.7,146.6,10.2,146.1,9.6,146.1z"/>
		<path class="st2" d="M9.5,138.3c0.6,0,1.1-0.5,1.1-1.1s-0.5-1.1-1.1-1.1s-1.1,0.5-1.1,1.1S8.9,138.3,9.5,138.3z"/>
		<path class="st2" d="M168,135.9c-0.4,0.4-0.4,1.1,0,1.6c0.2,0.2,0.5,0.3,0.8,0.3s0.6-0.1,0.8-0.3c0.4-0.4,0.4-1.1,0-1.6
			C169.1,135.4,168.4,135.5,168,135.9z"/>
		<path class="st2" d="M168.5,130.6c0.3,0,0.6-0.1,0.8-0.4c0.4-0.5,0.4-1.2-0.1-1.6c-0.5-0.4-1.2-0.4-1.6,0.1
			c-0.4,0.5-0.4,1.2,0.1,1.6C168,130.5,168.3,130.6,168.5,130.6z"/>
		<path class="st2" d="M165.2,137.1c-0.6,0-1.1,0.5-1.1,1.1s0.5,1.1,1.1,1.1l0,0c0.6,0,1.1-0.5,1.1-1.1S165.8,137.1,165.2,137.1z"/>
		<path class="st2" d="M170.1,131.9c-0.6,0-1.1,0.5-1.1,1.1s0.5,1.1,1.1,1.1l0,0c0.6,0,1-0.5,1-1.1
			C171.2,132.4,170.7,131.9,170.1,131.9z"/>
		<path class="st2" d="M161.5,130.8c0.3,0,0.6-0.1,0.8-0.3c0.4-0.4,0.4-1.1,0-1.6c-0.4-0.4-1.1-0.4-1.6,0c-0.4,0.4-0.4,1.1,0,1.6
			C161,130.7,161.3,130.8,161.5,130.8z"/>
		<path class="st2" d="M171.2,133L171.2,133L171.2,133z"/>
		<path class="st2" d="M161.2,133.3c0-0.6-0.5-1.1-1.1-1.1s-1.1,0.5-1.1,1.1s0.5,1.1,1.1,1.1l0,0
			C160.7,134.4,161.2,133.9,161.2,133.3z"/>
		<path class="st2" d="M160.8,136.1c-0.4,0.4-0.4,1.1,0,1.6c0.2,0.2,0.5,0.3,0.8,0.3s0.6-0.1,0.8-0.3c0.4-0.4,0.4-1.1,0-1.6
			C162,135.6,161.3,135.6,160.8,136.1z"/>
		<path class="st2" d="M165.1,129.3c0.6,0,1.1-0.5,1.1-1.1c0-0.6-0.5-1.1-1.1-1.1l0,0c-0.7,0-1.1,0.5-1.1,1.1
			C164,128.8,164.5,129.3,165.1,129.3z"/>
		<path class="st2" d="M121.4,45.5c0.3,0,0.6-0.1,0.8-0.3c0.4-0.4,0.4-1.1,0-1.6c-0.4-0.4-1.1-0.4-1.6,0c-0.4,0.4-0.4,1.1,0,1.6
			C120.9,45.4,121.2,45.5,121.4,45.5z"/>
		<path class="st2" d="M125.1,51.8c-0.6,0-1.1,0.5-1.1,1.1s0.5,1.1,1.1,1.1l0,0c0.6,0,1.1-0.5,1.1-1.1S125.7,51.8,125.1,51.8z"/>
		<path class="st2" d="M125,44c0.6,0,1.1-0.5,1.1-1.1s-0.5-1.1-1.1-1.1s-1.1,0.5-1.1,1.1S124.4,44,125,44z"/>
		<path class="st2" d="M120.7,50.8c-0.4,0.4-0.4,1.1,0,1.6c0.2,0.2,0.5,0.3,0.8,0.3s0.6-0.1,0.8-0.3c0.4-0.4,0.4-1.1,0-1.6
			S121.2,50.3,120.7,50.8z"/>
		<path class="st2" d="M128.4,45.3c0.3,0,0.6-0.1,0.8-0.4c0.4-0.5,0.4-1.2-0.1-1.6c-0.5-0.4-1.2-0.4-1.6,0.1s-0.4,1.2,0.1,1.6
			C127.9,45.2,128.2,45.3,128.4,45.3z"/>
		<path class="st2" d="M121.1,48c0-0.6-0.5-1.1-1.1-1.1s-1.1,0.5-1.1,1.1s0.5,1.1,1.1,1.1l0,0C120.6,49.1,121.1,48.6,121.1,48z"/>
		<path class="st2" d="M130,46.6c-0.6,0-1.1,0.5-1.1,1.1s0.5,1.1,1.1,1.1l0,0c0.6,0,1.1-0.5,1.1-1.1S130.6,46.6,130,46.6z"/>
		<path class="st2" d="M127.9,50.6c-0.4,0.4-0.4,1.1,0,1.6c0.2,0.2,0.5,0.3,0.8,0.3s0.6-0.1,0.8-0.3c0.4-0.4,0.4-1.1,0-1.6
			C129,50.2,128.3,50.2,127.9,50.6z"/>
		<path class="st2" d="M70.7,5.5c0.3,0,0.6-0.1,0.8-0.3c0.4-0.4,0.4-1.1,0-1.6c-0.4-0.4-1.1-0.4-1.6,0c-0.4,0.4-0.4,1.1,0,1.6
			C70.1,5.4,70.4,5.5,70.7,5.5z"/>
		<path class="st2" d="M74.4,11.9c-0.6,0-1.1,0.5-1.1,1.1s0.5,1.1,1.1,1.1l0,0c0.6,0,1.1-0.5,1.1-1.1C75.5,12.3,75,11.8,74.4,11.9z"
			/>
		<path class="st2" d="M70.4,8c0-0.6-0.5-1.1-1.1-1.1S68.2,7.4,68.2,8s0.5,1.1,1.1,1.1l0,0C69.9,9.2,70.4,8.6,70.4,8z"/>
		<path class="st2" d="M70,10.8c-0.4,0.4-0.4,1.1,0,1.6c0.2,0.2,0.5,0.3,0.8,0.3s0.6-0.1,0.8-0.3c0.4-0.4,0.4-1.1,0-1.6
			C71.1,10.3,70.4,10.4,70,10.8z"/>
		<path class="st2" d="M74.3,4c0.6,0,1.1-0.5,1.1-1.1s-0.5-1.1-1.1-1.1s-1.1,0.5-1.1,1.1C73.2,3.5,73.7,4,74.3,4z"/>
		<path class="st2" d="M79.3,6.6c-0.6,0-1.1,0.5-1.1,1.1s0.5,1.1,1.1,1.1l0,0c0.6,0,1.1-0.5,1.1-1.1S79.9,6.6,79.3,6.6z"/>
		<path class="st2" d="M77.1,10.6c-0.4,0.4-0.4,1.1,0,1.6c0.2,0.2,0.5,0.3,0.8,0.3s0.6-0.1,0.8-0.3c0.4-0.4,0.4-1.1,0-1.6
			C78.3,10.2,77.6,10.2,77.1,10.6z"/>
		<path class="st2" d="M77.7,5.3c0.3,0,0.6-0.1,0.8-0.4c0.4-0.5,0.4-1.2-0.1-1.6C78,3,77.3,3,76.9,3.5S76.5,4.7,77,5.1
			C77.1,5.2,77.4,5.3,77.7,5.3z"/>
	</g>
</g>
</svg>
