<?xml version="1.0" encoding="UTF-8"?>
<svg width="145px" height="42px" viewBox="0 0 145 42" version="1.1" xmlns="http://www.w3.org/2000/svg" xmlns:xlink="http://www.w3.org/1999/xlink">
    <!-- Generator: Sketch 52.2 (67145) - http://www.bohemiancoding.com/sketch -->
    <title>logotype_hover</title>
    <desc>Created with Sketch.</desc>
    <defs>
        <linearGradient x1="100%" y1="3.41101941%" x2="26.3229471%" y2="95.3940436%" id="linearGradient-1">
            <stop stop-color="#FEC417" offset="0%"></stop>
            <stop stop-color="#ED225A" offset="27.8984918%"></stop>
            <stop stop-color="#5DA4E1" offset="76.075383%"></stop>
            <stop stop-color="#65E1BD" offset="100%"></stop>
        </linearGradient>
    </defs>
    <g id="v2" stroke="none" stroke-width="1" fill="none" fill-rule="evenodd">
        <g id="Artboard" transform="translate(-14.000000, -60.000000)">
            <g id="logotype_hover" transform="translate(14.000000, 60.000000)">
                <g id="symbol_1-copy">
                    <path d="M30.9872294,21.9217509 L24.4968826,13.9690451 L35.0356256,1.60699306 C34.3210752,1.05731163 33.5794976,0.541639757 32.8135623,0.0609826389 L21.4204619,7.02339062 C20.9913646,6.923875 20.5681065,6.84999219 20.1698735,6.7950408 C18.8216872,6.60874219 17.7636253,6.64074132 17.7636253,6.64074132 C9.00466845,6.64074132 1.72219333,13.1080842 0.401367793,21.5370911 C0.260559816,22.4349097 0.186819145,23.3546753 0.186819145,24.2915295 C0.186819145,29.1136814 2.1232625,33.4896884 5.25557265,36.6787118 C8.44477323,39.9257023 12.8738848,41.9419826 17.7636253,41.9419826 C21.3241986,42.0125148 24.4902092,40.6043854 24.4902092,40.6043854 C24.4902092,40.6043854 22.911625,39.6561389 21.553095,38.6422187 C20.9171234,38.1677604 19.9162857,37.23677 19.4154497,36.6286189 C18.0409036,34.9574601 17.2839773,32.8414965 17.2839773,30.6707491 C17.2839773,29.4313273 17.5242184,28.2218941 17.9978604,27.0759566 L18.0030323,27.0633915 L25.2015898,29.3236024 L25.3312199,29.3763759 C26.6039972,29.8578707 27.9913896,29.7844905 29.2371398,29.169638 C29.6705748,28.9558637 30.0659716,28.6755781 30.413487,28.3361528 C31.6679125,27.1089609 32.1814279,25.367605 31.7873658,23.6808655 C31.6380492,23.0385373 31.3689458,22.4466372 30.9872294,21.9217509" id="Fill-28" fill="url(#linearGradient-1)"></path>
                    <path d="M11.958633,16.1461589 C11.9824902,16.1171753 12.0085164,16.0900347 12.0335415,16.0620564 C12.0348761,16.0605486 12.0358771,16.0588733 12.0368781,16.0573655 C12.0103515,16.0865165 11.9841586,16.1160026 11.958633,16.1461589" id="Fill-29" fill="#FFFFFE"></path>
                    <path d="M29.3095458,22.9313151 L21.959336,13.9429097 L30.7930346,3.58138976 L18.9539866,10.8165443 L19.597132,8.68902083 C18.7974962,8.5204809 17.8018303,8.59319097 17.7636253,8.59319097 C9.12996086,8.59319097 2.1311037,15.6216076 2.1311037,24.291362 C2.1311037,32.9611163 9.12996086,39.9893655 17.7636253,39.9893655 C17.8904192,39.9893655 18.0168795,39.9876901 18.1430061,39.9846745 C18.5916229,39.9739523 19.0354016,39.9434609 19.4740085,39.895546 C19.5475823,39.8875043 19.6199883,39.8767821 19.6933953,39.8677352 C17.2107371,39.0639036 15.0068587,37.6366753 13.2649439,35.7698359 C12.9970084,35.4826814 12.7400839,35.1851398 12.4945041,34.8777135 C11.6354753,33.8019731 10.9185892,32.6067804 10.3723744,31.3211189 C9.5920913,29.4842682 9.16032466,27.4624592 9.16032466,25.3391241 L9.16032466,24.988474 C9.16032466,21.6547005 10.2277292,18.5728993 12.0335415,16.0620564 C12.0085164,16.0900347 11.9824902,16.1171753 11.958633,16.1461589 C11.9841586,16.1160026 12.0103515,16.0865165 12.0368781,16.0573655 C12.0358771,16.0588733 12.0348761,16.0605486 12.0335415,16.0620564 C12.0348761,16.0605486 12.0358771,16.0588733 12.037045,16.0573655 C12.0398812,16.0543498 12.0428842,16.0516693 12.0457204,16.0486536 C12.1057806,15.9831476 12.1681766,15.9196519 12.2339092,15.8601771 C12.2424178,15.852303 12.2494248,15.8461042 12.2545966,15.8420833 C12.2594348,15.837895 12.2626047,15.8358845 12.2627715,15.8365547 C12.2447534,15.8811189 12.21806,15.9494731 12.1851937,16.0352509 C11.823831,17.0823429 10.5979341,21.9331432 15.8415297,24.2471328 C17.0620107,24.7858423 18.8767029,25.4258491 20.2415496,25.8056697 C19.567806,25.2024824 18.9539866,23.3475495 18.9539866,22.288845 C20.6907188,25.3391241 22.7303941,26.5125972 24.1036237,27.0232331 C24.8360854,27.2384674 25.4735688,27.4137479 26.0160739,27.5490747 C26.8298315,27.7520647 27.6150119,27.794513 28.3796125,27.4172248 C28.6290295,27.2940868 28.8572585,27.1324158 29.0564584,26.9375729 C29.8317365,26.1791432 30.1292017,25.1323863 29.8936319,24.1243299 C29.8043757,23.7395026 29.644215,23.3860043 29.4171538,23.0735521 L29.3095458,22.9313151 Z" id="Fill-30" fill="#FFFFFE"></path>
                    <path d="M12.2342429,15.859842 C12.234076,15.8600095 12.234076,15.8600095 12.2339092,15.8601771 C12.1681766,15.9196519 12.1059475,15.9833151 12.0457204,16.0486536 C12.0417163,16.0530095 12.0378792,16.0577005 12.0337083,16.0620564 C10.2277292,18.5727318 9.16032466,21.654533 9.16032466,24.988474 L9.16032466,25.3391241 C9.16032466,27.4624592 9.5920913,29.4842682 10.3723744,31.3211189 C10.9185892,32.6067804 11.6354753,33.8019731 12.4945041,34.8777135 C12.7400839,35.1851398 12.9970084,35.4826814 13.2649439,35.7698359 C15.0068587,37.6366753 17.2107371,39.0639036 19.6933953,39.8677352 C19.7929953,39.8555052 19.8930957,39.8441128 19.9925288,39.8298724 C19.2285955,39.2718142 18.5300612,38.616921 17.9161117,37.8720616 C16.2546109,35.8517604 15.3396927,33.2940078 15.3396927,30.6707491 C15.3396927,29.1758368 15.6361569,27.6965052 16.202225,26.3272439 C8.42675514,23.9159167 10.7916285,17.2334592 12.2627715,15.8365547 C12.2624378,15.8358845 12.2594348,15.837895 12.2545966,15.8420833 C12.2494248,15.8461042 12.2424178,15.852303 12.2342429,15.859842" id="Fill-31" fill="#D1DAE6"></path>
                    <path d="M12.037045,16.0573655 C12.0358771,16.0588733 12.0348761,16.0605486 12.0337083,16.0620564 C12.0378792,16.0577005 12.0417163,16.0530095 12.0457204,16.0486536 C12.0428842,16.0516693 12.0398812,16.0543498 12.037045,16.0573655" id="Fill-32" fill="#D1DAE6"></path>
                    <path d="M13.2649439,35.7698359 C12.9970084,35.4826814 12.7400839,35.1851398 12.4945041,34.8777135 C12.7400839,35.1851398 12.9970084,35.4826814 13.2649439,35.7698359" id="Fill-33" fill="#D1DAE6"></path>
                    <path d="M12.2545966,15.8420833 C12.2494248,15.8461042 12.2424178,15.852303 12.2342429,15.859842 C12.234076,15.8600095 12.234076,15.8600095 12.2339092,15.8601771 C12.234076,15.8600095 12.234076,15.8600095 12.2342429,15.859842 C12.2424178,15.852303 12.2494248,15.8461042 12.2545966,15.8420833" id="Fill-34" fill="#D1DAE6"></path>
                    <path d="M13.2649439,35.7698359 C15.0068587,37.6366753 17.2107371,39.0639036 19.6933953,39.8677352 C17.2107371,39.0639036 15.0068587,37.6366753 13.2649439,35.7698359" id="Fill-35" fill="#D1DAE6"></path>
                    <path d="M12.2545966,15.8420833 C12.2594348,15.837895 12.2624378,15.8358845 12.2627715,15.8365547 C12.2626047,15.8358845 12.2594348,15.837895 12.2545966,15.8420833" id="Fill-36" fill="#D1DAE6"></path>
                    <path d="M16.5265505,16.5381901 L16.4971877,16.6398837 C17.2729316,16.3242123 17.9543312,16.2683117 18.5413863,16.4721819 C19.0852498,16.6610527 19.5977707,17.0715684 20.0789489,17.7037292 L20.0996363,17.5874601 C20.3348724,16.2736528 19.5709391,15.4815486 18.7095746,15.2791667 C17.8620574,15.080303 16.8405323,15.4487118 16.5265505,16.5381901 Z" id="Fill-37" fill="#CE3E77" transform="translate(18.319981, 16.465705) rotate(10.000000) translate(-18.319981, -16.465705) "></path>
                </g>
                <path d="M55.781777,24.010162 C55.781777,23.1571719 55.6285373,22.3464592 55.3220532,21.5779996 C55.0155691,20.80954 54.5747683,20.1256212 53.9996377,19.5262227 C53.4396421,18.9345088 52.790738,18.4792033 52.052906,18.1602926 C51.3150739,17.8413819 50.5375241,17.6819289 49.7202332,17.6819289 C48.9029424,17.6819289 48.1253926,17.8394608 47.3875605,18.1545292 C46.6497285,18.4695976 45.993257,18.9268242 45.4181263,19.5262227 C44.8429957,20.1179366 44.4040868,20.7980131 44.1013865,21.5664727 C43.7986862,22.3349323 43.6473383,23.1494873 43.6473383,24.010162 C43.6473383,24.8631522 43.7986862,25.6700226 44.1013865,26.4307976 C44.4040868,27.1915726 44.8429957,27.8716492 45.4181263,28.4710476 C45.993257,29.0704461 46.6478366,29.5276727 47.3818849,29.8427412 C48.1159332,30.1578096 48.8953748,30.3153415 49.7202332,30.3153415 C50.5299566,30.3153415 51.299939,30.1578096 52.0302036,29.8427412 C52.7604681,29.5276727 53.4169396,29.0704461 53.9996377,28.4710476 C54.5747683,27.8716492 55.0155691,27.1896515 55.3220532,26.4250342 C55.6285373,25.6604169 55.781777,24.8554676 55.781777,24.010162 Z M58.5698465,24.0468543 C58.5698465,25.2439672 58.348779,26.3758358 57.9066374,27.4424941 C57.4644958,28.5091524 56.820188,29.4606894 55.9736946,30.2971337 C55.1196433,31.133578 54.1560158,31.7743307 53.0827832,32.2194112 C52.0095506,32.6644916 50.8834291,32.8870285 49.7043848,32.8870285 C48.5102246,32.8870285 47.3708767,32.6625732 46.2863072,32.2136558 C45.2017376,31.7647385 44.2437785,31.1259042 43.4124011,30.2971337 C42.5659078,29.4606894 41.9234895,28.5129893 41.4851268,27.4540048 C41.0467642,26.3950203 40.8275862,25.2593148 40.8275862,24.0468543 C40.8275862,22.8420676 41.0467642,21.7063621 41.4851268,20.6397039 C41.9234895,19.5730456 42.5659078,18.6176717 43.4124011,17.7735536 C44.2588944,16.9371094 45.218743,16.3001935 46.2919756,15.8627868 C47.3652082,15.4253802 48.5026666,15.2066801 49.7043848,15.2066801 C50.898545,15.2066801 52.030335,15.4253802 53.0997886,15.8627868 C54.1692422,16.3001935 55.1272013,16.9371094 55.9736946,17.7735536 C56.820188,18.6253455 57.4644958,19.5864746 57.9066374,20.6569698 C58.348779,21.727465 58.5698465,22.8574152 58.5698465,24.0468543 Z M63.8608419,26.9513091 C63.8608419,28.0792672 64.1373227,28.9808529 64.6902926,29.6560931 C65.2432625,30.3313334 65.9711405,30.6689484 66.8739484,30.6689484 C67.7993266,30.6689484 68.5159197,30.3543526 69.0237491,29.7251514 C69.5315786,29.0959503 69.7854896,28.2020377 69.7854896,27.0433869 C69.7854896,25.8924092 69.5202937,24.9927418 68.989894,24.3443577 C68.4594943,23.6959736 67.7316163,23.3717865 66.8062382,23.3717865 C65.88086,23.3717865 65.1586245,23.6863823 64.6395099,24.3155834 C64.1203953,24.9447846 63.8608419,25.823351 63.8608419,26.9513091 Z M61.4529638,37.5803573 L61.4529638,21.5021772 L63.9185754,21.5021772 L63.9185754,23.2899232 C64.2064209,22.597889 64.6665881,22.0634929 65.2990907,21.6867187 C65.9315933,21.3099446 66.6871764,21.1215603 67.5658627,21.1215603 C68.9975154,21.1215603 70.1583486,21.6578788 71.0483972,22.7305317 C71.9384458,23.8031847 72.3834634,25.212222 72.3834634,26.957686 C72.3834634,28.7954211 71.9460205,30.2429042 71.0711217,31.3001786 C70.1962229,32.3574531 68.9975158,32.8860823 67.4749646,32.8860823 C66.7174764,32.8860823 66.0452158,32.7322993 65.4581624,32.4247285 C64.8711091,32.1171578 64.3579186,31.6481195 63.9185754,31.0175994 L63.9185754,37.5803573 L61.4529638,37.5803573 Z M85.3733325,27.3388028 L76.7737123,27.3388028 C76.8342201,28.3615578 77.1329726,29.1593716 77.6699788,29.7322681 C78.206985,30.3051647 78.921722,30.5916087 79.8142113,30.5916087 C80.6083754,30.5916087 81.2701689,30.4224337 81.7996117,30.0840787 C82.3290545,29.7457237 82.7904191,29.1997499 83.1837194,28.446141 L85.259881,29.6226878 C84.6548036,30.7223416 83.9060315,31.5413023 83.0135423,32.0795944 C82.121053,32.6178865 81.0735284,32.8870285 79.870937,32.8870285 C78.1464663,32.8870285 76.7737174,32.3525894 75.7526492,31.2836951 C74.7315811,30.2148008 74.2210546,28.7883482 74.2210546,27.0042944 C74.2210546,25.2894496 74.7485986,23.880299 75.8037024,22.7768002 C76.8588062,21.6733014 78.2145375,21.1215603 79.870937,21.1215603 C81.6029712,21.1215603 82.95303,21.6252404 83.9211539,22.6326155 C84.8892778,23.6399907 85.3733325,25.0510638 85.3733325,26.8658771 L85.3733325,27.3388028 Z M82.8070413,25.6541587 C82.7086355,24.8697287 82.4134224,24.2718021 81.9213934,23.8603609 C81.4293643,23.4489196 80.755673,23.2432021 79.9002994,23.2432021 C79.0903438,23.2432021 78.4393613,23.4431519 77.9473322,23.8430573 C77.4553031,24.2429628 77.1108879,24.8466572 76.9140763,25.6541587 L82.8070413,25.6541587 Z M87.9396237,32.4369833 L87.9396237,21.5022015 L90.2565053,21.5022015 L90.2565053,23.2900613 C90.7486558,22.536465 91.3278704,21.9866555 91.9941665,21.6406164 C92.6604625,21.2945773 93.4706058,21.1215603 94.4246207,21.1215603 C95.2272046,21.1215603 95.9105264,21.2503618 96.4746066,21.5079687 C97.0386868,21.7655757 97.4797227,22.1481354 97.7977277,22.6556595 C97.9870163,22.95556 98.1233021,23.3054388 98.2065891,23.7053062 C98.2898761,24.1051737 98.331519,24.8049312 98.331519,25.8045998 L98.331519,32.4369833 L95.8442785,32.4369833 L95.8442785,26.8196428 C95.8442785,25.381658 95.6720284,24.4262198 95.327523,23.9532997 C94.9830177,23.4803796 94.3716245,23.243923 93.4933251,23.243923 C92.9178876,23.243923 92.404923,23.351578 91.954416,23.5668913 C91.503909,23.7822045 91.1499446,24.0859454 90.892512,24.4781231 C90.7107949,24.7395749 90.5839734,25.0759968 90.5120437,25.4873988 C90.440114,25.8988009 90.4041497,26.554343 90.4041497,27.4540447 L90.4041497,32.4369833 L87.9396237,32.4369833 Z M101.689875,32.4369833 L101.689875,14.5637584 L104.161119,14.5637584 L104.161119,32.4369833 L101.689875,32.4369833 Z M117.816323,32.4371723 L115.350711,32.4371723 L115.350711,31.0183953 C114.911368,31.648966 114.398177,32.1180421 113.811124,32.4256376 C113.224071,32.733233 112.55181,32.8870285 111.794322,32.8870285 C110.271771,32.8870285 109.073064,32.3583567 108.198165,31.3009972 C107.323266,30.2436378 106.885823,28.7960383 106.885823,26.9581553 C106.885823,25.212551 107.332734,23.8034003 108.22657,22.7306611 C109.120406,21.6579219 110.286921,21.1215603 111.726148,21.1215603 C112.604835,21.1215603 113.35663,21.3080373 113.981558,21.6809968 C114.606486,22.0539563 115.062866,22.5903179 115.350711,23.2900976 L115.350711,21.5022078 L117.816323,21.5022078 L117.816323,32.4371723 Z M115.408445,26.9513091 C115.408445,25.823351 115.15028,24.9447846 114.633944,24.3155834 C114.117607,23.6863823 113.395878,23.3717865 112.468734,23.3717865 C111.54159,23.3717865 110.812323,23.6959736 110.280911,24.3443577 C109.749499,24.9927418 109.483797,25.8924092 109.483797,27.0433869 C109.483797,28.2020377 109.740077,29.0959503 110.252644,29.7251514 C110.765212,30.3543526 111.488826,30.6689484 112.423508,30.6689484 C113.305425,30.6689484 114.023386,30.3274968 114.577411,29.6445834 C115.131436,28.96167 115.408445,28.0639209 115.408445,26.9513091 Z M121.174679,32.4369833 L121.174679,21.5022015 L123.491561,21.5022015 L123.491561,23.2900613 C123.983711,22.536465 124.562926,21.9866555 125.229222,21.6406164 C125.895518,21.2945773 126.705661,21.1215603 127.659676,21.1215603 C128.46226,21.1215603 129.145582,21.2503618 129.709662,21.5079687 C130.273742,21.7655757 130.714778,22.1481354 131.032783,22.6556595 C131.222072,22.95556 131.358357,23.3054388 131.441644,23.7053062 C131.524931,24.1051737 131.566574,24.8049312 131.566574,25.8045998 L131.566574,32.4369833 L129.079334,32.4369833 L129.079334,26.8196428 C129.079334,25.381658 128.907084,24.4262198 128.562578,23.9532997 C128.218073,23.4803796 127.60668,23.243923 126.728381,23.243923 C126.152943,23.243923 125.639978,23.351578 125.189471,23.5668913 C124.738964,23.7822045 124.385,24.0859454 124.127567,24.4781231 C123.94585,24.7395749 123.819029,25.0759968 123.747099,25.4873988 C123.675169,25.8988009 123.639205,26.554343 123.639205,27.4540447 L123.639205,32.4369833 L121.174679,32.4369833 Z M142.560439,26.9513091 C142.560439,25.823351 142.302275,24.9447846 141.785939,24.3155834 C141.269602,23.6863823 140.547873,23.3717865 139.620729,23.3717865 C138.693584,23.3717865 137.964317,23.6959736 137.432905,24.3443577 C136.901494,24.9927418 136.635792,25.8924092 136.635792,27.0433869 C136.635792,28.2020377 136.892071,29.0959503 137.404639,29.7251514 C137.917206,30.3543526 138.64082,30.6689484 139.575502,30.6689484 C140.464958,30.6689484 141.184803,30.3294151 141.735059,29.6503383 C142.285315,28.9712614 142.560439,28.0715941 142.560439,26.9513091 Z M142.534388,14.5637584 L145,14.5637584 L145,32.4373069 L142.534388,32.4373069 L142.534388,31.0189544 C142.095045,31.6493364 141.581855,32.1182722 140.994801,32.4257756 C140.407748,32.7332791 139.735487,32.8870285 138.977999,32.8870285 C137.455448,32.8870285 136.256741,32.3585149 135.381842,31.3014718 C134.506943,30.2444287 134.0695,28.7972623 134.0695,26.9599292 C134.0695,25.2148471 134.516412,23.806118 135.410248,22.7336998 C136.304084,21.6612815 137.470598,21.1250804 138.909826,21.1250804 C139.788512,21.1250804 140.540308,21.3115016 141.165235,21.6843495 C141.790163,22.0571974 142.246543,22.5933985 142.534388,23.2929689 L142.534388,14.5637584 Z" id="Openland" fill="#000000"></path>
            </g>
        </g>
    </g>
</svg>