<?xml version="1.0" encoding="UTF-8"?>
<svg width="100px" height="24px" viewBox="0 0 100 24" version="1.1" xmlns="http://www.w3.org/2000/svg" xmlns:xlink="http://www.w3.org/1999/xlink">
    <!-- Generator: Sketch 49 (51002) - http://www.bohemiancoding.com/sketch -->
    <title>Logo</title>
    <desc>Created with Sketch.</desc>
    <defs>
        <polygon id="path-1" points="0 6.82105263 14.4285714 0 7.59398496 14.4 6.07518797 8.33684211"></polygon>
    </defs>
    <g id="Visuals" stroke="none" stroke-width="1" fill="none" fill-rule="evenodd">
        <g id="New_Desktop-Left" transform="translate(-84.000000, -32.000000)">
            <g id="Header" transform="translate(84.000000, 22.000000)">
                <g id="Logo" transform="translate(0.000000, 10.000000)">
                    <path d="M31.5039243,13.5706462 C31.5039243,14.6089866 31.3298917,15.5750229 30.9818213,16.4687842 C30.633751,17.3625455 30.1435858,18.1396462 29.5113112,18.8001095 C28.8790365,19.4605729 28.1174444,19.9780923 27.226512,20.3526835 C26.3355796,20.7272746 25.3472661,20.9145674 24.261542,20.9145674 C23.1758179,20.9145674 22.1859078,20.7272746 21.2917821,20.3526835 C20.3976563,19.9780923 19.632871,19.4605729 18.997403,18.8001095 C18.3619351,18.1396462 17.8701733,17.3625455 17.522103,16.4687842 C17.1740326,15.5750229 17,14.6089866 17,13.5706462 C17,12.5323059 17.1740326,11.5662695 17.522103,10.6725082 C17.8701733,9.7787469 18.3619351,9.00328916 18.997403,8.34611172 C19.632871,7.68893428 20.3976563,7.17305773 21.2917821,6.79846659 C22.1859078,6.42387545 23.1758179,6.23658269 24.261542,6.23658269 C25.3472661,6.23658269 26.3355796,6.42551837 27.226512,6.8033954 C28.1174444,7.18127243 28.8790365,7.69879189 29.5113112,8.35596933 C30.1435858,9.01314677 30.633751,9.78860451 30.9818213,10.6823658 C31.3298917,11.5761271 31.5039243,12.5388776 31.5039243,13.5706462 Z M28.189289,13.5706462 C28.189289,12.8608946 28.0998778,12.2217991 27.9210526,11.6533406 C27.7422275,11.0848822 27.4851702,10.6035069 27.149873,10.2092004 C26.8145759,9.81489398 26.4042422,9.51259689 25.9188596,9.30230011 C25.4334771,9.09200333 24.8810434,8.98685652 24.261542,8.98685652 C23.635654,8.98685652 23.0784304,9.09200333 22.5898546,9.30230011 C22.1012787,9.51259689 21.6893484,9.81489398 21.3540512,10.2092004 C21.0187541,10.6035069 20.7616968,11.0848822 20.5828717,11.6533406 C20.4040465,12.2217991 20.3146353,12.8608946 20.3146353,13.5706462 C20.3146353,14.2869696 20.4040465,14.9293509 20.5828717,15.4978094 C20.7616968,16.0662679 21.0187541,16.5476432 21.3540512,16.9419496 C21.6893484,17.3362561 22.1012787,17.6369102 22.5898546,17.8439211 C23.0784304,18.050932 23.635654,18.1544359 24.261542,18.1544359 C24.8810434,18.1544359 25.4334771,18.050932 25.9188596,17.8439211 C26.4042422,17.6369102 26.8145759,17.3362561 27.149873,16.9419496 C27.4851702,16.5476432 27.7422275,16.0662679 27.9210526,15.4978094 C28.0998778,14.9293509 28.189289,14.2869696 28.189289,13.5706462 Z M32.9217452,24 L32.9217452,10.5345016 L34.7610803,10.5345016 C35.1315039,10.5345016 35.3741915,10.7053652 35.4891505,11.0470975 L35.7094875,11.796276 C35.9010859,11.5794075 36.1070511,11.3822572 36.3273892,11.2048193 C36.5477273,11.0273814 36.7840284,10.8745899 37.0362996,10.7464403 C37.2885708,10.6182907 37.5599978,10.5180727 37.8505886,10.4457831 C38.1411795,10.3734936 38.4589087,10.3373494 38.8037858,10.3373494 C39.3211014,10.3373494 39.8000901,10.4556396 40.2407664,10.6922234 C40.6814426,10.9288073 41.0614404,11.2705345 41.380771,11.7174151 C41.7001016,12.1642958 41.9507724,12.7113878 42.1327909,13.3587076 C42.3148093,14.0060273 42.4058172,14.7404121 42.4058172,15.5618839 C42.4058172,16.3307815 42.3020363,17.0405225 42.0944714,17.6911281 C41.8869065,18.3417338 41.59632,18.9068979 41.2227031,19.3866375 C40.8490863,19.866377 40.4020301,20.2409625 39.8815212,20.5104053 C39.3610123,20.779848 38.7846292,20.9145674 38.1523546,20.9145674 C37.635039,20.9145674 37.2007558,20.8389931 36.8494922,20.6878423 C36.4982285,20.5366915 36.1789026,20.3329695 35.8915051,20.0766703 L35.8915051,24 L32.9217452,24 Z M37.7691597,12.6736035 C37.5520149,12.6736035 37.3556295,12.6949615 37.1799977,12.737678 C37.0043659,12.7803945 36.8415097,12.8411825 36.6914243,12.9200438 C36.5413389,12.9989051 36.4024322,13.0991232 36.2746999,13.220701 C36.1469677,13.3422788 36.0192373,13.4819269 35.8915051,13.6396495 L35.8915051,17.9769989 C36.1150365,18.2332981 36.3577241,18.4123763 36.6195753,18.5142388 C36.8814264,18.6161013 37.1560466,18.6670318 37.4434441,18.6670318 C37.7180685,18.6670318 37.9703359,18.6111725 38.2002539,18.4994524 C38.430172,18.3877322 38.6297506,18.208654 38.7989958,17.9622125 C38.9682411,17.7157709 39.1007613,17.3954018 39.1965605,17.0010953 C39.2923597,16.6067888 39.3402585,16.1270565 39.3402585,15.5618839 C39.3402585,15.0229984 39.3019394,14.5695528 39.2253001,14.2015334 C39.1486607,13.833514 39.0416866,13.5361457 38.9043744,13.3094195 C38.7670623,13.0826933 38.6026095,12.9200443 38.4110111,12.8214677 C38.2194127,12.7228911 38.0054644,12.6736035 37.7691597,12.6736035 Z M48.3165974,10.3767798 C48.9744185,10.3767798 49.5763477,10.4819267 50.122403,10.6922234 C50.6684584,10.9025202 51.1378674,11.2081031 51.530644,11.6089814 C51.9234207,12.0098596 52.2299735,12.5010924 52.4503116,13.0826944 C52.6706498,13.6642964 52.7808172,14.3231069 52.7808172,15.0591457 C52.7808172,15.2891578 52.7712374,15.4764505 52.7520776,15.6210296 C52.7329177,15.7656086 52.6977919,15.8806129 52.646699,15.966046 C52.5956061,16.0514791 52.526951,16.1106242 52.4407318,16.143483 C52.3545125,16.1763419 52.2443451,16.1927711 52.1102262,16.1927711 L46.3814635,16.1927711 C46.4772627,17.0471018 46.7295301,17.6664822 47.1382733,18.050931 C47.5470165,18.4353798 48.0739041,18.6276013 48.718952,18.6276013 C49.0638291,18.6276013 49.3608021,18.5848854 49.60988,18.4994524 C49.8589578,18.4140193 50.0808893,18.31873 50.275681,18.2135816 C50.4704727,18.1084332 50.6492951,18.0131439 50.8121537,17.9277108 C50.9750124,17.8422778 51.1458517,17.7995619 51.3246768,17.7995619 C51.5609815,17.7995619 51.7398039,17.8882795 51.8611496,18.0657174 L52.723338,19.1599124 C52.4167806,19.52136 52.0862783,19.8154425 51.7318213,20.0421687 C51.3773643,20.2688949 51.0133329,20.4463301 50.6397161,20.5744797 C50.2660992,20.7026293 49.892488,20.791347 49.5188712,20.8406353 C49.1452544,20.8899236 48.7892061,20.9145674 48.4507156,20.9145674 C47.7545749,20.9145674 47.1015535,20.7979201 46.491632,20.5646221 C45.8817106,20.3313241 45.3484364,19.9846682 44.8917936,19.524644 C44.4351508,19.0646198 44.0743127,18.492884 43.8092682,17.8094195 C43.5442238,17.125955 43.4117036,16.3307822 43.4117036,15.4238773 C43.4117036,14.7404128 43.5250643,14.0931027 43.751789,13.4819277 C43.9785138,12.8707527 44.3042261,12.3351611 44.7289358,11.8751369 C45.1536456,11.4151127 45.6677601,11.0503847 46.271295,10.7809419 C46.8748299,10.5114992 47.5565905,10.3767798 48.3165974,10.3767798 Z M48.3740766,12.4863089 C47.8056681,12.4863089 47.3618052,12.6522437 47.0424746,12.9841183 C46.723144,13.3159929 46.5123889,13.7940823 46.4102031,14.4184009 L50.1176131,14.4184009 C50.1176131,14.1752452 50.0872772,13.9386649 50.0266043,13.7086528 C49.9659315,13.4786407 49.8669405,13.2732758 49.7296283,13.092552 C49.5923162,12.9118282 49.4118971,12.7656084 49.1883657,12.6538883 C48.9648342,12.5421681 48.6934073,12.4863089 48.3740766,12.4863089 Z M54.2656971,20.7568456 L54.2656971,10.5345016 L56.1050323,10.5345016 C56.4754558,10.5345016 56.7181435,10.7053652 56.8331025,11.0470975 L57.0055402,11.6385542 C57.1971385,11.4545445 57.3951206,11.283681 57.5994922,11.1259584 C57.8038637,10.9682358 58.0226019,10.8351594 58.2557133,10.7267251 C58.4888246,10.6182908 58.7410921,10.532859 59.0125231,10.4704272 C59.2839541,10.4079953 59.5793305,10.3767798 59.8986611,10.3767798 C60.4415232,10.3767798 60.9221086,10.4737121 61.3404317,10.6675794 C61.7587548,10.8614468 62.1116098,11.1308855 62.3990074,11.4759036 C62.6864049,11.8209218 62.9035465,12.2316515 63.0504386,12.7081051 C63.1973307,13.1845588 63.2707756,13.7020783 63.2707756,14.2606791 L63.2707756,20.7568456 L60.3010157,20.7568456 L60.3010157,14.2606791 C60.3010157,13.7612242 60.1892517,13.3718524 59.9657202,13.092552 C59.7421888,12.8132516 59.4132832,12.6736035 58.9789935,12.6736035 C58.6532763,12.6736035 58.3467235,12.7458919 58.0593259,12.890471 C57.7719284,13.03505 57.4973082,13.2289144 57.2354571,13.4720701 L57.2354571,20.7568456 L54.2656971,20.7568456 Z M68.1565097,6 L68.1565097,20.7568456 L65.1867498,20.7568456 L65.1867498,6 L68.1565097,6 Z M76.8262927,20.7568456 C76.5452818,20.7568456 76.3329301,20.7174155 76.1892313,20.6385542 C76.0455325,20.5596929 75.9257853,20.395401 75.8299861,20.1456736 L75.619229,19.5837897 C75.3701511,19.8006583 75.1306567,19.9912369 74.9007387,20.1555312 C74.6708206,20.3198256 74.4329229,20.4594737 74.1870383,20.5744797 C73.9411537,20.6894858 73.6793066,20.7749176 73.4014889,20.8307777 C73.1236713,20.8866377 72.8155219,20.9145674 72.4770314,20.9145674 C72.0235819,20.9145674 71.6116516,20.8537794 71.2412281,20.7322015 C70.8708045,20.6106237 70.5562686,20.4315455 70.2976108,20.1949617 C70.038953,19.9583778 69.8393744,19.6642953 69.6988689,19.3127054 C69.5583634,18.9611154 69.4881117,18.5553145 69.4881117,18.0952903 C69.4881117,17.7338427 69.577523,17.362543 69.7563481,16.9813801 C69.9351733,16.6002172 70.2449193,16.2535613 70.6855956,15.941402 C71.1262718,15.6292427 71.7202179,15.3680186 72.4674515,15.1577218 C73.2146852,14.947425 74.1566964,14.8291349 75.2935134,14.8028478 L75.2935134,14.3691128 C75.2935134,13.7710813 75.1737662,13.3389937 74.9342682,13.0728368 C74.6947703,12.8066799 74.3546883,12.6736035 73.914012,12.6736035 C73.5627483,12.6736035 73.2753551,12.7130336 73.0518236,12.7918949 C72.8282922,12.8707561 72.6287136,12.9594738 72.4530817,13.0580504 C72.2774499,13.156627 72.1066106,13.2453446 71.9405586,13.3242059 C71.7745067,13.4030672 71.5765247,13.4424973 71.3466066,13.4424973 C71.1422351,13.4424973 70.9697991,13.3899239 70.8292936,13.2847755 C70.6887882,13.1796271 70.5738309,13.0547652 70.4844183,12.9101862 L69.9479455,11.9539978 C70.5482871,11.4085405 71.2140814,11.0027396 71.9453486,10.7365827 C72.6766157,10.4704258 73.4605606,10.3373494 74.2972068,10.3373494 C74.8975484,10.3373494 75.4388057,10.4375675 75.9209949,10.6380066 C76.4031842,10.8384457 76.8119212,11.1177419 77.1472184,11.4759036 C77.4825155,11.8340653 77.7395728,12.2595813 77.918398,12.7524644 C78.0972231,13.2453475 78.1866343,13.7842249 78.1866343,14.3691128 L78.1866343,20.7568456 L76.8262927,20.7568456 Z M73.4158587,18.8937568 C73.7990555,18.8937568 74.1343476,18.8247542 74.4217452,18.686747 C74.7091427,18.5487397 74.9997292,18.3253027 75.2935134,18.0164294 L75.2935134,16.5969332 C74.6995584,16.6232203 74.2109899,16.6757937 73.8277932,16.754655 C73.4445964,16.8335163 73.1412369,16.9320914 72.9177054,17.0503834 C72.694174,17.1686753 72.539301,17.3033946 72.4530817,17.4545455 C72.3668624,17.6056963 72.3237535,17.7699882 72.3237535,17.9474261 C72.3237535,18.2957301 72.416358,18.540525 72.6015697,18.6818182 C72.7867815,18.8231113 73.0582084,18.8937568 73.4158587,18.8937568 Z M80.0834488,20.7568456 L80.0834488,10.5345016 L81.9227839,10.5345016 C82.2932075,10.5345016 82.5358951,10.7053652 82.6508541,11.0470975 L82.8232918,11.6385542 C83.0148902,11.4545445 83.2128722,11.283681 83.4172438,11.1259584 C83.6216154,10.9682358 83.8403536,10.8351594 84.0734649,10.7267251 C84.3065763,10.6182908 84.5588437,10.532859 84.8302747,10.4704272 C85.1017057,10.4079953 85.3970821,10.3767798 85.7164127,10.3767798 C86.2592748,10.3767798 86.7398602,10.4737121 87.1581833,10.6675794 C87.5765064,10.8614468 87.9293614,11.1308855 88.216759,11.4759036 C88.5041566,11.8209218 88.7212981,12.2316515 88.8681902,12.7081051 C89.0150823,13.1845588 89.0885272,13.7020783 89.0885272,14.2606791 L89.0885272,20.7568456 L86.1187673,20.7568456 L86.1187673,14.2606791 C86.1187673,13.7612242 86.0070033,13.3718524 85.7834718,13.092552 C85.5599404,12.8132516 85.2310348,12.6736035 84.7967452,12.6736035 C84.4710279,12.6736035 84.1644751,12.7458919 83.8770776,12.890471 C83.58968,13.03505 83.3150598,13.2289144 83.0532087,13.4720701 L83.0532087,20.7568456 L80.0834488,20.7568456 Z M98.1606648,20.7568456 C97.7902413,20.7568456 97.5475537,20.585982 97.4325946,20.2442497 L97.2026777,19.4654984 C97.0046928,19.6823669 96.797131,19.8795172 96.5799861,20.0569551 C96.3628413,20.234393 96.1281368,20.3871845 95.8758657,20.5153341 C95.6235945,20.6434837 95.3521675,20.7420588 95.0615766,20.8110624 C94.7709858,20.8800661 94.4564498,20.9145674 94.1179594,20.9145674 C93.6006438,20.9145674 93.121655,20.7962772 92.6809788,20.5596933 C92.2403025,20.3231094 91.8603048,19.9813823 91.5409741,19.5345016 C91.2216435,19.087621 90.9709727,18.540529 90.7889543,17.8932092 C90.6069358,17.2458894 90.515928,16.5082188 90.515928,15.6801752 C90.515928,14.9178494 90.6181122,14.2097514 90.8224838,13.5558598 C91.0268554,12.9019683 91.3158453,12.3368041 91.6894621,11.8603505 C92.063079,11.3838969 92.5117318,11.0109542 93.035434,10.7415115 C93.5591362,10.4720688 94.137116,10.3373494 94.7693906,10.3373494 C95.2803196,10.3373494 95.7130061,10.4145666 96.0674631,10.5690033 C96.4219201,10.72344 96.7428425,10.925519 97.0302401,11.1752464 L97.0302401,6 L100,6 L100,20.7568456 L98.1606648,20.7568456 Z M95.1525854,18.5684556 C95.3697302,18.5684556 95.5661156,18.5470977 95.7417475,18.5043812 C95.9173793,18.4616646 96.0786388,18.4008766 96.2255309,18.3220153 C96.372423,18.243154 96.5113298,18.1445789 96.6422553,18.026287 C96.7731809,17.907995 96.9025078,17.7699898 97.0302401,17.6122673 L97.0302401,13.2749179 C96.800322,13.0186187 96.5560378,12.8395405 96.29738,12.737678 C96.0387222,12.6358155 95.7656986,12.584885 95.478301,12.584885 C95.2036767,12.584885 94.9514093,12.6407442 94.7214912,12.7524644 C94.4915732,12.8641846 94.2919945,13.0432627 94.1227493,13.2897043 C93.9535041,13.5361458 93.8209839,13.856515 93.7251847,14.2508215 C93.6293855,14.6451279 93.5814866,15.1215744 93.5814866,15.6801752 C93.5814866,16.2190607 93.6198057,16.6725064 93.6964451,17.0405257 C93.7730844,17.4085451 93.8800586,17.7059134 94.0173707,17.9326396 C94.1546829,18.1593659 94.3191357,18.3220148 94.5107341,18.4205915 C94.7023324,18.5191681 94.9162808,18.5684556 95.1525854,18.5684556 Z" id="Openland" fill="#1B1038"></path>
                    <g id="Group-9">
                        <mask id="mask-2" fill="white">
                            <use xlink:href="#path-1"></use>
                        </mask>
                        <use id="Shape" fill="#6B50FF" xlink:href="#path-1"></use>
                        <polygon id="Path-2" fill="#7F68FF" mask="url(#mask-2)" points="-1.95617557 6.95188449 5.6292915 8.65644838 18.3312003 -3.79459571 -1.04773603 4.2506283"></polygon>
                    </g>
                </g>
            </g>
        </g>
    </g>
</svg>