<?xml version="1.0" encoding="UTF-8"?>
<svg width="100px" height="24px" viewBox="0 0 100 24" version="1.1" xmlns="http://www.w3.org/2000/svg" xmlns:xlink="http://www.w3.org/1999/xlink">
    <!-- Generator: Sketch 49.2 (51160) - http://www.bohemiancoding.com/sketch -->
    <title>Logo</title>
    <desc>Created with Sketch.</desc>
    <defs>
        <polygon id="path-1" points="0 6.75417957 14.402574 0 7.58030211 14.2588235 6.06424169 8.25510836"></polygon>
        <linearGradient x1="100%" y1="0%" x2="34.1910063%" y2="65.2831179%" id="linearGradient-3">
            <stop stop-color="#46A4F8" offset="0%"></stop>
            <stop stop-color="#5C69F1" offset="100%"></stop>
        </linearGradient>
    </defs>
    <g id="Socials" stroke="none" stroke-width="1" fill="none" fill-rule="evenodd">
        <g id="Logo">
            <path d="M31.6005756,13.6225336 C31.6005756,14.655708 31.4267886,15.6169382 31.0792094,16.506253 C30.7316302,17.3955677 30.2421567,18.1688022 29.6107742,18.8259796 C28.9793918,19.4831571 28.2188743,19.9981018 27.329199,20.3708293 C26.4395237,20.7435568 25.4526048,20.9299178 24.3684127,20.9299178 C23.2842206,20.9299178 22.2957074,20.7435568 21.4028433,20.3708293 C20.5099792,19.9981018 19.746273,19.4831571 19.1117017,18.8259796 C18.4771305,18.1688022 17.9860626,17.3955677 17.6384834,16.506253 C17.2909041,15.6169382 17.1171171,14.655708 17.1171171,13.6225336 C17.1171171,12.5893591 17.2909041,11.6281289 17.6384834,10.7388141 C17.9860626,9.8494994 18.4771305,9.07789966 19.1117017,8.42399176 C19.746273,7.77008386 20.5099792,7.25677386 21.4028433,6.88404636 C22.2957074,6.51131886 23.2842206,6.3249579 24.3684127,6.3249579 C25.4526048,6.3249579 26.4395237,6.51295361 27.329199,6.88895065 C28.2188743,7.26494769 28.9793918,7.77989243 29.6107742,8.43380033 C30.2421567,9.08770823 30.7316302,9.85930797 31.0792094,10.7486227 C31.4267886,11.6379375 31.6005756,12.5958982 31.6005756,13.6225336 Z M28.2906175,13.6225336 C28.2906175,12.916313 28.2013324,12.2803971 28.0227596,11.7147668 C27.8441868,11.1491365 27.5874922,10.6701561 27.2526682,10.2778114 C26.9178441,9.88546664 26.5080895,9.58467352 26.0233918,9.37542299 C25.5386942,9.16617247 24.98704,9.06154877 24.3684127,9.06154877 C23.7434079,9.06154877 23.1869706,9.16617247 22.6990841,9.37542299 C22.2111977,9.58467352 21.7998486,9.88546664 21.4650246,10.2778114 C21.1302006,10.6701561 20.873506,11.1491365 20.6949332,11.7147668 C20.5163603,12.2803971 20.4270753,12.916313 20.4270753,13.6225336 C20.4270753,14.3352932 20.5163603,14.9744785 20.6949332,15.5401089 C20.873506,16.1057392 21.1302006,16.5847196 21.4650246,16.9770643 C21.7998486,17.369409 22.2111977,17.6685674 22.6990841,17.8745484 C23.1869706,18.0805294 23.7434079,18.1835183 24.3684127,18.1835183 C24.98704,18.1835183 25.5386942,18.0805294 26.0233918,17.8745484 C26.5080895,17.6685674 26.9178441,17.369409 27.2526682,16.9770643 C27.5874922,16.5847196 27.8441868,16.1057392 28.0227596,15.5401089 C28.2013324,14.9744785 28.2906175,14.3352932 28.2906175,13.6225336 Z M33.0163959,24 L33.0163959,10.6014942 L34.8531357,10.6014942 C35.2230365,10.6014942 35.4653817,10.7715077 35.5801785,11.1115398 L35.8002046,11.8569911 C35.9915327,11.6412015 36.1972072,11.445032 36.4172344,11.2684769 C36.6372616,11.0919218 36.8732293,10.9398905 37.1251445,10.8123784 C37.3770598,10.6848664 37.6481037,10.5851469 37.9382845,10.513217 C38.2284654,10.4412872 38.5457462,10.4053228 38.8901367,10.4053228 C39.4067223,10.4053228 39.8850352,10.5230244 40.3250896,10.7584313 C40.7651441,10.9938381 41.1446056,11.3338651 41.4634856,11.7785225 C41.7823657,12.2231799 42.0326827,12.76755 42.2144444,13.4116493 C42.396206,14.0557486 42.4870854,14.7864797 42.4870854,15.6038646 C42.4870854,16.3689368 42.383451,17.0751468 42.1761789,17.7225156 C41.9689069,18.3698844 41.6787305,18.9322367 41.3056408,19.4095895 C40.9325512,19.8869423 40.4861258,20.2596642 39.9663514,20.5277664 C39.4465769,20.7958687 38.8710071,20.9299178 38.2396247,20.9299178 C37.723039,20.9299178 37.2893687,20.8547195 36.9386007,20.7043207 C36.5878326,20.5539219 36.2689574,20.3512135 35.9819653,20.0961894 L35.9819653,24 L33.0163959,24 Z M37.8569705,12.7299537 C37.6401321,12.7299537 37.4440238,12.7512054 37.2686398,12.7937094 C37.0932558,12.8362135 36.9306294,12.896699 36.7807558,12.975168 C36.6308822,13.0536369 36.4921715,13.1533564 36.3646195,13.2743293 C36.2370675,13.3953023 36.1095174,13.5342556 35.9819653,13.6911935 L35.9819653,18.0069641 C36.2051814,18.2619882 36.4475266,18.4401754 36.7090082,18.5415311 C36.9704898,18.6428868 37.2447225,18.6935639 37.5317145,18.6935639 C37.8059514,18.6935639 38.0578628,18.6379826 38.2874564,18.5268183 C38.5170501,18.4156539 38.7163471,18.2374667 38.8853535,17.9922512 C39.0543599,17.7470358 39.1866931,17.4282605 39.2823571,17.0359157 C39.3780212,16.643571 39.4258524,16.1662254 39.4258524,15.6038646 C39.4258524,15.0676601 39.3875874,14.6164704 39.3110562,14.250282 C39.234525,13.8840936 39.1277018,13.5882047 38.9905834,13.3626065 C38.853465,13.1370082 38.6892442,12.9751685 38.4979162,12.8770823 C38.3065882,12.7789961 38.0929418,12.7299537 37.8569705,12.7299537 Z M48.3895253,10.4445571 C49.0464181,10.4445571 49.647498,10.5491808 50.1927828,10.7584313 C50.7380677,10.9676818 51.2068143,11.2717444 51.5990367,11.6706282 C51.9912591,12.0695121 52.2973794,12.5583009 52.5174066,13.1370094 C52.7374338,13.7157179 52.8474458,14.3712507 52.8474458,15.1036275 C52.8474458,15.3324953 52.8378795,15.5188563 52.8187467,15.662716 C52.7996139,15.8065757 52.7645376,15.9210079 52.7135168,16.0060159 C52.662496,16.0910239 52.5939379,16.1498748 52.5078403,16.1825702 C52.4217426,16.2152656 52.3117307,16.231613 52.1778011,16.231613 L46.4571219,16.231613 C46.552786,17.0816933 46.8046974,17.6979922 47.2128638,18.0805284 C47.6210303,18.4630645 48.1471744,18.6543297 48.7913121,18.6543297 C49.1357025,18.6543297 49.4322565,18.6118263 49.6809829,18.5268183 C49.9297093,18.4418102 50.1513276,18.346995 50.3458445,18.2423698 C50.5403613,18.1377445 50.7189314,18.0429293 50.8815602,17.9579212 C51.044189,17.8729132 51.2147873,17.8304098 51.3933601,17.8304098 C51.6293313,17.8304098 51.8079015,17.9186861 51.9290759,18.0952412 L52.7900477,19.1839924 C52.4839228,19.5436418 52.153887,19.8362612 51.7999301,20.0618594 C51.4459733,20.2874576 51.0824555,20.4640101 50.7093659,20.5915221 C50.3362762,20.7190342 49.9631922,20.8073104 49.5901026,20.8563535 C49.2170129,20.9053966 48.861467,20.9299178 48.5234542,20.9299178 C47.8282957,20.9299178 47.1761959,20.8138509 46.567135,20.5817136 C45.9580741,20.3495763 45.4255525,20.004645 44.969554,19.5469095 C44.5135556,19.089174 44.1532266,18.5202826 43.8885561,17.8402184 C43.6238857,17.1601542 43.4915525,16.3689375 43.4915525,15.4665446 C43.4915525,14.7864804 43.6047532,14.1423908 43.831158,13.5342564 C44.0575628,12.9261221 44.3828156,12.3931951 44.806926,11.9354596 C45.2310365,11.4777241 45.7444256,11.1148106 46.3471089,10.8467084 C46.9497921,10.5786062 47.6305908,10.4445571 48.3895253,10.4445571 Z M48.4469234,12.5435909 C47.8793169,12.5435909 47.4360803,12.7087002 47.1172003,13.0389237 C46.7983203,13.3691472 46.5878626,13.844858 46.485821,14.4660705 L50.1879996,14.4660705 C50.1879996,14.2241246 50.1577065,13.9887213 50.0971193,13.7598535 C50.0365321,13.5309858 49.9376807,13.3266426 49.8005623,13.1468179 C49.6634439,12.9669933 49.4832794,12.8215009 49.2600634,12.7103366 C49.0368474,12.5991723 48.7658034,12.5435909 48.4469234,12.5435909 Z M54.3302305,20.7729807 L54.3302305,10.6014942 L56.1669703,10.6014942 C56.5368711,10.6014942 56.7792163,10.7715077 56.8940131,11.1115398 L57.0662075,11.7000539 C57.2575355,11.5169597 57.4552382,11.3469462 57.6593214,11.1900083 C57.8634046,11.0330704 58.0818341,10.9006561 58.3146166,10.7927613 C58.547399,10.6848665 58.7993104,10.5998597 59.0703584,10.5377385 C59.3414065,10.4756172 59.6363661,10.4445571 59.9552461,10.4445571 C60.4973422,10.4445571 60.9772494,10.541007 61.3949822,10.7339099 C61.8127151,10.9268127 62.1650722,11.1949109 62.4520643,11.5382126 C62.7390563,11.8815142 62.9558914,12.2902005 63.1025763,12.7642837 C63.2492611,13.238367 63.3226024,13.7533117 63.3226024,14.3091334 L63.3226024,20.7729807 L60.3570329,20.7729807 L60.3570329,14.3091334 C60.3570329,13.8121634 60.2454266,13.4247288 60.0222106,13.1468179 C59.7989946,12.8689071 59.4705531,12.7299537 59.0368762,12.7299537 C58.7116186,12.7299537 58.4054983,12.8018825 58.1185063,12.9457423 C57.8315143,13.089602 57.5572816,13.2825019 57.2958,13.5244479 L57.2958,20.7729807 L54.3302305,20.7729807 Z M68.2014424,6.08955224 L68.2014424,20.7729807 L65.235873,20.7729807 L65.235873,6.08955224 L68.2014424,6.08955224 Z M76.858992,20.7729807 C76.5783775,20.7729807 76.3663255,20.7337468 76.2228295,20.6552778 C76.0793335,20.5768089 75.9597552,20.4133344 75.8640912,20.1648494 L75.6536315,19.6057609 C75.404905,19.8215505 75.1657486,20.011181 74.936155,20.1746579 C74.7065614,20.3381349 74.4689993,20.4770882 74.2234617,20.5915221 C73.9779241,20.705956 73.7164464,20.7909628 73.4390207,20.8465449 C73.1615951,20.9021271 72.8538805,20.9299178 72.5158677,20.9299178 C72.063058,20.9299178 71.651709,20.8694322 71.2818081,20.7484592 C70.9119073,20.6274863 70.5978152,20.449299 70.3395223,20.2138922 C70.0812295,19.9784854 69.8819325,19.685866 69.7416253,19.3360252 C69.6013181,18.9861845 69.5311655,18.5824024 69.5311655,18.1246669 C69.5311655,17.7650176 69.6204506,17.3955652 69.7990234,17.0162986 C69.9775962,16.637032 70.2869052,16.2921008 70.7269596,15.9814945 C71.1670141,15.6708882 71.760122,15.4109638 72.5063013,15.2017132 C73.2524806,14.9924627 74.1931626,14.874761 75.3283755,14.8486047 L75.3283755,14.4170277 C75.3283755,13.8219715 75.2087972,13.3920335 74.9696372,13.1272008 C74.7304772,12.8623681 74.3908751,12.7299537 73.9508206,12.7299537 C73.6000526,12.7299537 73.3130649,12.7691876 73.0898489,12.8476566 C72.8666328,12.9261255 72.6673358,13.0144018 72.4919518,13.1124879 C72.3165678,13.2105741 72.1459695,13.2988504 71.9801519,13.3773193 C71.8143343,13.4557883 71.6166316,13.4950222 71.387038,13.4950222 C71.1829548,13.4950222 71.0107622,13.4427103 70.8704549,13.338085 C70.7301477,13.2334598 70.6153526,13.1092191 70.5260662,12.9653594 L69.9903505,12.0139282 C70.5898449,11.4711846 71.2546998,11.0674025 71.9849351,10.8025698 C72.7151703,10.5377371 73.4980091,10.4053228 74.3334747,10.4053228 C74.9329692,10.4053228 75.4734627,10.5050422 75.9549716,10.7044842 C76.4364804,10.9039261 76.8446408,11.1818327 77.1794648,11.5382126 C77.5142888,11.8945924 77.7709834,12.3179914 77.9495562,12.8084223 C78.128129,13.2988532 78.2174141,13.8350496 78.2174141,14.4170277 L78.2174141,20.7729807 L76.858992,20.7729807 Z M73.4533703,18.919161 C73.8360263,18.919161 74.1708453,18.8505017 74.4578373,18.7131811 C74.7448294,18.5758604 75.0350058,18.3535351 75.3283755,18.0461984 L75.3283755,16.6337644 C74.7352586,16.6599207 74.2473795,16.7122325 73.8647234,16.7907015 C73.4820674,16.8691704 73.1791359,16.9672551 72.9559199,17.0849586 C72.7327039,17.202662 72.5780494,17.3367111 72.4919518,17.4871099 C72.4058542,17.6375087 72.362806,17.8009832 72.362806,17.9775384 C72.362806,18.3241096 72.4552798,18.5676866 72.6402303,18.7082768 C72.8251807,18.848867 73.0962246,18.919161 73.4533703,18.919161 Z M80.111552,20.7729807 L80.111552,10.6014942 L81.9482918,10.6014942 C82.3181926,10.6014942 82.5605378,10.7715077 82.6753346,11.1115398 L82.847529,11.7000539 C83.038857,11.5169597 83.2365596,11.3469462 83.4406429,11.1900083 C83.6447261,11.0330704 83.8631556,10.9006561 84.095938,10.7927613 C84.3287205,10.6848665 84.5806319,10.5998597 84.8516799,10.5377385 C85.122728,10.4756172 85.4176876,10.4445571 85.7365676,10.4445571 C86.2786636,10.4445571 86.7585709,10.541007 87.1763037,10.7339099 C87.5940366,10.9268127 87.9463937,11.1949109 88.2333857,11.5382126 C88.5203778,11.8815142 88.7372129,12.2902005 88.8838977,12.7642837 C89.0305826,13.238367 89.1039239,13.7533117 89.1039239,14.3091334 L89.1039239,20.7729807 L86.1383544,20.7729807 L86.1383544,14.3091334 C86.1383544,13.8121634 86.0267481,13.4247288 85.8035321,13.1468179 C85.580316,12.8689071 85.2518745,12.7299537 84.8181977,12.7299537 C84.4929401,12.7299537 84.1868198,12.8018825 83.8998278,12.9457423 C83.6128358,13.089602 83.3386031,13.2825019 83.0771214,13.5244479 L83.0771214,20.7729807 L80.111552,20.7729807 Z M98.1632602,20.7729807 C97.7933594,20.7729807 97.5510142,20.6029672 97.4362174,20.2629351 L97.2066249,19.4880581 C97.0089193,19.7038477 96.8016504,19.9000171 96.584812,20.0765722 C96.3679735,20.2531274 96.1336002,20.4051587 95.881685,20.5326707 C95.6297698,20.6601827 95.3587258,20.7582675 95.068545,20.8269278 C94.7783642,20.8955881 94.4642721,20.9299178 94.1262592,20.9299178 C93.6096736,20.9299178 93.1313607,20.8122161 92.6913063,20.5768093 C92.2512518,20.3414024 91.8717903,20.0013754 91.5529103,19.5567181 C91.2340302,19.1120607 90.9837132,18.5676905 90.8019515,17.9235912 C90.6201899,17.279492 90.5293105,16.5454914 90.5293105,15.7215674 C90.5293105,14.9630342 90.6313506,14.2584591 90.8354338,13.6078207 C91.039517,12.9571823 91.3280991,12.39483 91.7011887,11.9207468 C92.0742784,11.4466635 92.5222981,11.0755764 93.0452613,10.8074741 C93.5682246,10.5393719 94.1453888,10.4053228 94.7767712,10.4053228 C95.2869793,10.4053228 95.7190552,10.4821558 96.0730121,10.6358242 C96.4269689,10.7894925 96.7474385,10.9905662 97.0344306,11.2390512 L97.0344306,6.08955224 L100,6.08955224 L100,20.7729807 L98.1632602,20.7729807 Z M95.1594254,18.5954782 C95.3762638,18.5954782 95.5723721,18.5742266 95.7477561,18.5317225 C95.9231401,18.4892185 96.0841721,18.428733 96.2308569,18.350264 C96.3775417,18.2717951 96.5162524,18.1737104 96.6469933,18.0560069 C96.7777341,17.9383035 96.9068785,17.8009849 97.0344306,17.644047 L97.0344306,13.3282765 C96.8048369,13.0732524 96.5608974,12.8950652 96.3026045,12.7937094 C96.0443117,12.6923537 95.7716734,12.6416766 95.4846814,12.6416766 C95.2104445,12.6416766 94.9585331,12.6972579 94.7289395,12.8084223 C94.4993458,12.9195866 94.3000488,13.0977739 94.1310424,13.3429893 C93.962036,13.5882048 93.8297028,13.9069801 93.7340387,14.2993248 C93.6383747,14.6916696 93.5905435,15.1657457 93.5905435,15.7215674 C93.5905435,16.2577719 93.6288085,16.7089616 93.7053397,17.07515 C93.7818709,17.4413384 93.8886941,17.7372273 94.0258125,17.9628255 C94.1629309,18.1884237 94.3271517,18.3502635 94.5184797,18.4483497 C94.7098077,18.5464359 94.9234541,18.5954782 95.1594254,18.5954782 Z" id="Openland" fill="#1B1038"></path>
            <g id="Group-9" transform="translate(0.180180, 0.179104)">
                <mask id="mask-2" fill="white">
                    <use xlink:href="#path-1"></use>
                </mask>
                <use id="Shape" fill="#6B50FF" xlink:href="#path-1"></use>
                <polygon id="Path-2" fill="#7F68FF" mask="url(#mask-2)" points="-1.95265093 6.88372876 5.61914864 8.57158124 18.2981711 -3.75739379 -1.04584822 4.20895547"></polygon>
            </g>
            <path d="M0.369661892,6.88867549 L14.1162466,0.211434001 C14.2816609,0.131085954 14.4808906,0.200045778 14.5612387,0.365460081 C14.6046085,0.454746552 14.6058818,0.558726909 14.5647112,0.649048581 L8.25338915,14.4950911 C8.17711575,14.6624229 7.97963472,14.7362403 7.81230292,14.6599669 C7.73875655,14.6264429 7.67991502,14.5673117 7.64675258,14.4936016 C6.63432861,12.2432886 5.71004966,10.7171849 4.87391574,9.9152906 C4.0468418,9.12208526 2.5545912,8.31682872 0.397163961,7.49952096 L0.397180358,7.49947768 C0.225234932,7.43433883 0.138651096,7.24214405 0.203789946,7.07019862 C0.233891117,6.9907413 0.293233276,6.92579979 0.369661892,6.88867549 Z" id="logo" fill="url(#linearGradient-3)"></path>
        </g>
    </g>
</svg>